<?xml version="1.0" encoding="UTF-8" standalone="no"?>
<svg
   xmlns:dc="http://purl.org/dc/elements/1.1/"
   xmlns:cc="http://creativecommons.org/ns#"
   xmlns:rdf="http://www.w3.org/1999/02/22-rdf-syntax-ns#"
   xmlns:svg="http://www.w3.org/2000/svg"
   xmlns="http://www.w3.org/2000/svg"
   xmlns:sodipodi="http://sodipodi.sourceforge.net/DTD/sodipodi-0.dtd"
   xmlns:inkscape="http://www.inkscape.org/namespaces/inkscape"
   width="32"
   height="32"
   version="1.1"
   id="svg12"
   sodipodi:docname="akregator.svg"
   inkscape:version="1.0.1 (3bc2e813f5, 2020-09-07)">
  <metadata
     id="metadata18">
    <rdf:RDF>
      <cc:Work
         rdf:about="">
        <dc:format>image/svg+xml</dc:format>
        <dc:type
           rdf:resource="http://purl.org/dc/dcmitype/StillImage" />
      </cc:Work>
    </rdf:RDF>
  </metadata>
  <defs
     id="defs16" />
  <sodipodi:namedview
     pagecolor="#ffffff"
     bordercolor="#666666"
     borderopacity="1"
     objecttolerance="10"
     gridtolerance="10"
     guidetolerance="10"
     inkscape:pageopacity="0"
     inkscape:pageshadow="2"
     inkscape:window-width="1920"
     inkscape:window-height="1007"
     id="namedview14"
     showgrid="false"
     inkscape:zoom="9.8125"
     inkscape:cx="-4.5551972"
     inkscape:cy="10.309153"
     inkscape:window-x="0"
     inkscape:window-y="0"
     inkscape:window-maximized="1"
     inkscape:current-layer="svg12"
     inkscape:document-rotation="0">
    <inkscape:grid
       type="xygrid"
       id="grid858"
       originx="0"
       originy="-1.3897705e-07" />
  </sodipodi:namedview>
  <g
     id="akregator"
     transform="translate(32,10.000003)">
    <rect
       style="opacity:0.00100002"
       width="32"
       height="32"
       x="-32"
       y="-10.000003"
       id="rect7" />
    <path
       id="path2997"
       d="m -26.5,-6.0000027 c -0.828428,0 -1.5,0.671572 -1.5,1.5 0,0.828427 0.671572,1.5 1.5,1.5 10.769542,0 19.5,8.730458 19.5,19.4999997 0,0.828432 0.671568,1.5 1.5,1.5 0.828432,0 1.5,-0.671568 1.5,-1.5 C -4,4.0735913 -14.073594,-6.0000027 -26.5,-6.0000027 Z m 0,6.0000000242187 c -0.828428,0 -1.5,0.6715729957813 -1.5,1.4999999757813 0,0.828429 0.671572,1.5 1.5,1.5 7.455843,0 13.5,6.044157 13.5,13.4999997 0,0.828432 0.671568,1.5 1.5,1.5 0.828432,0 1.5,-0.671568 1.5,-1.5 C -10,7.3872913 -17.387294,-2.6757813e-6 -26.5,-2.6757813e-6 Z M -26.5,5.9999973 c -0.828428,0 -1.5,0.671568 -1.5,1.5 0,0.828432 0.671572,1.5 1.5,1.5 4.142135,0 7.5,3.3578557 7.5,7.4999997 0,0.828432 0.671568,1.5 1.5,1.5 0.828432,0 1.5,-0.671568 1.5,-1.5 0,-5.798979 -4.701015,-10.4999997 -10.5,-10.4999997 z m 1.5,5.9999997 c -1.656855,0 -3,1.343137 -3,3 0,1.656863 1.343145,3 3,3 1.656855,0 3,-1.343137 3,-3 0,-1.656863 -1.343145,-3 -3,-3 z"
       style="fill:#d3dae3;fill-opacity:1;stroke:none;stroke-width:1.5"
       inkscape:connector-curvature="0" />
  </g>
  <g
     id="22-22-akregator"
     transform="translate(32,10.000003)">
    <g
       id="g892">
      <rect
         style="opacity:0.00100002"
         width="22"
         height="22"
         x="0"
         y="2.6757812e-06"
         id="rect2" />
      <path
         id="path2997-3"
         d="M 4.9375,4 C 4.419739,4 4,4.419733 4,4.9375 4,5.4552639 4.419739,5.875 4.9375,5.875 11.668472,5.875 17.125,11.331528 17.125,18.0625 17.125,18.580262 17.544738,19 18.0625,19 18.580262,19 19,18.580262 19,18.0625 19,10.296001 12.703999,4 4.9375,4 Z m 0,3.75 C 4.419739,7.75 4,8.16974 4,8.6875 4,9.205261 4.419739,9.625 4.9375,9.625 c 4.659903,0 8.4375,3.777597 8.4375,8.4375 C 13.375,18.580262 13.794738,19 14.3125,19 14.830262,19 15.25,18.580262 15.25,18.0625 15.25,12.367067 10.632933,7.75 4.9375,7.75 Z m 0,3.75 C 4.419739,11.5 4,11.919738 4,12.4375 c 0,0.517762 0.419739,0.9375 0.9375,0.9375 2.588827,0 4.6875,2.098666 4.6875,4.6875 C 9.625,18.580262 10.044738,19 10.5625,19 11.080262,19 11.5,18.580262 11.5,18.0625 11.5,14.438128 8.561876,11.5 4.9375,11.5 Z M 5.875,15.25 C 4.839474,15.25 4,16.08947 4,17.125 4,18.16053 4.839474,19 5.875,19 6.910524,19 7.75,18.16053 7.75,17.125 7.75,16.08947 6.910524,15.25 5.875,15.25 Z"
         style="fill:#d3dae3;fill-opacity:1;stroke:none;stroke-width:0.9375"
         inkscape:connector-curvature="0" />
    </g>
  </g>
</svg>
