<?xml version="1.0" encoding="UTF-8" standalone="no"?>
<svg
   xmlns:dc="http://purl.org/dc/elements/1.1/"
   xmlns:cc="http://creativecommons.org/ns#"
   xmlns:rdf="http://www.w3.org/1999/02/22-rdf-syntax-ns#"
   xmlns:svg="http://www.w3.org/2000/svg"
   xmlns="http://www.w3.org/2000/svg"
   xmlns:sodipodi="http://sodipodi.sourceforge.net/DTD/sodipodi-0.dtd"
   xmlns:inkscape="http://www.inkscape.org/namespaces/inkscape"
   width="32"
   height="32"
   version="1.1"
   id="svg12"
   sodipodi:docname="device.svg"
   inkscape:version="1.0.1 (3bc2e813f5, 2020-09-07)">
  <metadata
     id="metadata18">
    <rdf:RDF>
      <cc:Work
         rdf:about="">
        <dc:format>image/svg+xml</dc:format>
        <dc:type
           rdf:resource="http://purl.org/dc/dcmitype/StillImage" />
      </cc:Work>
    </rdf:RDF>
  </metadata>
  <defs
     id="defs16" />
  <sodipodi:namedview
     pagecolor="#ffffff"
     bordercolor="#666666"
     borderopacity="1"
     objecttolerance="10"
     gridtolerance="10"
     guidetolerance="10"
     inkscape:pageopacity="0"
     inkscape:pageshadow="2"
     inkscape:window-width="1920"
     inkscape:window-height="1011"
     id="namedview14"
     showgrid="false"
     inkscape:zoom="9.8125"
     inkscape:cx="44.804086"
     inkscape:cy="15.509619"
     inkscape:window-x="0"
     inkscape:window-y="0"
     inkscape:window-maximized="1"
     inkscape:current-layer="svg12"
     inkscape:document-rotation="0">
    <inkscape:grid
       type="xygrid"
       id="grid849" />
  </sodipodi:namedview>
  <g
     id="g18"
     transform="translate(32.000001,10.000001)">
    <rect
       style="opacity:0.001"
       width="22"
       height="22"
       x="0"
       y="0"
       id="rect2" />
  </g>
  <g
     id="path4-3">
    <rect
       style="opacity:0.001"
       width="32"
       height="32"
       x="0"
       y="0"
       id="rect7" />
  </g>
  <g
     id="device-notifier"
     transform="matrix(0.02245078,0,0,0.02245078,4.8815204,4.7085942)">
    <g
       transform="matrix(0.1,0,0,-0.1,0,512)"
       id="g16">
      <path
         d="M 6109,4071.9 5161.3,3124.2 5033,3252.4 c -111,111 -137.9,128.3 -197.2,128.3 -59.4,0 -88.1,-19.1 -216.4,-143.6 C 3579.8,2222.3 698.2,-607.5 633.1,-678.3 437.8,-887 248.3,-1235.5 175.5,-1515 14.7,-2131.5 112.3,-2750 453.1,-3266.9 c 135.9,-206.8 880.7,-961.2 1099,-1112.4 541.8,-379.1 1166,-492.1 1813.2,-325.5 212.5,53.6 578.2,239.3 758.2,384.9 180,147.4 4108.8,4160.5 4131.8,4223.7 28.7,72.8 1.9,126.4 -128.3,254.6 l -122.5,122.5 947.7,947.7 c 886.5,886.5 947.8,953.5 947.8,1014.8 0,63.2 -82.3,149.3 -1355.5,1420.7 C 7273.1,4937.3 7187,5019.6 7123.8,5019.6 c -61.3,0 -128.3,-61.2 -1014.8,-947.7 z M 8320.4,3430.5 9507.5,2243.4 8640.2,1378 7774.8,510.7 6583.8,1701.6 5391,2894.4 6252.6,3756 c 472.9,472.9 865.4,861.6 871.2,861.6 5.7,0 543.7,-534.2 1196.6,-1187.1 z M 7797.7,-119.3 c -777.4,-815.6 -3815.9,-3896.3 -3917.4,-3972.9 -174.2,-132.1 -436.5,-256.6 -654.8,-312.1 -241.3,-59.3 -616.5,-59.3 -857.8,0 -206.8,51.7 -449.9,164.7 -620.3,285.3 -164.7,116.8 -815.6,756.3 -949.7,932.4 -492.1,641.4 -494,1543.2 -5.8,2188.4 44,59.4 972.6,982.2 2062.1,2048.7 L 4833.9,2992 6352.2,1473.7 7870.5,-44.6 Z"
         id="path9"
         style="fill:#d3dae3;fill-opacity:1" />
      <path
         d="m 7363.1,3681.3 c -88.1,-55.5 -369.5,-348.5 -390.6,-409.7 -32.5,-84.3 11.5,-157 214.5,-352.3 170.4,-164.7 189.6,-178.1 262.3,-178.1 72.8,0 91.9,13.4 258.5,174.2 202.9,197.2 250.8,271.9 220.2,356.1 -24.9,63.2 -329.3,379.1 -405.9,419.3 -67.1,34.5 -90.1,34.5 -159,-9.5 z m 139.8,-409.7 42.1,-44 -47.9,-46 -47.9,-44 -47.9,44 -47.9,46 42.1,44 c 23,24.9 45.9,44 53.6,44 7.8,0 30.8,-19.1 53.8,-44 z"
         id="path6"
         style="fill:#80b2b2;fill-opacity:1" />
      <path
         d="m 8061.9,3053.3 c -15.3,-5.7 -120.6,-101.5 -233.6,-212.5 -191.5,-189.6 -206.8,-210.6 -206.8,-277.6 0,-67 17.2,-90 183.8,-262.3 204.9,-210.6 275.7,-250.8 365.7,-203 80.4,40.2 404,379.1 417.4,436.5 7.7,30.6 1.9,70.8 -15.3,103.4 -32.6,63.2 -381,409.7 -411.7,409.7 -11.5,0 -30.7,3.8 -46,7.7 -13.3,5.8 -38.1,3.9 -53.5,-1.9 z m 95.8,-532.3 -46,-49.8 -47.9,47.9 -47.8,47.9 46,49.8 46,49.8 47.9,-47.9 47.9,-47.9 z"
         id="path8"
         style="fill:#80b2b2;fill-opacity:1" />
      <path
         d="m 2122.7,-81 c -63.2,-47.9 -74.7,-118.7 -53.6,-342.7 86.2,-924.8 616.5,-1707.9 1430.2,-2117.6 314,-157 589.7,-235.5 957.3,-270 291,-26.8 367.6,5.7 369.5,155.1 0,120.6 -51.7,147.4 -317.8,170.4 -453.8,36.4 -844.4,180 -1185.2,436.5 -555.2,413.6 -873.1,988 -928.6,1677.2 -17.2,193.4 -26.8,235.5 -61.3,273.8 -45.8,49.9 -156.9,59.5 -210.5,17.3 z"
         id="path10"
         style="fill:#7171a8;fill-opacity:1" />
      <path
         d="m 2802.4,-218.8 c -47.9,-47.9 -49.8,-53.6 -38.3,-224 21.1,-302.5 137.9,-645.2 302.5,-888.4 90,-132.1 314,-360 451.9,-457.6 254.6,-183.8 597.4,-306.3 919,-327.4 170.4,-11.5 176.1,-9.6 224,38.3 65.1,65.1 67,168.5 5.8,231.7 -36.4,36.4 -72.8,45.9 -201,55.5 -752.5,57.4 -1319.2,624.2 -1376.6,1376.6 -9.6,128.3 -19.1,164.7 -55.5,201 -63.3,61.3 -166.7,59.4 -231.8,-5.7 z"
         id="path12"
         style="fill:#7171a8;fill-opacity:1" />
      <path
         d="m 3489.8,-182.5 c -38.3,-15.3 -80.4,-113 -80.4,-181.9 0,-34.5 13.4,-122.5 28.7,-197.2 91.9,-432.7 451.9,-790.8 890.3,-882.7 262.3,-55.5 382.9,-9.6 382.9,145.5 0,103.4 -46,134 -239.3,162.8 -271.9,40.2 -465.3,160.8 -605,379.1 -70.8,109.1 -132.1,310.2 -132.1,430.8 0,88.1 -65.1,157 -149.3,155.1 -38.4,0 -82.4,-5.7 -95.8,-11.5 z"
         id="path14"
         style="fill:#7171a8;fill-opacity:1" />
    </g>
  </g>
  <g
     id="g27"
     transform="matrix(0.01632784,0,0,0.01632784,34.907742,12.825068)">
    <g
       transform="matrix(0.1,0,0,-0.1,0,512)"
       id="22-22-device-notifier">
      <path
         d="M 6109,4071.9 5161.3,3124.2 5033,3252.4 c -111,111 -137.9,128.3 -197.2,128.3 -59.4,0 -88.1,-19.1 -216.4,-143.6 C 3579.8,2222.3 698.2,-607.5 633.1,-678.3 437.8,-887 248.3,-1235.5 175.5,-1515 14.7,-2131.5 112.3,-2750 453.1,-3266.9 c 135.9,-206.8 880.7,-961.2 1099,-1112.4 541.8,-379.1 1166,-492.1 1813.2,-325.5 212.5,53.6 578.2,239.3 758.2,384.9 180,147.4 4108.8,4160.5 4131.8,4223.7 28.7,72.8 1.9,126.4 -128.3,254.6 l -122.5,122.5 947.7,947.7 c 886.5,886.5 947.8,953.5 947.8,1014.8 0,63.2 -82.3,149.3 -1355.5,1420.7 C 7273.1,4937.3 7187,5019.6 7123.8,5019.6 c -61.3,0 -128.3,-61.2 -1014.8,-947.7 z M 8320.4,3430.5 9507.5,2243.4 8640.2,1378 7774.8,510.7 6583.8,1701.6 5391,2894.4 6252.6,3756 c 472.9,472.9 865.4,861.6 871.2,861.6 5.7,0 543.7,-534.2 1196.6,-1187.1 z M 7797.7,-119.3 c -777.4,-815.6 -3815.9,-3896.3 -3917.4,-3972.9 -174.2,-132.1 -436.5,-256.6 -654.8,-312.1 -241.3,-59.3 -616.5,-59.3 -857.8,0 -206.8,51.7 -449.9,164.7 -620.3,285.3 -164.7,116.8 -815.6,756.3 -949.7,932.4 -492.1,641.4 -494,1543.2 -5.8,2188.4 44,59.4 972.6,982.2 2062.1,2048.7 L 4833.9,2992 6352.2,1473.7 7870.5,-44.6 Z"
         id="path4-5"
         style="fill:#d3dae3;fill-opacity:1" />
      <path
         d="m 7363.1,3681.3 c -88.1,-55.5 -369.5,-348.5 -390.6,-409.7 -32.5,-84.3 11.5,-157 214.5,-352.3 170.4,-164.7 189.6,-178.1 262.3,-178.1 72.8,0 91.9,13.4 258.5,174.2 202.9,197.2 250.8,271.9 220.2,356.1 -24.9,63.2 -329.3,379.1 -405.9,419.3 -67.1,34.5 -90.1,34.5 -159,-9.5 z m 139.8,-409.7 42.1,-44 -47.9,-46 -47.9,-44 -47.9,44 -47.9,46 42.1,44 c 23,24.9 45.9,44 53.6,44 7.8,0 30.8,-19.1 53.8,-44 z"
         id="path6-3"
         style="fill:#80b2b2;fill-opacity:1" />
      <path
         d="m 8061.9,3053.3 c -15.3,-5.7 -120.6,-101.5 -233.6,-212.5 -191.5,-189.6 -206.8,-210.6 -206.8,-277.6 0,-67 17.2,-90 183.8,-262.3 204.9,-210.6 275.7,-250.8 365.7,-203 80.4,40.2 404,379.1 417.4,436.5 7.7,30.6 1.9,70.8 -15.3,103.4 -32.6,63.2 -381,409.7 -411.7,409.7 -11.5,0 -30.7,3.8 -46,7.7 -13.3,5.8 -38.1,3.9 -53.5,-1.9 z m 95.8,-532.3 -46,-49.8 -47.9,47.9 -47.8,47.9 46,49.8 46,49.8 47.9,-47.9 47.9,-47.9 z"
         id="path8-5"
         style="fill:#80b2b2;fill-opacity:1" />
      <path
         d="m 2122.7,-81 c -63.2,-47.9 -74.7,-118.7 -53.6,-342.7 86.2,-924.8 616.5,-1707.9 1430.2,-2117.6 314,-157 589.7,-235.5 957.3,-270 291,-26.8 367.6,5.7 369.5,155.1 0,120.6 -51.7,147.4 -317.8,170.4 -453.8,36.4 -844.4,180 -1185.2,436.5 -555.2,413.6 -873.1,988 -928.6,1677.2 -17.2,193.4 -26.8,235.5 -61.3,273.8 -45.8,49.9 -156.9,59.5 -210.5,17.3 z"
         id="path10-6"
         style="fill:#7171a8;fill-opacity:1" />
      <path
         d="m 2802.4,-218.8 c -47.9,-47.9 -49.8,-53.6 -38.3,-224 21.1,-302.5 137.9,-645.2 302.5,-888.4 90,-132.1 314,-360 451.9,-457.6 254.6,-183.8 597.4,-306.3 919,-327.4 170.4,-11.5 176.1,-9.6 224,38.3 65.1,65.1 67,168.5 5.8,231.7 -36.4,36.4 -72.8,45.9 -201,55.5 -752.5,57.4 -1319.2,624.2 -1376.6,1376.6 -9.6,128.3 -19.1,164.7 -55.5,201 -63.3,61.3 -166.7,59.4 -231.8,-5.7 z"
         id="path12-2"
         style="fill:#7171a8;fill-opacity:1" />
      <path
         d="m 3489.8,-182.5 c -38.3,-15.3 -80.4,-113 -80.4,-181.9 0,-34.5 13.4,-122.5 28.7,-197.2 91.9,-432.7 451.9,-790.8 890.3,-882.7 262.3,-55.5 382.9,-9.6 382.9,145.5 0,103.4 -46,134 -239.3,162.8 -271.9,40.2 -465.3,160.8 -605,379.1 -70.8,109.1 -132.1,310.2 -132.1,430.8 0,88.1 -65.1,157 -149.3,155.1 -38.4,0 -82.4,-5.7 -95.8,-11.5 z"
         id="path14-9"
         style="fill:#7171a8;fill-opacity:1" />
    </g>
  </g>
</svg>
