<?xml version="1.0" encoding="UTF-8" standalone="no"?>
<svg
   xmlns:dc="http://purl.org/dc/elements/1.1/"
   xmlns:cc="http://creativecommons.org/ns#"
   xmlns:rdf="http://www.w3.org/1999/02/22-rdf-syntax-ns#"
   xmlns:svg="http://www.w3.org/2000/svg"
   xmlns="http://www.w3.org/2000/svg"
   xmlns:sodipodi="http://sodipodi.sourceforge.net/DTD/sodipodi-0.dtd"
   xmlns:inkscape="http://www.inkscape.org/namespaces/inkscape"
   id="svg32"
   version="1.1"
   viewBox="0 0 22 22"
   sodipodi:docname="disk.svg"
   inkscape:version="1.0.1 (3bc2e813f5, 2020-09-07)">
  <metadata
     id="metadata22">
    <rdf:RDF>
      <cc:Work
         rdf:about="">
        <dc:format>image/svg+xml</dc:format>
        <dc:type
           rdf:resource="http://purl.org/dc/dcmitype/StillImage" />
        <dc:title />
      </cc:Work>
    </rdf:RDF>
  </metadata>
  <defs
     id="defs20">
    <style
       id="current-color-scheme-6"
       type="text/css" />
  </defs>
  <sodipodi:namedview
     pagecolor="#ffffff"
     bordercolor="#000000"
     borderopacity="1"
     objecttolerance="10"
     gridtolerance="10"
     guidetolerance="10"
     inkscape:pageopacity="0"
     inkscape:pageshadow="2"
     inkscape:window-width="1920"
     inkscape:window-height="1011"
     id="namedview18"
     showgrid="false"
     inkscape:zoom="10.727273"
     inkscape:cx="56.579976"
     inkscape:cy="6.8447791"
     inkscape:window-x="0"
     inkscape:window-y="0"
     inkscape:window-maximized="1"
     inkscape:current-layer="svg32"
     inkscape:snap-bbox="true"
     inkscape:bbox-nodes="true"
     inkscape:snap-bbox-edge-midpoints="true"
     inkscape:document-rotation="0"
     showguides="false">
    <inkscape:grid
       type="xygrid"
       id="grid953" />
  </sodipodi:namedview>
  <style
     type="text/css"
     id="current-color-scheme" />
  <style
     id="current-color-scheme-36"
     type="text/css" />
  <style
     type="text/css"
     id="current-color-scheme-3" />
  <g
     id="disk-quota-low"
     transform="translate(-29,15)">
    <path
       sodipodi:nodetypes="cccccccccc"
       inkscape:connector-curvature="0"
       id="rect955"
       d="m 60,-3 v 5 h 14 v -5 z m 1,1 H 73 V 1 H 61 Z"
       style="opacity:1;fill:#d3dae3;fill-opacity:1;stroke:none;stroke-width:1.94028497;stroke-linecap:round;stroke-linejoin:round;stroke-miterlimit:4;stroke-dasharray:none;stroke-opacity:1" />
    <rect
       ry="0"
       y="-1"
       x="71"
       height="1"
       width="1"
       id="rect960"
       style="opacity:1;fill:#80b2b2;fill-opacity:1;stroke:none;stroke-width:2;stroke-linecap:round;stroke-linejoin:round;stroke-miterlimit:4;stroke-dasharray:none;stroke-opacity:1" />
    <rect
       style="opacity:1;fill:#80b2b2;fill-opacity:1;stroke:none;stroke-width:2;stroke-linecap:round;stroke-linejoin:round;stroke-miterlimit:4;stroke-dasharray:none;stroke-opacity:1"
       id="rect962"
       width="1"
       height="1"
       x="64.099998"
       y="-1"
       ry="0" />
    <rect
       ry="0"
       y="-1"
       x="61.900002"
       height="1"
       width="1"
       id="rect964"
       style="opacity:1;fill:#80b2b2;fill-opacity:1;stroke:none;stroke-width:2;stroke-linecap:round;stroke-linejoin:round;stroke-miterlimit:4;stroke-dasharray:none;stroke-opacity:1" />
    <path
       class="ColorScheme-NeutralText"
       d="m 71.178577,-7.968 c -0.966507,0 -1.750003,0.2558668 -1.750003,0.571497 v 2.8575 c 0,0.3156308 0.783496,0.5715 1.750003,0.5715 0.966494,0 1.749997,-0.2558692 1.749997,-0.5715 v -2.8575 c 0,-0.3156302 -0.783503,-0.571497 -1.749997,-0.571497 z m 0,0.571497 c 0.431185,5.04e-4 0.84664,0.053006 1.166659,0.1473393 v 0.2779425 c -0.320535,0.093971 -0.735926,0.1460252 -1.166659,0.1462232 -0.431191,-5.001e-4 -0.846644,-0.053017 -1.166673,-0.1473383 v -0.2779455 c 0.320536,-0.093962 0.735933,-0.1460271 1.166673,-0.1462212 z m -1.166673,0.9967788 c 0.320536,0.093962 0.735933,0.1460341 1.166673,0.1462242 0.430733,-1.901e-4 0.846124,-0.052237 1.166659,-0.1462242 v 0.5714994 c -0.320535,0.093969 -0.735926,0.1460318 -1.166659,0.1462228 -0.431191,-4.966e-4 -0.846644,-0.052966 -1.166673,-0.1473389 z"
       id="path1075"
       inkscape:connector-curvature="0"
       style="fill:#ffcc00;fill-opacity:1;stroke-width:0.577383" />
  </g>
  <g
     id="disk-quota-high"
     transform="translate(-29,15)">
    <path
       style="opacity:1;fill:#d3dae3;fill-opacity:1;stroke:none;stroke-width:1.94028497;stroke-linecap:round;stroke-linejoin:round;stroke-miterlimit:4;stroke-dasharray:none;stroke-opacity:1"
       d="m 85,-3 v 5 h 14 v -5 z m 1,1 H 98 V 1 H 86 Z"
       id="path1045"
       inkscape:connector-curvature="0"
       sodipodi:nodetypes="cccccccccc" />
    <rect
       style="opacity:1;fill:#80b2b2;fill-opacity:1;stroke:none;stroke-width:2;stroke-linecap:round;stroke-linejoin:round;stroke-miterlimit:4;stroke-dasharray:none;stroke-opacity:1"
       id="rect1047"
       width="1"
       height="1"
       x="96"
       y="-1"
       ry="0" />
    <rect
       ry="0"
       y="-1"
       x="89.099998"
       height="1"
       width="1"
       id="rect1049"
       style="opacity:1;fill:#80b2b2;fill-opacity:1;stroke:none;stroke-width:2;stroke-linecap:round;stroke-linejoin:round;stroke-miterlimit:4;stroke-dasharray:none;stroke-opacity:1" />
    <rect
       style="opacity:1;fill:#80b2b2;fill-opacity:1;stroke:none;stroke-width:2;stroke-linecap:round;stroke-linejoin:round;stroke-miterlimit:4;stroke-dasharray:none;stroke-opacity:1"
       id="rect1051"
       width="1"
       height="1"
       x="87.000008"
       y="-1"
       ry="0" />
    <path
       class="ColorScheme-NegativeText"
       d="M 96.200002,-8 C 95.233496,-8 94.45,-7.744165 94.45,-7.428576 v 2.857147 C 94.45,-4.2558376 95.233496,-4 96.200002,-4 97.166495,-4 97.95,-4.2558376 97.95,-4.571429 V -7.428576 C 97.95,-7.744165 97.166495,-8 96.200002,-8 Z m 0,0.571424 c 0.431185,5.06e-4 0.846641,0.05302 1.166658,0.147322 v 0.277911 c -0.320534,0.09395 -0.735925,0.146003 -1.166658,0.146203 -0.431189,-5e-4 -0.846643,-0.053 -1.166674,-0.14732 v -0.277911 c 0.320537,-0.09395 0.735934,-0.146009 1.166674,-0.146205 z"
       id="path1097"
       inkscape:connector-curvature="0"
       style="color:#da4453;fill:#ff0066;fill-opacity:1;stroke-width:0.577345" />
  </g>
  <g
     id="disk-quota-critical"
     transform="translate(-29,15)">
    <path
       sodipodi:nodetypes="cccccccccc"
       inkscape:connector-curvature="0"
       id="path1059"
       d="m 110,-3 v 5 h 14 v -5 z m 1,1 h 12 v 3 h -12 z"
       style="opacity:1;fill:#d3dae3;fill-opacity:1;stroke:none;stroke-width:1.94028497;stroke-linecap:round;stroke-linejoin:round;stroke-miterlimit:4;stroke-dasharray:none;stroke-opacity:1" />
    <rect
       ry="0"
       y="-1"
       x="121"
       height="1"
       width="1"
       id="rect1061"
       style="opacity:1;fill:#80b2b2;fill-opacity:1;stroke:none;stroke-width:2;stroke-linecap:round;stroke-linejoin:round;stroke-miterlimit:4;stroke-dasharray:none;stroke-opacity:1" />
    <rect
       style="opacity:1;fill:#80b2b2;fill-opacity:1;stroke:none;stroke-width:2;stroke-linecap:round;stroke-linejoin:round;stroke-miterlimit:4;stroke-dasharray:none;stroke-opacity:1"
       id="rect1063"
       width="1"
       height="1"
       x="114.1"
       y="-1"
       ry="0" />
    <rect
       ry="0"
       y="-1"
       x="112"
       height="1"
       width="1"
       id="rect1065"
       style="opacity:1;fill:#80b2b2;fill-opacity:1;stroke:none;stroke-width:2;stroke-linecap:round;stroke-linejoin:round;stroke-miterlimit:4;stroke-dasharray:none;stroke-opacity:1" />
    <path
       style="color:#da4453;fill:#d40055;fill-opacity:1;stroke-width:0.577346"
       inkscape:connector-curvature="0"
       id="path1109"
       d="m 121.39997,-8 c -0.96651,0 -1.74997,0.255835 -1.74997,0.571427 v 2.8571441 C 119.65,-4.2558373 120.43346,-4 121.39997,-4 122.36644,-4 123.15,-4.2558373 123.15,-4.5714289 V -7.428573 C 123.15,-7.744165 122.36644,-8 121.39997,-8 Z m 0,0.571427 c 0.43119,5.02e-4 0.84668,0.05301 1.16664,0.147321 v 0.277906 c -0.32053,0.09396 -0.73592,0.146009 -1.16664,0.146206 -0.43119,-5e-4 -0.8466,-0.053 -1.16667,-0.14732 v -0.27791 c 0.32054,-0.09396 0.73591,-0.14601 1.16667,-0.146203 z"
       class="ColorScheme-NegativeText" />
    <path
       class="ColorScheme-NegativeText"
       d="m 118.1,-4.6 h 0.5 V -4 h -0.5 z"
       id="path1121"
       inkscape:connector-curvature="0"
       style="color:#da4453;fill:#d40055;fill-opacity:1;stroke-width:0.273861" />
    <path
       sodipodi:nodetypes="ccccc"
       class="ColorScheme-NegativeText"
       d="m 118.1,-8 h 0.5 v 3 h -0.5 z"
       id="path1123"
       inkscape:connector-curvature="0"
       style="color:#da4453;fill:#d40055;fill-opacity:1;stroke-width:0.43301" />
  </g>
  <g
     transform="translate(0,-2)"
     id="disk-quota">
    <path
       sodipodi:nodetypes="cccccccccc"
       inkscape:connector-curvature="0"
       id="rect955-7"
       d="m 4,14 v 5 h 14 v -5 z m 0.5,0.5 h 13 v 4 h -13 z"
       style="opacity:1;fill:#d3dae3;fill-opacity:1;stroke:none;stroke-width:1.94028;stroke-linecap:round;stroke-linejoin:round;stroke-miterlimit:4;stroke-dasharray:none;stroke-opacity:1" />
    <rect
       ry="0"
       y="16"
       x="15"
       height="1"
       width="1"
       id="rect960-5"
       style="opacity:1;fill:#80b2b2;fill-opacity:1;stroke:none;stroke-width:2;stroke-linecap:round;stroke-linejoin:round;stroke-miterlimit:4;stroke-dasharray:none;stroke-opacity:1" />
    <rect
       style="opacity:1;fill:#80b2b2;fill-opacity:1;stroke:none;stroke-width:2;stroke-linecap:round;stroke-linejoin:round;stroke-miterlimit:4;stroke-dasharray:none;stroke-opacity:1"
       id="rect962-3"
       width="1"
       height="1"
       x="8"
       y="16"
       ry="0" />
    <rect
       ry="0"
       y="16"
       x="5.9999967"
       height="1"
       width="1"
       id="rect964-5"
       style="opacity:1;fill:#80b2b2;fill-opacity:1;stroke:none;stroke-width:2;stroke-linecap:round;stroke-linejoin:round;stroke-miterlimit:4;stroke-dasharray:none;stroke-opacity:1" />
    <path
       inkscape:connector-curvature="0"
       style="color:#232629;fill:#7171a8;fill-opacity:1;stroke-width:0.577349"
       d="m 15.083333,8.94 a 1.75,0.57142861 0 0 0 -1.75,0.5714287 v 2.8571443 a 1.75,0.57142861 0 0 0 1.75,0.571427 1.75,0.57142861 0 0 0 1.75,-0.571427 V 9.5114287 A 1.75,0.57142861 0 0 0 15.083333,8.94 Z m 0,0.5714287 A 1.75,0.57142861 0 0 1 16.25,9.6587487 V 9.9366513 A 1.75,0.57142861 0 0 1 15.083333,10.082857 1.75,0.57142861 0 0 1 13.916667,9.9355373 V 9.6576341 A 1.75,0.57142861 0 0 1 15.083333,9.5114287 Z M 13.916667,10.50808 A 1.75,0.57142861 0 0 0 15.083333,10.654286 1.75,0.57142861 0 0 0 16.25,10.50808 v 0.571427 a 1.75,0.57142861 0 0 1 -1.166667,0.146206 1.75,0.57142861 0 0 1 -1.166666,-0.14732 z m 0,1.142861 a 1.75,0.57142861 0 0 0 1.166666,0.1462 1.75,0.57142861 0 0 0 1.166667,-0.1462 v 0.571426 a 1.75,0.57142861 0 0 1 -1.166667,0.146206 1.75,0.57142861 0 0 1 -1.166666,-0.14732 z"
       id="path1005" />
  </g>
</svg>
