<?xml version="1.0" encoding="UTF-8" standalone="no"?>
<svg
   xmlns:dc="http://purl.org/dc/elements/1.1/"
   xmlns:cc="http://creativecommons.org/ns#"
   xmlns:rdf="http://www.w3.org/1999/02/22-rdf-syntax-ns#"
   xmlns:svg="http://www.w3.org/2000/svg"
   xmlns="http://www.w3.org/2000/svg"
   xmlns:sodipodi="http://sodipodi.sourceforge.net/DTD/sodipodi-0.dtd"
   xmlns:inkscape="http://www.inkscape.org/namespaces/inkscape"
   width="32"
   height="32"
   version="1"
   id="svg12"
   sodipodi:docname="kdeconnect.svg"
   inkscape:version="1.0.1 (3bc2e813f5, 2020-09-07)">
  <metadata
     id="metadata18">
    <rdf:RDF>
      <cc:Work
         rdf:about="">
        <dc:format>image/svg+xml</dc:format>
        <dc:type
           rdf:resource="http://purl.org/dc/dcmitype/StillImage" />
      </cc:Work>
    </rdf:RDF>
  </metadata>
  <defs
     id="defs16" />
  <sodipodi:namedview
     pagecolor="#ffffff"
     bordercolor="#666666"
     borderopacity="1"
     objecttolerance="10"
     gridtolerance="10"
     guidetolerance="10"
     inkscape:pageopacity="0"
     inkscape:pageshadow="2"
     inkscape:window-width="1920"
     inkscape:window-height="1007"
     id="namedview14"
     showgrid="false"
     inkscape:zoom="9.8125"
     inkscape:cx="47.967973"
     inkscape:cy="11.58197"
     inkscape:window-x="0"
     inkscape:window-y="0"
     inkscape:window-maximized="1"
     inkscape:current-layer="svg12"
     inkscape:document-rotation="0">
    <inkscape:grid
       type="xygrid"
       id="grid860"
       originx="0"
       originy="0" />
  </sodipodi:namedview>
  <g
     id="kdeconnect">
    <rect
       style="opacity:0.00100002"
       width="32"
       height="32"
       x="0"
       y="0"
       id="rect7" />
    <path
       sodipodi:nodetypes="ssssssssssssssccccc"
       style="color:#7b7c7e;fill:#d3dae3;fill-opacity:1;stroke-width:1.6443"
       d="m 10.573299,3.977 c -1.9999975,0 -3.4802315,0.00706 -3.4907395,1.6720435 L 6.9642235,24.948097 c -0.006,1.659378 0.09438,3.033691 2.094584,3.028891 L 22.88077,27.945228 c 1.999835,-0.003 2.144642,-1.336035 2.134114,-2.995948 L 24.896608,5.8489696 c -0.006,-1.6598218 -1.490621,-1.870699 -3.490658,-1.870699 z m 5.414672,20.158818 c 1.000104,0 2.948531,-0.01815 2.948531,0.812279 0,0.829845 -1.948427,0.811704 -2.948531,0.811704 -1.000074,0 -3.175966,0.01876 -3.175966,-0.811704 0,-0.830067 2.175892,-0.812279 3.175966,-0.812279 z M 8.7682475,6.972835 H 23.2084 V 21.952262 H 8.7682475 Z"
       id="rect2990"
       class="ColorScheme-Text"
       inkscape:connector-curvature="0" />
    <path
       sodipodi:nodetypes="cccccccccccccsccccccccccccccccc"
       inkscape:connector-curvature="0"
       style="fill:#7171a8;fill-opacity:1;stroke-width:0.00196782"
       id="path10-5"
       d="m 14.022039,12.129951 -1.788333,2.381828 0.773808,0.005 h 0.770481 v 2.473674 2.473724 h 2.04848 2.048127 v -2.473744 -2.473735 h 0.77395 l 0.770622,-0.005 -1.788242,-2.381737 c -0.981923,-1.309462 -1.794665,-2.381486 -1.804457,-2.381486 -0.02037,0 -0.819378,1.072024 -1.804436,2.381486 z m 1.883666,1.685072 v 0 0 0 0 0 0 0 0 0 0 0 0 c 0,0 -0.0081,-0.004 0,0 0.02037,0.005 0,0 0,0 z" />
  </g>
  <g
     id="22-22-kdeconnect"
     transform="translate(32,10)">
    <rect
       style="opacity:0.00100002"
       width="22"
       height="22"
       x="0"
       y="0"
       id="rect2" />
    <path
       sodipodi:nodetypes="ssssssssssssssccccc"
       style="color:#7b7c7e;fill:#d3dae3;fill-opacity:1;stroke-width:1.0962"
       d="m 7.4061758,3 c -1.333329,0 -2.320156,0.0048 -2.32716,1.114696 l -0.07888,12.866035 c -0.0038,1.106252 0.06292,2.022461 1.39639,2.019261 l 9.2146402,-0.02117 c 1.333222,-0.002 1.429761,-0.890692 1.422739,-1.997301 L 16.955055,4.24798 C 16.951155,3.141428 15.9613,3.000847 14.627945,3.000847 Z m 3.6097862,13.439213 c 0.66673,0 1.965685,-0.0121 1.965685,0.541518 0,0.55323 -1.298955,0.541136 -1.965685,0.541136 -0.666718,0 -2.1173132,0.01251 -2.1173132,-0.541136 0,-0.55338 1.4505952,-0.541518 2.1173132,-0.541518 z M 6.2028108,4.997221 h 9.6267642 v 9.986283 H 6.2028108 Z"
       id="rect2990-3"
       class="ColorScheme-Text"
       inkscape:connector-curvature="0" />
    <path
       sodipodi:nodetypes="cccccccccccccsccccccccccccccccc"
       inkscape:connector-curvature="0"
       style="fill:#7171a8;fill-opacity:1;stroke-width:0.00121533"
       id="path10-5-6"
       d="M 9.82043,8.525546 8.716,9.996507 l 0.477881,0.0031 h 0.475837 v 1.527685 1.527716 h 1.265088 1.264882 V 11.527281 9.999557 h 0.477972 l 0.475923,-0.0029 -1.104378,-1.470905 C 11.442789,7.71706 10.940862,7.055 10.934806,7.055 c -0.01257,0 -0.506023,0.66206 -1.114376,1.470752 z m 1.163311,1.040662 v 0 0 0 0 0 0 0 0 0 0 0 0 c 0,0 -0.0045,-0.0031 0,0 0.01257,0.003 0,0 0,0 z" />
  </g>
</svg>
