<?xml version="1.0" encoding="UTF-8" standalone="no"?>
<svg
   xmlns:dc="http://purl.org/dc/elements/1.1/"
   xmlns:cc="http://creativecommons.org/ns#"
   xmlns:rdf="http://www.w3.org/1999/02/22-rdf-syntax-ns#"
   xmlns:svg="http://www.w3.org/2000/svg"
   xmlns="http://www.w3.org/2000/svg"
   xmlns:xlink="http://www.w3.org/1999/xlink"
   xmlns:sodipodi="http://sodipodi.sourceforge.net/DTD/sodipodi-0.dtd"
   xmlns:inkscape="http://www.inkscape.org/namespaces/inkscape"
   id="svg12"
   width="32"
   height="32"
   version="1.1"
   sodipodi:docname="start.svg"
   inkscape:version="1.0.1 (3bc2e813f5, 2020-09-07)">
  <metadata
     id="metadata19">
    <rdf:RDF>
      <cc:Work
         rdf:about="">
        <dc:format>image/svg+xml</dc:format>
        <dc:type
           rdf:resource="http://purl.org/dc/dcmitype/StillImage" />
      </cc:Work>
    </rdf:RDF>
  </metadata>
  <defs
     id="defs17">
    <linearGradient
       inkscape:collect="always"
       id="linearGradient839">
      <stop
         style="stop-color:#7171a8;stop-opacity:1"
         offset="0"
         id="stop835" />
      <stop
         style="stop-color:#d3dae3;stop-opacity:1"
         offset="1"
         id="stop837" />
    </linearGradient>
    <linearGradient
       inkscape:collect="always"
       xlink:href="#linearGradient839"
       id="linearGradient841"
       x1="31.535803"
       y1="-0.54808617"
       x2="44.758785"
       y2="12.284853"
       gradientUnits="userSpaceOnUse" />
    <linearGradient
       inkscape:collect="always"
       xlink:href="#linearGradient839"
       id="linearGradient849"
       x1="6.8515263"
       y1="6.4528894"
       x2="15.769567"
       y2="15.135724"
       gradientUnits="userSpaceOnUse" />
  </defs>
  <sodipodi:namedview
     pagecolor="#ffffff"
     bordercolor="#666666"
     borderopacity="1"
     objecttolerance="10"
     gridtolerance="10"
     guidetolerance="10"
     inkscape:pageopacity="0"
     inkscape:pageshadow="2"
     inkscape:window-width="1920"
     inkscape:window-height="1009"
     id="namedview15"
     showgrid="false"
     inkscape:zoom="16"
     inkscape:cx="2.138351"
     inkscape:cy="16.504392"
     inkscape:window-x="0"
     inkscape:window-y="0"
     inkscape:window-maximized="1"
     inkscape:current-layer="svg12"
     inkscape:document-rotation="0" />
  <g
     id="start-here-kde"
     transform="translate(-22,10)">
    <rect
       id="rect7"
       style="opacity:0.00100002"
       width="32"
       height="32"
       x="22"
       y="-10" />
    <path
       d="m 37.87785,14.63197 c -0.446061,0 -0.892125,0.19393 -1.231508,0.51879 -0.324855,0.32728 -0.518788,0.77334 -0.518788,1.23393 0,0.44607 0.193933,0.892128 0.518788,1.23152 0.303024,0.32486 0.749074,0.51879 1.231508,0.51879 0.448492,0 0.894542,-0.19393 1.233939,-0.51879 0.324835,-0.327268 0.518786,-0.773334 0.518786,-1.23152 0,-0.44848 -0.193951,-0.894538 -0.518786,-1.23393 -0.339397,-0.32486 -0.785447,-0.51879 -1.233939,-0.51879 z m 0,-10.254548 c -0.446061,0 -0.892125,0.193958 -1.231508,0.518788 -0.324855,0.32727 -0.518788,0.77334 -0.518788,1.23151 0,0.44849 0.193933,0.89456 0.518788,1.23394 0.303024,0.32485 0.749074,0.49454 1.231508,0.518802 0.448492,0 0.894542,-0.193952 1.233939,-0.518802 0.324835,-0.327256 0.518786,-0.77332 0.518786,-1.23394 0,-0.44606 -0.193951,-0.892116 -0.518786,-1.23151 C 38.772392,4.57138 38.326342,4.377422 37.87785,4.377422 Z m 0,-10.242422 c -0.446061,0 -0.892125,0.16969 -1.231508,0.49455 -0.324855,0.327268 -0.518788,0.773334 -0.518788,1.23152 0,0.44848 0.193933,0.894538 0.518788,1.23393 0.303024,0.30062 0.749074,0.49455 1.231508,0.51879 0.448492,0 0.894542,-0.19393 1.233939,-0.51879 0.324835,-0.32728 0.518786,-0.77334 0.518786,-1.23393 0,-0.44607 -0.193951,-0.892128 -0.518786,-1.23152 C 38.772392,-5.67107 38.326342,-5.865 37.87785,-5.865 Z m 0.07278,5.122426 c -0.470305,-0.0242 -0.916366,0.143139 -1.243648,0.446054 -0.349074,0.300614 -0.54303,0.736982 -0.567272,1.20728 0,0.47031 0.169695,0.91879 0.470303,1.24362 0.303043,0.327282 0.736976,0.54548 1.209697,0.567282 0.470303,0 0.91638,-0.167258 1.243637,-0.470294 C 39.412439,1.95076 39.606388,1.50228 39.63063,1.0441 c 0,-0.4703 -0.169706,-0.91879 -0.470305,-1.24365 -0.315167,-0.327264 -0.761202,-0.518784 -1.209695,-0.543024 z M 37.87785,9.499848 c -0.446061,0 -0.892125,0.19152 -1.231508,0.518796 -0.324855,0.324846 -0.518788,0.773326 -0.518788,1.231496 0,0.458198 0.193933,0.89455 0.518788,1.231526 0.303024,0.327264 0.749074,0.518784 1.231508,0.518784 0.448492,0 0.894542,-0.19152 1.233939,-0.518784 0.324835,-0.324836 0.518786,-0.773328 0.518786,-1.231526 0,-0.446046 -0.193951,-0.89452 -0.518786,-1.231496 C 38.772392,9.67924 38.326342,9.499848 37.87785,9.499848 Z m 5.122422,-5.122426 c -0.446064,0 -0.894544,0.193958 -1.23151,0.518788 -0.327282,0.32727 -0.518799,0.77334 -0.518799,1.233954 0,0.446046 0.191517,0.892116 0.518799,1.231496 0.324855,0.32485 0.773329,0.49454 1.23151,0.518802 0.446062,0 0.894553,-0.193952 1.23152,-0.518802 0.327266,-0.327256 0.518783,-0.77332 0.518783,-1.231496 0,-0.448504 -0.191517,-0.89456 -0.518783,-1.233954 -0.336967,-0.32483 -0.785458,-0.518788 -1.23152,-0.518788 z m 0,-5.119996 c -0.446064,0 -0.894544,0.167264 -1.23151,0.494544 -0.327282,0.324844 -0.518799,0.773328 -0.518799,1.23152 0,0.44606 0.191517,0.89454 0.518799,1.23151 0.324855,0.32728 0.773329,0.5188 1.23151,0.5188 0.446062,0 0.894553,-0.19152 1.23152,-0.5188 0.327266,-0.32486 0.518783,-0.773334 0.518783,-1.23151 0,-0.446068 -0.191517,-0.89456 -0.518783,-1.23152 -0.336967,-0.303024 -0.785458,-0.494544 -1.23152,-0.494544 z m 0,10.242422 c -0.446064,0 -0.894544,0.19152 -1.23151,0.518796 -0.327282,0.324846 -0.518799,0.773326 -0.518799,1.231496 0,0.458198 0.191517,0.89455 0.518799,1.231526 0.324855,0.327264 0.773329,0.518784 1.23151,0.518784 0.446062,0 0.894553,-0.19152 1.23152,-0.518784 0.327266,-0.324836 0.518783,-0.773328 0.518783,-1.231526 0,-0.446046 -0.191517,-0.89452 -0.518783,-1.231496 C 43.894825,9.67924 43.446334,9.499848 43.000272,9.499848 Z m 5.134544,-5.122426 c -0.448474,0 -0.894538,0.193958 -1.233945,0.518788 -0.324841,0.32727 -0.51878,0.77334 -0.51878,1.233954 0,0.446046 0.193939,0.892116 0.51878,1.231496 0.303037,0.32485 0.749099,0.49454 1.233945,0.518802 0.446055,0 0.892126,-0.193952 1.231526,-0.518802 0.3006,-0.327256 0.494533,-0.77332 0.494533,-1.231496 0,-0.448504 -0.169691,-0.89456 -0.494533,-1.233954 C 49.039058,4.57138 48.580871,4.377422 48.134816,4.377422 Z m -15.401199,0 c -0.446064,0 -0.894559,0.193958 -1.231526,0.518788 -0.327266,0.32727 -0.518782,0.77334 -0.518782,1.233954 0,0.446046 0.191516,0.892116 0.518782,1.231496 0.324842,0.32485 0.773334,0.49454 1.231526,0.518802 0.44605,0 0.894524,-0.193952 1.231496,-0.518802 0.327278,-0.327256 0.518795,-0.77332 0.518795,-1.231496 0,-0.448504 -0.191517,-0.89456 -0.518795,-1.233954 C 33.628141,4.57138 33.179667,4.377422 32.733617,4.377422 Z m 0,-5.119996 c -0.446064,0 -0.894559,0.167264 -1.231526,0.494544 -0.327266,0.324844 -0.518782,0.773328 -0.518782,1.23152 0,0.44606 0.191516,0.89454 0.518782,1.23151 0.324842,0.32728 0.773334,0.5188 1.231526,0.5188 0.44605,0 0.894524,-0.19152 1.231496,-0.5188 0.327278,-0.32486 0.518795,-0.773334 0.518795,-1.23151 0,-0.446068 -0.191517,-0.89456 -0.518795,-1.23152 -0.336972,-0.303024 -0.785446,-0.494544 -1.231496,-0.494544 z m 0,10.242422 c -0.446064,0 -0.894559,0.19152 -1.231526,0.518796 -0.303024,0.324846 -0.494541,0.773326 -0.494541,1.231496 0,0.458198 0.167275,0.89455 0.494541,1.231526 0.324842,0.327264 0.773334,0.518784 1.231526,0.518784 0.44605,0 0.894524,-0.19152 1.231496,-0.518784 0.327278,-0.324836 0.518795,-0.773328 0.518795,-1.231526 0,-0.446046 -0.191517,-0.89452 -0.518795,-1.231496 C 33.628141,9.67924 33.179667,9.499848 32.733617,9.499848 Z M 27.623309,4.377422 c -0.446064,0 -0.892126,0.193958 -1.231521,0.518788 C 26.066933,5.22348 25.873,5.66955 25.873,6.11804 c 0,0.44606 0.193933,0.892106 0.518788,1.23151 0.303029,0.32483 0.749098,0.494538 1.231521,0.518788 0.448479,0 0.894541,-0.193958 1.233936,-0.518788 C 29.1821,7.02228 29.376033,6.57621 29.376033,6.11804 29.376033,5.66955 29.1821,5.22348 28.857245,4.8841 28.51785,4.57138 28.071788,4.377422 27.623309,4.377422 Z"
       id="path9-3"
       style="fill:url(#linearGradient841);fill-opacity:1;stroke-width:0.0242416"
       inkscape:connector-curvature="0" />
  </g>
  <g
     id="22-22-start-here-kde"
     transform="translate(-22,10)">
    <rect
       id="rect2"
       style="opacity:0.00100002"
       width="22"
       height="22"
       x="0"
       y="0" />
    <path
       d="m 10.985238,16.721647 c -0.297384,0 -0.594753,0.129287 -0.821016,0.345859 -0.216556,0.218188 -0.345847,0.515561 -0.345847,0.822621 0,0.297379 0.129291,0.594752 0.345847,0.821013 0.202018,0.216572 0.499394,0.34586 0.821016,0.34586 0.298984,0 0.596362,-0.129288 0.822616,-0.34586 0.216568,-0.218179 0.345868,-0.515556 0.345868,-0.821013 0,-0.298987 -0.1293,-0.596359 -0.345868,-0.822621 -0.226254,-0.216572 -0.523632,-0.345859 -0.822616,-0.345859 z m 0,-6.836366 c -0.297384,0 -0.594753,0.129306 -0.821016,0.345859 -0.216556,0.21818 -0.345847,0.51556 -0.345847,0.821006 0,0.298994 0.129291,0.596374 0.345847,0.822627 0.202018,0.216567 0.499394,0.329693 0.821016,0.345868 0.298984,0 0.596362,-0.129301 0.822616,-0.345868 0.216568,-0.21817 0.345868,-0.515546 0.345868,-0.822627 0,-0.297373 -0.1293,-0.594743 -0.345868,-0.821006 C 11.5816,10.014587 11.284222,9.885281 10.985238,9.885281 Z m 0,-6.828281 c -0.297384,0 -0.594753,0.11313 -0.821016,0.329694 -0.216556,0.218188 -0.345847,0.515558 -0.345847,0.821016 0,0.298984 0.129291,0.596366 0.345847,0.822631 0.202018,0.200399 0.499394,0.329689 0.821016,0.345849 0.298984,0 0.596362,-0.12929 0.822616,-0.345849 0.216568,-0.218202 0.345868,-0.515561 0.345868,-0.822631 0,-0.297369 -0.1293,-0.594752 -0.345868,-0.821016 C 11.5816,3.18629 11.284222,3.057 10.985238,3.057 Z m 0.04859,3.414957 c -0.313536,-0.01617 -0.610909,0.0954 -0.829101,0.297363 -0.232708,0.200402 -0.362011,0.491318 -0.378173,0.804854 0,0.313539 0.113133,0.612526 0.313527,0.829079 0.202032,0.218187 0.49132,0.363654 0.806473,0.378188 0.313527,0 0.610914,-0.111505 0.829089,-0.313529 0.232725,-0.200406 0.362025,-0.499392 0.378185,-0.804845 0,-0.313531 -0.113138,-0.612533 -0.313536,-0.829099 C 11.630179,6.615797 11.332825,6.488117 11.033828,6.471957 Z m -0.04859,6.828275 c -0.297384,0 -0.594753,0.12768 -0.821016,0.345864 -0.216556,0.216563 -0.345847,0.515551 -0.345847,0.820997 0,0.305466 0.129291,0.596367 0.345847,0.821019 0.202018,0.218175 0.499394,0.345855 0.821016,0.345855 0.298984,0 0.596362,-0.12768 0.822616,-0.345855 0.216568,-0.21656 0.345868,-0.515553 0.345868,-0.821019 0,-0.297364 -0.1293,-0.596346 -0.345868,-0.820997 -0.226254,-0.22627 -0.523632,-0.345864 -0.822616,-0.345864 z m 3.414936,-3.414951 c -0.297366,0 -0.596348,0.129306 -0.820991,0.345859 -0.218204,0.21818 -0.345881,0.51556 -0.345881,0.822636 0,0.297364 0.127677,0.594744 0.345881,0.820997 0.216555,0.216567 0.515537,0.329693 0.820991,0.345868 0.297388,0 0.596371,-0.129301 0.821018,-0.345868 0.218171,-0.21817 0.345848,-0.515546 0.345848,-0.820997 0,-0.299003 -0.127677,-0.596373 -0.345848,-0.822636 -0.224647,-0.216553 -0.52363,-0.345859 -0.821018,-0.345859 z m 0,-3.413324 c -0.297366,0 -0.596348,0.111509 -0.820991,0.329691 -0.218204,0.216554 -0.345881,0.515553 -0.345881,0.821012 0,0.297373 0.127677,0.59636 0.345881,0.821006 0.216555,0.218188 0.515537,0.345868 0.820991,0.345868 0.297388,0 0.596371,-0.12768 0.821018,-0.345868 0.218171,-0.216573 0.345848,-0.515554 0.345848,-0.821006 0,-0.297381 -0.127677,-0.596372 -0.345848,-0.821012 -0.224647,-0.202011 -0.52363,-0.329691 -0.821018,-0.329691 z m 0,6.828275 c -0.297366,0 -0.596348,0.12768 -0.820991,0.345864 -0.218204,0.216563 -0.345881,0.515551 -0.345881,0.820997 0,0.305466 0.127677,0.596367 0.345881,0.821019 0.216555,0.218175 0.515537,0.345855 0.820991,0.345855 0.297388,0 0.596371,-0.12768 0.821018,-0.345855 0.218171,-0.21656 0.345848,-0.515553 0.345848,-0.821019 0,-0.297364 -0.127677,-0.596346 -0.345848,-0.820997 -0.224647,-0.22627 -0.52363,-0.345864 -0.821018,-0.345864 z m 3.423027,-3.414951 c -0.298979,0 -0.596342,0.129306 -0.822616,0.345859 -0.216571,0.21818 -0.345865,0.51556 -0.345865,0.822636 0,0.297364 0.129294,0.594744 0.345865,0.820997 0.202015,0.216567 0.499401,0.329693 0.822616,0.345868 0.297384,0 0.594757,-0.129301 0.821021,-0.345868 0.200415,-0.21817 0.329698,-0.515546 0.329698,-0.820997 0,-0.299003 -0.113122,-0.596373 -0.329698,-0.822636 -0.21818,-0.216553 -0.523637,-0.345859 -0.821021,-0.345859 z m -10.267463,0 c -0.297364,0 -0.596375,0.129306 -0.821018,0.345859 -0.218175,0.21818 -0.345851,0.51556 -0.345851,0.822636 0,0.297364 0.127676,0.594744 0.345851,0.820997 0.216573,0.216567 0.515558,0.329693 0.821018,0.345868 0.297382,0 0.596363,-0.129301 0.821009,-0.345868 C 8.594923,11.656603 8.7226,11.359227 8.7226,11.053776 8.7226,10.754773 8.594923,10.457403 8.376747,10.23114 8.152101,10.014587 7.85312,9.885281 7.555738,9.885281 Z m 0,-3.413324 c -0.297364,0 -0.596375,0.111509 -0.821018,0.329691 -0.218175,0.216554 -0.345851,0.515553 -0.345851,0.821012 0,0.297373 0.127676,0.59636 0.345851,0.821006 0.216573,0.218188 0.515558,0.345868 0.821018,0.345868 0.297382,0 0.596363,-0.12768 0.821009,-0.345868 C 8.594923,8.227093 8.7226,7.928112 8.7226,7.62266 8.7226,7.325279 8.594923,7.026288 8.376747,6.801648 8.152101,6.599637 7.85312,6.471957 7.555738,6.471957 Z m 0,6.828275 c -0.297364,0 -0.596375,0.12768 -0.821018,0.345864 -0.202013,0.216563 -0.32969,0.515551 -0.32969,0.820997 0,0.305466 0.111515,0.596367 0.32969,0.821019 0.216573,0.218175 0.515558,0.345855 0.821018,0.345855 0.297382,0 0.596363,-0.12768 0.821009,-0.345855 C 8.594923,15.071552 8.7226,14.772559 8.7226,14.467093 8.7226,14.169729 8.594923,13.870747 8.376747,13.646096 8.152101,13.419826 7.85312,13.300232 7.555738,13.300232 Z M 4.148869,9.885281 c -0.297363,0 -0.594751,0.129306 -0.821016,0.345859 C 3.111293,10.44932 2.982,10.7467 2.982,11.045694 c 0,0.297373 0.129293,0.594737 0.345853,0.821006 0.202029,0.216553 0.499399,0.329692 0.821016,0.345859 0.298984,0 0.596369,-0.129306 0.822637,-0.345859 C 5.18806,11.64852 5.317353,11.35114 5.317353,11.045694 5.317353,10.7467 5.18806,10.44932 4.971506,10.223067 4.745238,10.014587 4.447853,9.885281 4.148869,9.885281 Z"
       id="path9-3-1"
       style="fill:url(#linearGradient849);fill-opacity:1;stroke-width:0.0161616"
       inkscape:connector-curvature="0" />
  </g>
</svg>
