<?xml version="1.0" encoding="UTF-8" standalone="no"?>
<svg
   xmlns:dc="http://purl.org/dc/elements/1.1/"
   xmlns:cc="http://creativecommons.org/ns#"
   xmlns:rdf="http://www.w3.org/1999/02/22-rdf-syntax-ns#"
   xmlns:svg="http://www.w3.org/2000/svg"
   xmlns="http://www.w3.org/2000/svg"
   xmlns:xlink="http://www.w3.org/1999/xlink"
   xmlns:sodipodi="http://sodipodi.sourceforge.net/DTD/sodipodi-0.dtd"
   xmlns:inkscape="http://www.inkscape.org/namespaces/inkscape"
   inkscape:version="1.0.1 (3bc2e813f5, 2020-09-07)"
   sodipodi:docname="system.svg"
   viewBox="0 0 22 22"
   id="svg2"
   version="1.1"
   width="22"
   height="22">
  <sodipodi:namedview
     inkscape:document-rotation="0"
     inkscape:snap-intersection-paths="true"
     inkscape:snap-nodes="false"
     inkscape:bbox-nodes="true"
     inkscape:snap-bbox="true"
     inkscape:lockguides="false"
     inkscape:guide-bbox="true"
     showguides="false"
     inkscape:current-layer="svg2"
     inkscape:window-maximized="1"
     inkscape:window-y="0"
     inkscape:window-x="0"
     inkscape:cy="13.639101"
     inkscape:cx="139.09002"
     inkscape:zoom="1.7495076"
     showgrid="false"
     id="namedview78"
     inkscape:window-height="1007"
     inkscape:window-width="1920"
     inkscape:pageshadow="2"
     inkscape:pageopacity="0"
     guidetolerance="10"
     gridtolerance="10"
     objecttolerance="10"
     borderopacity="1"
     bordercolor="#000000"
     pagecolor="#ffffff">
    <inkscape:grid
       id="grid885"
       type="xygrid"
       originx="-0.03782374"
       originy="-10.056003" />
    <sodipodi:guide
       inkscape:locked="false"
       id="guide948"
       orientation="0.70710678,0.70710678"
       position="0.70291626,-95.803384" />
    <sodipodi:guide
       inkscape:locked="false"
       id="guide950"
       orientation="-0.70710678,0.70710678"
       position="0.66587626,-95.819004" />
  </sodipodi:namedview>
  <metadata
     id="metadata62">
    <rdf:RDF>
      <cc:Work
         rdf:about="">
        <dc:format>image/svg+xml</dc:format>
        <dc:type
           rdf:resource="http://purl.org/dc/dcmitype/StillImage" />
        <dc:title />
      </cc:Work>
    </rdf:RDF>
  </metadata>
  <defs
     id="defs3051">
    <linearGradient
       inkscape:collect="always"
       id="linearGradient1015">
      <stop
         style="stop-color:#8585ad;stop-opacity:1"
         offset="0"
         id="stop1010" />
      <stop
         style="stop-color:#80b2b2;stop-opacity:1"
         offset="1"
         id="stop1013" />
    </linearGradient>
    <linearGradient
       id="linearGradient1041"
       x1="16"
       x2="16"
       y1="1"
       y2="31"
       gradientUnits="userSpaceOnUse">
      <stop
         stop-color="#f4282c"
         offset="0"
         id="stop1037" />
      <stop
         stop-color="#fac136"
         offset="1"
         id="stop1039"
         style="stop-color:#ffff00;stop-opacity:1" />
    </linearGradient>
    <linearGradient
       gradientUnits="userSpaceOnUse"
       y2="31"
       y1="1"
       x2="16"
       x1="16"
       id="linearGradient1035">
      <stop
         id="stop1031"
         offset="0"
         stop-color="#f4282c"
         style="stop-color:#6600ff;stop-opacity:1" />
      <stop
         id="stop1033"
         offset="1"
         stop-color="#fac136"
         style="stop-color:#d1b3ff;stop-opacity:1" />
    </linearGradient>
    <linearGradient
       id="linearGradient1023"
       x1="16"
       x2="16"
       y1="1"
       y2="31"
       gradientUnits="userSpaceOnUse">
      <stop
         stop-color="#72da70"
         offset="0"
         id="stop1018" />
      <stop
         stop-color="#52eea4"
         offset="1"
         id="stop1020"
         style="stop-color:#008080;stop-opacity:1" />
    </linearGradient>
    <linearGradient
       id="linearGradient1016"
       x1="16"
       x2="16"
       y1="1"
       y2="31"
       gradientUnits="userSpaceOnUse">
      <stop
         stop-color="#f4282c"
         offset="0"
         id="stop1012" />
      <stop
         stop-color="#fac136"
         offset="1"
         id="stop1014"
         style="stop-color:#ff00ff;stop-opacity:1" />
    </linearGradient>
    <linearGradient
       gradientUnits="userSpaceOnUse"
       y2="1121.5"
       y1="1091.5"
       x2="16"
       x1="16"
       id="linearGradient1131">
      <stop
         id="stop1127"
         offset="0"
         stop-color="#9575cd"
         style="stop-color:#ff6600;stop-opacity:1" />
      <stop
         id="stop1129"
         offset="1"
         stop-color="#cd75bc" />
    </linearGradient>
    <linearGradient
       gradientUnits="userSpaceOnUse"
       y2="31"
       y1="1"
       x2="16"
       x1="16"
       id="linearGradient1093">
      <stop
         id="stop1088"
         offset="0"
         stop-color="#f4282c"
         style="stop-color:#6600ff;stop-opacity:1" />
      <stop
         id="stop1091"
         offset="1"
         stop-color="#fac136" />
    </linearGradient>
    <style
       id="current-color-scheme"
       type="text/css">
      .ColorScheme-Text {
        color:#31363b;
      }
      .ColorScheme-Background {
        color:#eff0f1;
      }
      .ColorScheme-Highlight {
        color:#3daee9;
      }
      .ColorScheme-ViewText {
        color:#31363b;
      }
      .ColorScheme-ViewBackground {
        color:#fcfcfc;
      }
      .ColorScheme-ViewHover {
        color:#93cee9;
      }
      .ColorScheme-ViewFocus{
        color:#3daee9;
      }
      .ColorScheme-ButtonText {
        color:#31363b;
      }
      .ColorScheme-ButtonBackground {
        color:#eff0f1;
      }
      .ColorScheme-ButtonHover {
        color:#93cee9;
      }
      .ColorScheme-ButtonFocus{
        color:#3daee9;
      }
      </style>
    <linearGradient
       id="a"
       x1="16"
       x2="16"
       y1="1"
       y2="31"
       gradientUnits="userSpaceOnUse">
      <stop
         stop-color="#37414a"
         offset="0"
         id="stop929" />
      <stop
         stop-color="#6c7582"
         offset="1"
         id="stop931" />
    </linearGradient>
    <filter
       id="c"
       x="-0.035999998"
       y="-0.035999998"
       width="1.072"
       height="1.072"
       color-interpolation-filters="sRGB">
      <feGaussianBlur
         stdDeviation="0.45000001"
         id="feGaussianBlur934" />
    </filter>
    <filter
       id="b"
       x="-0.035999998"
       y="-0.035999998"
       width="1.072"
       height="1.072"
       color-interpolation-filters="sRGB">
      <feGaussianBlur
         stdDeviation="0.285"
         id="feGaussianBlur937" />
    </filter>
    <linearGradient
       id="a-3"
       x1="16"
       x2="16"
       y1="1"
       y2="31"
       gradientUnits="userSpaceOnUse">
      <stop
         stop-color="#4d83f3"
         offset="0"
         id="stop969" />
      <stop
         stop-color="#46cafa"
         offset="1"
         id="stop971" />
    </linearGradient>
    <filter
       id="c-6"
       x="-0.035999998"
       y="-0.035999998"
       width="1.072"
       height="1.072"
       color-interpolation-filters="sRGB">
      <feGaussianBlur
         stdDeviation="0.45"
         id="feGaussianBlur974" />
    </filter>
    <filter
       id="b-7"
       x="-0.039000001"
       y="-0.033427998"
       width="1.0779999"
       height="1.0669"
       color-interpolation-filters="sRGB">
      <feGaussianBlur
         stdDeviation="0.2367975"
         id="feGaussianBlur977" />
    </filter>
    <linearGradient
       id="a-5"
       x1="16"
       x2="16"
       y1="1"
       y2="31"
       gradientUnits="userSpaceOnUse">
      <stop
         stop-color="#f4282c"
         offset="0"
         id="stop1009" />
      <stop
         stop-color="#fac136"
         offset="1"
         id="stop1011" />
    </linearGradient>
    <filter
       id="c-3"
       x="-0.035999998"
       y="-0.035999998"
       width="1.072"
       height="1.072"
       color-interpolation-filters="sRGB">
      <feGaussianBlur
         stdDeviation="0.45"
         id="feGaussianBlur1014" />
    </filter>
    <filter
       id="b-5"
       x="-0.037287001"
       y="-0.034798998"
       width="1.0746"
       height="1.0696"
       color-interpolation-filters="sRGB">
      <feGaussianBlur
         stdDeviation="0.28136255"
         id="feGaussianBlur1017" />
    </filter>
    <filter
       id="c-62"
       x="-0.035999998"
       y="-0.035999998"
       width="1.072"
       height="1.072"
       color-interpolation-filters="sRGB">
      <feGaussianBlur
         stdDeviation="0.45"
         id="feGaussianBlur1049" />
    </filter>
    <linearGradient
       id="a-9"
       x1="16"
       x2="16"
       y1="1091.5"
       y2="1121.5"
       gradientUnits="userSpaceOnUse">
      <stop
         stop-color="#9575cd"
         offset="0"
         id="stop1052" />
      <stop
         stop-color="#cd75bc"
         offset="1"
         id="stop1054" />
    </linearGradient>
    <filter
       id="b-1"
       x="-0.031500001"
       y="-0.041999999"
       width="1.063"
       height="1.084"
       color-interpolation-filters="sRGB">
      <feGaussianBlur
         stdDeviation="0.21000005"
         id="feGaussianBlur1057" />
    </filter>
    <linearGradient
       id="a-2"
       x1="16"
       x2="16"
       y1="1"
       y2="31"
       gradientUnits="userSpaceOnUse">
      <stop
         stop-color="#ff791d"
         offset="0"
         id="stop1090" />
      <stop
         stop-color="#f8c430"
         offset="1"
         id="stop1092" />
    </linearGradient>
    <filter
       id="c-7"
       x="-0.035999998"
       y="-0.035999998"
       width="1.072"
       height="1.072"
       color-interpolation-filters="sRGB">
      <feGaussianBlur
         stdDeviation="0.45000001"
         id="feGaussianBlur1095" />
    </filter>
    <filter
       id="b-0"
       x="-0.032823998"
       y="-0.039857"
       width="1.0656"
       height="1.0797"
       color-interpolation-filters="sRGB">
      <feGaussianBlur
         stdDeviation="0.2325"
         id="feGaussianBlur1098" />
    </filter>
    <linearGradient
       id="a-93"
       x1="16"
       x2="16"
       y1="1"
       y2="31"
       gradientUnits="userSpaceOnUse">
      <stop
         stop-color="#72da70"
         offset="0"
         id="stop1130" />
      <stop
         stop-color="#52eea4"
         offset="1"
         id="stop1132" />
    </linearGradient>
    <filter
       id="c-60"
       x="-0.035999998"
       y="-0.035999998"
       width="1.072"
       height="1.072"
       color-interpolation-filters="sRGB">
      <feGaussianBlur
         stdDeviation="0.45000001"
         id="feGaussianBlur1135" />
    </filter>
    <filter
       id="b-6"
       x="-0.0405"
       y="-0.032400001"
       width="1.081"
       height="1.0648"
       color-interpolation-filters="sRGB">
      <feGaussianBlur
         stdDeviation="0.2025"
         id="feGaussianBlur1138" />
    </filter>
    <linearGradient
       id="a-26"
       x1="16"
       x2="16"
       y1="-1121.5"
       y2="-1091.5"
       gradientUnits="userSpaceOnUse">
      <stop
         stop-color="#70d8c3"
         offset="0"
         id="stop1173" />
      <stop
         stop-color="#66e26b"
         offset="1"
         id="stop1175" />
    </linearGradient>
    <filter
       id="c-1"
       x="-0.035999998"
       y="-0.035999998"
       width="1.072"
       height="1.072"
       color-interpolation-filters="sRGB">
      <feGaussianBlur
         stdDeviation="0.45"
         id="feGaussianBlur1178" />
    </filter>
    <filter
       id="b-8"
       x="-0.041537002"
       y="-0.031766001"
       width="1.0831"
       height="1.0635"
       color-interpolation-filters="sRGB">
      <feGaussianBlur
         stdDeviation="0.22499171"
         id="feGaussianBlur1181" />
    </filter>
    <linearGradient
       inkscape:collect="always"
       xlink:href="#linearGradient1015"
       id="linearGradient1043"
       x1="3"
       y1="21"
       x2="19"
       y2="21"
       gradientUnits="userSpaceOnUse" />
    <linearGradient
       inkscape:collect="always"
       xlink:href="#linearGradient1015"
       id="linearGradient1051"
       x1="26"
       y1="16"
       x2="50"
       y2="16"
       gradientUnits="userSpaceOnUse" />
    <linearGradient
       inkscape:collect="always"
       xlink:href="#linearGradient1015"
       id="linearGradient1083"
       x1="27.818182"
       y1="16"
       x2="48.18182"
       y2="16"
       gradientUnits="userSpaceOnUse" />
    <linearGradient
       inkscape:collect="always"
       xlink:href="#linearGradient1015"
       id="linearGradient1091"
       x1="26"
       y1="16"
       x2="50"
       y2="16"
       gradientUnits="userSpaceOnUse" />
    <linearGradient
       inkscape:collect="always"
       xlink:href="#linearGradient1015"
       id="linearGradient1099"
       x1="26"
       y1="16"
       x2="50"
       y2="16"
       gradientUnits="userSpaceOnUse" />
    <linearGradient
       inkscape:collect="always"
       xlink:href="#linearGradient1015"
       id="linearGradient1107"
       x1="2.99981"
       y1="20.999859"
       x2="19"
       y2="20.999859"
       gradientUnits="userSpaceOnUse" />
    <linearGradient
       inkscape:collect="always"
       xlink:href="#linearGradient1015"
       id="linearGradient1115"
       x1="26"
       y1="16"
       x2="50"
       y2="16"
       gradientUnits="userSpaceOnUse" />
    <linearGradient
       inkscape:collect="always"
       xlink:href="#linearGradient1015"
       id="linearGradient1123"
       x1="2.999995"
       y1="20.999865"
       x2="18.999994"
       y2="20.999865"
       gradientUnits="userSpaceOnUse" />
    <linearGradient
       inkscape:collect="always"
       xlink:href="#linearGradient1015"
       id="linearGradient1132"
       x1="25"
       y1="16"
       x2="51"
       y2="16"
       gradientUnits="userSpaceOnUse" />
    <linearGradient
       inkscape:collect="always"
       xlink:href="#linearGradient1015"
       id="linearGradient1140"
       x1="24.909092"
       y1="16.000004"
       x2="51.090916"
       y2="16.000004"
       gradientUnits="userSpaceOnUse" />
    <linearGradient
       inkscape:collect="always"
       xlink:href="#linearGradient1015"
       id="linearGradient1017"
       x1="3"
       y1="16"
       x2="29"
       y2="16"
       gradientUnits="userSpaceOnUse"
       gradientTransform="translate(0,0.1)" />
    <linearGradient
       inkscape:collect="always"
       xlink:href="#linearGradient1015"
       id="linearGradient1026"
       x1="9.2520599"
       y1="15.844825"
       x2="22.754963"
       y2="15.844825"
       gradientUnits="userSpaceOnUse" />
    <linearGradient
       inkscape:collect="always"
       xlink:href="#linearGradient1015"
       id="linearGradient1034"
       x1="3"
       y1="16"
       x2="29"
       y2="16"
       gradientUnits="userSpaceOnUse"
       gradientTransform="translate(0,0.1)" />
    <linearGradient
       inkscape:collect="always"
       xlink:href="#linearGradient1015"
       id="linearGradient1042"
       x1="6.7701311"
       y1="9.893795"
       x2="13.651322"
       y2="9.893795"
       gradientUnits="userSpaceOnUse" />
    <linearGradient
       inkscape:collect="always"
       xlink:href="#linearGradient1015"
       id="linearGradient1050"
       x1="15.439267"
       y1="20.667723"
       x2="25.905132"
       y2="20.667723"
       gradientUnits="userSpaceOnUse" />
    <linearGradient
       inkscape:collect="always"
       xlink:href="#linearGradient1015"
       id="linearGradient1060"
       x1="3"
       y1="16"
       x2="29"
       y2="16"
       gradientUnits="userSpaceOnUse"
       gradientTransform="translate(0,0.1)" />
    <linearGradient
       inkscape:collect="always"
       xlink:href="#linearGradient1015"
       id="linearGradient1068"
       x1="14.966204"
       y1="11.016608"
       x2="17.695942"
       y2="11.016608"
       gradientUnits="userSpaceOnUse"
       gradientTransform="matrix(1.1356818,0,0,1.000133,-1.9969609,-8.3367737e-4)" />
    <linearGradient
       inkscape:collect="always"
       xlink:href="#linearGradient1015"
       id="linearGradient1076"
       x1="15.439267"
       y1="20.667723"
       x2="25.905132"
       y2="20.667723"
       gradientUnits="userSpaceOnUse" />
    <linearGradient
       inkscape:collect="always"
       xlink:href="#linearGradient1015"
       id="linearGradient1084"
       x1="3"
       y1="16"
       x2="29"
       y2="16"
       gradientUnits="userSpaceOnUse"
       gradientTransform="translate(0,0.1)" />
    <linearGradient
       inkscape:collect="always"
       xlink:href="#linearGradient1015"
       id="linearGradient1094"
       x1="14.27601"
       y1="15.893779"
       x2="17.66827"
       y2="15.893779"
       gradientUnits="userSpaceOnUse" />
    <linearGradient
       inkscape:collect="always"
       xlink:href="#linearGradient1015"
       id="linearGradient1102"
       x1="3"
       y1="16"
       x2="29"
       y2="16"
       gradientUnits="userSpaceOnUse"
       gradientTransform="translate(95,0.1)" />
    <linearGradient
       inkscape:collect="always"
       xlink:href="#linearGradient1015"
       id="linearGradient1110"
       x1="6.7701311"
       y1="9.893795"
       x2="13.651322"
       y2="9.893795"
       gradientUnits="userSpaceOnUse"
       gradientTransform="translate(95)" />
    <linearGradient
       inkscape:collect="always"
       xlink:href="#linearGradient1015"
       id="linearGradient1126"
       x1="15.439267"
       y1="20.667723"
       x2="25.905132"
       y2="20.667723"
       gradientUnits="userSpaceOnUse"
       gradientTransform="translate(95)" />
    <linearGradient
       inkscape:collect="always"
       xlink:href="#linearGradient1015"
       id="linearGradient1135"
       x1="3"
       y1="16"
       x2="29"
       y2="16"
       gradientUnits="userSpaceOnUse"
       gradientTransform="translate(0,0.1)" />
    <linearGradient
       inkscape:collect="always"
       xlink:href="#linearGradient1015"
       id="linearGradient1143"
       x1="12.181335"
       y1="15.626657"
       x2="20.411043"
       y2="15.626657"
       gradientUnits="userSpaceOnUse"
       gradientTransform="matrix(1.4617772,0,0,1.4617772,-7.8245781,-6.9156951)" />
    <linearGradient
       inkscape:collect="always"
       xlink:href="#linearGradient1015"
       id="linearGradient1151"
       x1="6.7701311"
       y1="9.893795"
       x2="13.651322"
       y2="9.893795"
       gradientUnits="userSpaceOnUse" />
    <linearGradient
       inkscape:collect="always"
       xlink:href="#linearGradient1015"
       id="linearGradient1159"
       x1="15.439267"
       y1="20.667723"
       x2="25.905132"
       y2="20.667723"
       gradientUnits="userSpaceOnUse" />
    <linearGradient
       inkscape:collect="always"
       xlink:href="#linearGradient1015"
       id="linearGradient1167"
       x1="3"
       y1="16"
       x2="29"
       y2="16"
       gradientUnits="userSpaceOnUse"
       gradientTransform="translate(189,0.1)" />
    <linearGradient
       inkscape:collect="always"
       xlink:href="#linearGradient1015"
       id="linearGradient1183"
       x1="6.7701311"
       y1="9.893795"
       x2="13.651322"
       y2="9.893795"
       gradientUnits="userSpaceOnUse"
       gradientTransform="translate(189)" />
    <linearGradient
       inkscape:collect="always"
       xlink:href="#linearGradient1015"
       id="linearGradient1199"
       x1="15.439267"
       y1="20.667723"
       x2="25.905132"
       y2="20.667723"
       gradientUnits="userSpaceOnUse"
       gradientTransform="translate(189)" />
    <linearGradient
       inkscape:collect="always"
       xlink:href="#linearGradient1015"
       id="linearGradient1110-3"
       x1="6.7701311"
       y1="9.893795"
       x2="13.651322"
       y2="9.893795"
       gradientUnits="userSpaceOnUse"
       gradientTransform="scale(0.6875)" />
    <linearGradient
       inkscape:collect="always"
       xlink:href="#linearGradient1015"
       id="linearGradient1126-5"
       x1="15.439267"
       y1="20.667723"
       x2="25.905132"
       y2="20.667723"
       gradientUnits="userSpaceOnUse"
       gradientTransform="scale(0.6875)" />
    <linearGradient
       inkscape:collect="always"
       xlink:href="#linearGradient1015"
       id="linearGradient1076-9"
       x1="15.439267"
       y1="20.667723"
       x2="25.905132"
       y2="20.667723"
       gradientUnits="userSpaceOnUse"
       gradientTransform="matrix(0.6875,0,0,0.6875,0.014,0.092)" />
    <linearGradient
       inkscape:collect="always"
       xlink:href="#linearGradient1015"
       id="linearGradient1068-0"
       x1="14.966204"
       y1="11.016608"
       x2="17.695942"
       y2="11.016608"
       gradientUnits="userSpaceOnUse"
       gradientTransform="matrix(0.6875,0,0,0.6875,0.014,0.092)" />
    <linearGradient
       inkscape:collect="always"
       xlink:href="#linearGradient1015"
       id="linearGradient1094-7"
       x1="14.27601"
       y1="15.893779"
       x2="17.66827"
       y2="15.893779"
       gradientUnits="userSpaceOnUse"
       gradientTransform="matrix(0.6875,0,0,0.6875,0.01232767,0.01504065)" />
    <linearGradient
       inkscape:collect="always"
       xlink:href="#linearGradient1015"
       id="linearGradient1026-7"
       x1="9.2520599"
       y1="15.844825"
       x2="22.754963"
       y2="15.844825"
       gradientUnits="userSpaceOnUse"
       gradientTransform="scale(0.6875)" />
    <linearGradient
       inkscape:collect="always"
       xlink:href="#linearGradient1015"
       id="linearGradient1151-3"
       x1="6.7701311"
       y1="9.893795"
       x2="13.651322"
       y2="9.893795"
       gradientUnits="userSpaceOnUse"
       gradientTransform="scale(0.6875)" />
    <linearGradient
       inkscape:collect="always"
       xlink:href="#linearGradient1015"
       id="linearGradient1159-5"
       x1="15.439267"
       y1="20.667723"
       x2="25.905132"
       y2="20.667723"
       gradientUnits="userSpaceOnUse"
       gradientTransform="scale(0.6875)" />
    <linearGradient
       inkscape:collect="always"
       xlink:href="#linearGradient1015"
       id="linearGradient1143-5"
       x1="12.181335"
       y1="15.626657"
       x2="20.411043"
       y2="15.626657"
       gradientUnits="userSpaceOnUse"
       gradientTransform="matrix(0.88192658,0,0,0.88192653,-3.468221,-2.8384203)" />
    <linearGradient
       inkscape:collect="always"
       xlink:href="#linearGradient1015"
       id="linearGradient1042-3"
       x1="6.7701311"
       y1="9.893795"
       x2="13.651322"
       y2="9.893795"
       gradientUnits="userSpaceOnUse"
       gradientTransform="scale(0.6875)" />
    <linearGradient
       inkscape:collect="always"
       xlink:href="#linearGradient1015"
       id="linearGradient1050-5"
       x1="15.439267"
       y1="20.667723"
       x2="25.905132"
       y2="20.667723"
       gradientUnits="userSpaceOnUse"
       gradientTransform="scale(0.6875)" />
    <linearGradient
       inkscape:collect="always"
       xlink:href="#linearGradient1015"
       id="linearGradient1183-3"
       x1="6.7701311"
       y1="9.893795"
       x2="13.651322"
       y2="9.893795"
       gradientUnits="userSpaceOnUse"
       gradientTransform="matrix(0.6875,0,0,0.6875,53.962176,-0.056)" />
    <linearGradient
       inkscape:collect="always"
       xlink:href="#linearGradient1015"
       id="linearGradient1199-5"
       x1="15.439267"
       y1="20.667723"
       x2="25.905132"
       y2="20.667723"
       gradientUnits="userSpaceOnUse"
       gradientTransform="matrix(0.6875,0,0,0.6875,53.962176,-0.056)" />
    <linearGradient
       inkscape:collect="always"
       xlink:href="#linearGradient1015"
       id="linearGradient1067"
       x1="2.1003237"
       y1="11.12475"
       x2="19.975325"
       y2="11.12475"
       gradientUnits="userSpaceOnUse"
       gradientTransform="translate(-0.03782374,-0.056)" />
    <linearGradient
       inkscape:collect="always"
       xlink:href="#linearGradient1015"
       id="linearGradient1075"
       x1="2.0764999"
       y1="11.16075"
       x2="19.9515"
       y2="11.16075"
       gradientUnits="userSpaceOnUse" />
    <linearGradient
       inkscape:collect="always"
       xlink:href="#linearGradient1015"
       id="linearGradient1085"
       x1="2.0748277"
       y1="11.083791"
       x2="19.949827"
       y2="11.083791"
       gradientUnits="userSpaceOnUse" />
    <linearGradient
       inkscape:collect="always"
       xlink:href="#linearGradient1015"
       id="linearGradient1095"
       x1="2.0625"
       y1="11.06875"
       x2="19.9375"
       y2="11.06875"
       gradientUnits="userSpaceOnUse" />
    <linearGradient
       inkscape:collect="always"
       xlink:href="#linearGradient1015"
       id="linearGradient1103"
       x1="2.0625"
       y1="11.06875"
       x2="19.9375"
       y2="11.06875"
       gradientUnits="userSpaceOnUse" />
    <linearGradient
       inkscape:collect="always"
       xlink:href="#linearGradient1015"
       id="linearGradient1111"
       x1="2.0625"
       y1="11.06875"
       x2="19.9375"
       y2="11.06875"
       gradientUnits="userSpaceOnUse" />
    <linearGradient
       inkscape:collect="always"
       xlink:href="#linearGradient1015"
       id="linearGradient1119"
       x1="2.0625"
       y1="11.06875"
       x2="19.9375"
       y2="11.06875"
       gradientUnits="userSpaceOnUse"
       gradientTransform="translate(53.962176,-0.056)" />
    <linearGradient
       inkscape:collect="always"
       xlink:href="#linearGradient1015"
       id="linearGradient1071"
       x1="104.89"
       y1="16.604996"
       x2="117.03544"
       y2="16.604996"
       gradientUnits="userSpaceOnUse" />
    <linearGradient
       inkscape:collect="always"
       xlink:href="#linearGradient1015"
       id="linearGradient1079"
       x1="198.855"
       y1="12.699995"
       x2="211.00044"
       y2="12.699995"
       gradientUnits="userSpaceOnUse"
       gradientTransform="matrix(0.93748904,0,0,0.93748904,12.430617,0.54384536)" />
    <linearGradient
       inkscape:collect="always"
       xlink:href="#linearGradient1015"
       id="linearGradient1088"
       x1="198.855"
       y1="19.499929"
       x2="211"
       y2="19.499929"
       gradientUnits="userSpaceOnUse"
       gradientTransform="matrix(0.93748104,0,0,0.93748104,12.432176,0.96904059)" />
    <linearGradient
       inkscape:collect="always"
       xlink:href="#linearGradient1015"
       id="linearGradient1072"
       x1="7.1999998"
       y1="10.744"
       x2="14.788811"
       y2="10.744"
       gradientUnits="userSpaceOnUse" />
    <linearGradient
       inkscape:collect="always"
       xlink:href="#linearGradient1015"
       id="linearGradient1080"
       x1="61.370983"
       y1="13.244573"
       x2="68.962173"
       y2="13.244573"
       gradientUnits="userSpaceOnUse" />
    <linearGradient
       inkscape:collect="always"
       xlink:href="#linearGradient1015"
       id="linearGradient1089"
       x1="61.372295"
       y1="8.9771099"
       x2="69.062302"
       y2="8.9771099"
       gradientUnits="userSpaceOnUse" />
  </defs>
  <g
     id="22-22-system-save-session"
     transform="translate(111.96218,21.944004)">
    <path
       style="fill:url(#linearGradient1107);fill-opacity:1;stroke:none"
       d="m 2.999995,13.003509 v 0 0.9999 15 H 4 19 v -0.9999 -11.0001 -0.69915 h -0.007 l 0.007,-0.015 -3.29297,-3.29295 -0.008,0.015 v -0.015 h -0.69922 -12 z M 4,14.005359 h 3 v 4.00005 1.00005 h 8 v -1.00005 -4.00005 h 0.29298 L 18,16.712409 v 0.29295 11.0001 h -2 v -7.00005 H 15 7 5.999995 v 7.00005 H 4 Z m 4.000005,0 h 3.90039 v 4.00005 H 8.000005 Z M 7,22.005459 h 8 v 6 H 7 Z"
       class="ColorScheme-Text"
       id="path37" />
    <path
       style="opacity:1;fill:none"
       d="M 0,10 V 32 H 22 V 10 Z"
       id="path39" />
  </g>
  <g
     id="system-save-session"
     transform="translate(111.96218,21.944004)">
    <path
       style="fill:url(#linearGradient1099);fill-opacity:1;stroke:none"
       d="m 26,4 v 24 h 5 14 5 V 10 L 49,9 45,5 44,4 H 43 32 Z m 1,1 h 5 v 8 H 43 V 5 h 0.585938 L 49,10.414062 V 27 H 45 V 19 H 31 v 8 h -4 z m 6,0 h 6 v 7 h -6 z m -1,15 h 12 v 7 H 32 Z"
       class="ColorScheme-Text"
       id="path42" />
    <path
       style="opacity:1;fill:none"
       d="M 22,0 V 32 H 54 V 0 Z"
       id="path44" />
  </g>
  <g
     id="22-22-system-users"
     transform="translate(53.962176,21.944004)">
    <path
       style="fill:url(#linearGradient1123);fill-opacity:1;stroke:none"
       d="m 13.999995,12.999864 c -1.661999,0 -3,1.338 -3,3 0,1.662 1.338001,3 3,3 1.661999,0 3,-1.338 3,-3 0,-1.662 -1.338001,-3 -3,-3 z m -6,3 c -1.661999,0 -3,1.338 -3,3 0,1.662 1.338001,3 3,3 1.661999,0 3,-1.338 3,-3 0,-1.662 -1.338001,-3 -3,-3 z m 6,4 c -0.646349,0 -1.255999,0.134093 -1.818359,0.361328 l 0.455078,0.914063 c 0.427816,-0.1605 0.877758,-0.275391 1.363281,-0.275391 2.216023,0 4,1.783975 4,4 h -3.5 l 0.5,1 h 4 v -1 c 0,-2.77002 -2.229982,-5 -5,-5 z m -6,3 c -2.770018,0 -5,2.22998 -5,5 v 1 h 10 v -1 c 0,-2.77002 -2.229982,-5 -5,-5 z m 0,1 c 2.216008,0 4,1.783975 4,4 h -8 c 0,-2.216025 1.783977,-4 4,-4 z"
       class="ColorScheme-Text"
       id="path87" />
    <path
       style="opacity:1;fill:none"
       d="M 0,10 V 32 H 22 V 10 Z"
       id="path89" />
  </g>
  <g
     id="system-users"
     transform="translate(53.962176,21.944004)">
    <path
       style="fill:url(#linearGradient1115);fill-opacity:1;stroke:none"
       d="M 42.5,4 A 4.5,4.5 0 0 0 38,8.5 4.5,4.5 0 0 0 42.5,13 4.5,4.5 0 0 0 47,8.5 4.5,4.5 0 0 0 42.5,4 Z m 0,1 A 3.5,3.5 0 0 1 46,8.5 3.5,3.5 0 0 1 42.5,12 3.5,3.5 0 0 1 39,8.5 3.5,3.5 0 0 1 42.5,5 Z m -9,4 C 31.014719,9 29,11.014719 29,13.5 29,15.985281 31.014719,18 33.5,18 35.985281,18 38,15.985281 38,13.5 38,11.014719 35.985281,9 33.5,9 Z m 0,1 A 3.5,3.5 0 0 1 37,13.5 3.5,3.5 0 0 1 33.5,17 3.5,3.5 0 0 1 30,13.5 3.5,3.5 0 0 1 33.5,10 Z m 9,4 c -0.88285,0.003 -1.758266,0.172285 -2.585938,0.5 -0.06618,0.423679 -0.174132,0.839768 -0.322265,1.242188 C 40.494507,15.254879 41.490227,15.000767 42.5,15 c 3.589851,0 6.5,3.134007 6.5,7 h -8.341797 c 0.170323,0.323289 0.325499,0.657112 0.464844,1 H 50 v -1 c 0,-4.418278 -3.357864,-8 -7.5,-8 z m -9,5 C 29.357864,19 26,22.581722 26,27 v 1 h 15 v -1 c 0,-4.418278 -3.357864,-8 -7.5,-8 z m 0,1 c 3.589851,0 6.5,3.134007 6.5,7 H 27 c 0,-3.865993 2.910149,-7 6.5,-7 z"
       class="ColorScheme-Text"
       id="path92" />
    <path
       style="opacity:1;fill:none"
       d="M 22,0 V 32 H 54 V 0 Z"
       id="path94" />
  </g>
  <g
     id="22-22-system-search"
     transform="translate(-0.03782374,-42.055996)">
    <path
       style="fill:url(#linearGradient1043);fill-opacity:1;stroke:none"
       d="m 9.0000001,13 c -3.3240047,0 -6,2.675995 -6,6 0,3.324005 2.6759953,6 6,6 C 10.481206,25 11.830584,24.465318 12.875,23.582031 L 18.292969,29 19,28.292969 13.582032,22.875 C 14.465318,21.830584 15,20.481205 15,19 15,15.675995 12.324005,13 9.0000001,13 Z m 0,1 C 11.770005,14 14,16.229995 14,19 c 0,2.770005 -2.229995,5 -4.9999999,5 -2.7700048,0 -5,-2.229995 -5,-5 0,-2.770005 2.2299952,-5 5,-5 z"
       class="ColorScheme-Text"
       id="path61" />
    <path
       style="opacity:1;fill:none"
       d="M 0,10 V 32 H 22 V 10 Z"
       id="path63" />
  </g>
  <g
     id="system-search"
     transform="translate(-0.03782374,-42.055996)">
    <path
       style="fill:url(#linearGradient1051);fill-opacity:1;stroke:none"
       d="m 35,4 a 9,9 0 0 0 -9,9 9,9 0 0 0 9,9 9,9 0 0 0 5.994141,-2.298828 L 49.292969,28 50,27.292969 41.699219,18.992187 A 9,9 0 0 0 44,13 9,9 0 0 0 35,4 Z m 0,1 a 8,8 0 0 1 8,8 8,8 0 0 1 -8,8 8,8 0 0 1 -8,-8 8,8 0 0 1 8,-8 z"
       class="ColorScheme-Text"
       id="path66" />
    <path
       style="opacity:1;fill:none"
       d="M 22,0 V 32 H 54 V 0 Z"
       id="path68" />
  </g>
  <g
     id="system-user-list"
     transform="translate(107.96218,-10.056003)">
    <path
       style="fill:url(#linearGradient1091);fill-opacity:1;stroke:none"
       d="m 45,9 c -0.58947,0 -1.13295,0.174573 -1.59375,0.46875 0.04318,0.464252 0.0075,0.922667 -0.008,1.335882 C 43.775357,10.29878 44.369053,10.00054 45,10 c 1.104569,0 2,0.895431 2,2 0,1.104569 -0.895431,2 -2,2 -1.040548,-5.56e-4 -1.906833,-0.798896 -1.99219,-1.835938 -0.184344,0.419479 -0.464656,0.770321 -0.6956,1.09959 -10e-4,0.0013 -0.003,0.0026 -0.004,0.0039 C 42.78421,14.287279 43.79697,15 45,15 c 1.66119,0 2.99805,-1.338 2.99805,-3 0,-1.662 -1.33686,-3 -2.99805,-3 z m -6.99999,9 C 42.43204,18 46,21.56798 46,26 H 30 c 0,-4.43202 3.56798,-8 8.00001,-8 z m 10e-6,-1 C 33.01445,17 29,20.716633 29,25.333333 V 27 H 47 V 25.333333 C 47,20.716633 42.98557,17 38.00002,17 Z m 6.97654,-1 c -1.26188,4.88e-4 -2.39619,0.47884 -3.27539,1.240234 0.380034,0.156147 0.766084,0.335754 1.142399,0.50783 0.005,0.0025 0.009,0.0052 0.0137,0.0078 C 43.47258,17.305934 44.19048,17 44.97461,17 c 2.22686,5e-5 4.02344,2.337992 4.02344,4 h -2.72852 c 0.196162,0.339095 0.301576,0.64811 0.449,1 H 50 v -1 c 0,-2.769366 -2.2402,-4.998947 -5.02148,-5 z M 38,5.9999995 c 2.20915,0 4,1.7908576 4,4.0000005 0,2.209141 -1.79085,4 -4,4 -2.20915,0 -4,-1.790859 -4,-4 0,-2.2091429 1.79085,-4.0000005 4,-4.0000005 z m 0,-1 c -2.76144,0 -5,2.2385703 -5,5.0000005 0,2.76143 2.23856,5 5,5 2.350785,0 4.322665,-1.622301 4.857137,-3.808418 C 42.950498,10.809711 43,10.410637 43,10 43,7.2385698 40.76142,4.9999995 38,4.9999995 Z M 31.02344,16 c 1.26188,4.88e-4 2.39619,0.47884 3.27539,1.240234 -0.404465,0.162919 -0.805479,0.355411 -1.156104,0.515606 C 32.52742,17.305934 31.80952,17 31.02539,17 c -2.22686,5e-5 -4.02344,2.337992 -4.02344,4 h 2.72852 c -0.186972,0.33326 -0.318326,0.689701 -0.449,1 H 26 v -1 c 0,-2.769366 2.2402,-4.998947 5.02148,-5 z M 30.99805,9 c 0.58947,0 1.13295,0.174573 1.59375,0.46875 -0.04841,0.460072 -0.0093,0.927542 0.008,1.33588 C 32.222693,10.29878 31.628997,10.00054 30.99805,10 c -1.104569,0 -2,0.895431 -2,2 0,1.104569 0.895431,2 2,2 1.040548,-5.56e-4 1.906833,-0.798896 1.99219,-1.835938 0.188312,0.402683 0.471649,0.770111 0.6956,1.09959 10e-4,0.0013 0.003,0.0026 0.004,0.0039 C 33.21384,14.287279 32.20108,15 30.99805,15 29.33686,15 28,13.662 28,12 28,10.338 29.33686,9.000001 30.99805,9 Z"
       class="ColorScheme-Text"
       id="path110" />
    <path
       style="opacity:1;fill:none"
       d="M 22,0 V 32 H 54 V 0 Z"
       id="path84-3" />
  </g>
  <g
     id="system-user-prompt"
     transform="translate(111.96218,53.944004)">
    <path
       style="opacity:1;fill:none"
       d="M 22,0 V 32 H 54 V 0 Z"
       id="path44-5" />
    <path
       style="fill:url(#linearGradient1132);fill-opacity:1;stroke:none"
       d="m 37,10.75 v 1.5 h 5 v -1.5 z m -4,0 v 1.5 h 3 v -1.5 z m -6,0 v 1.5 h 5 v -1.5 z M 26,9 h 24 v 5 H 26 Z M 25,8 v 7 H 51 V 8 Z m 1,10 h 24 v 5 H 26 Z m -1,-1 v 7 h 26 v -7 z m 3.5,2 C 27.671573,19 27,19.671573 27,20.5 27,21.328427 27.671573,22 28.5,22 29.328427,22 30,21.328427 30,20.5 30,19.671573 29.328427,19 28.5,19 Z m 4,0 C 31.671573,19 31,19.671573 31,20.5 31,21.328427 31.671573,22 32.5,22 33.328427,22 34,21.328427 34,20.5 34,19.671573 33.328427,19 32.5,19 Z m 4,0 C 35.671573,19 35,19.671573 35,20.5 35,21.328427 35.671573,22 36.5,22 37.328427,22 38,21.328427 38,20.5 38,19.671573 37.328427,19 36.5,19 Z m 4,0 C 39.671573,19 39,19.671573 39,20.5 39,21.328427 39.671573,22 40.5,22 41.328427,22 42,21.328427 42,20.5 42,19.671573 41.328427,19 40.5,19 Z"
       class="ColorScheme-Text"
       id="path889" />
  </g>
  <g
     style="stroke-width:1.45455"
     id="22-22-system-user-prompt"
     transform="matrix(0.6875,0,0,0.6875,96.837176,63.944004)">
    <path
       style="fill:url(#linearGradient1140);fill-opacity:1;stroke:none"
       d="m 35.818183,21.09091 a 0.72727275,0.72727275 0 0 1 -0.727272,0.727273 0.72727275,0.72727275 0 0 1 -0.727273,-0.727273 0.72727275,0.72727275 0 0 1 0.727273,-0.727273 0.72727275,0.72727275 0 0 1 0.727272,0.727273 z m -2.181818,0 a 0.72727275,0.72727275 0 0 1 -0.727273,0.727273 0.72727275,0.72727275 0 0 1 -0.727272,-0.727273 0.72727275,0.72727275 0 0 1 0.727272,-0.727273 0.72727275,0.72727275 0 0 1 0.727273,0.727273 z m -2.181818,0 a 0.72727275,0.72727275 0 0 1 -0.727273,0.727273 0.72727275,0.72727275 0 0 1 -0.727273,-0.727273 0.72727275,0.72727275 0 0 1 0.727273,-0.727273 0.72727275,0.72727275 0 0 1 0.727273,0.727273 z m -2.181818,0 a 0.72727275,0.72727275 0 0 1 -0.727273,0.727273 0.72727275,0.72727275 0 0 1 -0.727273,-0.727273 0.72727275,0.72727275 0 0 1 0.727273,-0.727273 0.72727275,0.72727275 0 0 1 0.727273,0.727273 z m 5.81818,-10.909091 H 38 v 1.454545 h -2.909091 z m -2.909091,0 h 1.454545 v 1.454545 h -1.454545 z m -4.363635,0 h 2.909091 v 1.454545 h -2.909091 z m -2.909091,7.272727 v 7.272728 h 26.181819 v -7.272728 z m 1.454546,1.454546 h 23.272728 v 4.363636 H 26.363638 Z M 24.909097,7.2727345 V 14.545462 H 51.090916 V 7.2727345 Z M 26.363643,8.72728 h 23.272728 v 4.363637 H 26.363643 Z"
       class="ColorScheme-Text"
       id="path909-5" />
    <path
       style="opacity:1;fill:none"
       d="M 22,0 V 32 H 54 V 0 Z"
       id="path44-5-7" />
  </g>
  <g
     style="stroke-width:1.45455"
     id="22-22-system-user-list"
     transform="matrix(0.6875,0,0,0.6875,92.837176,-0.056)">
    <path
       style="fill:url(#linearGradient1083);fill-opacity:1;stroke:none"
       d="m 44.552119,10.181819 c -0.374531,0 -0.720437,0.103636 -1.028408,0.269887 1.89e-4,0.0019 -0.09527,0.05843 -0.09498,0.06047 0.114764,1.452661 -0.249454,2.376872 -0.665091,3.098603 0.396059,0.563505 1.048422,0.934682 1.788481,0.934682 1.025803,0 1.886094,-0.707989 2.119316,-1.661932 0.04073,-0.166636 0.06255,-0.340697 0.06255,-0.519887 -1.4e-5,-1.204987 -0.976843,-2.181818 -2.181818,-2.181818 z m -13.097528,0 c 0.374531,0 0.720436,0.103636 1.028407,0.269887 -1.89e-4,0.0019 0.09527,0.05843 0.09498,0.06047 -0.114764,1.452661 0.249455,2.376872 0.665091,3.098603 -0.396058,0.563505 -1.048422,0.934682 -1.78848,0.934682 -1.025804,0 -1.886095,-0.707989 -2.119317,-1.661932 -0.04073,-0.166636 -0.06254,-0.340697 -0.06254,-0.519887 1.4e-5,-1.204987 0.976844,-2.181818 2.181818,-2.181818 z m -4.4e-5,5.818168 c 1.226473,0 2.302211,0.565518 2.960233,1.477273 -0.369265,0.195739 -0.745004,0.436224 -1.070982,0.630662 -0.358356,-0.422659 -1.025004,-0.65339 -1.889251,-0.65339 -1.309454,0 -2.18182,0.960799 -2.18182,2.909104 h 1.818182 l -0.727273,1.454546 h -2.545454 l 1e-6,-2.21024 c 10e-7,-2.093049 1.622008,-3.607955 3.636364,-3.607955 z m 13.09091,1.4e-5 c -1.226473,0 -2.302211,0.565519 -2.960233,1.477273 0.369265,0.19574 0.745004,0.436224 1.070982,0.630662 0.358356,-0.422659 1.025003,-0.653389 1.889251,-0.653389 1.309454,0 2.181816,0.993887 2.181816,2.909089 h -1.818182 l 0.727273,1.454546 h 2.545454 l 2e-6,-2.210225 c 2e-6,-2.093049 -1.622007,-3.607956 -3.636363,-3.607956 z M 38,18.909091 c 2.909091,0 5.818182,1.454545 5.818182,5.818182 H 32.181818 c 0,-4.363637 2.909091,-5.818182 5.818182,-5.818182 z m 0,-1.454546 c -4.230226,0 -7.261221,2.974329 -7.269818,7.272728 l -0.0029,1.454545 h 14.545454 l -0.0029,-1.454545 C 45.261176,20.405961 42.230211,17.454545 38,17.454545 Z m 7.5e-5,-11.6363628 c -2.81168,0 -5.090953,2.2792686 -5.090953,5.0909048 0,2.811643 2.279273,5.090914 5.090953,5.090914 2.393556,0 4.401294,-1.651796 4.945498,-3.877663 0.09498,-0.388814 0.145469,-0.795143 0.145469,-1.213251 0,-2.8116362 -2.279316,-5.0909048 -5.090967,-5.0909048 z"
       class="ColorScheme-Text"
       id="path340-1-2" />
    <path
       style="opacity:1;fill:none"
       d="M 22,0 V 32 H 54 V 0 Z"
       id="path84-3-7" />
  </g>
  <g
     style="isolation:auto;mix-blend-mode:normal;fill:#ffffff"
     id="g1147"
     transform="translate(167.96218,-83.055996)" />
  <g
     style="fill:#ffffff;stroke-width:2;stroke-linecap:round;stroke-linejoin:round"
     id="g1194"
     transform="translate(214.96218,-1173.556)" />
  <g
     id="system-suspend"
     transform="translate(-68.037824,-83.055996)">
    <path
       id="path938"
       overflow="visible"
       d="M 16,0 C 7.1723733,0 0,7.1723733 0,16 0,24.827627 7.1723733,32 16,32 24.827627,32 32,24.827627 32,16 32,7.1723733 24.827627,0 16,0 Z"
       inkscape:connector-curvature="0"
       style="color:#000000;overflow:visible;opacity:0;fill:none;fill-opacity:1;stroke-width:1.06667" />
    <path
       d="m 16,29.1 c -7.1682,0 -13,-5.8318 -13,-13 0,-7.1682 5.8318,-13 13,-13 2.0176,0 3.952289,0.4498 5.748889,1.3369778 0.286,0.1412667 0.403289,0.4876444 0.262022,0.7739333 -0.140978,0.286 -0.487355,0.4035778 -0.773933,0.2623111 C 19.601,4.6652 17.838778,4.2555556 16,4.2555556 9.4690889,4.2555556 4.1555556,9.5690889 4.1555556,16.1 c 0,6.530911 5.3135333,11.844445 11.8444444,11.844445 6.530911,0 11.844445,-5.313534 11.844445,-11.844445 0,-2.282222 -0.650289,-4.497711 -1.880378,-6.4066889 C 25.791022,9.4249334 25.868445,9.0672889 26.136822,8.8945334 26.4052,8.7220667 26.762556,8.7989111 26.9356,9.0672889 28.285867,11.163467 29,13.595333 29,16.1 c 0,7.1682 -5.8318,13 -13,13 z"
       style="fill:url(#linearGradient1017);fill-opacity:1;fill-rule:nonzero;stroke:none;stroke-width:0.288889;stroke-linecap:butt;stroke-linejoin:miter;stroke-miterlimit:10;stroke-dasharray:none"
       id="path48"
       stroke-linecap="round" />
    <path
       d="m 17.951604,17.558766 -0.0013,-8.4e-5 h 2.857875 c 1.074624,0 1.946784,-0.767825 1.946784,-1.713896 0,-0.94607 -0.87216,-1.713896 -1.946784,-1.713896 h -2.857875 l -0.459183,0.008 c -1.074415,0.0186 -2.355301,-0.0017 -3.429924,-0.0017 -1.074624,0 -0.146415,0.938529 -1.99e-4,0.0013 l 1.99e-4,-0.0013 -2.862353,-0.0063 c -1.07462,-0.0023 -1.9467843,0.767826 -1.9467843,1.713896 0,0.946071 0.8721563,1.713896 1.9467843,1.713896 h 2.857896 l -0.0084,-0.01099 c -0.600076,-0.784829 -1.083566,-0.0014 -0.009,-0.0014 1.074623,0 -1.069585,0.01103 0.006,0.01136 z"
       style="fill:url(#linearGradient1026);fill-opacity:1;fill-rule:nonzero;stroke:none;stroke-width:0.913325;stroke-linecap:butt;stroke-linejoin:miter;stroke-miterlimit:10;stroke-dasharray:none"
       id="path12-8"
       sodipodi:nodetypes="scssscssscssscssss"
       stroke-linecap="round" />
  </g>
  <g
     id="system-shutdown"
     transform="translate(25.962176,-83.055996)">
    <path
       style="color:#000000;overflow:visible;opacity:0;fill:none;fill-opacity:1;stroke-width:1.06667"
       id="path945"
       overflow="visible"
       d="M 16,0 C 7.1714133,0 0,7.1714133 0,16 0,24.828587 7.1714133,32 16,32 24.828587,32 32,24.828587 32,16 32,7.1714133 24.828587,0 16,0 Z"
       inkscape:connector-curvature="0" />
    <path
       id="path8-0"
       style="fill:url(#linearGradient1076);fill-opacity:1;fill-rule:nonzero;stroke:none;stroke-width:0.288889;stroke-linecap:butt;stroke-linejoin:miter;stroke-miterlimit:10;stroke-dasharray:none"
       d="m 16.017044,25.9008 c -0.318933,0 -0.577777,-0.258844 -0.577777,-0.577778 0,-0.318933 0.258844,-0.577777 0.577777,-0.577777 4.814912,0 8.732534,-3.917623 8.732534,-8.732823 0,-0.318933 0.258844,-0.577778 0.577778,-0.577778 0.318933,0 0.577777,0.258845 0.577777,0.577778 0,5.452778 -4.4356,9.888378 -9.888089,9.888378 z"
       stroke-linecap="round" />
    <path
       id="path10-6"
       style="fill:url(#linearGradient1060);fill-opacity:1;fill-rule:nonzero;stroke:none;stroke-width:0.288889;stroke-linecap:butt;stroke-linejoin:miter;stroke-miterlimit:10;stroke-dasharray:none"
       d="m 16,29.1 c -7.1682,0 -13,-5.8318 -13,-13 0,-7.1682 5.8318,-13 13,-13 2.0176,0 3.952289,0.4498 5.748889,1.3369778 0.286,0.1412667 0.403289,0.4876444 0.262022,0.7739333 -0.140978,0.286 -0.487355,0.4035778 -0.773933,0.2623111 C 19.601,4.6652 17.838778,4.2555556 16,4.2555556 9.4690889,4.2555556 4.1555556,9.5690889 4.1555556,16.1 c 0,6.530911 5.3135333,11.844445 11.8444444,11.844445 6.530911,0 11.844445,-5.313534 11.844445,-11.844445 0,-2.282222 -0.650289,-4.497711 -1.880378,-6.4066889 C 25.791022,9.4249334 25.868445,9.0672889 26.136822,8.8945334 26.4052,8.7220667 26.762556,8.7989111 26.9356,9.0672889 28.285867,11.163467 29,13.595333 29,16.1 c 0,7.1682 -5.8318,13 -13,13 z"
       stroke-linecap="round" />
    <path
       sodipodi:nodetypes="scssscssscssscssss"
       id="path12"
       style="fill:url(#linearGradient1068);fill-opacity:1;fill-rule:nonzero;stroke:none;stroke-width:0.719036;stroke-linecap:butt;stroke-linejoin:miter;stroke-miterlimit:10;stroke-dasharray:none"
       d="m 18.1,9.6820427 -7.5e-5,9.247e-4 V 7.7242658 C 18.099925,6.9877513 17.405544,6.39 16.549966,6.39 c -0.855578,0 -1.549962,0.5977513 -1.549962,1.3342658 v 1.9587016 l 0.0072,0.3147105 c 0.01682,0.7363721 -0.0014,1.6142511 -0.0014,2.3507651 0,0.736516 0.848759,0.10035 0.0012,1.36e-4 l -0.0012,-1.36e-4 -0.0058,1.961771 c -0.002,0.736513 0.694382,1.334267 1.549962,1.334267 0.855578,0 1.549959,-0.597753 1.549959,-1.334267 v -1.958717 l -0.01002,0.0057 c -0.70976,0.411275 -0.0014,0.742643 -0.0014,0.0061 0,-0.736514 0.01002,0.733061 0.01022,-0.004 z"
       stroke-linecap="round" />
  </g>
  <g
     id="system-suspend-hibernate"
     transform="translate(72.962176,-83.055996)">
    <circle
       style="opacity:0;fill:#000000;fill-opacity:1;stroke-width:1.06667"
       id="circle949"
       r="16"
       cy="16"
       cx="16" />
    <path
       id="path48-6"
       style="fill:url(#linearGradient1084);fill-opacity:1;fill-rule:nonzero;stroke:none;stroke-width:0.288889;stroke-linecap:butt;stroke-linejoin:miter;stroke-miterlimit:10;stroke-dasharray:none"
       d="m 16,29.1 c -7.1682,0 -13,-5.8318 -13,-13 0,-7.1682 5.8318,-13 13,-13 2.0176,0 3.952289,0.4498 5.748889,1.3369778 0.286,0.1412667 0.403289,0.4876444 0.262022,0.7739333 -0.140978,0.286 -0.487355,0.4035778 -0.773933,0.2623111 C 19.601,4.6652 17.838778,4.2555556 16,4.2555556 9.4690889,4.2555556 4.1555556,9.5690889 4.1555556,16.1 c 0,6.530911 5.3135333,11.844445 11.8444444,11.844445 6.530911,0 11.844445,-5.313534 11.844445,-11.844445 0,-2.282222 -0.650289,-4.497711 -1.880378,-6.4066889 C 25.791022,9.4249334 25.868445,9.0672889 26.136822,8.8945334 26.4052,8.7220667 26.762556,8.7989111 26.9356,9.0672889 28.285867,11.163467 29,13.595333 29,16.1 c 0,7.1682 -5.8318,13 -13,13 z"
       stroke-linecap="round" />
    <path
       sodipodi:nodetypes="scssscssscssscssss"
       id="path12-8-7"
       style="fill:url(#linearGradient1094);fill-opacity:1;fill-rule:nonzero;stroke:none;stroke-width:0.908567;stroke-linecap:butt;stroke-linejoin:miter;stroke-miterlimit:10;stroke-dasharray:none"
       d="m 14.27601,17.841871 8.2e-5,-0.0013 v 2.857876 c 0,1.074623 0.759847,1.946784 1.696087,1.946784 0.93624,0 1.696087,-0.872161 1.696087,-1.946784 v -2.857876 l -0.0079,-0.459183 c -0.01841,-1.074414 0.0017,-2.3553 0.0017,-3.429924 0,-1.074623 -0.928777,-0.146414 -0.0012,-1.98e-4 l 0.0012,1.98e-4 0.0062,-2.862353 c 0.0023,-1.07462 -0.759847,-1.9467837 -1.696087,-1.9467837 -0.93624,0 -1.696087,0.8721567 -1.696087,1.9467837 v 2.857896 l 0.01088,-0.0084 c 0.776674,-0.600076 0.0014,-1.083566 0.0014,-0.009 0,1.074624 -0.01092,-1.069584 -0.01124,0.006 z"
       stroke-linecap="round" />
  </g>
  <g
     id="system-lock-screen"
     transform="translate(167.96218,-83.055996)">
    <path
       style="color:#000000;overflow:visible;opacity:0;fill:none;fill-opacity:1;stroke-width:1.06667"
       id="path953"
       overflow="visible"
       d="M 16,0 C 7.1723733,0 0,7.1723733 0,16 0,24.827627 7.1723733,32 16,32 24.827627,32 32,24.827627 32,16 32,7.1723733 24.827627,0 16,0 Z"
       inkscape:connector-curvature="0" />
    <path
       id="path6-5"
       style="fill:url(#linearGradient1151);fill-opacity:1;fill-rule:nonzero;stroke:none;stroke-width:0.288889;stroke-linecap:butt;stroke-linejoin:miter;stroke-miterlimit:10;stroke-dasharray:none"
       d="m 7.3477778,13.188533 c -0.0702,0 -0.1418445,-0.01271 -0.2108889,-0.04016 C 6.8399111,13.031667 6.6937333,12.696267 6.8101556,12.399289 7.8856889,9.6609111 10.102044,7.5578 12.890978,6.6290222 c 0.302178,-0.1014 0.629778,0.062978 0.7306,0.3657334 0.100822,0.3027555 -0.06298,0.6300666 -0.365734,0.7306 C 10.792778,8.5455111 8.8352667,10.403067 7.8856889,12.821644 7.7964222,13.049289 7.5786,13.188533 7.3477778,13.188533 Z"
       stroke-linecap="round" />
    <path
       id="path8-92"
       style="fill:url(#linearGradient1159);fill-opacity:1;fill-rule:nonzero;stroke:none;stroke-width:0.288889;stroke-linecap:butt;stroke-linejoin:miter;stroke-miterlimit:10;stroke-dasharray:none"
       d="m 16.017044,25.9008 c -0.318933,0 -0.577777,-0.258844 -0.577777,-0.577778 0,-0.318933 0.258844,-0.577777 0.577777,-0.577777 4.814912,0 8.732534,-3.917623 8.732534,-8.732823 0,-0.318933 0.258844,-0.577778 0.577778,-0.577778 0.318933,0 0.577777,0.258845 0.577777,0.577778 0,5.452778 -4.4356,9.888378 -9.888089,9.888378 z"
       stroke-linecap="round" />
    <path
       id="path10-2"
       style="fill:url(#linearGradient1135);fill-opacity:1;fill-rule:nonzero;stroke:none;stroke-width:0.288889;stroke-linecap:butt;stroke-linejoin:miter;stroke-miterlimit:10;stroke-dasharray:none"
       d="m 16,29.1 c -7.1682,0 -13,-5.8318 -13,-13 0,-7.1682 5.8318,-13 13,-13 2.0176,0 3.952289,0.4498 5.748889,1.3369778 0.286,0.1412667 0.403289,0.4876444 0.262022,0.7739333 -0.140978,0.286 -0.487355,0.4035778 -0.773933,0.2623111 C 19.601,4.6652 17.838778,4.2555556 16,4.2555556 9.4690889,4.2555556 4.1555556,9.5690889 4.1555556,16.1 c 0,6.530911 5.3135333,11.844445 11.8444444,11.844445 6.530911,0 11.844445,-5.313534 11.844445,-11.844445 0,-2.282222 -0.650289,-4.497711 -1.880378,-6.4066889 C 25.791022,9.4249334 25.868445,9.0672889 26.136822,8.8945334 26.4052,8.7220667 26.762556,8.7989111 26.9356,9.0672889 28.285867,11.163467 29,13.595333 29,16.1 c 0,7.1682 -5.8318,13 -13,13 z"
       stroke-linecap="round" />
    <path
       id="path12-89"
       style="fill:url(#linearGradient1143);fill-opacity:1;fill-rule:nonzero;stroke:none;stroke-width:0.867254;stroke-linecap:butt;stroke-linejoin:miter;stroke-miterlimit:10;stroke-dasharray:none"
       d="m 20.277378,14.192586 h -2.546113 v -2.546147 c 0,-0.957414 -0.777057,-1.734443 -1.734447,-1.734443 -0.957391,0 -1.734408,0.777029 -1.734408,1.734443 v 2.546147 h -2.546147 c -0.957413,0 -1.734443,0.777017 -1.734443,1.734408 0,0.95739 0.77703,1.734447 1.734443,1.734447 h 2.546147 v 2.546112 c 0,0.957419 0.777017,1.734443 1.734408,1.734443 0.95739,0 1.734447,-0.777024 1.734447,-1.734443 v -2.546112 h 2.546113 c 0.957418,0 1.734442,-0.777057 1.734442,-1.734447 0,-0.957391 -0.776163,-1.734408 -1.734442,-1.734408 z"
       stroke-linecap="round" />
  </g>
  <g
     id="system-reboot"
     transform="translate(-21.037824,-83.055996)">
    <path
       style="color:#000000;overflow:visible;opacity:0;fill:none;fill-opacity:1;stroke-width:1.06667"
       id="path940"
       overflow="visible"
       d="M 16,0 C 7.1714133,0 0,7.1714133 0,16 0,24.828587 7.1714133,32 16,32 24.82752,32 32,24.828587 32,16 32,7.17248 24.828587,0 16,0 Z"
       inkscape:connector-curvature="0" />
    <path
       id="path6-6"
       style="fill:url(#linearGradient1042);fill-opacity:1;fill-rule:nonzero;stroke:none;stroke-width:0.288889;stroke-linecap:butt;stroke-linejoin:miter;stroke-miterlimit:10;stroke-dasharray:none"
       d="m 7.3477778,13.188533 c -0.0702,0 -0.1418445,-0.01271 -0.2108889,-0.04016 C 6.8399111,13.031667 6.6937333,12.696267 6.8101556,12.399289 7.8856889,9.6609111 10.102044,7.5578 12.890978,6.6290222 c 0.302178,-0.1014 0.629778,0.062978 0.7306,0.3657334 0.100822,0.3027555 -0.06298,0.6300666 -0.365734,0.7306 C 10.792778,8.5455111 8.8352667,10.403067 7.8856889,12.821644 7.7964222,13.049289 7.5786,13.188533 7.3477778,13.188533 Z"
       stroke-linecap="round" />
    <path
       id="path8-7"
       style="fill:url(#linearGradient1050);fill-opacity:1;fill-rule:nonzero;stroke:none;stroke-width:0.288889;stroke-linecap:butt;stroke-linejoin:miter;stroke-miterlimit:10;stroke-dasharray:none"
       d="m 16.017044,25.9008 c -0.318933,0 -0.577777,-0.258844 -0.577777,-0.577778 0,-0.318933 0.258844,-0.577777 0.577777,-0.577777 4.814912,0 8.732534,-3.917623 8.732534,-8.732823 0,-0.318933 0.258844,-0.577778 0.577778,-0.577778 0.318933,0 0.577777,0.258845 0.577777,0.577778 0,5.452778 -4.4356,9.888378 -9.888089,9.888378 z"
       stroke-linecap="round" />
    <path
       id="path10-5"
       style="fill:url(#linearGradient1034);fill-opacity:1;fill-rule:nonzero;stroke:none;stroke-width:0.288889;stroke-linecap:butt;stroke-linejoin:miter;stroke-miterlimit:10;stroke-dasharray:none"
       d="m 16,29.1 c -7.1682,0 -13,-5.8318 -13,-13 0,-7.1682 5.8318,-13 13,-13 2.0176,0 3.952289,0.4498 5.748889,1.3369778 0.286,0.1412667 0.403289,0.4876444 0.262022,0.7739333 -0.140978,0.286 -0.487355,0.4035778 -0.773933,0.2623111 C 19.601,4.6652 17.838778,4.2555556 16,4.2555556 9.4690889,4.2555556 4.1555556,9.5690889 4.1555556,16.1 c 0,6.530911 5.3135333,11.844445 11.8444444,11.844445 6.530911,0 11.844445,-5.313534 11.844445,-11.844445 0,-2.282222 -0.650289,-4.497711 -1.880378,-6.4066889 C 25.791022,9.4249334 25.868445,9.0672889 26.136822,8.8945334 26.4052,8.7220667 26.762556,8.7989111 26.9356,9.0672889 28.285867,11.163467 29,13.595333 29,16.1 c 0,7.1682 -5.8318,13 -13,13 z"
       stroke-linecap="round" />
  </g>
  <g
     id="22-22-system-shutdown"
     transform="translate(-0.03782374,31.944004)">
    <path
       style="color:#000000;overflow:visible;opacity:0;fill:none;fill-opacity:1;stroke-width:0.733336"
       id="path945-2"
       overflow="visible"
       d="m 11.014,0.092 c -6.0696534,0 -11,4.9303466 -11,11 0,6.069654 4.9303466,11 11,11 6.069654,0 11,-4.930346 11,-11 0,-6.0696534 -4.930346,-11 -11,-11 z"
       inkscape:connector-curvature="0" />
    <path
       id="path8-0-6"
       style="fill:url(#linearGradient1076-9);fill-opacity:1;fill-rule:nonzero;stroke:none;stroke-width:0.198611;stroke-linecap:butt;stroke-linejoin:miter;stroke-miterlimit:10;stroke-dasharray:none"
       d="m 11.025718,17.8988 c -0.219267,0 -0.397222,-0.177955 -0.397222,-0.397222 0,-0.219267 0.177955,-0.397222 0.397222,-0.397222 3.310252,0 6.003617,-2.693366 6.003617,-6.003816 0,-0.219266 0.177955,-0.397222 0.397222,-0.397222 0.219267,0 0.397222,0.177956 0.397222,0.397222 0,3.748785 -3.049475,6.79826 -6.798061,6.79826 z"
       stroke-linecap="round" />
    <path
       id="path10-6-1"
       style="fill:url(#linearGradient1075);fill-opacity:1;fill-rule:nonzero;stroke:none;stroke-width:0.198611;stroke-linecap:butt;stroke-linejoin:miter;stroke-miterlimit:10;stroke-dasharray:none"
       d="m 11.014,20.09825 c -4.9281375,0 -8.9375,-4.009363 -8.9375,-8.9375 0,-4.9281375 4.0093625,-8.9375 8.9375,-8.9375 1.3871,0 2.717199,0.3092375 3.952361,0.9191722 0.196625,0.097121 0.277261,0.4357542 0.18014,0.6325778 -0.09692,0.196625 -0.335056,0.3771208 -0.532079,0.28 C 13.489687,3.4994847 12.27816,3.218 11.014,3.218 c -4.4900014,0 -7.943,3.4527486 -7.943,7.94275 0,4.490001 3.4529986,7.94325 7.943,7.94325 4.490001,0 7.943,-3.453249 7.943,-7.94325 0,-1.5690276 -0.547314,-3.0923277 -1.393,-4.40475 -0.118968,-0.1845097 0.13449,-0.4302306 0.319,-0.549 0.18451,-0.1185708 0.530257,-0.065748 0.649225,0.1187611 0.928309,1.4411225 1.419275,3.1130303 1.419275,4.8349889 0,4.928137 -4.009363,8.9375 -8.9375,8.9375 z"
       stroke-linecap="round"
       sodipodi:nodetypes="ssssccsssscccss" />
    <path
       sodipodi:nodetypes="scssscssscssscssss"
       id="path12-87"
       style="fill:url(#linearGradient1068-0);fill-opacity:1;fill-rule:nonzero;stroke:none;stroke-width:0.463838;stroke-linecap:butt;stroke-linejoin:miter;stroke-miterlimit:10;stroke-dasharray:none"
       d="m 12.179959,6.7480922 -4.5e-5,6.356e-4 V 5.4022995 c 0,-0.5062863 -0.420353,-0.9171857 -0.938288,-0.9171857 -0.517936,0 -0.938289,0.4108994 -0.938289,0.9171857 v 1.3464283 l 0.0043,0.2163347 c 0.01018,0.5061885 -9.62e-4,1.1096499 -9.62e-4,1.6159366 0,0.5062867 0.513806,0.068979 6.87e-4,9.35e-5 l -6.87e-4,-9.35e-5 -0.0034,1.3485381 c -0.0012,0.5062848 0.420353,0.9171858 0.938288,0.9171858 0.517936,0 0.938289,-0.4109 0.938289,-0.9171858 V 8.5830987 l -0.0061,0.00392 c -0.429662,0.2827138 -8.25e-4,0.5104997 -8.25e-4,0.00419 0,-0.5062867 0.0061,0.5039127 0.0062,-0.00282 z"
       stroke-linecap="round" />
  </g>
  <g
     id="22-22-system-suspend-hibernate"
     transform="translate(-0.03782374,63.944004)">
    <g
       id="g1048">
      <circle
         style="opacity:0;fill:#000000;fill-opacity:1;stroke-width:0.733336"
         id="circle949-5"
         r="11"
         cy="11.01504"
         cx="11.012327" />
      <path
         id="path48-6-6"
         style="fill:url(#linearGradient1085);fill-opacity:1;fill-rule:nonzero;stroke:none;stroke-width:0.198611;stroke-linecap:butt;stroke-linejoin:miter;stroke-miterlimit:10;stroke-dasharray:none"
         d="m 11.012328,20.021291 c -4.9281378,0 -8.9375003,-4.009363 -8.9375003,-8.9375 0,-4.9281378 4.0093625,-8.9375003 8.9375003,-8.9375003 1.3871,0 2.717198,0.3092375 3.952361,0.9191722 0.196625,0.097121 0.277261,0.4357135 0.18014,0.6325371 -0.09692,0.196625 -0.335057,0.3771209 -0.532079,0.28 C 13.488015,3.4224847 12.276488,3.141 11.012328,3.141 6.5223263,3.141 3.069,6.5937893 3.069,11.083791 c 0,4.490001 3.4533263,7.943209 7.943328,7.943209 4.490001,0 7.942672,-3.453208 7.942672,-7.943209 0,-1.569028 -0.546314,-3.0921767 -1.392,-4.404599 -0.118969,-0.1845096 0.0535,-0.4729689 0.238006,-0.5917383 0.18451,-0.1185709 0.610579,-0.023163 0.729547,0.1613481 0.928308,1.4411224 1.419275,3.1130303 1.419275,4.8349892 0,4.928137 -4.009363,8.9375 -8.9375,8.9375 z"
         stroke-linecap="round"
         sodipodi:nodetypes="ssssccsssscccss" />
      <path
         sodipodi:nodetypes="scssscssscssscssss"
         id="path12-8-7-2"
         style="fill:url(#linearGradient1094-7);fill-opacity:1;fill-rule:nonzero;stroke:none;stroke-width:0.62464;stroke-linecap:butt;stroke-linejoin:miter;stroke-miterlimit:10;stroke-dasharray:none"
         d="m 9.8270845,12.281327 5.64e-5,-8.94e-4 v 1.96479 c 0,0.738803 0.5223951,1.338414 1.1660601,1.338414 0.643665,0 1.16606,-0.599611 1.16606,-1.338414 v -1.96479 l -0.0054,-0.315688 c -0.01266,-0.73866 0.0012,-1.619269 0.0012,-2.3580728 0,-0.7388034 -0.638534,-0.1006597 -8.25e-4,-1.362e-4 l 8.25e-4,1.362e-4 0.0043,-1.9678677 c 0.0016,-0.7388013 -0.522395,-1.3384138 -1.16606,-1.3384138 -0.643665,0 -1.1660601,0.5996077 -1.1660601,1.3384138 V 9.603608 l 0.00748,-0.00577 c 0.5339631,-0.4125523 9.625e-4,-0.7449517 9.625e-4,-0.00619 0,0.738803 -0.00751,-0.735339 -0.00773,0.00413 z"
         stroke-linecap="round" />
    </g>
  </g>
  <g
     id="22-22-system-suspend"
     transform="translate(-0.42882374,95.997004)">
    <path
       d="m 12.341728,12.071652 -8.94e-4,-5.8e-5 h 1.964789 c 0.738804,0 1.338414,-0.52788 1.338414,-1.178304 0,-0.650423 -0.59961,-1.1783031 -1.338414,-1.1783031 h -1.964789 l -0.315688,0.0055 c -0.738661,0.012788 -1.61927,-0.00117 -2.3580731,-0.00117 -0.738804,0 -0.1006603,0.6452391 -1.368e-4,8.938e-4 l 1.368e-4,-8.938e-4 -1.9678677,-0.00433 C 6.960404,9.7134056 6.360791,10.242867 6.360791,10.89329 c 0,0.650424 0.5996075,1.178304 1.3384143,1.178304 h 1.9648035 l -0.00577,-0.0076 c -0.4125523,-0.53957 -0.7449517,-9.62e-4 -0.00619,-9.62e-4 0.7388032,0 -0.7353397,0.0076 0.00413,0.0078 z"
       style="fill:url(#linearGradient1026-7);fill-opacity:1;fill-rule:nonzero;stroke:none;stroke-width:0.627911;stroke-linecap:butt;stroke-linejoin:miter;stroke-miterlimit:10;stroke-dasharray:none"
       id="path12-8-9"
       sodipodi:nodetypes="scssscssscssscssss"
       stroke-linecap="round" />
    <path
       id="path938-5"
       overflow="visible"
       d="M 11,0 C 4.9310066,0 0,4.9310066 0,11 0,17.068994 4.9310066,22 11,22 17.068994,22 22,17.068994 22,11 22,4.9310066 17.068994,0 11,0 Z"
       inkscape:connector-curvature="0"
       style="color:#000000;overflow:visible;opacity:0;fill:none;fill-opacity:1;stroke-width:0.733336" />
    <path
       d="m 11,20.00625 c -4.9281375,0 -8.9375,-4.009362 -8.9375,-8.9375 0,-4.9281375 4.0093625,-8.9375 8.9375,-8.9375 1.3871,0 2.717199,0.3092375 3.952361,0.9191722 0.196625,0.097121 0.277261,0.4357542 0.18014,0.6325778 -0.09692,0.196625 -0.335056,0.3771208 -0.532079,0.28 C 13.475687,3.4074847 12.26416,3.126 11,3.126 c -4.4900014,0 -7.943,3.4527486 -7.943,7.94275 0,4.490001 3.4529986,7.94325 7.943,7.94325 4.490001,0 7.943,-3.453249 7.943,-7.94325 0,-1.5690276 -0.547314,-3.0921763 -1.393,-4.4045986 -0.04523,-0.1345331 -0.01853,-0.4479656 0.260416,-0.6330292 0.18451,-0.1185708 0.630257,0.034252 0.749225,0.2187611 0.928309,1.4411225 1.377859,3.0969081 1.377859,4.8188667 0,4.928138 -4.009363,8.9375 -8.9375,8.9375 z"
       style="fill:url(#linearGradient1095);fill-opacity:1;fill-rule:nonzero;stroke:none;stroke-width:0.198611;stroke-linecap:butt;stroke-linejoin:miter;stroke-miterlimit:10;stroke-dasharray:none"
       id="path48-62"
       stroke-linecap="round"
       sodipodi:nodetypes="ssssccsssscccss" />
  </g>
  <g
     id="22-22-system-lock-screen"
     transform="translate(54.030176,95.965854)">
    <path
       id="path12-89-0"
       style="fill:url(#linearGradient1143-5);fill-opacity:1;fill-rule:nonzero;stroke:none;stroke-width:0.523238;stroke-linecap:butt;stroke-linejoin:miter;stroke-miterlimit:10;stroke-dasharray:none"
       d="M 13.486396,9.896727 H 11.950253 V 8.360571 c 0,-0.5776211 -0.468809,-1.046425 -1.04643,-1.046425 -0.577623,0 -1.046417,0.4688039 -1.046417,1.046425 V 9.896727 H 8.3212492 c -0.5776206,0 -1.0464252,0.468795 -1.0464252,1.046417 0,0.577621 0.4688046,1.046431 1.0464252,1.046431 H 9.857406 v 1.536142 c 0,0.57763 0.468794,1.046429 1.046417,1.046429 0.577621,0 1.04643,-0.468799 1.04643,-1.046429 v -1.536142 h 1.536143 c 0.57763,0 1.046428,-0.46881 1.046428,-1.046431 0,-0.577622 -0.468277,-1.046417 -1.046428,-1.046417 z"
       stroke-linecap="round" />
    <path
       style="color:#000000;overflow:visible;opacity:0;fill:none;fill-opacity:1;stroke-width:0.733336"
       id="path953-9"
       overflow="visible"
       d="M 11,0 C 4.9310066,0 0,4.9310066 0,11 0,17.068994 4.9310066,22 11,22 17.068994,22 22,17.068994 22,11 22,4.9310066 17.068994,0 11,0 Z"
       inkscape:connector-curvature="0" />
    <path
       id="path6-5-1"
       style="fill:url(#linearGradient1151-3);fill-opacity:1;fill-rule:nonzero;stroke:none;stroke-width:0.198611;stroke-linecap:butt;stroke-linejoin:miter;stroke-miterlimit:10;stroke-dasharray:none"
       d="m 5.0515972,9.0671164 c -0.048262,0 -0.097518,-0.00874 -0.1449861,-0.02761 C 4.7024389,8.9592711 4.6019416,8.7286836 4.681982,8.5245112 5.4214111,6.6418764 6.9451552,5.1959875 8.8625474,4.5574528 9.0702948,4.4877403 9.2955198,4.6007501 9.3648349,4.8088945 9.43415,5.0170389 9.3215361,5.2420653 9.1133928,5.311182 7.4200349,5.8750389 6.0742459,7.1521086 5.4214111,8.8148803 5.3600403,8.9713862 5.2102875,9.0671164 5.0515972,9.0671164 Z"
       stroke-linecap="round" />
    <path
       id="path8-92-2"
       style="fill:url(#linearGradient1159-5);fill-opacity:1;fill-rule:nonzero;stroke:none;stroke-width:0.198611;stroke-linecap:butt;stroke-linejoin:miter;stroke-miterlimit:10;stroke-dasharray:none"
       d="m 11.011718,17.8068 c -0.219267,0 -0.397222,-0.177955 -0.397222,-0.397222 0,-0.219267 0.177955,-0.397222 0.397222,-0.397222 3.310252,0 6.003617,-2.693366 6.003617,-6.003816 0,-0.219266 0.177955,-0.397222 0.397222,-0.397222 0.219267,0 0.397222,0.177956 0.397222,0.397222 0,3.748785 -3.049475,6.79826 -6.798061,6.79826 z"
       stroke-linecap="round" />
    <path
       id="path10-2-7"
       style="fill:url(#linearGradient1103);fill-opacity:1;fill-rule:nonzero;stroke:none;stroke-width:0.198611;stroke-linecap:butt;stroke-linejoin:miter;stroke-miterlimit:10;stroke-dasharray:none"
       d="m 11,20.00625 c -4.9281375,0 -8.9375,-4.009362 -8.9375,-8.9375 0,-4.9281375 4.0093625,-8.9375 8.9375,-8.9375 1.3871,0 2.717199,0.3092375 3.952361,0.9191722 0.196625,0.097121 0.277261,0.4349042 0.18014,0.6317278 -0.09692,0.196625 -0.335056,0.3781208 -0.532079,0.281 C 13.475687,3.4076347 12.26416,3.12615 11,3.12615 c -4.4900014,0 -7.943,3.4525986 -7.943,7.9426 0,4.490001 3.4529986,7.9434 7.943,7.9434 4.490001,0 7.943,-3.453399 7.943,-7.9434 0,-1.5690276 -0.547314,-3.0921763 -1.393,-4.4045986 -0.118968,-0.1845097 0.05864,-0.4829949 0.243147,-0.6017643 0.18451,-0.1185708 0.60611,-0.013135 0.725078,0.171374 0.928309,1.4411225 1.419275,3.1130303 1.419275,4.8349889 0,4.928138 -4.009363,8.9375 -8.9375,8.9375 z"
       stroke-linecap="round"
       sodipodi:nodetypes="ssssccsssscccss" />
  </g>
  <g
     id="22-22-system-reboot"
     transform="translate(54.008176,63.968974)">
    <g
       id="g1118">
      <path
         id="path10-5-9"
         style="fill:url(#linearGradient1111);fill-opacity:1;fill-rule:nonzero;stroke:none;stroke-width:0.198611;stroke-linecap:butt;stroke-linejoin:miter;stroke-miterlimit:10;stroke-dasharray:none"
         d="m 11,20.00625 c -4.9281375,0 -8.9375,-4.009362 -8.9375,-8.9375 0,-4.9281375 4.0093625,-8.9375 8.9375,-8.9375 1.3871,0 2.717199,0.3092375 3.952361,0.9191722 0.196625,0.097121 0.277261,0.4347842 0.18014,0.6316078 -0.09692,0.196625 -0.335056,0.3781208 -0.532079,0.281 C 13.475687,3.4075147 12.26416,3.12603 11,3.12603 c -4.4900014,0 -7.943,3.2524706 -7.943,7.742472 0,4.490001 3.4529986,8.143056 7.943,8.143056 4.490001,0 7.943,-3.452807 7.943,-7.942808 0,-1.5690276 -0.547314,-3.0921763 -1.393,-4.4045986 -0.118968,-0.1845097 0.08348,-0.449603 0.267992,-0.5683724 0.18451,-0.1185708 0.581265,-0.046527 0.700233,0.1379821 0.928309,1.4411225 1.419275,3.1130303 1.419275,4.8349889 0,4.928138 -4.009363,8.9375 -8.9375,8.9375 z"
         stroke-linecap="round"
         sodipodi:nodetypes="ssssccsssscccss" />
      <path
         style="color:#000000;overflow:visible;opacity:0;fill:none;fill-opacity:1;stroke-width:0.733336"
         id="path940-5"
         overflow="visible"
         d="M 11,0 C 4.9303466,0 0,4.9303466 0,11 0,17.069654 4.9303466,22 11,22 17.06892,22 22,17.069654 22,11 22,4.93108 17.069654,0 11,0 Z"
         inkscape:connector-curvature="0" />
      <path
         id="path6-6-6"
         style="fill:url(#linearGradient1042-3);fill-opacity:1;fill-rule:nonzero;stroke:none;stroke-width:0.198611;stroke-linecap:butt;stroke-linejoin:miter;stroke-miterlimit:10;stroke-dasharray:none"
         d="m 5.0515972,9.0671164 c -0.048262,0 -0.097518,-0.00874 -0.1449861,-0.02761 C 4.7024389,8.9592711 4.6019416,8.7286836 4.681982,8.5245112 5.4214111,6.6418764 6.9451552,5.1959875 8.8625474,4.5574528 9.0702948,4.4877403 9.2955198,4.6007501 9.3648349,4.8088945 9.43415,5.0170389 9.3215361,5.2420653 9.1133928,5.311182 7.4200349,5.8750389 6.0742459,7.1521086 5.4214111,8.8148803 5.3600403,8.9713862 5.2102875,9.0671164 5.0515972,9.0671164 Z"
         stroke-linecap="round" />
      <path
         id="path8-7-2"
         style="fill:url(#linearGradient1050-5);fill-opacity:1;fill-rule:nonzero;stroke:none;stroke-width:0.198611;stroke-linecap:butt;stroke-linejoin:miter;stroke-miterlimit:10;stroke-dasharray:none"
         d="m 11.011718,17.8068 c -0.219267,0 -0.397222,-0.177955 -0.397222,-0.397222 0,-0.219267 0.177955,-0.397222 0.397222,-0.397222 3.310252,0 6.003617,-2.693366 6.003617,-6.003816 0,-0.219266 0.177955,-0.397222 0.397222,-0.397222 0.219267,0 0.397222,0.177956 0.397222,0.397222 0,3.748785 -3.049475,6.79826 -6.798061,6.79826 z"
         stroke-linecap="round" />
    </g>
  </g>
  <g
     id="system-log-out"
     transform="translate(25.962176,-83.055996)">
    <path
       style="color:#000000;overflow:visible;opacity:0;fill:none;fill-opacity:1;stroke-width:1.06667"
       id="path951"
       overflow="visible"
       d="m 111,0 c -8.82763,0 -16,7.1723733 -16,16 0,8.827627 7.17237,16 16,16 8.82763,0 16,-7.172373 16,-16 0,-8.8276267 -7.17237,-16 -16,-16 z"
       inkscape:connector-curvature="0" />
    <path
       id="path21"
       style="fill:url(#linearGradient1110);fill-opacity:1;fill-rule:nonzero;stroke:none;stroke-width:0.288889;stroke-linecap:butt;stroke-linejoin:miter;stroke-miterlimit:10;stroke-dasharray:none"
       d="m 102.34778,13.188533 c -0.0702,0 -0.14185,-0.01271 -0.21089,-0.04016 -0.29698,-0.116706 -0.44316,-0.452106 -0.32673,-0.749084 1.07553,-2.7383779 3.29188,-4.841489 6.08082,-5.7702668 0.30218,-0.1014 0.62978,0.062978 0.7306,0.3657334 0.10082,0.3027555 -0.063,0.6300666 -0.36574,0.7306 -2.46306,0.8201555 -4.42057,2.6777114 -5.37015,5.0962884 -0.0893,0.227645 -0.30709,0.366889 -0.53791,0.366889 z"
       stroke-linecap="round" />
    <path
       id="path8"
       style="fill:url(#linearGradient1126);fill-opacity:1;fill-rule:nonzero;stroke:none;stroke-width:0.288889;stroke-linecap:butt;stroke-linejoin:miter;stroke-miterlimit:10;stroke-dasharray:none"
       d="m 111.01704,25.9008 c -0.31893,0 -0.57777,-0.258844 -0.57777,-0.577778 0,-0.318933 0.25884,-0.577777 0.57777,-0.577777 4.81492,0 8.73254,-3.917623 8.73254,-8.732823 0,-0.318933 0.25884,-0.577778 0.57778,-0.577778 0.31893,0 0.57777,0.258845 0.57777,0.577778 0,5.452778 -4.4356,9.888378 -9.88809,9.888378 z"
       stroke-linecap="round" />
    <path
       id="path10"
       style="fill:url(#linearGradient1102);fill-opacity:1;fill-rule:nonzero;stroke:none;stroke-width:0.288889;stroke-linecap:butt;stroke-linejoin:miter;stroke-miterlimit:10;stroke-dasharray:none"
       d="m 111,29.1 c -7.1682,0 -13,-5.8318 -13,-13 0,-7.1682 5.8318,-13 13,-13 2.0176,0 3.95229,0.4498 5.74889,1.3369778 0.286,0.1412667 0.40329,0.4876444 0.26202,0.7739333 -0.14098,0.286 -0.48735,0.4035778 -0.77393,0.2623111 C 114.601,4.6652 112.83878,4.2555556 111,4.2555556 c -6.53091,0 -11.844444,5.3135333 -11.844444,11.8444444 0,6.530911 5.313534,11.844445 11.844444,11.844445 6.53091,0 11.84445,-5.313534 11.84445,-11.844445 0,-2.282222 -0.65029,-4.497711 -1.88038,-6.4066889 -0.17305,-0.2683777 -0.0956,-0.6260222 0.17275,-0.7987777 0.26838,-0.1724667 0.62574,-0.095622 0.79878,0.1727555 C 123.28587,11.163467 124,13.595333 124,16.1 c 0,7.1682 -5.8318,13 -13,13 z"
       stroke-linecap="round" />
    <path
       style="fill:url(#linearGradient1071);fill-opacity:1;stroke-width:0.0429691"
       d="m 106.13687,18.144743 6.80013,-0.006 -0.722,0.759124 c -0.39049,0.390569 -0.39049,1.023745 0,1.41426 0.39043,0.390483 1.12342,0.390483 1.5139,0 l 2.99994,-3.000099 c 0.002,-0.002 0.003,-0.003 0.005,-0.003 0.0202,-0.0217 0.0424,-0.04427 0.0611,-0.06779 0.008,-0.007 0.014,-0.0151 0.017,-0.0225 0.014,-0.0184 0.0276,-0.0369 0.042,-0.05628 0.005,-0.006 0.014,-0.0134 0.014,-0.0201 0.014,-0.02107 0.0267,-0.04194 0.0379,-0.0641 0.003,-0.003 0.006,-0.01003 0.009,-0.01488 0.014,-0.0242 0.0245,-0.0485 0.0368,-0.07378 0.002,-0.003 0.003,-0.007 0.005,-0.01055 0.014,-0.02667 0.0208,-0.05378 0.0288,-0.08155 8e-4,-0.005 0.002,-0.007 0.004,-0.0113 0.014,-0.02755 0.0151,-0.0549 0.021,-0.08334 0.002,-0.0086 0.003,-0.01725 0.005,-0.02589 0.005,-0.02348 0.014,-0.047 0.014,-0.0711 0.004,-0.03307 0.006,-0.0664 0.006,-0.09986 0,-0.0334 -0.002,-0.06684 -0.006,-0.09987 -0.003,-0.02434 -0.008,-0.04824 -0.014,-0.072 -0.002,-0.0083 -0.003,-0.0167 -0.005,-0.0249 -0.007,-0.02869 -0.014,-0.0568 -0.021,-0.08456 -8e-4,-0.003 -0.002,-0.006 -0.003,-0.01003 -0.014,-0.0282 -0.0191,-0.05569 -0.0287,-0.08289 -8e-4,-0.003 -0.003,-0.006 -0.004,-0.0091 -0.014,-0.0258 -0.0227,-0.05074 -0.0369,-0.07541 -0.003,-0.003 -0.005,-0.009 -0.008,-0.01316 -0.014,-0.02285 -0.0263,-0.0446 -0.0396,-0.0662 -0.005,-0.003 -0.009,-0.01144 -0.014,-0.0178 -0.014,-0.02051 -0.0286,-0.04027 -0.0446,-0.05959 -0.006,-0.006 -0.014,-0.01294 -0.014,-0.01891 -0.02,-0.02523 -0.043,-0.0495 -0.0662,-0.07258 l -2.99953,-3.000139 c -0.1941,-0.196195 -0.45009,-0.293869 -0.70597,-0.293869 -0.25599,0 -0.61178,0.09768 -0.80694,0.292932 -0.39052,0.390557 -0.39052,1.023739 0,1.41426 l 0.717,0.760066 h -6.7781 c -0.92535,0.04917 -1.2669,0.980903 -1.2669,1.533199 0,0.552309 0.3888,1.513774 1.2669,1.532897 z"
       id="path4"
       sodipodi:nodetypes="cccsccccccccccccccccscccccccccccccccsccccscc" />
  </g>
  <g
     id="system-switch-user"
     transform="translate(25.962176,-83.055996)">
    <circle
       style="opacity:0;fill:none;fill-opacity:1;stroke-width:1.06667"
       id="circle955"
       r="16"
       cy="-16"
       cx="205"
       transform="scale(1,-1)" />
    <path
       id="path6-62"
       style="fill:url(#linearGradient1183);fill-opacity:1;fill-rule:nonzero;stroke:none;stroke-width:0.288889;stroke-linecap:butt;stroke-linejoin:miter;stroke-miterlimit:10;stroke-dasharray:none"
       d="m 196.34778,13.188533 c -0.0702,0 -0.14185,-0.01271 -0.21089,-0.04016 -0.29698,-0.116706 -0.44316,-0.452106 -0.32673,-0.749084 1.07553,-2.7383779 3.29188,-4.841489 6.08082,-5.7702668 0.30218,-0.1014 0.62978,0.062978 0.7306,0.3657334 0.10082,0.3027555 -0.063,0.6300666 -0.36574,0.7306 -2.46306,0.8201555 -4.42057,2.6777114 -5.37015,5.0962884 -0.0893,0.227645 -0.30709,0.366889 -0.53791,0.366889 z"
       stroke-linecap="round" />
    <path
       id="path8-9"
       style="fill:url(#linearGradient1199);fill-opacity:1;fill-rule:nonzero;stroke:none;stroke-width:0.288889;stroke-linecap:butt;stroke-linejoin:miter;stroke-miterlimit:10;stroke-dasharray:none"
       d="m 205.01704,25.9008 c -0.31893,0 -0.57777,-0.258844 -0.57777,-0.577778 0,-0.318933 0.25884,-0.577777 0.57777,-0.577777 4.81492,0 8.73254,-3.917623 8.73254,-8.732823 0,-0.318933 0.25884,-0.577778 0.57778,-0.577778 0.31893,0 0.57777,0.258845 0.57777,0.577778 0,5.452778 -4.4356,9.888378 -9.88809,9.888378 z"
       stroke-linecap="round" />
    <path
       id="path10-1"
       style="fill:url(#linearGradient1167);fill-opacity:1;fill-rule:nonzero;stroke:none;stroke-width:0.288889;stroke-linecap:butt;stroke-linejoin:miter;stroke-miterlimit:10;stroke-dasharray:none"
       d="m 205,29.1 c -7.1682,0 -13,-5.8318 -13,-13 0,-7.1682 5.8318,-13 13,-13 2.0176,0 3.95229,0.4498 5.74889,1.3369778 0.286,0.1412667 0.40329,0.4876444 0.26202,0.7739333 -0.14098,0.286 -0.48735,0.4035778 -0.77393,0.2623111 C 208.601,4.6652 206.83878,4.2555556 205,4.2555556 c -6.53091,0 -11.84444,5.3135333 -11.84444,11.8444444 0,6.530911 5.31353,11.844445 11.84444,11.844445 6.53091,0 11.84444,-5.313534 11.84444,-11.844445 0,-2.282222 -0.65028,-4.497711 -1.88037,-6.4066889 -0.17305,-0.2683777 -0.0956,-0.6260222 0.17275,-0.7987777 0.26838,-0.1724667 0.62574,-0.095622 0.79878,0.1727555 C 217.28587,11.163467 218,13.595333 218,16.1 c 0,7.1682 -5.8318,13 -13,13 z"
       stroke-linecap="round" />
    <path
       style="fill:url(#linearGradient1079);fill-opacity:1;stroke-width:0.0402832"
       d="m 200.02393,13.893448 6.37505,-0.0055 -0.67687,0.71167 c -0.36607,0.366154 -0.36607,0.95975 0,1.325852 0.36601,0.366075 1.0532,0.366075 1.41928,0 l 2.8124,-2.81256 c 0.002,-0.002 0.003,-0.003 0.005,-0.003 0.0188,-0.02035 0.0399,-0.04152 0.0571,-0.06354 0.008,-0.0065 0.013,-0.01415 0.016,-0.0211 0.013,-0.01725 0.0259,-0.0346 0.0395,-0.05278 0.005,-0.0055 0.013,-0.01255 0.013,-0.01885 0.013,-0.01977 0.0252,-0.03934 0.0354,-0.0601 0.003,-0.003 0.006,-0.0095 0.009,-0.01393 0.013,-0.0227 0.023,-0.04545 0.0343,-0.06918 0.002,-0.003 0.003,-0.0065 0.005,-0.0099 0.013,-0.02502 0.0194,-0.05043 0.0269,-0.07645 7.5e-4,-0.0045 0.002,-0.0065 0.004,-0.0106 0.013,-0.02585 0.0141,-0.05145 0.0195,-0.07814 0.002,-0.0081 0.003,-0.01616 0.005,-0.02429 0.005,-0.02203 0.013,-0.04405 0.013,-0.06665 0.004,-0.03102 0.006,-0.06225 0.006,-0.09361 0,-0.0313 -0.002,-0.06265 -0.006,-0.09362 -0.003,-0.02283 -0.008,-0.04524 -0.013,-0.0675 -0.002,-0.0078 -0.003,-0.01565 -0.005,-0.02335 -0.007,-0.02689 -0.013,-0.05325 -0.0195,-0.07926 -7.5e-4,-0.003 -0.002,-0.0055 -0.003,-0.0095 -0.013,-0.02645 -0.0181,-0.05219 -0.0268,-0.07769 -7.5e-4,-0.003 -0.003,-0.0055 -0.004,-0.0086 -0.013,-0.0242 -0.0212,-0.04757 -0.0344,-0.07071 -0.003,-0.003 -0.005,-0.0085 -0.008,-0.01235 -0.013,-0.02141 -0.0248,-0.0418 -0.0371,-0.06205 -0.005,-0.003 -0.009,-0.01074 -0.013,-0.0167 -0.013,-0.01921 -0.0267,-0.03777 -0.0417,-0.05587 -0.006,-0.0055 -0.013,-0.01214 -0.013,-0.01771 -0.0187,-0.02365 -0.0405,-0.0464 -0.0622,-0.06803 L 207.14347,8.9754367 C 206.9613,8.7915684 206.72131,8.7 206.48142,8.7 c -0.23999,0 -0.57353,0.091575 -0.75649,0.2746205 -0.36612,0.3661429 -0.36612,0.9597438 0,1.3258535 l 0.67216,0.712555 h -6.35438 c -0.86751,0.0461 -1.18771,0.919584 -1.18771,1.437356 0,0.517783 0.3645,1.419145 1.18771,1.437073 z"
       id="path4-2"
       sodipodi:nodetypes="cccsccccccccccccccccscccccccccccccccsccccscc" />
    <path
       style="fill:url(#linearGradient1088);fill-opacity:1;stroke-width:0.0402817"
       d="m 209.0718,17.806404 -6.37476,0.0055 0.67683,-0.711651 c 0.36609,-0.366147 0.36609,-0.959735 0,-1.325827 -0.366,-0.366071 -1.05314,-0.366071 -1.41919,0 l -2.81229,2.812505 c -0.002,0.002 -0.003,0.003 -0.005,0.003 -0.0189,0.02035 -0.04,0.04154 -0.0571,0.06355 -0.008,0.0065 -0.013,0.01415 -0.016,0.02109 -0.013,0.01725 -0.026,0.0346 -0.0395,0.05279 -0.005,0.0055 -0.013,0.01255 -0.013,0.01885 -0.013,0.01979 -0.0252,0.0393 -0.0354,0.0601 -0.003,0.003 -0.006,0.0095 -0.009,0.01395 -0.013,0.0227 -0.023,0.04546 -0.0344,0.06919 -0.002,0.003 -0.003,0.0065 -0.005,0.0099 -0.013,0.02505 -0.0193,0.05045 -0.0268,0.0764 -7.5e-4,0.0045 -0.002,0.0065 -0.004,0.0106 -0.013,0.02587 -0.0141,0.05145 -0.0195,0.0781 -0.002,0.0085 -0.003,0.0162 -0.005,0.0243 -0.005,0.02205 -0.013,0.04405 -0.013,0.06665 -0.004,0.03104 -0.006,0.06224 -0.006,0.09365 0,0.03129 0.002,0.06262 0.006,0.09365 0.003,0.0228 0.008,0.0452 0.013,0.0675 0.002,0.0075 0.003,0.01565 0.005,0.02335 0.007,0.0269 0.013,0.05325 0.0195,0.0793 7.5e-4,0.003 0.002,0.0055 0.003,0.0095 0.013,0.02645 0.0181,0.0522 0.0268,0.07771 7.5e-4,0.003 0.003,0.0055 0.004,0.0085 0.013,0.0242 0.0212,0.04753 0.0344,0.0707 0.003,0.003 0.005,0.0085 0.008,0.01237 0.013,0.02136 0.0248,0.0418 0.0371,0.06205 0.005,0.003 0.009,0.0107 0.013,0.01669 0.013,0.0192 0.0266,0.0378 0.0416,0.05587 0.006,0.0055 0.013,0.0121 0.013,0.0177 0.0187,0.02362 0.0404,0.0464 0.0622,0.06805 l 2.8119,2.81254 c 0.18206,0.183891 0.42204,0.275454 0.66192,0.275454 0.23997,0 0.57352,-0.0916 0.75648,-0.274611 0.36607,-0.36613 0.36607,-0.959726 0,-1.325827 l -0.67216,-0.712533 h 6.35409 c 0.86748,-0.04613 1.18767,-0.919575 1.18767,-1.437331 0,-0.517773 -0.36449,-1.419122 -1.18767,-1.437048 z"
       id="path4-2-2"
       sodipodi:nodetypes="cccsccccccccccccccccscccccccccccccccsccccscc" />
  </g>
  <g
     id="22-22-system-log-out">
    <path
       style="color:#000000;overflow:visible;opacity:0;fill:none;fill-opacity:1;stroke-width:0.733336"
       id="path951-2"
       overflow="visible"
       d="M 11,0 C 4.9310067,0 0,4.9310066 0,11 0,17.068994 4.9310067,22 11,22 17.068993,22 22,17.068994 22,11 22,4.9310066 17.068993,0 11,0 Z"
       inkscape:connector-curvature="0" />
    <path
       id="path21-9"
       style="fill:url(#linearGradient1110-3);fill-opacity:1;fill-rule:nonzero;stroke:none;stroke-width:0.198611;stroke-linecap:butt;stroke-linejoin:miter;stroke-miterlimit:10;stroke-dasharray:none"
       d="m 5.0515973,9.0671164 c -0.048262,0 -0.097518,-0.00874 -0.1449861,-0.02761 C 4.7024389,8.9592711 4.6019417,8.7286836 4.681982,8.5245112 5.4214112,6.6418764 6.9451553,5.1959875 8.8625474,4.5574528 9.0702948,4.4877403 9.2955198,4.6007501 9.3648349,4.8088945 9.43415,5.0170389 9.3215362,5.2420653 9.1133928,5.311182 7.4200349,5.8750389 6.0742459,7.1521086 5.4214112,8.8148802 5.3600403,8.9713862 5.2102875,9.0671164 5.0515973,9.0671164 Z"
       stroke-linecap="round" />
    <path
       id="path8-1"
       style="fill:url(#linearGradient1126-5);fill-opacity:1;fill-rule:nonzero;stroke:none;stroke-width:0.198611;stroke-linecap:butt;stroke-linejoin:miter;stroke-miterlimit:10;stroke-dasharray:none"
       d="m 11.011717,17.8068 c -0.219266,0 -0.397221,-0.177955 -0.397221,-0.397222 0,-0.219267 0.177955,-0.397222 0.397221,-0.397222 3.310252,0 6.003618,-2.693366 6.003618,-6.003816 0,-0.219266 0.177955,-0.397222 0.397222,-0.397222 0.219266,0 0.397222,0.177956 0.397222,0.397222 0,3.748785 -3.049475,6.79826 -6.798062,6.79826 z"
       stroke-linecap="round" />
    <path
       id="path10-27"
       style="fill:url(#linearGradient1067);fill-opacity:1;fill-rule:nonzero;stroke:none;stroke-width:0.198611;stroke-linecap:butt;stroke-linejoin:miter;stroke-miterlimit:10;stroke-dasharray:none"
       d="m 11,20.00625 c -4.9281375,0 -8.9375,-4.009363 -8.9375,-8.9375 0,-4.9281375 4.0093625,-8.9375 8.9375,-8.9375 1.3871,0 2.717198,0.3092375 3.952361,0.9191722 0.196625,0.097121 0.277261,0.3352556 0.18014,0.5320792 -0.09692,0.196625 -0.335057,0.4776234 -0.532079,0.3805026 C 13.475687,3.4074887 12.26416,3.126004 11,3.126004 c -4.4900013,0 -7.9428237,3.4527446 -7.9428237,7.942746 0,4.490001 3.4528224,7.943254 7.9428237,7.943254 4.490001,0 7.943176,-3.453253 7.943176,-7.943254 0,-1.5690276 -0.447314,-3.0921763 -1.293,-4.4045986 -0.118969,-0.1845097 0.13438,-0.4303903 0.318889,-0.5491597 0.18451,-0.1185708 0.430192,-0.06574 0.54916,0.1187694 0.928308,1.4411225 1.419275,3.1130303 1.419275,4.8349889 0,4.928137 -4.009363,8.9375 -8.9375,8.9375 z"
       stroke-linecap="round"
       sodipodi:nodetypes="ssscccsssscccss" />
    <path
       style="fill:url(#linearGradient1072);fill-opacity:1.0;stroke-width:0.0268542"
       d="m 7.9797409,11.706112 4.2498301,-0.0034 -0.451223,0.474415 c -0.244042,0.24409 -0.244042,0.639794 0,0.883848 0.244004,0.244033 0.702095,0.244033 0.946131,0 l 1.874852,-1.874922 c 0.0018,-0.0016 0.0025,-0.0024 0.0025,-0.0024 0.01269,-0.01358 0.0265,-0.02771 0.03821,-0.04233 0.005,-0.0042 0.0086,-0.0094 0.01069,-0.01408 0.0086,-0.0115 0.01725,-0.02308 0.02625,-0.03521 0.0025,-0.0034 0.0086,-0.0081 0.0086,-0.01258 0.0086,-0.01321 0.01673,-0.02623 0.02374,-0.04008 0.0025,-0.0024 0.0032,-0.0066 0.006,-0.0092 0.0086,-0.01516 0.01526,-0.03026 0.023,-0.04615 0.0018,-0.0024 0.0025,-0.0042 0.0025,-0.0071 0.0086,-0.01672 0.013,-0.03365 0.018,-0.05096 5e-4,-0.0026 0.0018,-0.0042 0.0025,-0.0075 0.0086,-0.01722 0.0094,-0.03426 0.01319,-0.05211 0.0018,-0.0055 0.0025,-0.01076 0.0025,-0.01623 0.0025,-0.01472 0.0086,-0.02934 0.0086,-0.04442 0.0025,-0.02072 0.0032,-0.0415 0.0032,-0.06239 0,-0.02083 -0.0018,-0.04176 -0.0032,-0.0624 -0.0025,-0.01523 -0.005,-0.03019 -0.0086,-0.045 -0.0018,-0.0053 -0.0025,-0.01042 -0.0025,-0.01558 -0.004,-0.01791 -0.0086,-0.0355 -0.01319,-0.05281 -5e-4,-0.0024 -0.0018,-0.0034 -0.0025,-0.0066 -0.0086,-0.01766 -0.0119,-0.03475 -0.0179,-0.05175 -5e-4,-0.0024 -0.0025,-0.0034 -0.0025,-0.0059 -0.0086,-0.01616 -0.01424,-0.03172 -0.0231,-0.04717 -0.0025,-0.0024 -0.0025,-0.0058 -0.005,-0.0079 -0.0086,-0.01426 -0.0164,-0.02784 -0.02474,-0.04134 -0.0025,-0.0024 -0.006,-0.0075 -0.0086,-0.01116 -0.0086,-0.01277 -0.01782,-0.02521 -0.02781,-0.03722 -0.0032,-0.0035 -0.0086,-0.0078 -0.0086,-0.01178 -0.0125,-0.01575 -0.02682,-0.03092 -0.04132,-0.04533 L 12.725246,8.4276547 C 12.603941,8.305042 12.443956,8.244 12.284038,8.244 c -0.159984,0 -0.382341,0.06105 -0.504307,0.1830691 -0.244062,0.2440797 -0.244062,0.6397892 0,0.8838463 l 0.448096,0.4750057 H 7.9917677 C 7.4134583,9.8166442 7.2,10.398942 7.2,10.744098 c 0,0.345169 0.2429859,0.94604 0.7917677,0.957991 z"
       id="path4-5"
       sodipodi:nodetypes="cccsccccccccccccccccscccccccccccccccsccccscc" />
  </g>
  <g
     id="22-22-switch-user">
    <circle
       style="opacity:0;fill:none;fill-opacity:1;stroke-width:0.733336"
       id="circle955-1"
       r="11"
       cy="-10.944"
       cx="64.962173"
       transform="scale(1,-1)" />
    <path
       id="path6-62-2"
       style="fill:url(#linearGradient1183-3);fill-opacity:1;fill-rule:nonzero;stroke:none;stroke-width:0.198611;stroke-linecap:butt;stroke-linejoin:miter;stroke-miterlimit:10;stroke-dasharray:none"
       d="m 59.013773,9.0111164 c -0.04826,0 -0.09752,-0.00874 -0.144986,-0.02761 -0.204172,-0.080235 -0.304669,-0.3108228 -0.224629,-0.5149952 0.739429,-1.8826348 2.263173,-3.3285237 4.180565,-3.9670584 0.207748,-0.069712 0.432973,0.043297 0.502288,0.2514417 0.06932,0.2081444 -0.0433,0.4331708 -0.251442,0.5022875 -1.693358,0.5638569 -3.039147,1.8409266 -3.691982,3.5036983 -0.06137,0.1565059 -0.211124,0.2522361 -0.369814,0.2522361 z"
       stroke-linecap="round" />
    <path
       id="path8-9-7"
       style="fill:url(#linearGradient1199-5);fill-opacity:1;fill-rule:nonzero;stroke:none;stroke-width:0.198611;stroke-linecap:butt;stroke-linejoin:miter;stroke-miterlimit:10;stroke-dasharray:none"
       d="m 64.973894,17.7508 c -0.219267,0 -0.397222,-0.177955 -0.397222,-0.397222 0,-0.219267 0.177955,-0.397222 0.397222,-0.397222 3.310252,0 6.003617,-2.693366 6.003617,-6.003816 0,-0.219266 0.177955,-0.397222 0.397222,-0.397222 0.219267,0 0.397222,0.177956 0.397222,0.397222 0,3.748785 -3.049475,6.79826 -6.798061,6.79826 z"
       stroke-linecap="round" />
    <path
       id="path10-1-0"
       style="fill:url(#linearGradient1119);fill-opacity:1;fill-rule:nonzero;stroke:none;stroke-width:0.198611;stroke-linecap:butt;stroke-linejoin:miter;stroke-miterlimit:10;stroke-dasharray:none"
       d="m 64.962176,19.95025 c -4.928138,0 -8.9375,-4.009362 -8.9375,-8.9375 0,-4.9281375 4.009362,-8.9375 8.9375,-8.9375 1.3871,0 2.717199,0.3092375 3.952361,0.9191722 0.196625,0.097121 0.277261,0.4347582 0.18014,0.6315818 -0.09692,0.196625 -0.335478,0.3781208 -0.532501,0.281 -1.124735,-0.5555153 -2.33584,-0.837 -3.6,-0.837 -4.490001,0 -7.943,3.4527446 -7.943,7.942746 0,4.490001 3.452999,7.943254 7.943,7.943254 4.490001,0 7.943,-3.452999 7.943,-7.943 0,-1.5690276 -0.547314,-3.0924303 -1.393,-4.4048526 -0.118968,-0.1845097 0.100143,-0.4700087 0.284652,-0.5887781 0.18451,-0.1185708 0.564605,-0.026121 0.683573,0.1583878 0.928309,1.4411225 1.419275,3.1130303 1.419275,4.8349889 0,4.928138 -4.009363,8.9375 -8.9375,8.9375 z"
       stroke-linecap="round"
       sodipodi:nodetypes="ssscccsssscccss" />
    <path
       style="fill:url(#linearGradient1089);fill-opacity:1.0;stroke-width:0.027211"
       d="m 62.161887,9.9521644 4.306225,-0.00375 -0.457209,0.4807316 c -0.247272,0.247336 -0.247272,0.64831 0,0.895611 0.247232,0.247283 0.711416,0.247283 0.958696,0 l 1.899722,-1.8998757 c 0.0016,-0.00131 0.0025,-0.00203 0.0029,-0.00203 0.01273,-0.013751 0.02699,-0.028043 0.0386,-0.042924 0.0056,-0.00435 0.0086,-0.00955 0.01085,-0.014258 0.0086,-0.011653 0.01749,-0.023377 0.02664,-0.035649 0.0029,-0.00376 0.0086,-0.00845 0.0086,-0.012738 0.0086,-0.013353 0.01699,-0.026573 0.02394,-0.040601 0.0025,-0.00203 0.0035,-0.00637 0.0066,-0.00939 0.0086,-0.01533 0.01549,-0.030702 0.02314,-0.046736 0.0016,-0.00203 0.0025,-0.00435 0.0029,-0.00674 0.0086,-0.016898 0.01307,-0.034069 0.01814,-0.051645 5.08e-4,-0.00304 0.0016,-0.00435 0.0025,-0.00718 0.0086,-0.017456 0.0094,-0.034754 0.01317,-0.05278 0.0016,-0.00542 0.0025,-0.010915 0.0029,-0.016405 0.0029,-0.014879 0.0086,-0.02976 0.0086,-0.04502 0.0025,-0.020952 0.0035,-0.042049 0.0035,-0.063235 0,-0.021147 -0.0016,-0.042324 -0.0035,-0.063241 -0.0025,-0.015424 -0.0056,-0.030562 -0.0086,-0.045596 -0.0016,-0.00532 -0.0025,-0.010567 -0.0029,-0.015776 -0.0046,-0.018162 -0.0086,-0.03597 -0.01317,-0.053536 -5.07e-4,-0.00203 -0.0016,-0.00376 -0.0025,-0.00637 -0.0086,-0.017863 -0.01226,-0.035251 -0.01808,-0.052476 -5.07e-4,-0.00203 -0.0025,-0.00376 -0.0025,-0.00583 -0.0086,-0.016343 -0.01436,-0.032136 -0.0232,-0.04776 -0.0024,-0.00203 -0.0029,-0.00579 -0.0056,-0.00836 -0.0086,-0.014462 -0.01677,-0.028241 -0.02509,-0.041918 -0.0029,-0.00203 -0.0066,-0.00727 -0.0086,-0.011278 -0.0086,-0.01298 -0.018,-0.02551 -0.02815,-0.037738 -0.0035,-0.00376 -0.0086,-0.00822 -0.0086,-0.011967 -0.01261,-0.01598 -0.02737,-0.031338 -0.04201,-0.045956 L 66.97099,6.6300583 C 66.847948,6.5058543 66.685842,6.444 66.5238,6.444 c -0.162107,0 -0.387406,0.061858 -0.510999,0.1855055 -0.247299,0.247329 -0.247299,0.6483052 0,0.8956118 l 0.454035,0.4813293 H 62.17457 c -0.585982,0.031137 -0.802274,0.6211777 -0.802274,0.9709317 0,0.3497616 0.246211,0.9586296 0.802274,0.97074 z"
       id="path4-2-29"
       sodipodi:nodetypes="cccsccccccccccccccccscccccccccccccccsccccscc" />
    <path
       style="fill:url(#linearGradient1080);fill-opacity:1.0;stroke-width:0.0268564"
       d="m 68.182637,12.281846 -4.250189,0.0036 0.451263,-0.474465 c 0.244056,-0.244112 0.244056,-0.639859 0,-0.883935 -0.244018,-0.244061 -0.702163,-0.244061 -0.946224,0 l -1.875002,1.875133 c -0.0014,0.0014 -0.0024,0.0024 -0.0031,0.0024 -0.01255,0.0136 -0.02663,0.02771 -0.0381,0.04235 -0.0055,0.004 -0.0086,0.0094 -0.01069,0.0141 -0.0086,0.0115 -0.01726,0.0231 -0.02632,0.03521 -0.0031,0.0036 -0.0086,0.0083 -0.0086,0.0126 -0.0086,0.01321 -0.01678,0.02623 -0.02363,0.0401 -0.0024,0.0024 -0.0037,0.0064 -0.0064,0.0092 -0.0086,0.01516 -0.01531,0.03028 -0.02286,0.04616 -0.0014,0.0024 -0.0024,0.004 -0.0031,0.0068 -0.0086,0.0167 -0.0129,0.03364 -0.0179,0.05095 -5.01e-4,0.0026 -0.0014,0.004 -0.0025,0.0073 -0.0086,0.01726 -0.0093,0.03428 -0.013,0.05214 -0.0014,0.0056 -0.0024,0.01075 -0.0031,0.01621 -0.0031,0.01471 -0.0086,0.02936 -0.0086,0.0444 -0.0024,0.02071 -0.0036,0.0415 -0.0036,0.06239 0,0.02085 0.0014,0.04174 0.0036,0.06239 0.0024,0.01523 0.0055,0.03018 0.0086,0.045 0.0014,0.0053 0.0024,0.0104 0.0031,0.0156 0.0045,0.01789 0.0086,0.0355 0.013,0.05283 5e-4,0.0024 0.0014,0.0036 0.0024,0.0064 0.0086,0.01764 0.0121,0.03477 0.01785,0.05177 5e-4,0.0024 0.0024,0.0036 0.0025,0.0061 0.0086,0.01614 0.01415,0.03172 0.0229,0.04715 0.0024,0.0024 0.0031,0.006 0.0055,0.0081 0.0086,0.01427 0.01655,0.02786 0.02474,0.04137 0.0031,0.0024 0.0064,0.0074 0.0086,0.01115 0.0086,0.01278 0.01778,0.0252 0.02779,0.03723 0.0036,0.0036 0.0086,0.008 0.0086,0.01178 0.01245,0.01575 0.027,0.0309 0.04145,0.04535 l 1.874915,1.874803 c 0.121452,0.122588 0.281451,0.183634 0.441383,0.183634 0.16,0 0.382367,-0.06108 0.504345,-0.183088 0.24409,-0.244102 0.24409,-0.639852 0,-0.883935 L 63.934135,14.20307 h 4.236206 c 0.578361,-0.03075 0.791835,-0.613081 0.791835,-0.958275 0,-0.3452 -0.243007,-0.94613 -0.791835,-0.958084 z"
       id="path4-2-0"
       sodipodi:nodetypes="cccsccccccccccccccccscccccccccccccccsccccscc" />
  </g>
</svg>
