<?xml version="1.0" encoding="UTF-8" standalone="no"?>
<svg
   xmlns:dc="http://purl.org/dc/elements/1.1/"
   xmlns:cc="http://creativecommons.org/ns#"
   xmlns:rdf="http://www.w3.org/1999/02/22-rdf-syntax-ns#"
   xmlns:svg="http://www.w3.org/2000/svg"
   xmlns="http://www.w3.org/2000/svg"
   xmlns:sodipodi="http://sodipodi.sourceforge.net/DTD/sodipodi-0.dtd"
   xmlns:inkscape="http://www.inkscape.org/namespaces/inkscape"
   width="32"
   height="32"
   version="1.1"
   id="svg12"
   sodipodi:docname="vlc.svg"
   inkscape:version="1.0.1 (3bc2e813f5, 2020-09-07)">
  <metadata
     id="metadata18">
    <rdf:RDF>
      <cc:Work
         rdf:about="">
        <dc:format>image/svg+xml</dc:format>
        <dc:type
           rdf:resource="http://purl.org/dc/dcmitype/StillImage" />
      </cc:Work>
    </rdf:RDF>
  </metadata>
  <defs
     id="defs16" />
  <sodipodi:namedview
     pagecolor="#ffffff"
     bordercolor="#666666"
     borderopacity="1"
     objecttolerance="10"
     gridtolerance="10"
     guidetolerance="10"
     inkscape:pageopacity="0"
     inkscape:pageshadow="2"
     inkscape:window-width="1920"
     inkscape:window-height="1007"
     id="namedview14"
     showgrid="true"
     inkscape:zoom="9.8125"
     inkscape:cx="69.044586"
     inkscape:cy="11.581851"
     inkscape:window-x="0"
     inkscape:window-y="0"
     inkscape:window-maximized="1"
     inkscape:current-layer="svg12"
     inkscape:document-rotation="0">
    <inkscape:grid
       type="xygrid"
       id="grid902"
       originx="0"
       originy="0" />
  </sodipodi:namedview>
  <g
     id="22-22-vlc">
    <g
       id="g947">
      <rect
         style="opacity:0.00100002"
         width="22"
         height="22"
         x="32"
         y="10"
         id="rect2" />
      <path
         inkscape:connector-curvature="0"
         d="m 36.875644,25.955683 -0.151072,0.226036 c 0,0 -0.666964,0.945031 -1.656965,2.217108 L 34.616,28.999997 h 0.904822 14.967327 0.904822 l -0.451607,-0.60117 -1.507501,-2.217108 -0.151072,-0.226036 H 48.980648 37.177787 Z m 11.728933,0.815176 z"
         style="color:#000000;display:inline;visibility:visible;fill:#7171a8;fill-opacity:1;fill-rule:nonzero;stroke:none;stroke-width:1.39008"
         id="path4144"
         sodipodi:nodetypes="cccccccccccccccccc" />
      <path
         inkscape:connector-curvature="0"
         d="m 42.969932,13.000008 c -0.276429,0.0015 -0.54,0.176505 -1.091251,0.521774 l -1.157143,4.318187 4.572323,-0.0031 -1.157143,-4.315091 c -0.604286,-0.349914 -0.891965,-0.523323 -1.166786,-0.521774 z m -2.770716,6.783068 -0.430714,1.604031 3.231262,1.54919 3.245526,-1.54919 -0.4275,-1.599386 -2.839909,-1.343283 z m 6.578039,3.5812 -7.535896,-0.0046 -0.671648,2.510045 c 3.146091,0.02601 3.13788,0.03344 4.50024,-0.0062 1.358762,8.82e-4 4.245621,0.01796 4.245621,0.01796 z"
         id="path4146"
         sodipodi:nodetypes="ccccccccccccccccccc"
         style="fill:#d3dae3;fill-opacity:1;stroke-width:1.57744" />
    </g>
  </g>
  <g
     id="vlc"
     transform="translate(32,10)">
    <g
       id="g926">
      <rect
         style="opacity:0.00100002"
         width="32"
         height="32"
         x="-32"
         y="-10"
         id="rect7" />
      <path
         inkscape:connector-curvature="0"
         d="m -25.210537,13.433535 -0.226607,0.339053 c 0,0 -1.000447,1.417546 -2.485446,3.325662 l -0.677411,0.901756 h 1.357232 22.4509766 1.3572319 L -4.1119711,17.09825 -6.3732205,13.772588 -6.5998276,13.433535 H -7.0530418 -24.757323 Z m 17.5933882,1.222764 z"
         style="color:#000000;display:inline;visibility:visible;fill:#7171a8;fill-opacity:1;fill-rule:nonzero;stroke:none;stroke-width:2.08512"
         id="path4144-3"
         sodipodi:nodetypes="cccccccccccccccccc" />
      <path
         inkscape:connector-curvature="0"
         d="m -16.069111,-5.9999784 c -0.414643,0.00232 -0.81,0.264758 -1.636875,0.7826617 l -1.735714,6.4772805 6.858481,-0.00464 -1.735714,-6.4726356 c -0.906428,-0.524871 -1.337946,-0.7849841 -1.750178,-0.7826617 z m -4.15607,10.1746022 -0.646072,2.4060461 4.84689,2.3237853 4.868286,-2.3237853 -0.641249,-2.3990788 -4.259862,-2.0149242 z m 9.867051,5.3717998 -11.303837,-0.00697 -1.007471,3.7650674 c 4.719134,0.03902 4.706817,0.05016 6.750355,-0.0093 2.038143,0.0013 6.3684285,0.02694 6.3684285,0.02694 z"
         id="path4146-5"
         sodipodi:nodetypes="ccccccccccccccccccc"
         style="fill:#d3dae3;fill-opacity:1;stroke-width:2.36616" />
    </g>
  </g>
</svg>
