<?xml version="1.0" encoding="UTF-8" standalone="no"?>
<svg
   xmlns:dc="http://purl.org/dc/elements/1.1/"
   xmlns:cc="http://creativecommons.org/ns#"
   xmlns:rdf="http://www.w3.org/1999/02/22-rdf-syntax-ns#"
   xmlns:svg="http://www.w3.org/2000/svg"
   xmlns="http://www.w3.org/2000/svg"
   xmlns:xlink="http://www.w3.org/1999/xlink"
   xmlns:sodipodi="http://sodipodi.sourceforge.net/DTD/sodipodi-0.dtd"
   xmlns:inkscape="http://www.inkscape.org/namespaces/inkscape"
   width="32"
   height="32"
   version="1.1"
   id="svg12"
   sodipodi:docname="bookmarks.svg"
   inkscape:version="1.0.1 (3bc2e813f5, 2020-09-07)">
  <metadata
     id="metadata18">
    <rdf:RDF>
      <cc:Work
         rdf:about="">
        <dc:format>image/svg+xml</dc:format>
        <dc:type
           rdf:resource="http://purl.org/dc/dcmitype/StillImage" />
      </cc:Work>
    </rdf:RDF>
  </metadata>
  <defs
     id="defs16">
    <linearGradient
       inkscape:collect="always"
       id="linearGradient870">
      <stop
         style="stop-color:#8585ad;stop-opacity:1"
         offset="0"
         id="stop866" />
      <stop
         style="stop-color:#80b2b2;stop-opacity:1"
         offset="1"
         id="stop868" />
    </linearGradient>
    <linearGradient
       inkscape:collect="always"
       xlink:href="#linearGradient870"
       id="linearGradient880"
       x1="10.207665"
       y1="13.16245"
       x2="21.555943"
       y2="13.16245"
       gradientUnits="userSpaceOnUse"
       gradientTransform="translate(-0.169,-0.231)" />
    <linearGradient
       inkscape:collect="always"
       xlink:href="#linearGradient870"
       id="linearGradient880-5"
       x1="10.207665"
       y1="13.16245"
       x2="21.555943"
       y2="13.16245"
       gradientUnits="userSpaceOnUse"
       gradientTransform="matrix(0.61538452,0,0,0.61538452,1.3036929,1.011701)" />
    <linearGradient
       inkscape:collect="always"
       xlink:href="#linearGradient870"
       id="linearGradient853"
       x1="6.3000002"
       y1="16"
       x2="25.799997"
       y2="16"
       gradientUnits="userSpaceOnUse" />
    <linearGradient
       inkscape:collect="always"
       xlink:href="#linearGradient870"
       id="linearGradient861"
       x1="5.0999999"
       y1="11"
       x2="17.099997"
       y2="11"
       gradientUnits="userSpaceOnUse" />
  </defs>
  <sodipodi:namedview
     pagecolor="#ffffff"
     bordercolor="#666666"
     borderopacity="1"
     objecttolerance="10"
     gridtolerance="10"
     guidetolerance="10"
     inkscape:pageopacity="0"
     inkscape:pageshadow="2"
     inkscape:window-width="1920"
     inkscape:window-height="1007"
     id="namedview14"
     showgrid="false"
     inkscape:zoom="6.9384853"
     inkscape:cx="38.474851"
     inkscape:cy="19.753942"
     inkscape:window-x="0"
     inkscape:window-y="0"
     inkscape:window-maximized="1"
     inkscape:current-layer="svg12"
     inkscape:document-rotation="0"
     inkscape:lockguides="false">
    <inkscape:grid
       type="xygrid"
       id="grid874"
       originx="0"
       originy="0" />
  </sodipodi:namedview>
  <g
     id="bookmarks">
    <rect
       style="opacity:0.00100002"
       width="32"
       height="32"
       x="0"
       y="0"
       id="rect2" />
    <path
       d="m 25.874863,5.8861755 -0.0104,-0.010453 c -0.214221,-0.2154315 -0.562619,-0.2163117 -0.777996,-0.00204 -0.215431,0.2142762 -0.216311,0.5626195 -0.002,0.777996 l 0.0104,0.010453 c 0.107496,0.1080458 0.248715,0.1621237 0.389988,0.1621237 0.140284,0 0.280678,-0.053308 0.388008,-0.1600883 0.215432,-0.2142762 0.216312,-0.5626194 0.002,-0.7779959 z"
       id="path8-6"
       style="clip-rule:evenodd;opacity:0.01;fill:#0ac2be;fill-opacity:1;fill-rule:evenodd;stroke-width:0.0550131;stroke-linejoin:round;stroke-miterlimit:1.41421" />
    <path
       d="m 16.166252,20.42208 c -0.268904,-0.141494 -0.601569,-0.03812 -0.742953,0.230835 -0.141438,0.268904 -0.03807,0.601514 0.230836,0.742953 l 0.0036,0.0019 c 0.08147,0.0428 0.168561,0.0631 0.254436,0.0631 0.197497,0 0.388173,-0.10744 0.486702,-0.294925 0.141383,-0.268849 0.03625,-0.602449 -0.232651,-0.743888 z"
       id="path14-7"
       style="clip-rule:evenodd;opacity:0.01;fill:#0ac2be;fill-opacity:1;fill-rule:evenodd;stroke-width:0.0550131;stroke-linejoin:round;stroke-miterlimit:1.41421" />
    <path
       d="M 25.799997,27.128264 V 5.9316637 C 25.799997,4.3152401 24.49133,3 22.884736,3 H 9.215249 C 7.608666,3 6.3,4.3152401 6.3,5.9316637 V 27.127179 c 0,0.70421 0.38784,1.342341 1.011824,1.66517 0.620745,0.319604 1.359584,0.267614 1.929429,-0.137596 l 6.673329,-4.748498 c 0.08021,-0.05743 0.189647,-0.05743 0.270833,0 l 6.673322,4.748508 c 0.321759,0.228604 0.698763,0.344513 1.076829,0.344513 0.291419,0 0.582844,-0.06826 0.85258,-0.206938 0.62401,-0.321762 1.011834,-0.959893 1.011851,-1.664074 z m -1.625003,0 c 0,0.132271 -0.0834,0.196052 -0.132259,0.221012 -0.05739,0.02816 -0.14526,0.05104 -0.242671,-0.01842 l -6.67334,-4.748508 c -0.644565,-0.458282 -1.510157,-0.458282 -2.153659,0 l -6.67333,4.748515 c -0.09642,0.06822 -0.185164,0.04651 -0.242676,0.01842 -0.04885,-0.02603 -0.13226,-0.08875 -0.13226,-0.221014 V 5.9316637 c 0,-0.7204571 0.579575,-1.3065737 1.290254,-1.3065737 h 13.668421 c 0.711732,0 1.290241,0.5861166 1.290241,1.3065737 V 27.128264 Z"
       id="path2-3-3"
       style="clip-rule:evenodd;fill:url(#linearGradient853);fill-opacity:1.0;fill-rule:evenodd;stroke-width:1.08341;stroke-linejoin:round;stroke-miterlimit:1.41421" />
    <path
       d="M 15.903039,8.7053131 15.712803,8.906896 15.522568,8.7053131 c -1.214231,-1.2823686 -3.350242,-1.2823686 -4.562578,0 -1.228433,1.2984629 -1.228433,3.4117669 0,4.7111599 l 4.237021,4.482137 c 0.134363,0.141027 0.320827,0.221463 0.515781,0.221463 0.194966,0 0.381395,-0.08045 0.515779,-0.221463 l 4.237046,-4.482137 c 1.228435,-1.298454 1.228435,-3.411762 0,-4.7111599 -1.213269,-1.2833145 -3.349304,-1.2833145 -4.562578,0 z m 3.531,3.7344889 -3.721227,3.937007 -3.721227,-3.937007 c -0.719276,-0.760917 -0.719276,-1.997847 0,-2.758761 0.335959,-0.355835 0.779821,-0.551743 1.250186,-0.551743 0.46941,0 0.913288,0.195908 1.249247,0.551743 l 0.706011,0.746712 c 0.267829,0.282982 0.763755,0.282982 1.031586,0 l 0.706003,-0.746712 c 0.672878,-0.711682 1.826541,-0.711682 2.499433,0 0.719269,0.760914 0.719269,1.997844 -1.2e-5,2.758761 z"
       id="path4-6"
       style="clip-rule:evenodd;fill:url(#linearGradient880);fill-opacity:1;fill-rule:evenodd;stroke-width:0.94639;stroke-linejoin:round;stroke-miterlimit:1.41421" />
  </g>
  <g
     id="22-22-bookmarks"
     transform="translate(32,10)">
    <rect
       style="opacity:0.00100002"
       width="22"
       height="22"
       x="0"
       y="0"
       id="rect7" />
    <path
       d="m 17.33068,4.776105 -0.0063,-0.0063 c -0.131828,-0.132579 -0.346227,-0.133117 -0.478763,-0.002 -0.132575,0.131865 -0.13312,0.346228 -0.0019,0.478769 l 0.0063,0.0063 c 0.06617,0.0665 0.153058,0.09975 0.239991,0.09975 0.08632,0 0.172728,-0.03277 0.238779,-0.09853 0.132573,-0.131863 0.133113,-0.346227 0.0019,-0.478767 z"
       id="path8-6-6"
       style="clip-rule:evenodd;opacity:0.01;fill:#0ac2be;fill-opacity:1;fill-rule:evenodd;stroke-width:0.0338538;stroke-linejoin:round;stroke-miterlimit:1.41421" />
    <path
       d="m 11.356154,13.721279 c -0.165479,-0.08707 -0.370196,-0.02343 -0.457202,0.142054 -0.08704,0.165485 -0.02343,0.370164 0.142053,0.457203 l 0.0022,0.0019 c 0.05014,0.02637 0.103729,0.0388 0.156576,0.0388 0.121537,0 0.238875,-0.06612 0.299508,-0.181488 0.08701,-0.165446 0.0223,-0.370743 -0.143169,-0.457782 z"
       id="path14-7-2"
       style="clip-rule:evenodd;opacity:0.01;fill:#0ac2be;fill-opacity:1;fill-rule:evenodd;stroke-width:0.0338538;stroke-linejoin:round;stroke-miterlimit:1.41421" />
    <path
       d="M 17.099996,17.848162 V 4.8041 C 17.099996,3.809378 16.294661,3 15.305999,3 H 6.8939988 C 5.905333,3 5.1,3.809378 5.1,4.8041 v 13.043393 c 0,0.433363 0.2386707,0.826056 0.622661,1.024722 0.3819974,0.196676 0.8366668,0.164683 1.1873411,-0.08465 l 4.1066629,-2.922152 c 0.04936,-0.03539 0.116706,-0.03539 0.166666,0 l 4.106668,2.922159 c 0.197996,0.140682 0.43,0.212009 0.662663,0.212009 0.179322,0 0.358665,-0.042 0.524655,-0.127348 0.384007,-0.198009 0.622663,-0.590701 0.622679,-1.024044 z m -1.000003,0 c 0,0.08138 -0.05138,0.120652 -0.08137,0.136012 -0.03538,0.01735 -0.08938,0.03139 -0.149338,-0.01139 l -4.106668,-2.922157 c -0.396656,-0.282015 -0.929328,-0.282015 -1.325328,0 l -4.1066678,2.922167 c -0.059335,0.04196 -0.1139466,0.02858 -0.1493386,0.01138 -0.030056,-0.01603 -0.081393,-0.05466 -0.081393,-0.13601 V 4.804091 c 0,-0.443358 0.3566615,-0.804039 0.7940031,-0.804039 h 8.4113223 c 0.437995,0 0.794,0.360681 0.794,0.804039 v 13.044068 z"
       id="path2-3-3-9"
       style="clip-rule:evenodd;fill:url(#linearGradient861);fill-opacity:1.0;fill-rule:evenodd;stroke-width:0.666703;stroke-linejoin:round;stroke-miterlimit:1.41421" />
    <path
       d="M 11.194178,6.510959 11.077109,6.635014 10.960041,6.510959 c -0.747219,-0.789146 -2.0616869,-0.789146 -2.8077398,0 -0.7559581,0.799054 -0.7559581,2.099551 0,2.899181 l 2.6073968,2.758238 c 0.08269,0.08675 0.197432,0.136286 0.317403,0.136286 0.11998,0 0.234705,-0.04945 0.317402,-0.136286 L 14.001916,9.41014 c 0.755964,-0.799052 0.755964,-2.099548 0,-2.899181 -0.746632,-0.789731 -2.061109,-0.789731 -2.807738,0 z M 13.367102,8.809101 11.077114,11.231877 8.7871282,8.809101 C 8.3444979,8.340854 8.3444979,7.579657 8.7871282,7.11141 8.9938736,6.892436 9.267018,6.771877 9.556474,6.771877 c 0.288867,0 0.562024,0.120559 0.768767,0.339533 l 0.434468,0.459512 c 0.164818,0.174143 0.470004,0.174143 0.634822,0 L 11.828998,7.11141 c 0.414077,-0.437951 1.124022,-0.437951 1.538114,0 0.442618,0.468247 0.442618,1.229444 -1e-5,1.697691 z"
       id="path4-6-1"
       style="clip-rule:evenodd;fill:url(#linearGradient880-5);fill-opacity:1;fill-rule:evenodd;stroke-width:0.58239;stroke-linejoin:round;stroke-miterlimit:1.41421" />
  </g>
</svg>
