<?xml version="1.0" encoding="UTF-8" standalone="no"?>
<svg
   xmlns:dc="http://purl.org/dc/elements/1.1/"
   xmlns:cc="http://creativecommons.org/ns#"
   xmlns:rdf="http://www.w3.org/1999/02/22-rdf-syntax-ns#"
   xmlns:svg="http://www.w3.org/2000/svg"
   xmlns="http://www.w3.org/2000/svg"
   xmlns:sodipodi="http://sodipodi.sourceforge.net/DTD/sodipodi-0.dtd"
   xmlns:inkscape="http://www.inkscape.org/namespaces/inkscape"
   width="32"
   height="32"
   version="1.1"
   id="svg12"
   sodipodi:docname="device.svg"
   inkscape:version="1.0.1 (3bc2e813f5, 2020-09-07)">
  <metadata
     id="metadata18">
    <rdf:RDF>
      <cc:Work
         rdf:about="">
        <dc:format>image/svg+xml</dc:format>
        <dc:type
           rdf:resource="http://purl.org/dc/dcmitype/StillImage" />
      </cc:Work>
    </rdf:RDF>
  </metadata>
  <defs
     id="defs16" />
  <sodipodi:namedview
     pagecolor="#ffffff"
     bordercolor="#666666"
     borderopacity="1"
     objecttolerance="10"
     gridtolerance="10"
     guidetolerance="10"
     inkscape:pageopacity="0"
     inkscape:pageshadow="2"
     inkscape:window-width="1920"
     inkscape:window-height="1007"
     id="namedview14"
     showgrid="false"
     inkscape:zoom="9.8125"
     inkscape:cx="44.804086"
     inkscape:cy="15.509619"
     inkscape:window-x="0"
     inkscape:window-y="0"
     inkscape:window-maximized="1"
     inkscape:current-layer="svg12"
     inkscape:document-rotation="0"
     showguides="true"
     inkscape:guide-bbox="true">
    <inkscape:grid
       type="xygrid"
       id="grid849" />
    <sodipodi:guide
       position="-30.165605,19.66879"
       orientation="1,0"
       id="guide850" />
  </sodipodi:namedview>
  <g
     id="g18"
     transform="translate(32.000001,10.000001)">
    <rect
       style="opacity:0.00100002"
       width="22"
       height="22"
       x="0"
       y="0"
       id="rect2" />
  </g>
  <g
     id="device-notifier">
    <rect
       style="opacity:0.00100002"
       width="32"
       height="32"
       x="0"
       y="0"
       id="rect7" />
    <path
       d="m 18.723144,6.6550757 -2.321086,2.3210888 -0.31423,-0.313987 c -0.271861,-0.2718572 -0.337741,-0.3142304 -0.48298,-0.3142304 -0.145481,0 -0.21577,0.046782 -0.53,0.3517048 -2.546168,2.4854251 -9.6037193,9.4161111 -9.7631609,9.5895121 -0.4783247,0.511145 -0.9424439,1.364684 -1.1207441,2.049227 -0.393828,1.50992 -0.1547881,3.024738 0.679892,4.290717 0.3328431,0.50649 2.1569897,2.35415 2.6916461,2.724467 1.3269644,0.928484 2.8557419,1.20524 4.4408509,0.797206 0.520449,-0.131274 1.416115,-0.586087 1.856968,-0.942687 0.440853,-0.361009 10.063186,-10.189808 10.119515,-10.344596 0.07029,-0.178301 0.0047,-0.309577 -0.31423,-0.623561 l -0.300024,-0.300025 2.321086,-2.321087 c 2.171199,-2.171195 2.321344,-2.335292 2.321344,-2.485425 0,-0.154789 -0.201591,-0.365661 -3.319871,-3.4795475 -3.113886,-3.1182948 -3.324762,-3.3198626 -3.479551,-3.3198626 -0.150133,0 -0.31423,0.1498905 -2.485425,2.3210858 z m 5.416112,1.5709045 2.907415,2.9074198 -2.124165,2.119518 -2.119521,2.124173 -2.916971,-2.916727 -2.921379,-2.92138 2.11021,-2.1102133 c 1.158218,-1.158215 2.119521,-2.1102104 2.133724,-2.1102104 0.01396,0 1.33162,1.308352 2.930687,2.9074199 z m -1.280185,8.6940938 c -1.90399,1.997549 -9.34582,9.542734 -9.594413,9.730342 -0.426647,0.323535 -1.069063,0.628457 -1.60372,0.764387 -0.590986,0.145238 -1.50992,0.145238 -2.1009055,0 C 9.0535422,27.288181 8.458147,27.011425 8.0408051,26.716053 7.6374264,26.42999 6.0432568,24.86374 5.7148218,24.432439 4.5095809,22.861537 4.5049277,20.652868 5.7006167,19.072655 5.8083806,18.927174 8.0826881,16.667073 10.751066,14.055025 l 4.849131,-4.7550796 3.718589,3.7185856 3.718585,3.718589 z"
       id="path9"
       style="fill:#d3dae3;fill-opacity:1;stroke-width:0.00244934" />
    <path
       d="m 21.412269,7.938581 c -0.197792,0.1246019 -0.829557,0.7824104 -0.876928,0.9198093 -0.07296,0.1892602 0.02582,0.3524775 0.481569,0.7909417 0.382562,0.369765 0.425668,0.399849 0.588885,0.399849 0.163442,0 0.206323,-0.03008 0.580353,-0.3910932 C 22.641675,9.215358 22.749214,9.0476505 22.680515,8.8586148 22.624612,8.7167257 21.94121,8.007505 21.769237,7.9172527 21.618592,7.8397975 21.566955,7.8397975 21.412269,7.938581 Z m 0.313862,0.9198093 0.09452,0.098783 -0.107539,0.1032737 -0.10754,0.098783 -0.107539,-0.098783 -0.107539,-0.1032737 0.09452,-0.098783 c 0.05164,-0.055903 0.103049,-0.098783 0.120336,-0.098783 0.01751,0 0.06915,0.042881 0.120785,0.098783 z"
       id="path6"
       style="fill:#80b2b2;fill-opacity:1;stroke-width:0.00224508" />
    <path
       d="m 22.981131,9.3484912 c -0.03435,0.012797 -0.270757,0.2278757 -0.524451,0.4770795 -0.429933,0.4256673 -0.464282,0.4728143 -0.464282,0.6232343 0,0.15042 0.03862,0.202057 0.412645,0.588884 0.460017,0.472814 0.618969,0.563066 0.821026,0.455752 0.180505,-0.09025 0.907012,-0.85111 0.937096,-0.979978 0.01729,-0.0687 0.0043,-0.158951 -0.03435,-0.232141 -0.07319,-0.141889 -0.855376,-0.9198093 -0.9243,-0.9198093 -0.02582,0 -0.06892,-0.00853 -0.103273,-0.017287 -0.02986,-0.013021 -0.08554,-0.00876 -0.120112,0.00427 z m 0.215079,1.1950558 -0.103274,0.111805 -0.107539,-0.107539 -0.107315,-0.107539 0.103273,-0.111805 0.103274,-0.111805 0.107539,0.107539 0.10754,0.107539 z"
       id="path8"
       style="fill:#80b2b2;fill-opacity:1;stroke-width:0.00224508" />
    <path
       d="m 9.6471517,16.385245 c -0.141889,0.10754 -0.1677075,0.266491 -0.1203363,0.769389 0.1935259,2.07625 1.3840916,3.834373 3.2109136,4.754182 0.704955,0.352477 1.323924,0.528716 2.149215,0.606171 0.653318,0.06017 0.825291,-0.0128 0.829557,-0.348212 0,-0.270756 -0.116071,-0.330924 -0.713486,-0.382561 -1.018818,-0.08172 -1.895746,-0.404115 -2.660869,-0.979978 -1.246469,-0.928565 -1.96018,-2.218139 -2.084782,-3.765448 -0.03862,-0.434198 -0.06017,-0.528716 -0.137623,-0.614703 -0.102825,-0.112029 -0.352253,-0.133582 -0.4725893,-0.03884 z"
       id="path10"
       style="fill:#7171a8;fill-opacity:1;stroke-width:0.00224508" />
    <path
       d="m 11.173133,16.694618 c -0.10754,0.107539 -0.111805,0.120336 -0.08599,0.502897 0.04737,0.679137 0.309597,1.448526 0.679137,1.994529 0.202057,0.296576 0.704955,0.808229 1.014551,1.027349 0.571598,0.412646 1.341211,0.687668 2.063229,0.735039 0.382562,0.02582 0.395358,0.02155 0.502898,-0.08599 0.146155,-0.146155 0.15042,-0.378296 0.01302,-0.520185 -0.08172,-0.08172 -0.163442,-0.103049 -0.451261,-0.124602 -1.689422,-0.128868 -2.961709,-1.401379 -3.090577,-3.090577 -0.02155,-0.288044 -0.04288,-0.369765 -0.124602,-0.451261 -0.142113,-0.137624 -0.374255,-0.133358 -0.520409,0.0128 z"
       id="path12"
       style="fill:#7171a8;fill-opacity:1;stroke-width:0.00224508" />
    <path
       d="m 12.716401,16.613121 c -0.08599,0.03435 -0.180505,0.253694 -0.180505,0.40838 0,0.07746 0.03008,0.275022 0.06443,0.44273 0.206323,0.971446 1.014552,1.775409 1.998795,1.981732 0.588884,0.124602 0.859641,0.02155 0.859641,-0.326659 0,-0.232141 -0.103274,-0.300841 -0.537248,-0.365499 -0.610437,-0.09025 -1.044636,-0.361009 -1.358273,-0.85111 -0.158952,-0.244938 -0.296575,-0.696424 -0.296575,-0.96718 0,-0.197792 -0.146155,-0.352478 -0.335191,-0.348212 -0.08621,0 -0.184994,0.0128 -0.215078,0.02582 z"
       id="path14"
       style="fill:#7171a8;fill-opacity:1;stroke-width:0.00224508" />
  </g>
  <g
     id="g27"
     transform="matrix(0.01632784,0,0,0.01632784,34.907742,12.825068)">
    <g
       transform="matrix(0.1,0,0,-0.1,0,512)"
       id="22-22-device-notifier">
      <path
         d="M 6109,4071.9 5161.3,3124.2 5033,3252.4 c -111,111 -137.9,128.3 -197.2,128.3 -59.4,0 -88.1,-19.1 -216.4,-143.6 C 3579.8,2222.3 698.2,-607.5 633.1,-678.3 437.8,-887 248.3,-1235.5 175.5,-1515 14.7,-2131.5 112.3,-2750 453.1,-3266.9 c 135.9,-206.8 880.7,-961.2 1099,-1112.4 541.8,-379.1 1166,-492.1 1813.2,-325.5 212.5,53.6 578.2,239.3 758.2,384.9 180,147.4 4108.8,4160.5 4131.8,4223.7 28.7,72.8 1.9,126.4 -128.3,254.6 l -122.5,122.5 947.7,947.7 c 886.5,886.5 947.8,953.5 947.8,1014.8 0,63.2 -82.3,149.3 -1355.5,1420.7 C 7273.1,4937.3 7187,5019.6 7123.8,5019.6 c -61.3,0 -128.3,-61.2 -1014.8,-947.7 z M 8320.4,3430.5 9507.5,2243.4 8640.2,1378 7774.8,510.7 6583.8,1701.6 5391,2894.4 6252.6,3756 c 472.9,472.9 865.4,861.6 871.2,861.6 5.7,0 543.7,-534.2 1196.6,-1187.1 z M 7797.7,-119.3 c -777.4,-815.6 -3815.9,-3896.3 -3917.4,-3972.9 -174.2,-132.1 -436.5,-256.6 -654.8,-312.1 -241.3,-59.3 -616.5,-59.3 -857.8,0 -206.8,51.7 -449.9,164.7 -620.3,285.3 -164.7,116.8 -815.6,756.3 -949.7,932.4 -492.1,641.4 -494,1543.2 -5.8,2188.4 44,59.4 972.6,982.2 2062.1,2048.7 L 4833.9,2992 6352.2,1473.7 7870.5,-44.6 Z"
         id="path4-5"
         style="fill:#d3dae3;fill-opacity:1" />
      <path
         d="m 7363.1,3681.3 c -88.1,-55.5 -369.5,-348.5 -390.6,-409.7 -32.5,-84.3 11.5,-157 214.5,-352.3 170.4,-164.7 189.6,-178.1 262.3,-178.1 72.8,0 91.9,13.4 258.5,174.2 202.9,197.2 250.8,271.9 220.2,356.1 -24.9,63.2 -329.3,379.1 -405.9,419.3 -67.1,34.5 -90.1,34.5 -159,-9.5 z m 139.8,-409.7 42.1,-44 -47.9,-46 -47.9,-44 -47.9,44 -47.9,46 42.1,44 c 23,24.9 45.9,44 53.6,44 7.8,0 30.8,-19.1 53.8,-44 z"
         id="path6-3"
         style="fill:#80b2b2;fill-opacity:1" />
      <path
         d="m 8061.9,3053.3 c -15.3,-5.7 -120.6,-101.5 -233.6,-212.5 -191.5,-189.6 -206.8,-210.6 -206.8,-277.6 0,-67 17.2,-90 183.8,-262.3 204.9,-210.6 275.7,-250.8 365.7,-203 80.4,40.2 404,379.1 417.4,436.5 7.7,30.6 1.9,70.8 -15.3,103.4 -32.6,63.2 -381,409.7 -411.7,409.7 -11.5,0 -30.7,3.8 -46,7.7 -13.3,5.8 -38.1,3.9 -53.5,-1.9 z m 95.8,-532.3 -46,-49.8 -47.9,47.9 -47.8,47.9 46,49.8 46,49.8 47.9,-47.9 47.9,-47.9 z"
         id="path8-5"
         style="fill:#80b2b2;fill-opacity:1" />
      <path
         d="m 2122.7,-81 c -63.2,-47.9 -74.7,-118.7 -53.6,-342.7 86.2,-924.8 616.5,-1707.9 1430.2,-2117.6 314,-157 589.7,-235.5 957.3,-270 291,-26.8 367.6,5.7 369.5,155.1 0,120.6 -51.7,147.4 -317.8,170.4 -453.8,36.4 -844.4,180 -1185.2,436.5 -555.2,413.6 -873.1,988 -928.6,1677.2 -17.2,193.4 -26.8,235.5 -61.3,273.8 -45.8,49.9 -156.9,59.5 -210.5,17.3 z"
         id="path10-6"
         style="fill:#7171a8;fill-opacity:1" />
      <path
         d="m 2802.4,-218.8 c -47.9,-47.9 -49.8,-53.6 -38.3,-224 21.1,-302.5 137.9,-645.2 302.5,-888.4 90,-132.1 314,-360 451.9,-457.6 254.6,-183.8 597.4,-306.3 919,-327.4 170.4,-11.5 176.1,-9.6 224,38.3 65.1,65.1 67,168.5 5.8,231.7 -36.4,36.4 -72.8,45.9 -201,55.5 -752.5,57.4 -1319.2,624.2 -1376.6,1376.6 -9.6,128.3 -19.1,164.7 -55.5,201 -63.3,61.3 -166.7,59.4 -231.8,-5.7 z"
         id="path12-2"
         style="fill:#7171a8;fill-opacity:1" />
      <path
         d="m 3489.8,-182.5 c -38.3,-15.3 -80.4,-113 -80.4,-181.9 0,-34.5 13.4,-122.5 28.7,-197.2 91.9,-432.7 451.9,-790.8 890.3,-882.7 262.3,-55.5 382.9,-9.6 382.9,145.5 0,103.4 -46,134 -239.3,162.8 -271.9,40.2 -465.3,160.8 -605,379.1 -70.8,109.1 -132.1,310.2 -132.1,430.8 0,88.1 -65.1,157 -149.3,155.1 -38.4,0 -82.4,-5.7 -95.8,-11.5 z"
         id="path14-9"
         style="fill:#7171a8;fill-opacity:1" />
    </g>
  </g>
</svg>
