<?xml version="1.0" encoding="UTF-8" standalone="no"?>
<svg
   xmlns:dc="http://purl.org/dc/elements/1.1/"
   xmlns:cc="http://creativecommons.org/ns#"
   xmlns:rdf="http://www.w3.org/1999/02/22-rdf-syntax-ns#"
   xmlns:svg="http://www.w3.org/2000/svg"
   xmlns="http://www.w3.org/2000/svg"
   xmlns:sodipodi="http://sodipodi.sourceforge.net/DTD/sodipodi-0.dtd"
   xmlns:inkscape="http://www.inkscape.org/namespaces/inkscape"
   width="32"
   height="32"
   version="1.1"
   id="svg12"
   sodipodi:docname="device.svg"
   inkscape:version="1.0.1 (3bc2e813f5, 2020-09-07)">
  <metadata
     id="metadata18">
    <rdf:RDF>
      <cc:Work
         rdf:about="">
        <dc:format>image/svg+xml</dc:format>
        <dc:type
           rdf:resource="http://purl.org/dc/dcmitype/StillImage" />
      </cc:Work>
    </rdf:RDF>
  </metadata>
  <defs
     id="defs16" />
  <sodipodi:namedview
     pagecolor="#ffffff"
     bordercolor="#666666"
     borderopacity="1"
     objecttolerance="10"
     gridtolerance="10"
     guidetolerance="10"
     inkscape:pageopacity="0"
     inkscape:pageshadow="2"
     inkscape:window-width="1920"
     inkscape:window-height="1016"
     id="namedview14"
     showgrid="false"
     inkscape:zoom="9.8125"
     inkscape:cx="44.804086"
     inkscape:cy="15.509619"
     inkscape:window-x="0"
     inkscape:window-y="0"
     inkscape:window-maximized="1"
     inkscape:current-layer="svg12"
     inkscape:document-rotation="0"
     showguides="true"
     inkscape:guide-bbox="true">
    <inkscape:grid
       type="xygrid"
       id="grid849" />
    <sodipodi:guide
       position="-30.165605,19.66879"
       orientation="1,0"
       id="guide850" />
  </sodipodi:namedview>
  <g
     id="device-notifier">
    <rect
       style="opacity:0.00100002"
       width="32"
       height="32"
       x="0"
       y="0"
       id="rect7" />
    <path
       d="m 18.723144,6.6550757 -2.321086,2.3210888 -0.31423,-0.313987 c -0.271861,-0.2718572 -0.337741,-0.3142304 -0.48298,-0.3142304 -0.145481,0 -0.21577,0.046782 -0.53,0.3517048 -2.546168,2.4854251 -9.6037193,9.4161111 -9.7631609,9.5895121 -0.4783247,0.511145 -0.9424439,1.364684 -1.1207441,2.049227 -0.393828,1.50992 -0.1547881,3.024738 0.679892,4.290717 0.3328431,0.50649 2.1569897,2.35415 2.6916461,2.724467 1.3269644,0.928484 2.8557419,1.20524 4.4408509,0.797206 0.520449,-0.131274 1.416115,-0.586087 1.856968,-0.942687 0.440853,-0.361009 10.063186,-10.189808 10.119515,-10.344596 0.07029,-0.178301 0.0047,-0.309577 -0.31423,-0.623561 l -0.300024,-0.300025 2.321086,-2.321087 c 2.171199,-2.171195 2.321344,-2.335292 2.321344,-2.485425 0,-0.154789 -0.201591,-0.365661 -3.319871,-3.4795475 -3.113886,-3.1182948 -3.324762,-3.3198626 -3.479551,-3.3198626 -0.150133,0 -0.31423,0.1498905 -2.485425,2.3210858 z m 5.416112,1.5709045 2.907415,2.9074198 -2.124165,2.119518 -2.119521,2.124173 -2.916971,-2.916727 -2.921379,-2.92138 2.11021,-2.1102133 c 1.158218,-1.158215 2.119521,-2.1102104 2.133724,-2.1102104 0.01396,0 1.33162,1.308352 2.930687,2.9074199 z m -1.280185,8.6940938 c -1.90399,1.997549 -9.34582,9.542734 -9.594413,9.730342 -0.426647,0.323535 -1.069063,0.628457 -1.60372,0.764387 -0.590986,0.145238 -1.50992,0.145238 -2.1009055,0 C 9.0535422,27.288181 8.458147,27.011425 8.0408051,26.716053 7.6374264,26.42999 6.0432568,24.86374 5.7148218,24.432439 4.5095809,22.861537 4.5049277,20.652868 5.7006167,19.072655 5.8083806,18.927174 8.0826881,16.667073 10.751066,14.055025 l 4.849131,-4.7550796 3.718589,3.7185856 3.718585,3.718589 z"
       id="path9"
       style="fill:#d3dae3;fill-opacity:1;stroke-width:0.00244934" />
    <path
       d="m 21.412269,7.938581 c -0.197792,0.1246019 -0.829557,0.7824104 -0.876928,0.9198093 -0.07296,0.1892602 0.02582,0.3524775 0.481569,0.7909417 0.382562,0.369765 0.425668,0.399849 0.588885,0.399849 0.163442,0 0.206323,-0.03008 0.580353,-0.3910932 C 22.641675,9.215358 22.749214,9.0476505 22.680515,8.8586148 22.624612,8.7167257 21.94121,8.007505 21.769237,7.9172527 21.618592,7.8397975 21.566955,7.8397975 21.412269,7.938581 Z m 0.313862,0.9198093 0.09452,0.098783 -0.107539,0.1032737 -0.10754,0.098783 -0.107539,-0.098783 -0.107539,-0.1032737 0.09452,-0.098783 c 0.05164,-0.055903 0.103049,-0.098783 0.120336,-0.098783 0.01751,0 0.06915,0.042881 0.120785,0.098783 z"
       id="path6"
       style="fill:#80b2b2;fill-opacity:1;stroke-width:0.00224508" />
    <path
       d="m 22.981131,9.3484912 c -0.03435,0.012797 -0.270757,0.2278757 -0.524451,0.4770795 -0.429933,0.4256673 -0.464282,0.4728143 -0.464282,0.6232343 0,0.15042 0.03862,0.202057 0.412645,0.588884 0.460017,0.472814 0.618969,0.563066 0.821026,0.455752 0.180505,-0.09025 0.907012,-0.85111 0.937096,-0.979978 0.01729,-0.0687 0.0043,-0.158951 -0.03435,-0.232141 -0.07319,-0.141889 -0.855376,-0.9198093 -0.9243,-0.9198093 -0.02582,0 -0.06892,-0.00853 -0.103273,-0.017287 -0.02986,-0.013021 -0.08554,-0.00876 -0.120112,0.00427 z m 0.215079,1.1950558 -0.103274,0.111805 -0.107539,-0.107539 -0.107315,-0.107539 0.103273,-0.111805 0.103274,-0.111805 0.107539,0.107539 0.10754,0.107539 z"
       id="path8"
       style="fill:#80b2b2;fill-opacity:1;stroke-width:0.00224508" />
    <path
       d="m 9.6471517,16.385245 c -0.141889,0.10754 -0.1677075,0.266491 -0.1203363,0.769389 0.1935259,2.07625 1.3840916,3.834373 3.2109136,4.754182 0.704955,0.352477 1.323924,0.528716 2.149215,0.606171 0.653318,0.06017 0.825291,-0.0128 0.829557,-0.348212 0,-0.270756 -0.116071,-0.330924 -0.713486,-0.382561 -1.018818,-0.08172 -1.895746,-0.404115 -2.660869,-0.979978 -1.246469,-0.928565 -1.96018,-2.218139 -2.084782,-3.765448 -0.03862,-0.434198 -0.06017,-0.528716 -0.137623,-0.614703 -0.102825,-0.112029 -0.352253,-0.133582 -0.4725893,-0.03884 z"
       id="path10"
       style="fill:#7171a8;fill-opacity:1;stroke-width:0.00224508" />
    <path
       d="m 11.173133,16.694618 c -0.10754,0.107539 -0.111805,0.120336 -0.08599,0.502897 0.04737,0.679137 0.309597,1.448526 0.679137,1.994529 0.202057,0.296576 0.704955,0.808229 1.014551,1.027349 0.571598,0.412646 1.341211,0.687668 2.063229,0.735039 0.382562,0.02582 0.395358,0.02155 0.502898,-0.08599 0.146155,-0.146155 0.15042,-0.378296 0.01302,-0.520185 -0.08172,-0.08172 -0.163442,-0.103049 -0.451261,-0.124602 -1.689422,-0.128868 -2.961709,-1.401379 -3.090577,-3.090577 -0.02155,-0.288044 -0.04288,-0.369765 -0.124602,-0.451261 -0.142113,-0.137624 -0.374255,-0.133358 -0.520409,0.0128 z"
       id="path12"
       style="fill:#7171a8;fill-opacity:1;stroke-width:0.00224508" />
    <path
       d="m 12.716401,16.613121 c -0.08599,0.03435 -0.180505,0.253694 -0.180505,0.40838 0,0.07746 0.03008,0.275022 0.06443,0.44273 0.206323,0.971446 1.014552,1.775409 1.998795,1.981732 0.588884,0.124602 0.859641,0.02155 0.859641,-0.326659 0,-0.232141 -0.103274,-0.300841 -0.537248,-0.365499 -0.610437,-0.09025 -1.044636,-0.361009 -1.358273,-0.85111 -0.158952,-0.244938 -0.296575,-0.696424 -0.296575,-0.96718 0,-0.197792 -0.146155,-0.352478 -0.335191,-0.348212 -0.08621,0 -0.184994,0.0128 -0.215078,0.02582 z"
       id="path14"
       style="fill:#7171a8;fill-opacity:1;stroke-width:0.00224508" />
  </g>
  <g
     id="22-22-device-notifier">
    <rect
       style="opacity:0.00100002"
       width="22"
       height="22"
       x="32"
       y="10.000001"
       id="rect2" />
    <path
       d="m 44.882395,14.536405 -1.547386,1.547386 -0.209485,-0.209323 c -0.181239,-0.181238 -0.225161,-0.209485 -0.321984,-0.209485 -0.09699,0 -0.143848,0.03119 -0.353334,0.234467 -1.697438,1.656945 -6.402457,6.277386 -6.508751,6.392987 -0.318882,0.340761 -0.628294,0.909785 -0.74716,1.366147 -0.262551,1.006609 -0.103192,2.016483 0.45326,2.860467 0.221894,0.337659 1.437989,1.569428 1.794425,1.816304 0.88464,0.618987 1.903821,0.803491 2.960557,0.53147 0.346965,-0.08752 0.944073,-0.390724 1.237973,-0.628457 0.293901,-0.240671 6.708767,-6.793181 6.746321,-6.896373 0.04686,-0.118866 0.0031,-0.206383 -0.209486,-0.415705 l -0.200015,-0.200016 1.547385,-1.547386 c 1.44746,-1.447459 1.547549,-1.556855 1.547549,-1.656945 0,-0.103191 -0.134378,-0.243774 -2.213233,-2.31969 -2.075917,-2.078856 -2.216499,-2.213233 -2.319691,-2.213233 -0.100089,0 -0.209486,0.09993 -1.656945,1.547385 z m 3.61073,1.047265 1.938273,1.938273 -1.41611,1.413008 -1.413008,1.41611 -1.944641,-1.944477 -1.94758,-1.94758 1.406803,-1.406804 c 0.772142,-0.772141 1.413008,-1.406803 1.422478,-1.406803 0.0093,0 0.887743,0.872231 1.953785,1.938273 z m -0.853454,5.796043 c -1.269324,1.331695 -6.230526,6.3618 -6.396253,6.486871 -0.28443,0.215691 -0.712708,0.418972 -1.069144,0.509591 -0.39399,0.09682 -1.006609,0.09682 -1.400599,0 -0.337659,-0.08441 -0.734588,-0.268919 -1.012813,-0.465832 -0.268919,-0.190709 -1.331696,-1.234872 -1.550651,-1.522404 -0.803491,-1.047265 -0.806594,-2.519706 -0.0095,-3.573176 0.07184,-0.09699 1.588042,-1.603717 3.366956,-3.345076 l 3.232741,-3.170043 2.47905,2.47905 2.47905,2.47905 z"
       id="path4-5"
       style="fill:#d3dae3;fill-opacity:1;stroke-width:0.00163278" />
    <path
       d="m 46.930064,15.174169 c -0.143848,0.09062 -0.603312,0.569024 -0.637763,0.66895 -0.05307,0.137643 0.01878,0.256346 0.350231,0.575228 0.278226,0.268919 0.309575,0.290798 0.428278,0.290798 0.118866,0 0.150053,-0.02188 0.422074,-0.28443 0.331291,-0.321984 0.409501,-0.443953 0.359538,-0.581433 -0.04066,-0.103191 -0.537675,-0.618987 -0.662746,-0.684624 -0.109559,-0.05633 -0.147113,-0.05633 -0.259612,0.01551 z m 0.228263,0.66895 0.06874,0.07184 -0.07821,0.07511 -0.07821,0.07184 -0.07821,-0.07184 -0.07821,-0.07511 0.06874,-0.07184 c 0.03755,-0.04066 0.07494,-0.07184 0.08752,-0.07184 0.01274,0 0.05029,0.03119 0.08784,0.07184 z"
       id="path6-3"
       style="fill:#80b2b2;fill-opacity:1;stroke-width:0.00163278" />
    <path
       d="m 48.071051,16.199555 c -0.02498,0.0093 -0.196913,0.165727 -0.381417,0.346966 -0.312678,0.309575 -0.337659,0.343863 -0.337659,0.453259 0,0.109397 0.02808,0.146951 0.300105,0.428278 0.334556,0.343864 0.450157,0.409502 0.597107,0.331455 0.131276,-0.06564 0.659643,-0.618987 0.681523,-0.712709 0.01257,-0.04996 0.0031,-0.1156 -0.02498,-0.168829 -0.05323,-0.103192 -0.622089,-0.66895 -0.672215,-0.66895 -0.01878,0 -0.05013,-0.0062 -0.07511,-0.01257 -0.02172,-0.0095 -0.06221,-0.0064 -0.08735,0.0031 z m 0.15642,0.869129 -0.07511,0.08131 -0.07821,-0.07821 -0.07805,-0.07821 0.07511,-0.08131 0.07511,-0.08131 0.07821,0.07821 0.07821,0.07821 z"
       id="path8-5"
       style="fill:#80b2b2;fill-opacity:1;stroke-width:0.00163278" />
    <path
       d="m 38.373644,21.317177 c -0.103192,0.07821 -0.121969,0.193811 -0.08752,0.559554 0.140746,1.509995 1.006609,2.788625 2.335202,3.457575 0.512693,0.256346 0.96285,0.38452 1.56306,0.44085 0.475139,0.04376 0.60021,-0.0093 0.603313,-0.253244 0,-0.196913 -0.08441,-0.240672 -0.518898,-0.278225 -0.740955,-0.05943 -1.378719,-0.293901 -1.935171,-0.712709 -0.906519,-0.675318 -1.42558,-1.613187 -1.516199,-2.738499 -0.02808,-0.315779 -0.04376,-0.384519 -0.10009,-0.447055 -0.07478,-0.08148 -0.256183,-0.09715 -0.3437,-0.02825 z"
       id="path10-6"
       style="fill:#7171a8;fill-opacity:1;stroke-width:0.00163278" />
    <path
       d="m 39.483445,21.542174 c -0.07821,0.07821 -0.08131,0.08752 -0.06254,0.365743 0.03445,0.493916 0.225161,1.05347 0.493916,1.450562 0.14695,0.21569 0.512693,0.587801 0.737853,0.74716 0.415706,0.300105 0.975423,0.50012 1.500525,0.534572 0.278226,0.01878 0.287533,0.01567 0.365743,-0.06254 0.106294,-0.106294 0.109396,-0.275124 0.0095,-0.378316 -0.05943,-0.05943 -0.118866,-0.07494 -0.328189,-0.09062 -1.228667,-0.09372 -2.153963,-1.019181 -2.247685,-2.247685 -0.01567,-0.209485 -0.03119,-0.268919 -0.09062,-0.328189 -0.103355,-0.100089 -0.272184,-0.09699 -0.378478,0.0093 z"
       id="path12-2"
       style="fill:#7171a8;fill-opacity:1;stroke-width:0.00163278" />
    <path
       d="m 40.605818,21.482904 c -0.06254,0.02498 -0.131276,0.184504 -0.131276,0.297003 0,0.05633 0.02188,0.200016 0.04686,0.321984 0.150052,0.706504 0.737853,1.291203 1.453664,1.441255 0.428278,0.09062 0.625191,0.01567 0.625191,-0.237569 0,-0.16883 -0.07511,-0.218793 -0.390724,-0.265817 -0.443953,-0.06564 -0.759732,-0.262551 -0.987832,-0.618987 -0.115601,-0.178136 -0.21569,-0.506488 -0.21569,-0.703401 0,-0.143848 -0.106294,-0.256347 -0.243774,-0.253245 -0.0627,0 -0.134541,0.0093 -0.15642,0.01878 z"
       id="path14-9"
       style="fill:#7171a8;fill-opacity:1;stroke-width:0.00163278" />
  </g>
</svg>
