<?xml version="1.0" encoding="UTF-8" standalone="no"?>
<svg
   xmlns:dc="http://purl.org/dc/elements/1.1/"
   xmlns:cc="http://creativecommons.org/ns#"
   xmlns:rdf="http://www.w3.org/1999/02/22-rdf-syntax-ns#"
   xmlns:svg="http://www.w3.org/2000/svg"
   xmlns="http://www.w3.org/2000/svg"
   xmlns:sodipodi="http://sodipodi.sourceforge.net/DTD/sodipodi-0.dtd"
   xmlns:inkscape="http://www.inkscape.org/namespaces/inkscape"
   sodipodi:docname="kdeconnect.svg"
   inkscape:version="1.0.1 (3bc2e813f5, 2020-09-07)"
   id="svg842"
   version="1.1"
   viewBox="0 0 24 24"
   height="6.3499999mm"
   width="6.3499999mm">
  <defs
     id="defs836" />
  <sodipodi:namedview
     inkscape:document-rotation="0"
     inkscape:lockguides="true"
     showguides="false"
     inkscape:pagecheckerboard="false"
     inkscape:window-maximized="1"
     inkscape:window-y="0"
     inkscape:window-x="0"
     inkscape:window-height="1019"
     inkscape:window-width="1920"
     showgrid="false"
     inkscape:current-layer="kdeconnect"
     inkscape:document-units="px"
     inkscape:cy="11.224593"
     inkscape:cx="25.911998"
     inkscape:zoom="11.2"
     inkscape:pageshadow="2"
     inkscape:pageopacity="0.0"
     borderopacity="1.0"
     bordercolor="#666666"
     pagecolor="#ffffff"
     id="base">
    <inkscape:grid
       id="grid815"
       type="xygrid" />
  </sodipodi:namedview>
  <metadata
     id="metadata839">
    <rdf:RDF>
      <cc:Work
         rdf:about="">
        <dc:format>image/svg+xml</dc:format>
        <dc:type
           rdf:resource="http://purl.org/dc/dcmitype/StillImage" />
        <dc:title />
      </cc:Work>
    </rdf:RDF>
  </metadata>
  <g
     transform="translate(420.57144,-313.37683)"
     id="kdeconnect"
     inkscape:groupmode="layer"
     inkscape:label="Layer 1">
    <rect
       y="313.37683"
       x="-420.57144"
       height="24"
       width="24"
       id="rect3009"
       style="fill:#ffffff;fill-opacity:0;stroke:none" />
    <path
       sodipodi:nodetypes="ssssssssssssssccccc"
       style="color:#7b7c7e;fill:#d3dae3;fill-opacity:1;stroke-width:1.4388"
       d="m -413.27131,314.87683 c -1.75003,0 -3.04523,0.007 -3.05431,1.46301 l -0.10357,16.88669 c -0.006,1.45203 0.0824,2.65449 1.83269,2.65029 l 12.09426,-0.0281 c 1.74987,-0.003 1.87661,-1.16907 1.86741,-2.62143 l -0.10357,-16.71286 c -0.006,-1.45229 -1.30432,-1.63678 -3.05428,-1.63678 z m 4.73787,17.639 c 0.87507,0 2.58,-0.0156 2.58,0.7107 0,0.72611 -1.70493,0.7103 -2.58,0.7103 -0.87504,0 -2.779,0.0158 -2.779,-0.7103 0,-0.72627 1.90396,-0.7107 2.779,-0.7107 z m -6.31732,-15.01763 h 12.63523 v 13.10696 h -12.63523 z"
       id="rect2990"
       class="ColorScheme-Text"
       inkscape:connector-curvature="0" />
    <path
       sodipodi:nodetypes="cccccccccccccsccccccccccccccccc"
       inkscape:connector-curvature="0"
       style="fill:#7171a8;fill-opacity:1;stroke-width:0.00172182"
       id="path10-5"
       d="m -410.25367,322.01068 -1.56477,2.08411 0.67714,0.005 h 0.67418 v 2.16447 2.16457 h 1.79235 1.79216 v -2.16459 -2.1645 h 0.67722 l 0.67422,-0.005 -1.56464,-2.08409 c -0.85914,-1.14571 -1.57043,-2.08388 -1.57896,-2.08388 -0.0174,0 -0.71691,0.93817 -1.5789,2.08388 z m 1.64823,1.47447 v 0 0 0 0 0 0 0 0 0 0 0 0 c 0,0 -0.008,-0.004 0,0 0.0174,0.005 0,0 0,0 z" />
  </g>
</svg>
