<?xml version="1.0" encoding="UTF-8" standalone="no"?>
<svg
   xmlns:dc="http://purl.org/dc/elements/1.1/"
   xmlns:cc="http://creativecommons.org/ns#"
   xmlns:rdf="http://www.w3.org/1999/02/22-rdf-syntax-ns#"
   xmlns:svg="http://www.w3.org/2000/svg"
   xmlns="http://www.w3.org/2000/svg"
   xmlns:sodipodi="http://sodipodi.sourceforge.net/DTD/sodipodi-0.dtd"
   xmlns:inkscape="http://www.inkscape.org/namespaces/inkscape"
   width="32"
   height="32"
   version="1.1"
   id="svg12"
   sodipodi:docname="kmail.svg"
   inkscape:version="1.0.1 (3bc2e813f5, 2020-09-07)">
  <metadata
     id="metadata18">
    <rdf:RDF>
      <cc:Work
         rdf:about="">
        <dc:format>image/svg+xml</dc:format>
        <dc:type
           rdf:resource="http://purl.org/dc/dcmitype/StillImage" />
      </cc:Work>
    </rdf:RDF>
  </metadata>
  <defs
     id="defs16" />
  <sodipodi:namedview
     pagecolor="#ffffff"
     bordercolor="#666666"
     borderopacity="1"
     objecttolerance="10"
     gridtolerance="10"
     guidetolerance="10"
     inkscape:pageopacity="0"
     inkscape:pageshadow="2"
     inkscape:window-width="1920"
     inkscape:window-height="1016"
     id="namedview14"
     showgrid="false"
     inkscape:zoom="9.8125"
     inkscape:cx="27.739407"
     inkscape:cy="8.1926536"
     inkscape:window-x="0"
     inkscape:window-y="0"
     inkscape:window-maximized="1"
     inkscape:current-layer="svg12"
     inkscape:document-rotation="0"
     inkscape:lockguides="false">
    <inkscape:grid
       type="xygrid"
       id="grid860"
       originx="0"
       originy="0" />
  </sodipodi:namedview>
  <g
     id="kmail">
    <rect
       style="opacity:0.00100002"
       width="32"
       height="32"
       x="0"
       y="0"
       id="rect7" />
    <path
       inkscape:connector-curvature="0"
       style="color:#000000;display:inline;overflow:visible;visibility:visible;fill:#d3dae3;fill-opacity:1;fill-rule:nonzero;stroke:none;stroke-width:2.5;marker:none;enable-background:accumulate"
       d="M 4.36667,6 C 3.44333,6 2.7,6.74333 2.7,7.66667 V 24.333333 C 2.7,25.256667 3.44333,26 4.36667,26 h 23.333329 c 0.923334,0 1.666667,-0.743333 1.666667,-1.666667 V 7.66667 C 29.366666,6.74333 28.623333,6 27.699999,6 Z m 0,1.66667 L 16.03333,19.333332 27.699999,7.66667 V 9.33333 L 16.03333,21 4.36667,9.33333 Z M 10.2,16.833333 11.03333,17.666666 4.418749,24.333333 4.366639,22.5625 Z m 11.666668,0 5.833331,5.729167 -0.05209,1.770833 -6.614579,-6.666667 z"
       id="rect3088-6" />
  </g>
  <g
     id="22-22-kmail">
    <rect
       style="opacity:0.00100002"
       width="22"
       height="22"
       x="32"
       y="10"
       id="rect2" />
    <path
       inkscape:connector-curvature="0"
       style="color:#000000;display:inline;overflow:visible;visibility:visible;fill:#d3dae3;fill-opacity:1;fill-rule:nonzero;stroke:none;stroke-width:1.75;marker:none;enable-background:accumulate"
       d="M 34.866673,14 C 34.220327,14 33.7,14.520327 33.7,15.166673 V 26.83333 C 33.7,27.47967 34.220327,28 34.866673,28 h 16.333326 c 0.646331,0 1.16667,-0.52033 1.16667,-1.16667 V 15.166673 C 52.366669,14.520327 51.84633,14 51.199999,14 Z m 0,1.166673 8.166654,8.166656 8.166672,-8.166656 v 1.166654 L 43.033327,24.5 34.866673,16.333327 Z M 38.95,21.58333 l 0.583327,0.583339 -4.630201,4.666661 -0.03651,-1.23958 z m 8.166671,0 4.083328,4.01042 -0.03649,1.23958 -4.6302,-4.666661 z"
       id="rect3088-6-3" />
  </g>
</svg>
