<?xml version="1.0" encoding="UTF-8" standalone="no"?>
<svg
   xmlns:dc="http://purl.org/dc/elements/1.1/"
   xmlns:cc="http://creativecommons.org/ns#"
   xmlns:rdf="http://www.w3.org/1999/02/22-rdf-syntax-ns#"
   xmlns:svg="http://www.w3.org/2000/svg"
   xmlns="http://www.w3.org/2000/svg"
   xmlns:xlink="http://www.w3.org/1999/xlink"
   xmlns:sodipodi="http://sodipodi.sourceforge.net/DTD/sodipodi-0.dtd"
   xmlns:inkscape="http://www.inkscape.org/namespaces/inkscape"
   height="16"
   width="15.991919"
   version="1.1"
   id="svg10"
   sodipodi:docname="start.svg"
   inkscape:version="1.0.1 (3bc2e813f5, 2020-09-07)">
  <defs
     id="defs14">
    <linearGradient
       inkscape:collect="always"
       id="linearGradient835">
      <stop
         style="stop-color:#7171a8;stop-opacity:1"
         offset="0"
         id="stop831" />
      <stop
         style="stop-color:#d3dae3;stop-opacity:1"
         offset="1"
         id="stop833" />
    </linearGradient>
    <linearGradient
       inkscape:collect="always"
       xlink:href="#linearGradient835"
       id="linearGradient837"
       x1="4.5737376"
       y1="3.4149499"
       x2="12.768885"
       y2="12.207155"
       gradientUnits="userSpaceOnUse" />
  </defs>
  <sodipodi:namedview
     pagecolor="#ffffff"
     bordercolor="#666666"
     borderopacity="1"
     objecttolerance="10"
     gridtolerance="10"
     guidetolerance="10"
     inkscape:pageopacity="0"
     inkscape:pageshadow="2"
     inkscape:window-width="1920"
     inkscape:window-height="1014"
     id="namedview12"
     showgrid="false"
     inkscape:zoom="12.115285"
     inkscape:cx="9.0636762"
     inkscape:cy="3.8771969"
     inkscape:window-x="0"
     inkscape:window-y="0"
     inkscape:window-maximized="1"
     inkscape:current-layer="svg10"
     inkscape:document-rotation="0" />
  <metadata
     id="start-here-kde">Icon<rdf:RDF>
  <cc:Work
     rdf:about="">
    <dc:format>image/svg+xml</dc:format>
    <dc:type
       rdf:resource="http://purl.org/dc/dcmitype/StillImage" />
    <dc:title>brand-fitbit</dc:title>
  </cc:Work>
</rdf:RDF>
</metadata>
  <path
     d="m 8.003232,13.66465 c -0.297373,0 -0.594747,0.12929 -0.82101,0.34586 -0.216565,0.21818 -0.345858,0.51555 -0.345858,0.82262 0,0.29738 0.129293,0.59475 0.345858,0.82101 C 7.384242,15.87071 7.681616,16 8.003232,16 c 0.29899,0 0.596364,-0.12929 0.822627,-0.34586 0.216565,-0.21818 0.345858,-0.51555 0.345858,-0.82101 0,-0.29899 -0.129293,-0.59636 -0.345858,-0.82262 C 8.599596,13.79394 8.302222,13.66465 8.003232,13.66465 Z m 0,-6.83637 c -0.297373,0 -0.594747,0.1293 -0.82101,0.34586 -0.216565,0.21818 -0.345858,0.51556 -0.345858,0.82101 0,0.29899 0.129293,0.59637 0.345858,0.82263 0.20202,0.21656 0.499394,0.32969 0.82101,0.34586 0.29899,0 0.596364,-0.1293 0.822627,-0.34586 C 9.042424,8.5996 9.171717,8.30222 9.171717,7.99515 9.171717,7.69778 9.042424,7.4004 8.825859,7.17414 8.599596,6.95758 8.302222,6.82828 8.003232,6.82828 Z M 8.003232,0 C 7.705859,0 7.408485,0.11313 7.182222,0.3297 6.965657,0.54788 6.836364,0.84525 6.836364,1.15071 c 0,0.29899 0.129293,0.59636 0.345858,0.82262 0.20202,0.20041 0.499394,0.3297 0.82101,0.34586 0.29899,0 0.596364,-0.12929 0.822627,-0.34586 C 9.042424,1.75515 9.171717,1.45778 9.171717,1.15071 9.171717,0.85333 9.042424,0.55596 8.825859,0.3297 8.599596,0.12929 8.302222,0 8.003232,0 Z m 0.04848,3.41495 C 7.738177,3.39875 7.440803,3.51035 7.222621,3.71232 6.989894,3.91273 6.860601,4.20364 6.844439,4.51717 c 0,0.31354 0.113132,0.61253 0.313536,0.82909 0.20202,0.21818 0.491313,0.36364 0.806464,0.37818 0.313536,0 0.61091,-0.11151 0.829091,-0.31353 C 9.026258,5.21051 9.155551,4.91152 9.171712,4.60606 9.171712,4.29253 9.058581,3.99354 8.858177,3.77697 8.648076,3.55879 8.350702,3.43111 8.051712,3.41495 Z m -0.04848,6.82828 c -0.297373,0 -0.594747,0.12768 -0.82101,0.34586 -0.216565,0.21657 -0.345858,0.51556 -0.345858,0.82101 0,0.30546 0.129293,0.59636 0.345858,0.82101 0.20202,0.21818 0.499394,0.34586 0.82101,0.34586 0.29899,0 0.596364,-0.12768 0.822627,-0.34586 0.216565,-0.21656 0.345858,-0.51555 0.345858,-0.82101 0,-0.29737 -0.129293,-0.59636 -0.345858,-0.82101 C 8.599596,10.36283 8.302222,10.24323 8.003232,10.24323 Z m 3.41495,-3.41495 c -0.297374,0 -0.596364,0.1293 -0.82101,0.34586 -0.218182,0.21818 -0.345859,0.51556 -0.345859,0.82263 0,0.29737 0.127677,0.59475 0.345859,0.82101 0.216565,0.21656 0.515555,0.32969 0.82101,0.34586 0.297374,0 0.596363,-0.1293 0.82101,-0.34586 0.218182,-0.21818 0.345859,-0.51556 0.345859,-0.82101 0,-0.29899 -0.127677,-0.59637 -0.345859,-0.82263 -0.224647,-0.21656 -0.523636,-0.34586 -0.82101,-0.34586 z m 0,-3.41333 c -0.297374,0 -0.596364,0.11151 -0.82101,0.3297 -0.218182,0.21656 -0.345859,0.51555 -0.345859,0.82101 0,0.29737 0.127677,0.59636 0.345859,0.82101 0.216565,0.21818 0.515555,0.34586 0.82101,0.34586 0.297374,0 0.596363,-0.12768 0.82101,-0.34586 0.218182,-0.21657 0.345859,-0.51556 0.345859,-0.82101 0,-0.29738 -0.127677,-0.59637 -0.345859,-0.82101 -0.224647,-0.20202 -0.523636,-0.3297 -0.82101,-0.3297 z m 0,6.82828 c -0.297374,0 -0.596364,0.12768 -0.82101,0.34586 -0.218182,0.21657 -0.345859,0.51556 -0.345859,0.82101 0,0.30546 0.127677,0.59636 0.345859,0.82101 0.216565,0.21818 0.515555,0.34586 0.82101,0.34586 0.297374,0 0.596363,-0.12768 0.82101,-0.34586 0.218182,-0.21656 0.345859,-0.51555 0.345859,-0.82101 0,-0.29737 -0.127677,-0.59636 -0.345859,-0.82101 -0.224647,-0.22626 -0.523636,-0.34586 -0.82101,-0.34586 z m 3.42303,-3.41495 c -0.29899,0 -0.596364,0.1293 -0.822626,0.34586 -0.216566,0.21818 -0.345859,0.51556 -0.345859,0.82263 0,0.29737 0.129293,0.59475 0.345859,0.82101 0.20202,0.21656 0.499394,0.32969 0.822626,0.34586 0.297374,0 0.594748,-0.1293 0.82101,-0.34586 0.200404,-0.21818 0.329697,-0.51556 0.329697,-0.82101 0,-0.29899 -0.113131,-0.59637 -0.329697,-0.82263 C 15.44404,6.95758 15.138586,6.82828 14.841212,6.82828 Z m -10.2674746,0 c -0.2973738,0 -0.5963637,0.1293 -0.8210101,0.34586 -0.2181818,0.21818 -0.3458586,0.51556 -0.3458586,0.82263 0,0.29737 0.1276768,0.59475 0.3458586,0.82101 0.2165656,0.21656 0.5155555,0.32969 0.8210101,0.34586 0.2973737,0 0.5963636,-0.1293 0.8210096,-0.34586 C 5.612929,8.5996 5.740606,8.30222 5.740606,7.99677 5.740606,7.69778 5.612929,7.4004 5.394747,7.17414 5.170101,6.95758 4.8711111,6.82828 4.5737374,6.82828 Z m 0,-3.41333 c -0.2973738,0 -0.5963637,0.11151 -0.8210101,0.3297 -0.2181818,0.21656 -0.3458586,0.51555 -0.3458586,0.82101 0,0.29737 0.1276768,0.59636 0.3458586,0.82101 0.2165656,0.21818 0.5155555,0.34586 0.8210101,0.34586 0.2973737,0 0.5963636,-0.12768 0.8210096,-0.34586 C 5.612929,5.1701 5.740606,4.87111 5.740606,4.56566 5.740606,4.26828 5.612929,3.96929 5.394747,3.74465 5.170101,3.54263 4.8711111,3.41495 4.5737374,3.41495 Z m 0,6.82828 c -0.2973738,0 -0.5963637,0.12768 -0.8210101,0.34586 -0.2020202,0.21657 -0.329697,0.51556 -0.329697,0.82101 0,0.30546 0.1115152,0.59636 0.329697,0.82101 0.2165656,0.21818 0.5155555,0.34586 0.8210101,0.34586 0.2973737,0 0.5963636,-0.12768 0.8210096,-0.34586 0.218182,-0.21656 0.345859,-0.51555 0.345859,-0.82101 0,-0.29737 -0.127677,-0.59636 -0.345859,-0.82101 C 5.170101,10.36283 4.8711111,10.24323 4.5737374,10.24323 Z M 1.1668687,6.82828 c -0.2973738,0 -0.5947475,0.1293 -0.8210101,0.34586 C 0.1292929,7.39232 0,7.6897 0,7.98869 0,8.28606 0.1292929,8.58343 0.3458586,8.8097 0.5478788,9.02626 0.8452525,9.13939 1.1668687,9.15556 1.4658586,9.15556 1.7632323,9.02626 1.9894949,8.8097 2.2060606,8.59152 2.3353535,8.29414 2.3353535,7.98869 2.3353535,7.6897 2.2060606,7.39232 1.9894949,7.16606 1.7632323,6.95758 1.4658586,6.82828 1.1668687,6.82828 Z"
     id="start-here-kde"
     style="fill:url(#linearGradient837);fill-opacity:1;stroke-width:0.01616162"
     inkscape:connector-curvature="0" />
</svg>
