<?xml version="1.0" encoding="UTF-8" standalone="no"?>
<svg
   xmlns:dc="http://purl.org/dc/elements/1.1/"
   xmlns:cc="http://creativecommons.org/ns#"
   xmlns:rdf="http://www.w3.org/1999/02/22-rdf-syntax-ns#"
   xmlns:svg="http://www.w3.org/2000/svg"
   xmlns="http://www.w3.org/2000/svg"
   xmlns:xlink="http://www.w3.org/1999/xlink"
   xmlns:sodipodi="http://sodipodi.sourceforge.net/DTD/sodipodi-0.dtd"
   xmlns:inkscape="http://www.inkscape.org/namespaces/inkscape"
   inkscape:version="1.0.1 (3bc2e813f5, 2020-09-07)"
   sodipodi:docname="system.svg"
   viewBox="0 0 32 32"
   id="svg2"
   version="1.1"
   width="32"
   height="32">
  <sodipodi:namedview
     inkscape:document-rotation="0"
     inkscape:snap-intersection-paths="true"
     inkscape:snap-nodes="false"
     inkscape:bbox-nodes="true"
     inkscape:snap-bbox="true"
     inkscape:lockguides="false"
     inkscape:guide-bbox="true"
     showguides="false"
     inkscape:current-layer="svg2"
     inkscape:window-maximized="1"
     inkscape:window-y="0"
     inkscape:window-x="0"
     inkscape:cy="90.017663"
     inkscape:cx="109.9449"
     inkscape:zoom="1.5008484"
     showgrid="false"
     id="namedview78"
     inkscape:window-height="1007"
     inkscape:window-width="1920"
     inkscape:pageshadow="2"
     inkscape:pageopacity="0"
     guidetolerance="10"
     gridtolerance="10"
     objecttolerance="10"
     borderopacity="1"
     bordercolor="#000000"
     pagecolor="#ffffff">
    <inkscape:grid
       id="grid885"
       type="xygrid"
       originx="-26"
       originy="72.999993" />
    <sodipodi:guide
       inkscape:locked="false"
       id="guide948"
       orientation="0.70710678,0.70710678"
       position="-25.25926,-168.85938" />
    <sodipodi:guide
       inkscape:locked="false"
       id="guide950"
       orientation="-0.70710678,0.70710678"
       position="-25.2963,-168.875" />
  </sodipodi:namedview>
  <metadata
     id="metadata62">
    <rdf:RDF>
      <cc:Work
         rdf:about="">
        <dc:format>image/svg+xml</dc:format>
        <dc:type
           rdf:resource="http://purl.org/dc/dcmitype/StillImage" />
        <dc:title />
      </cc:Work>
    </rdf:RDF>
  </metadata>
  <defs
     id="defs3051">
    <linearGradient
       inkscape:collect="always"
       id="linearGradient1015">
      <stop
         style="stop-color:#8585ad;stop-opacity:1"
         offset="0"
         id="stop1010" />
      <stop
         style="stop-color:#80b2b2;stop-opacity:1"
         offset="1"
         id="stop1013" />
    </linearGradient>
    <linearGradient
       id="linearGradient1041"
       x1="16"
       x2="16"
       y1="1"
       y2="31"
       gradientUnits="userSpaceOnUse">
      <stop
         stop-color="#f4282c"
         offset="0"
         id="stop1037" />
      <stop
         stop-color="#fac136"
         offset="1"
         id="stop1039"
         style="stop-color:#ffff00;stop-opacity:1" />
    </linearGradient>
    <linearGradient
       gradientUnits="userSpaceOnUse"
       y2="31"
       y1="1"
       x2="16"
       x1="16"
       id="linearGradient1035">
      <stop
         id="stop1031"
         offset="0"
         stop-color="#f4282c"
         style="stop-color:#6600ff;stop-opacity:1" />
      <stop
         id="stop1033"
         offset="1"
         stop-color="#fac136"
         style="stop-color:#d1b3ff;stop-opacity:1" />
    </linearGradient>
    <linearGradient
       id="linearGradient1023"
       x1="16"
       x2="16"
       y1="1"
       y2="31"
       gradientUnits="userSpaceOnUse">
      <stop
         stop-color="#72da70"
         offset="0"
         id="stop1018" />
      <stop
         stop-color="#52eea4"
         offset="1"
         id="stop1020"
         style="stop-color:#008080;stop-opacity:1" />
    </linearGradient>
    <linearGradient
       id="linearGradient1016"
       x1="16"
       x2="16"
       y1="1"
       y2="31"
       gradientUnits="userSpaceOnUse">
      <stop
         stop-color="#f4282c"
         offset="0"
         id="stop1012" />
      <stop
         stop-color="#fac136"
         offset="1"
         id="stop1014"
         style="stop-color:#ff00ff;stop-opacity:1" />
    </linearGradient>
    <linearGradient
       gradientUnits="userSpaceOnUse"
       y2="1121.5"
       y1="1091.5"
       x2="16"
       x1="16"
       id="linearGradient1131">
      <stop
         id="stop1127"
         offset="0"
         stop-color="#9575cd"
         style="stop-color:#ff6600;stop-opacity:1" />
      <stop
         id="stop1129"
         offset="1"
         stop-color="#cd75bc" />
    </linearGradient>
    <linearGradient
       gradientUnits="userSpaceOnUse"
       y2="31"
       y1="1"
       x2="16"
       x1="16"
       id="linearGradient1093">
      <stop
         id="stop1088"
         offset="0"
         stop-color="#f4282c"
         style="stop-color:#6600ff;stop-opacity:1" />
      <stop
         id="stop1091"
         offset="1"
         stop-color="#fac136" />
    </linearGradient>
    <style
       id="current-color-scheme"
       type="text/css">
      .ColorScheme-Text {
        color:#31363b;
      }
      .ColorScheme-Background {
        color:#eff0f1;
      }
      .ColorScheme-Highlight {
        color:#3daee9;
      }
      .ColorScheme-ViewText {
        color:#31363b;
      }
      .ColorScheme-ViewBackground {
        color:#fcfcfc;
      }
      .ColorScheme-ViewHover {
        color:#93cee9;
      }
      .ColorScheme-ViewFocus{
        color:#3daee9;
      }
      .ColorScheme-ButtonText {
        color:#31363b;
      }
      .ColorScheme-ButtonBackground {
        color:#eff0f1;
      }
      .ColorScheme-ButtonHover {
        color:#93cee9;
      }
      .ColorScheme-ButtonFocus{
        color:#3daee9;
      }
      </style>
    <linearGradient
       id="a"
       x1="16"
       x2="16"
       y1="1"
       y2="31"
       gradientUnits="userSpaceOnUse">
      <stop
         stop-color="#37414a"
         offset="0"
         id="stop929" />
      <stop
         stop-color="#6c7582"
         offset="1"
         id="stop931" />
    </linearGradient>
    <filter
       id="c"
       x="-0.035999998"
       y="-0.035999998"
       width="1.072"
       height="1.072"
       color-interpolation-filters="sRGB">
      <feGaussianBlur
         stdDeviation="0.45000001"
         id="feGaussianBlur934" />
    </filter>
    <filter
       id="b"
       x="-0.035999998"
       y="-0.035999998"
       width="1.072"
       height="1.072"
       color-interpolation-filters="sRGB">
      <feGaussianBlur
         stdDeviation="0.285"
         id="feGaussianBlur937" />
    </filter>
    <linearGradient
       id="a-3"
       x1="16"
       x2="16"
       y1="1"
       y2="31"
       gradientUnits="userSpaceOnUse">
      <stop
         stop-color="#4d83f3"
         offset="0"
         id="stop969" />
      <stop
         stop-color="#46cafa"
         offset="1"
         id="stop971" />
    </linearGradient>
    <filter
       id="c-6"
       x="-0.035999998"
       y="-0.035999998"
       width="1.072"
       height="1.072"
       color-interpolation-filters="sRGB">
      <feGaussianBlur
         stdDeviation="0.45"
         id="feGaussianBlur974" />
    </filter>
    <filter
       id="b-7"
       x="-0.039000001"
       y="-0.033427998"
       width="1.0779999"
       height="1.0669"
       color-interpolation-filters="sRGB">
      <feGaussianBlur
         stdDeviation="0.2367975"
         id="feGaussianBlur977" />
    </filter>
    <linearGradient
       id="a-5"
       x1="16"
       x2="16"
       y1="1"
       y2="31"
       gradientUnits="userSpaceOnUse">
      <stop
         stop-color="#f4282c"
         offset="0"
         id="stop1009" />
      <stop
         stop-color="#fac136"
         offset="1"
         id="stop1011" />
    </linearGradient>
    <filter
       id="c-3"
       x="-0.035999998"
       y="-0.035999998"
       width="1.072"
       height="1.072"
       color-interpolation-filters="sRGB">
      <feGaussianBlur
         stdDeviation="0.45"
         id="feGaussianBlur1014" />
    </filter>
    <filter
       id="b-5"
       x="-0.037287001"
       y="-0.034798998"
       width="1.0746"
       height="1.0696"
       color-interpolation-filters="sRGB">
      <feGaussianBlur
         stdDeviation="0.28136255"
         id="feGaussianBlur1017" />
    </filter>
    <filter
       id="c-62"
       x="-0.035999998"
       y="-0.035999998"
       width="1.072"
       height="1.072"
       color-interpolation-filters="sRGB">
      <feGaussianBlur
         stdDeviation="0.45"
         id="feGaussianBlur1049" />
    </filter>
    <linearGradient
       id="a-9"
       x1="16"
       x2="16"
       y1="1091.5"
       y2="1121.5"
       gradientUnits="userSpaceOnUse">
      <stop
         stop-color="#9575cd"
         offset="0"
         id="stop1052" />
      <stop
         stop-color="#cd75bc"
         offset="1"
         id="stop1054" />
    </linearGradient>
    <filter
       id="b-1"
       x="-0.031500001"
       y="-0.041999999"
       width="1.063"
       height="1.084"
       color-interpolation-filters="sRGB">
      <feGaussianBlur
         stdDeviation="0.21000005"
         id="feGaussianBlur1057" />
    </filter>
    <linearGradient
       id="a-2"
       x1="16"
       x2="16"
       y1="1"
       y2="31"
       gradientUnits="userSpaceOnUse">
      <stop
         stop-color="#ff791d"
         offset="0"
         id="stop1090" />
      <stop
         stop-color="#f8c430"
         offset="1"
         id="stop1092" />
    </linearGradient>
    <filter
       id="c-7"
       x="-0.035999998"
       y="-0.035999998"
       width="1.072"
       height="1.072"
       color-interpolation-filters="sRGB">
      <feGaussianBlur
         stdDeviation="0.45000001"
         id="feGaussianBlur1095" />
    </filter>
    <filter
       id="b-0"
       x="-0.032823998"
       y="-0.039857"
       width="1.0656"
       height="1.0797"
       color-interpolation-filters="sRGB">
      <feGaussianBlur
         stdDeviation="0.2325"
         id="feGaussianBlur1098" />
    </filter>
    <linearGradient
       id="a-93"
       x1="16"
       x2="16"
       y1="1"
       y2="31"
       gradientUnits="userSpaceOnUse">
      <stop
         stop-color="#72da70"
         offset="0"
         id="stop1130" />
      <stop
         stop-color="#52eea4"
         offset="1"
         id="stop1132" />
    </linearGradient>
    <filter
       id="c-60"
       x="-0.035999998"
       y="-0.035999998"
       width="1.072"
       height="1.072"
       color-interpolation-filters="sRGB">
      <feGaussianBlur
         stdDeviation="0.45000001"
         id="feGaussianBlur1135" />
    </filter>
    <filter
       id="b-6"
       x="-0.0405"
       y="-0.032400001"
       width="1.081"
       height="1.0648"
       color-interpolation-filters="sRGB">
      <feGaussianBlur
         stdDeviation="0.2025"
         id="feGaussianBlur1138" />
    </filter>
    <linearGradient
       id="a-26"
       x1="16"
       x2="16"
       y1="-1121.5"
       y2="-1091.5"
       gradientUnits="userSpaceOnUse">
      <stop
         stop-color="#70d8c3"
         offset="0"
         id="stop1173" />
      <stop
         stop-color="#66e26b"
         offset="1"
         id="stop1175" />
    </linearGradient>
    <filter
       id="c-1"
       x="-0.035999998"
       y="-0.035999998"
       width="1.072"
       height="1.072"
       color-interpolation-filters="sRGB">
      <feGaussianBlur
         stdDeviation="0.45"
         id="feGaussianBlur1178" />
    </filter>
    <filter
       id="b-8"
       x="-0.041537002"
       y="-0.031766001"
       width="1.0831"
       height="1.0635"
       color-interpolation-filters="sRGB">
      <feGaussianBlur
         stdDeviation="0.22499171"
         id="feGaussianBlur1181" />
    </filter>
    <linearGradient
       inkscape:collect="always"
       xlink:href="#linearGradient1015"
       id="linearGradient1043"
       x1="3"
       y1="21"
       x2="19"
       y2="21"
       gradientUnits="userSpaceOnUse" />
    <linearGradient
       inkscape:collect="always"
       xlink:href="#linearGradient1015"
       id="linearGradient1051"
       x1="26"
       y1="16"
       x2="50"
       y2="16"
       gradientUnits="userSpaceOnUse" />
    <linearGradient
       inkscape:collect="always"
       xlink:href="#linearGradient1015"
       id="linearGradient1083"
       x1="27.818182"
       y1="16"
       x2="48.18182"
       y2="16"
       gradientUnits="userSpaceOnUse" />
    <linearGradient
       inkscape:collect="always"
       xlink:href="#linearGradient1015"
       id="linearGradient1091"
       x1="26"
       y1="16"
       x2="50"
       y2="16"
       gradientUnits="userSpaceOnUse" />
    <linearGradient
       inkscape:collect="always"
       xlink:href="#linearGradient1015"
       id="linearGradient1099"
       x1="26"
       y1="16"
       x2="50"
       y2="16"
       gradientUnits="userSpaceOnUse" />
    <linearGradient
       inkscape:collect="always"
       xlink:href="#linearGradient1015"
       id="linearGradient1107"
       x1="2.99981"
       y1="20.999859"
       x2="19"
       y2="20.999859"
       gradientUnits="userSpaceOnUse" />
    <linearGradient
       inkscape:collect="always"
       xlink:href="#linearGradient1015"
       id="linearGradient1115"
       x1="26"
       y1="16"
       x2="50"
       y2="16"
       gradientUnits="userSpaceOnUse" />
    <linearGradient
       inkscape:collect="always"
       xlink:href="#linearGradient1015"
       id="linearGradient1123"
       x1="2.999995"
       y1="20.999865"
       x2="18.999994"
       y2="20.999865"
       gradientUnits="userSpaceOnUse" />
    <linearGradient
       inkscape:collect="always"
       xlink:href="#linearGradient1015"
       id="linearGradient1132"
       x1="25"
       y1="16"
       x2="51"
       y2="16"
       gradientUnits="userSpaceOnUse" />
    <linearGradient
       inkscape:collect="always"
       xlink:href="#linearGradient1015"
       id="linearGradient1140"
       x1="24.909092"
       y1="16.000004"
       x2="51.090916"
       y2="16.000004"
       gradientUnits="userSpaceOnUse" />
    <linearGradient
       inkscape:collect="always"
       xlink:href="#linearGradient1015"
       id="linearGradient1017"
       x1="3"
       y1="16"
       x2="29"
       y2="16"
       gradientUnits="userSpaceOnUse"
       gradientTransform="translate(0,0.1)" />
    <linearGradient
       inkscape:collect="always"
       xlink:href="#linearGradient1015"
       id="linearGradient1026"
       x1="9.2520599"
       y1="15.844825"
       x2="22.754963"
       y2="15.844825"
       gradientUnits="userSpaceOnUse" />
    <linearGradient
       inkscape:collect="always"
       xlink:href="#linearGradient1015"
       id="linearGradient1034"
       x1="3"
       y1="16"
       x2="29"
       y2="16"
       gradientUnits="userSpaceOnUse"
       gradientTransform="translate(0,0.1)" />
    <linearGradient
       inkscape:collect="always"
       xlink:href="#linearGradient1015"
       id="linearGradient1042"
       x1="6.7701311"
       y1="9.893795"
       x2="13.651322"
       y2="9.893795"
       gradientUnits="userSpaceOnUse" />
    <linearGradient
       inkscape:collect="always"
       xlink:href="#linearGradient1015"
       id="linearGradient1050"
       x1="15.439267"
       y1="20.667723"
       x2="25.905132"
       y2="20.667723"
       gradientUnits="userSpaceOnUse" />
    <linearGradient
       inkscape:collect="always"
       xlink:href="#linearGradient1015"
       id="linearGradient1060"
       x1="3"
       y1="16"
       x2="29"
       y2="16"
       gradientUnits="userSpaceOnUse"
       gradientTransform="translate(0,0.1)" />
    <linearGradient
       inkscape:collect="always"
       xlink:href="#linearGradient1015"
       id="linearGradient1068"
       x1="14.966204"
       y1="11.016608"
       x2="17.695942"
       y2="11.016608"
       gradientUnits="userSpaceOnUse" />
    <linearGradient
       inkscape:collect="always"
       xlink:href="#linearGradient1015"
       id="linearGradient1076"
       x1="15.439267"
       y1="20.667723"
       x2="25.905132"
       y2="20.667723"
       gradientUnits="userSpaceOnUse" />
    <linearGradient
       inkscape:collect="always"
       xlink:href="#linearGradient1015"
       id="linearGradient1084"
       x1="3"
       y1="16"
       x2="29"
       y2="16"
       gradientUnits="userSpaceOnUse"
       gradientTransform="translate(0,0.1)" />
    <linearGradient
       inkscape:collect="always"
       xlink:href="#linearGradient1015"
       id="linearGradient1094"
       x1="14.27601"
       y1="15.893779"
       x2="17.66827"
       y2="15.893779"
       gradientUnits="userSpaceOnUse" />
    <linearGradient
       inkscape:collect="always"
       xlink:href="#linearGradient1015"
       id="linearGradient1102"
       x1="3"
       y1="16"
       x2="29"
       y2="16"
       gradientUnits="userSpaceOnUse"
       gradientTransform="translate(0,0.1)" />
    <linearGradient
       inkscape:collect="always"
       xlink:href="#linearGradient1015"
       id="linearGradient1110"
       x1="6.7701311"
       y1="9.893795"
       x2="13.651322"
       y2="9.893795"
       gradientUnits="userSpaceOnUse" />
    <linearGradient
       inkscape:collect="always"
       xlink:href="#linearGradient1015"
       id="linearGradient1118"
       x1="11.096111"
       y1="15.836638"
       x2="20.903606"
       y2="15.836638"
       gradientUnits="userSpaceOnUse" />
    <linearGradient
       inkscape:collect="always"
       xlink:href="#linearGradient1015"
       id="linearGradient1126"
       x1="15.439267"
       y1="20.667723"
       x2="25.905132"
       y2="20.667723"
       gradientUnits="userSpaceOnUse" />
    <linearGradient
       inkscape:collect="always"
       xlink:href="#linearGradient1015"
       id="linearGradient1135"
       x1="3"
       y1="16"
       x2="29"
       y2="16"
       gradientUnits="userSpaceOnUse"
       gradientTransform="translate(0,0.1)" />
    <linearGradient
       inkscape:collect="always"
       xlink:href="#linearGradient1015"
       id="linearGradient1143"
       x1="12.181335"
       y1="15.626657"
       x2="20.411043"
       y2="15.626657"
       gradientUnits="userSpaceOnUse" />
    <linearGradient
       inkscape:collect="always"
       xlink:href="#linearGradient1015"
       id="linearGradient1151"
       x1="6.7701311"
       y1="9.893795"
       x2="13.651322"
       y2="9.893795"
       gradientUnits="userSpaceOnUse" />
    <linearGradient
       inkscape:collect="always"
       xlink:href="#linearGradient1015"
       id="linearGradient1159"
       x1="15.439267"
       y1="20.667723"
       x2="25.905132"
       y2="20.667723"
       gradientUnits="userSpaceOnUse" />
    <linearGradient
       inkscape:collect="always"
       xlink:href="#linearGradient1015"
       id="linearGradient1167"
       x1="3"
       y1="16"
       x2="29"
       y2="16"
       gradientUnits="userSpaceOnUse"
       gradientTransform="translate(0,0.1)" />
    <linearGradient
       inkscape:collect="always"
       xlink:href="#linearGradient1015"
       id="linearGradient1175"
       x1="11.096115"
       y1="13.345429"
       x2="20.903606"
       y2="13.345429"
       gradientUnits="userSpaceOnUse" />
    <linearGradient
       inkscape:collect="always"
       xlink:href="#linearGradient1015"
       id="linearGradient1183"
       x1="6.7701311"
       y1="9.893795"
       x2="13.651322"
       y2="9.893795"
       gradientUnits="userSpaceOnUse" />
    <linearGradient
       inkscape:collect="always"
       xlink:href="#linearGradient1015"
       id="linearGradient1191"
       x1="11.09662"
       y1="18.545012"
       x2="20.903889"
       y2="18.545012"
       gradientUnits="userSpaceOnUse" />
    <linearGradient
       inkscape:collect="always"
       xlink:href="#linearGradient1015"
       id="linearGradient1199"
       x1="15.439267"
       y1="20.667723"
       x2="25.905132"
       y2="20.667723"
       gradientUnits="userSpaceOnUse" />
    <linearGradient
       inkscape:collect="always"
       xlink:href="#linearGradient1015"
       id="linearGradient1110-3"
       x1="6.7701311"
       y1="9.893795"
       x2="13.651322"
       y2="9.893795"
       gradientUnits="userSpaceOnUse"
       gradientTransform="matrix(0.6875,0,0,0.6875,0.03782374,0.056)" />
    <linearGradient
       inkscape:collect="always"
       xlink:href="#linearGradient1015"
       id="linearGradient1126-5"
       x1="15.439267"
       y1="20.667723"
       x2="25.905132"
       y2="20.667723"
       gradientUnits="userSpaceOnUse"
       gradientTransform="matrix(0.6875,0,0,0.6875,0.03782374,0.056)" />
    <linearGradient
       inkscape:collect="always"
       xlink:href="#linearGradient1015"
       id="linearGradient1118-5"
       x1="11.096111"
       y1="15.836638"
       x2="20.903606"
       y2="15.836638"
       gradientUnits="userSpaceOnUse"
       gradientTransform="matrix(0.6875,0,0,0.6875,0.03782374,0.056)" />
    <linearGradient
       inkscape:collect="always"
       xlink:href="#linearGradient1015"
       id="linearGradient1076-9"
       x1="15.439267"
       y1="20.667723"
       x2="25.905132"
       y2="20.667723"
       gradientUnits="userSpaceOnUse"
       gradientTransform="matrix(0.6875,0,0,0.6875,0.014,0.092)" />
    <linearGradient
       inkscape:collect="always"
       xlink:href="#linearGradient1015"
       id="linearGradient1068-0"
       x1="14.966204"
       y1="11.016608"
       x2="17.695942"
       y2="11.016608"
       gradientUnits="userSpaceOnUse"
       gradientTransform="matrix(0.6875,0,0,0.6875,0.014,0.092)" />
    <linearGradient
       inkscape:collect="always"
       xlink:href="#linearGradient1015"
       id="linearGradient1094-7"
       x1="14.27601"
       y1="15.893779"
       x2="17.66827"
       y2="15.893779"
       gradientUnits="userSpaceOnUse"
       gradientTransform="matrix(0.6875,0,0,0.6875,0.01232767,0.01504065)" />
    <linearGradient
       inkscape:collect="always"
       xlink:href="#linearGradient1015"
       id="linearGradient1026-7"
       x1="9.2520599"
       y1="15.844825"
       x2="22.754963"
       y2="15.844825"
       gradientUnits="userSpaceOnUse"
       gradientTransform="scale(0.6875)" />
    <linearGradient
       inkscape:collect="always"
       xlink:href="#linearGradient1015"
       id="linearGradient1151-3"
       x1="6.7701311"
       y1="9.893795"
       x2="13.651322"
       y2="9.893795"
       gradientUnits="userSpaceOnUse"
       gradientTransform="scale(0.6875)" />
    <linearGradient
       inkscape:collect="always"
       xlink:href="#linearGradient1015"
       id="linearGradient1159-5"
       x1="15.439267"
       y1="20.667723"
       x2="25.905132"
       y2="20.667723"
       gradientUnits="userSpaceOnUse"
       gradientTransform="scale(0.6875)" />
    <linearGradient
       inkscape:collect="always"
       xlink:href="#linearGradient1015"
       id="linearGradient1143-5"
       x1="12.181335"
       y1="15.626657"
       x2="20.411043"
       y2="15.626657"
       gradientUnits="userSpaceOnUse"
       gradientTransform="scale(0.6875)" />
    <linearGradient
       inkscape:collect="always"
       xlink:href="#linearGradient1015"
       id="linearGradient1042-3"
       x1="6.7701311"
       y1="9.893795"
       x2="13.651322"
       y2="9.893795"
       gradientUnits="userSpaceOnUse"
       gradientTransform="scale(0.6875)" />
    <linearGradient
       inkscape:collect="always"
       xlink:href="#linearGradient1015"
       id="linearGradient1050-5"
       x1="15.439267"
       y1="20.667723"
       x2="25.905132"
       y2="20.667723"
       gradientUnits="userSpaceOnUse"
       gradientTransform="scale(0.6875)" />
    <linearGradient
       inkscape:collect="always"
       xlink:href="#linearGradient1015"
       id="linearGradient1183-3"
       x1="6.7701311"
       y1="9.893795"
       x2="13.651322"
       y2="9.893795"
       gradientUnits="userSpaceOnUse"
       gradientTransform="scale(0.6875)" />
    <linearGradient
       inkscape:collect="always"
       xlink:href="#linearGradient1015"
       id="linearGradient1199-5"
       x1="15.439267"
       y1="20.667723"
       x2="25.905132"
       y2="20.667723"
       gradientUnits="userSpaceOnUse"
       gradientTransform="scale(0.6875)" />
    <linearGradient
       inkscape:collect="always"
       xlink:href="#linearGradient1015"
       id="linearGradient1191-3"
       x1="11.09662"
       y1="18.545012"
       x2="20.903889"
       y2="18.545012"
       gradientUnits="userSpaceOnUse"
       gradientTransform="scale(0.6875)" />
    <linearGradient
       inkscape:collect="always"
       xlink:href="#linearGradient1015"
       id="linearGradient1175-6"
       x1="11.096115"
       y1="13.345429"
       x2="20.903606"
       y2="13.345429"
       gradientUnits="userSpaceOnUse"
       gradientTransform="scale(0.6875)" />
    <linearGradient
       inkscape:collect="always"
       xlink:href="#linearGradient1015"
       id="linearGradient1067"
       x1="2.1003237"
       y1="11.12475"
       x2="19.975325"
       y2="11.12475"
       gradientUnits="userSpaceOnUse" />
    <linearGradient
       inkscape:collect="always"
       xlink:href="#linearGradient1015"
       id="linearGradient1075"
       x1="2.0764999"
       y1="11.16075"
       x2="19.9515"
       y2="11.16075"
       gradientUnits="userSpaceOnUse" />
    <linearGradient
       inkscape:collect="always"
       xlink:href="#linearGradient1015"
       id="linearGradient1085"
       x1="2.0748277"
       y1="11.083791"
       x2="19.949827"
       y2="11.083791"
       gradientUnits="userSpaceOnUse" />
    <linearGradient
       inkscape:collect="always"
       xlink:href="#linearGradient1015"
       id="linearGradient1095"
       x1="2.0625"
       y1="11.06875"
       x2="19.9375"
       y2="11.06875"
       gradientUnits="userSpaceOnUse" />
    <linearGradient
       inkscape:collect="always"
       xlink:href="#linearGradient1015"
       id="linearGradient1103"
       x1="2.0625"
       y1="11.06875"
       x2="19.9375"
       y2="11.06875"
       gradientUnits="userSpaceOnUse" />
    <linearGradient
       inkscape:collect="always"
       xlink:href="#linearGradient1015"
       id="linearGradient1111"
       x1="2.0625"
       y1="11.06875"
       x2="19.9375"
       y2="11.06875"
       gradientUnits="userSpaceOnUse" />
    <linearGradient
       inkscape:collect="always"
       xlink:href="#linearGradient1015"
       id="linearGradient1119"
       x1="2.0625"
       y1="11.06875"
       x2="19.9375"
       y2="11.06875"
       gradientUnits="userSpaceOnUse" />
  </defs>
  <g
     id="22-22-system-save-session"
     transform="translate(86,105)">
    <path
       style="fill:url(#linearGradient1107);fill-opacity:1;stroke:none"
       d="m 2.999995,13.003509 v 0 0.9999 15 H 4 19 v -0.9999 -11.0001 -0.69915 h -0.007 l 0.007,-0.015 -3.29297,-3.29295 -0.008,0.015 v -0.015 h -0.69922 -12 z M 4,14.005359 h 3 v 4.00005 1.00005 h 8 v -1.00005 -4.00005 h 0.29298 L 18,16.712409 v 0.29295 11.0001 h -2 v -7.00005 H 15 7 5.999995 v 7.00005 H 4 Z m 4.000005,0 h 3.90039 v 4.00005 H 8.000005 Z M 7,22.005459 h 8 v 6 H 7 Z"
       class="ColorScheme-Text"
       id="path37" />
    <path
       style="opacity:1;fill:none"
       d="M 0,10 V 32 H 22 V 10 Z"
       id="path39" />
  </g>
  <g
     id="system-save-session"
     transform="translate(86,105)">
    <path
       style="fill:url(#linearGradient1099);fill-opacity:1;stroke:none"
       d="m 26,4 v 24 h 5 14 5 V 10 L 49,9 45,5 44,4 H 43 32 Z m 1,1 h 5 v 8 H 43 V 5 h 0.585938 L 49,10.414062 V 27 H 45 V 19 H 31 v 8 h -4 z m 6,0 h 6 v 7 h -6 z m -1,15 h 12 v 7 H 32 Z"
       class="ColorScheme-Text"
       id="path42" />
    <path
       style="opacity:1;fill:none"
       d="M 22,0 V 32 H 54 V 0 Z"
       id="path44" />
  </g>
  <g
     id="22-22-system-users"
     transform="translate(28,105)">
    <path
       style="fill:url(#linearGradient1123);fill-opacity:1;stroke:none"
       d="m 13.999995,12.999864 c -1.661999,0 -3,1.338 -3,3 0,1.662 1.338001,3 3,3 1.661999,0 3,-1.338 3,-3 0,-1.662 -1.338001,-3 -3,-3 z m -6,3 c -1.661999,0 -3,1.338 -3,3 0,1.662 1.338001,3 3,3 1.661999,0 3,-1.338 3,-3 0,-1.662 -1.338001,-3 -3,-3 z m 6,4 c -0.646349,0 -1.255999,0.134093 -1.818359,0.361328 l 0.455078,0.914063 c 0.427816,-0.1605 0.877758,-0.275391 1.363281,-0.275391 2.216023,0 4,1.783975 4,4 h -3.5 l 0.5,1 h 4 v -1 c 0,-2.77002 -2.229982,-5 -5,-5 z m -6,3 c -2.770018,0 -5,2.22998 -5,5 v 1 h 10 v -1 c 0,-2.77002 -2.229982,-5 -5,-5 z m 0,1 c 2.216008,0 4,1.783975 4,4 h -8 c 0,-2.216025 1.783977,-4 4,-4 z"
       class="ColorScheme-Text"
       id="path87" />
    <path
       style="opacity:1;fill:none"
       d="M 0,10 V 32 H 22 V 10 Z"
       id="path89" />
  </g>
  <g
     id="system-users"
     transform="translate(28,105)">
    <path
       style="fill:url(#linearGradient1115);fill-opacity:1;stroke:none"
       d="M 42.5,4 A 4.5,4.5 0 0 0 38,8.5 4.5,4.5 0 0 0 42.5,13 4.5,4.5 0 0 0 47,8.5 4.5,4.5 0 0 0 42.5,4 Z m 0,1 A 3.5,3.5 0 0 1 46,8.5 3.5,3.5 0 0 1 42.5,12 3.5,3.5 0 0 1 39,8.5 3.5,3.5 0 0 1 42.5,5 Z m -9,4 C 31.014719,9 29,11.014719 29,13.5 29,15.985281 31.014719,18 33.5,18 35.985281,18 38,15.985281 38,13.5 38,11.014719 35.985281,9 33.5,9 Z m 0,1 A 3.5,3.5 0 0 1 37,13.5 3.5,3.5 0 0 1 33.5,17 3.5,3.5 0 0 1 30,13.5 3.5,3.5 0 0 1 33.5,10 Z m 9,4 c -0.88285,0.003 -1.758266,0.172285 -2.585938,0.5 -0.06618,0.423679 -0.174132,0.839768 -0.322265,1.242188 C 40.494507,15.254879 41.490227,15.000767 42.5,15 c 3.589851,0 6.5,3.134007 6.5,7 h -8.341797 c 0.170323,0.323289 0.325499,0.657112 0.464844,1 H 50 v -1 c 0,-4.418278 -3.357864,-8 -7.5,-8 z m -9,5 C 29.357864,19 26,22.581722 26,27 v 1 h 15 v -1 c 0,-4.418278 -3.357864,-8 -7.5,-8 z m 0,1 c 3.589851,0 6.5,3.134007 6.5,7 H 27 c 0,-3.865993 2.910149,-7 6.5,-7 z"
       class="ColorScheme-Text"
       id="path92" />
    <path
       style="opacity:1;fill:none"
       d="M 22,0 V 32 H 54 V 0 Z"
       id="path94" />
  </g>
  <g
     id="22-22-system-search"
     transform="translate(-26,41)">
    <path
       style="fill:url(#linearGradient1043);fill-opacity:1;stroke:none"
       d="m 9.0000001,13 c -3.3240047,0 -6,2.675995 -6,6 0,3.324005 2.6759953,6 6,6 C 10.481206,25 11.830584,24.465318 12.875,23.582031 L 18.292969,29 19,28.292969 13.582032,22.875 C 14.465318,21.830584 15,20.481205 15,19 15,15.675995 12.324005,13 9.0000001,13 Z m 0,1 C 11.770005,14 14,16.229995 14,19 c 0,2.770005 -2.229995,5 -4.9999999,5 -2.7700048,0 -5,-2.229995 -5,-5 0,-2.770005 2.2299952,-5 5,-5 z"
       class="ColorScheme-Text"
       id="path61" />
    <path
       style="opacity:1;fill:none"
       d="M 0,10 V 32 H 22 V 10 Z"
       id="path63" />
  </g>
  <g
     id="system-search"
     transform="translate(-26,41)">
    <path
       style="fill:url(#linearGradient1051);fill-opacity:1;stroke:none"
       d="m 35,4 a 9,9 0 0 0 -9,9 9,9 0 0 0 9,9 9,9 0 0 0 5.994141,-2.298828 L 49.292969,28 50,27.292969 41.699219,18.992187 A 9,9 0 0 0 44,13 9,9 0 0 0 35,4 Z m 0,1 a 8,8 0 0 1 8,8 8,8 0 0 1 -8,8 8,8 0 0 1 -8,-8 8,8 0 0 1 8,-8 z"
       class="ColorScheme-Text"
       id="path66" />
    <path
       style="opacity:1;fill:none"
       d="M 22,0 V 32 H 54 V 0 Z"
       id="path68" />
  </g>
  <g
     id="system-user-list"
     transform="translate(82,72.999993)">
    <path
       style="fill:url(#linearGradient1091);fill-opacity:1;stroke:none"
       d="m 45,9 c -0.58947,0 -1.13295,0.174573 -1.59375,0.46875 0.04318,0.464252 0.0075,0.922667 -0.008,1.335882 C 43.775357,10.29878 44.369053,10.00054 45,10 c 1.104569,0 2,0.895431 2,2 0,1.104569 -0.895431,2 -2,2 -1.040548,-5.56e-4 -1.906833,-0.798896 -1.99219,-1.835938 -0.184344,0.419479 -0.464656,0.770321 -0.6956,1.09959 -10e-4,0.0013 -0.003,0.0026 -0.004,0.0039 C 42.78421,14.287279 43.79697,15 45,15 c 1.66119,0 2.99805,-1.338 2.99805,-3 0,-1.662 -1.33686,-3 -2.99805,-3 z m -6.99999,9 C 42.43204,18 46,21.56798 46,26 H 30 c 0,-4.43202 3.56798,-8 8.00001,-8 z m 10e-6,-1 C 33.01445,17 29,20.716633 29,25.333333 V 27 H 47 V 25.333333 C 47,20.716633 42.98557,17 38.00002,17 Z m 6.97654,-1 c -1.26188,4.88e-4 -2.39619,0.47884 -3.27539,1.240234 0.380034,0.156147 0.766084,0.335754 1.142399,0.50783 0.005,0.0025 0.009,0.0052 0.0137,0.0078 C 43.47258,17.305934 44.19048,17 44.97461,17 c 2.22686,5e-5 4.02344,2.337992 4.02344,4 h -2.72852 c 0.196162,0.339095 0.301576,0.64811 0.449,1 H 50 v -1 c 0,-2.769366 -2.2402,-4.998947 -5.02148,-5 z M 38,5.9999995 c 2.20915,0 4,1.7908576 4,4.0000005 0,2.209141 -1.79085,4 -4,4 -2.20915,0 -4,-1.790859 -4,-4 0,-2.2091429 1.79085,-4.0000005 4,-4.0000005 z m 0,-1 c -2.76144,0 -5,2.2385703 -5,5.0000005 0,2.76143 2.23856,5 5,5 2.350785,0 4.322665,-1.622301 4.857137,-3.808418 C 42.950498,10.809711 43,10.410637 43,10 43,7.2385698 40.76142,4.9999995 38,4.9999995 Z M 31.02344,16 c 1.26188,4.88e-4 2.39619,0.47884 3.27539,1.240234 -0.404465,0.162919 -0.805479,0.355411 -1.156104,0.515606 C 32.52742,17.305934 31.80952,17 31.02539,17 c -2.22686,5e-5 -4.02344,2.337992 -4.02344,4 h 2.72852 c -0.186972,0.33326 -0.318326,0.689701 -0.449,1 H 26 v -1 c 0,-2.769366 2.2402,-4.998947 5.02148,-5 z M 30.99805,9 c 0.58947,0 1.13295,0.174573 1.59375,0.46875 -0.04841,0.460072 -0.0093,0.927542 0.008,1.33588 C 32.222693,10.29878 31.628997,10.00054 30.99805,10 c -1.104569,0 -2,0.895431 -2,2 0,1.104569 0.895431,2 2,2 1.040548,-5.56e-4 1.906833,-0.798896 1.99219,-1.835938 0.188312,0.402683 0.471649,0.770111 0.6956,1.09959 10e-4,0.0013 0.003,0.0026 0.004,0.0039 C 33.21384,14.287279 32.20108,15 30.99805,15 29.33686,15 28,13.662 28,12 28,10.338 29.33686,9.000001 30.99805,9 Z"
       class="ColorScheme-Text"
       id="path110" />
    <path
       style="opacity:1;fill:none"
       d="M 22,0 V 32 H 54 V 0 Z"
       id="path84-3" />
  </g>
  <g
     id="system-user-prompt"
     transform="translate(86,137)">
    <path
       style="opacity:1;fill:none"
       d="M 22,0 V 32 H 54 V 0 Z"
       id="path44-5" />
    <path
       style="fill:url(#linearGradient1132);fill-opacity:1;stroke:none"
       d="m 37,10.75 v 1.5 h 5 v -1.5 z m -4,0 v 1.5 h 3 v -1.5 z m -6,0 v 1.5 h 5 v -1.5 z M 26,9 h 24 v 5 H 26 Z M 25,8 v 7 H 51 V 8 Z m 1,10 h 24 v 5 H 26 Z m -1,-1 v 7 h 26 v -7 z m 3.5,2 C 27.671573,19 27,19.671573 27,20.5 27,21.328427 27.671573,22 28.5,22 29.328427,22 30,21.328427 30,20.5 30,19.671573 29.328427,19 28.5,19 Z m 4,0 C 31.671573,19 31,19.671573 31,20.5 31,21.328427 31.671573,22 32.5,22 33.328427,22 34,21.328427 34,20.5 34,19.671573 33.328427,19 32.5,19 Z m 4,0 C 35.671573,19 35,19.671573 35,20.5 35,21.328427 35.671573,22 36.5,22 37.328427,22 38,21.328427 38,20.5 38,19.671573 37.328427,19 36.5,19 Z m 4,0 C 39.671573,19 39,19.671573 39,20.5 39,21.328427 39.671573,22 40.5,22 41.328427,22 42,21.328427 42,20.5 42,19.671573 41.328427,19 40.5,19 Z"
       class="ColorScheme-Text"
       id="path889" />
  </g>
  <g
     style="stroke-width:1.45455"
     id="22-22-system-user-prompt"
     transform="matrix(0.6875,0,0,0.6875,70.875,147)">
    <path
       style="fill:url(#linearGradient1140);fill-opacity:1;stroke:none"
       d="m 35.818183,21.09091 a 0.72727275,0.72727275 0 0 1 -0.727272,0.727273 0.72727275,0.72727275 0 0 1 -0.727273,-0.727273 0.72727275,0.72727275 0 0 1 0.727273,-0.727273 0.72727275,0.72727275 0 0 1 0.727272,0.727273 z m -2.181818,0 a 0.72727275,0.72727275 0 0 1 -0.727273,0.727273 0.72727275,0.72727275 0 0 1 -0.727272,-0.727273 0.72727275,0.72727275 0 0 1 0.727272,-0.727273 0.72727275,0.72727275 0 0 1 0.727273,0.727273 z m -2.181818,0 a 0.72727275,0.72727275 0 0 1 -0.727273,0.727273 0.72727275,0.72727275 0 0 1 -0.727273,-0.727273 0.72727275,0.72727275 0 0 1 0.727273,-0.727273 0.72727275,0.72727275 0 0 1 0.727273,0.727273 z m -2.181818,0 a 0.72727275,0.72727275 0 0 1 -0.727273,0.727273 0.72727275,0.72727275 0 0 1 -0.727273,-0.727273 0.72727275,0.72727275 0 0 1 0.727273,-0.727273 0.72727275,0.72727275 0 0 1 0.727273,0.727273 z m 5.81818,-10.909091 H 38 v 1.454545 h -2.909091 z m -2.909091,0 h 1.454545 v 1.454545 h -1.454545 z m -4.363635,0 h 2.909091 v 1.454545 h -2.909091 z m -2.909091,7.272727 v 7.272728 h 26.181819 v -7.272728 z m 1.454546,1.454546 h 23.272728 v 4.363636 H 26.363638 Z M 24.909097,7.2727345 V 14.545462 H 51.090916 V 7.2727345 Z M 26.363643,8.72728 h 23.272728 v 4.363637 H 26.363643 Z"
       class="ColorScheme-Text"
       id="path909-5" />
    <path
       style="opacity:1;fill:none"
       d="M 22,0 V 32 H 54 V 0 Z"
       id="path44-5-7" />
  </g>
  <g
     style="stroke-width:1.45455"
     id="22-22-system-user-list"
     transform="matrix(0.6875,0,0,0.6875,66.875,82.999996)">
    <path
       style="fill:url(#linearGradient1083);fill-opacity:1;stroke:none"
       d="m 44.552119,10.181819 c -0.374531,0 -0.720437,0.103636 -1.028408,0.269887 1.89e-4,0.0019 -0.09527,0.05843 -0.09498,0.06047 0.114764,1.452661 -0.249454,2.376872 -0.665091,3.098603 0.396059,0.563505 1.048422,0.934682 1.788481,0.934682 1.025803,0 1.886094,-0.707989 2.119316,-1.661932 0.04073,-0.166636 0.06255,-0.340697 0.06255,-0.519887 -1.4e-5,-1.204987 -0.976843,-2.181818 -2.181818,-2.181818 z m -13.097528,0 c 0.374531,0 0.720436,0.103636 1.028407,0.269887 -1.89e-4,0.0019 0.09527,0.05843 0.09498,0.06047 -0.114764,1.452661 0.249455,2.376872 0.665091,3.098603 -0.396058,0.563505 -1.048422,0.934682 -1.78848,0.934682 -1.025804,0 -1.886095,-0.707989 -2.119317,-1.661932 -0.04073,-0.166636 -0.06254,-0.340697 -0.06254,-0.519887 1.4e-5,-1.204987 0.976844,-2.181818 2.181818,-2.181818 z m -4.4e-5,5.818168 c 1.226473,0 2.302211,0.565518 2.960233,1.477273 -0.369265,0.195739 -0.745004,0.436224 -1.070982,0.630662 -0.358356,-0.422659 -1.025004,-0.65339 -1.889251,-0.65339 -1.309454,0 -2.18182,0.960799 -2.18182,2.909104 h 1.818182 l -0.727273,1.454546 h -2.545454 l 1e-6,-2.21024 c 10e-7,-2.093049 1.622008,-3.607955 3.636364,-3.607955 z m 13.09091,1.4e-5 c -1.226473,0 -2.302211,0.565519 -2.960233,1.477273 0.369265,0.19574 0.745004,0.436224 1.070982,0.630662 0.358356,-0.422659 1.025003,-0.653389 1.889251,-0.653389 1.309454,0 2.181816,0.993887 2.181816,2.909089 h -1.818182 l 0.727273,1.454546 h 2.545454 l 2e-6,-2.210225 c 2e-6,-2.093049 -1.622007,-3.607956 -3.636363,-3.607956 z M 38,18.909091 c 2.909091,0 5.818182,1.454545 5.818182,5.818182 H 32.181818 c 0,-4.363637 2.909091,-5.818182 5.818182,-5.818182 z m 0,-1.454546 c -4.230226,0 -7.261221,2.974329 -7.269818,7.272728 l -0.0029,1.454545 h 14.545454 l -0.0029,-1.454545 C 45.261176,20.405961 42.230211,17.454545 38,17.454545 Z m 7.5e-5,-11.6363628 c -2.81168,0 -5.090953,2.2792686 -5.090953,5.0909048 0,2.811643 2.279273,5.090914 5.090953,5.090914 2.393556,0 4.401294,-1.651796 4.945498,-3.877663 0.09498,-0.388814 0.145469,-0.795143 0.145469,-1.213251 0,-2.8116362 -2.279316,-5.0909048 -5.090967,-5.0909048 z"
       class="ColorScheme-Text"
       id="path340-1-2" />
    <path
       style="opacity:1;fill:none"
       d="M 22,0 V 32 H 54 V 0 Z"
       id="path84-3-7" />
  </g>
  <g
     style="isolation:auto;mix-blend-mode:normal;fill:#ffffff"
     id="g1147"
     transform="translate(142)" />
  <g
     style="fill:#ffffff;stroke-width:2;stroke-linecap:round;stroke-linejoin:round"
     id="g1194"
     transform="translate(189,-1090.5)" />
  <g
     id="system-suspend"
     transform="translate(-94)">
    <path
       id="path938"
       overflow="visible"
       d="M 16,0 C 7.1723733,0 0,7.1723733 0,16 0,24.827627 7.1723733,32 16,32 24.827627,32 32,24.827627 32,16 32,7.1723733 24.827627,0 16,0 Z"
       inkscape:connector-curvature="0"
       style="color:#000000;overflow:visible;opacity:0;fill:none;fill-opacity:1;stroke-width:1.06667" />
    <path
       d="m 16,29.1 c -7.1682,0 -13,-5.8318 -13,-13 0,-7.1682 5.8318,-13 13,-13 2.0176,0 3.952289,0.4498 5.748889,1.3369778 0.286,0.1412667 0.403289,0.4876444 0.262022,0.7739333 -0.140978,0.286 -0.487355,0.4035778 -0.773933,0.2623111 C 19.601,4.6652 17.838778,4.2555556 16,4.2555556 9.4690889,4.2555556 4.1555556,9.5690889 4.1555556,16.1 c 0,6.530911 5.3135333,11.844445 11.8444444,11.844445 6.530911,0 11.844445,-5.313534 11.844445,-11.844445 0,-2.282222 -0.650289,-4.497711 -1.880378,-6.4066889 C 25.791022,9.4249334 25.868445,9.0672889 26.136822,8.8945334 26.4052,8.7220667 26.762556,8.7989111 26.9356,9.0672889 28.285867,11.163467 29,13.595333 29,16.1 c 0,7.1682 -5.8318,13 -13,13 z"
       style="fill:url(#linearGradient1017);fill-opacity:1;fill-rule:nonzero;stroke:none;stroke-width:0.288889;stroke-linecap:butt;stroke-linejoin:miter;stroke-miterlimit:10;stroke-dasharray:none"
       id="path48"
       stroke-linecap="round" />
    <path
       d="m 17.951604,17.558766 -0.0013,-8.4e-5 h 2.857875 c 1.074624,0 1.946784,-0.767825 1.946784,-1.713896 0,-0.94607 -0.87216,-1.713896 -1.946784,-1.713896 h -2.857875 l -0.459183,0.008 c -1.074415,0.0186 -2.355301,-0.0017 -3.429924,-0.0017 -1.074624,0 -0.146415,0.938529 -1.99e-4,0.0013 l 1.99e-4,-0.0013 -2.862353,-0.0063 c -1.07462,-0.0023 -1.9467843,0.767826 -1.9467843,1.713896 0,0.946071 0.8721563,1.713896 1.9467843,1.713896 h 2.857896 l -0.0084,-0.01099 c -0.600076,-0.784829 -1.083566,-0.0014 -0.009,-0.0014 1.074623,0 -1.069585,0.01103 0.006,0.01136 z"
       style="fill:url(#linearGradient1026);fill-opacity:1;fill-rule:nonzero;stroke:none;stroke-width:0.913325;stroke-linecap:butt;stroke-linejoin:miter;stroke-miterlimit:10;stroke-dasharray:none"
       id="path12-8"
       sodipodi:nodetypes="scssscssscssscssss"
       stroke-linecap="round" />
  </g>
  <g
     id="system-shutdown">
    <path
       style="color:#000000;overflow:visible;opacity:0;fill:none;fill-opacity:1;stroke-width:1.06667"
       id="path945"
       overflow="visible"
       d="M 16,0 C 7.1714133,0 0,7.1714133 0,16 0,24.828587 7.1714133,32 16,32 24.828587,32 32,24.828587 32,16 32,7.1714133 24.828587,0 16,0 Z"
       inkscape:connector-curvature="0" />
    <path
       id="path8-0"
       style="fill:url(#linearGradient1076);fill-opacity:1;fill-rule:nonzero;stroke:none;stroke-width:0.288889;stroke-linecap:butt;stroke-linejoin:miter;stroke-miterlimit:10;stroke-dasharray:none"
       d="m 16.017044,25.9008 c -0.318933,0 -0.577777,-0.258844 -0.577777,-0.577778 0,-0.318933 0.258844,-0.577777 0.577777,-0.577777 4.814912,0 8.732534,-3.917623 8.732534,-8.732823 0,-0.318933 0.258844,-0.577778 0.577778,-0.577778 0.318933,0 0.577777,0.258845 0.577777,0.577778 0,5.452778 -4.4356,9.888378 -9.888089,9.888378 z"
       stroke-linecap="round" />
    <path
       id="path10-6"
       style="fill:url(#linearGradient1060);fill-opacity:1;fill-rule:nonzero;stroke:none;stroke-width:0.288889;stroke-linecap:butt;stroke-linejoin:miter;stroke-miterlimit:10;stroke-dasharray:none"
       d="m 16,29.1 c -7.1682,0 -13,-5.8318 -13,-13 0,-7.1682 5.8318,-13 13,-13 2.0176,0 3.952289,0.4498 5.748889,1.3369778 0.286,0.1412667 0.403289,0.4876444 0.262022,0.7739333 -0.140978,0.286 -0.487355,0.4035778 -0.773933,0.2623111 C 19.601,4.6652 17.838778,4.2555556 16,4.2555556 9.4690889,4.2555556 4.1555556,9.5690889 4.1555556,16.1 c 0,6.530911 5.3135333,11.844445 11.8444444,11.844445 6.530911,0 11.844445,-5.313534 11.844445,-11.844445 0,-2.282222 -0.650289,-4.497711 -1.880378,-6.4066889 C 25.791022,9.4249334 25.868445,9.0672889 26.136822,8.8945334 26.4052,8.7220667 26.762556,8.7989111 26.9356,9.0672889 28.285867,11.163467 29,13.595333 29,16.1 c 0,7.1682 -5.8318,13 -13,13 z"
       stroke-linecap="round" />
    <path
       sodipodi:nodetypes="scssscssscssscssss"
       id="path12"
       style="fill:url(#linearGradient1068);fill-opacity:1;fill-rule:nonzero;stroke:none;stroke-width:0.674674;stroke-linecap:butt;stroke-linejoin:miter;stroke-miterlimit:10;stroke-dasharray:none"
       d="m 17.695941,9.6815886 -6.6e-5,9.245e-4 V 7.724072 c 0,-0.7364165 -0.611423,-1.3340883 -1.364783,-1.3340883 -0.753361,0 -1.364784,0.5976718 -1.364784,1.3340883 v 1.9584411 l 0.0063,0.3146687 c 0.01481,0.7362742 -0.0014,1.6140362 -0.0014,2.3504532 0,0.736417 0.747355,0.100333 10e-4,1.36e-4 l -10e-4,-1.36e-4 -0.005,1.96151 c -0.0018,0.736414 0.611423,1.334088 1.364783,1.334088 0.753361,0 1.364784,-0.597672 1.364784,-1.334088 v -1.958456 l -0.0088,0.0057 c -0.624964,0.41122 -0.0012,0.742545 -0.0012,0.0061 0,-0.736417 0.0088,0.732964 0.009,-0.0041 z"
       stroke-linecap="round" />
  </g>
  <g
     id="system-suspend-hibernate"
     transform="translate(47)">
    <circle
       style="opacity:0;fill:#000000;fill-opacity:1;stroke-width:1.06667"
       id="circle949"
       r="16"
       cy="16"
       cx="16" />
    <path
       id="path48-6"
       style="fill:url(#linearGradient1084);fill-opacity:1;fill-rule:nonzero;stroke:none;stroke-width:0.288889;stroke-linecap:butt;stroke-linejoin:miter;stroke-miterlimit:10;stroke-dasharray:none"
       d="m 16,29.1 c -7.1682,0 -13,-5.8318 -13,-13 0,-7.1682 5.8318,-13 13,-13 2.0176,0 3.952289,0.4498 5.748889,1.3369778 0.286,0.1412667 0.403289,0.4876444 0.262022,0.7739333 -0.140978,0.286 -0.487355,0.4035778 -0.773933,0.2623111 C 19.601,4.6652 17.838778,4.2555556 16,4.2555556 9.4690889,4.2555556 4.1555556,9.5690889 4.1555556,16.1 c 0,6.530911 5.3135333,11.844445 11.8444444,11.844445 6.530911,0 11.844445,-5.313534 11.844445,-11.844445 0,-2.282222 -0.650289,-4.497711 -1.880378,-6.4066889 C 25.791022,9.4249334 25.868445,9.0672889 26.136822,8.8945334 26.4052,8.7220667 26.762556,8.7989111 26.9356,9.0672889 28.285867,11.163467 29,13.595333 29,16.1 c 0,7.1682 -5.8318,13 -13,13 z"
       stroke-linecap="round" />
    <path
       sodipodi:nodetypes="scssscssscssscssss"
       id="path12-8-7"
       style="fill:url(#linearGradient1094);fill-opacity:1;fill-rule:nonzero;stroke:none;stroke-width:0.908567;stroke-linecap:butt;stroke-linejoin:miter;stroke-miterlimit:10;stroke-dasharray:none"
       d="m 14.27601,17.841871 8.2e-5,-0.0013 v 2.857876 c 0,1.074623 0.759847,1.946784 1.696087,1.946784 0.93624,0 1.696087,-0.872161 1.696087,-1.946784 v -2.857876 l -0.0079,-0.459183 c -0.01841,-1.074414 0.0017,-2.3553 0.0017,-3.429924 0,-1.074623 -0.928777,-0.146414 -0.0012,-1.98e-4 l 0.0012,1.98e-4 0.0062,-2.862353 c 0.0023,-1.07462 -0.759847,-1.9467837 -1.696087,-1.9467837 -0.93624,0 -1.696087,0.8721567 -1.696087,1.9467837 v 2.857896 l 0.01088,-0.0084 c 0.776674,-0.600076 0.0014,-1.083566 0.0014,-0.009 0,1.074624 -0.01092,-1.069584 -0.01124,0.006 z"
       stroke-linecap="round" />
  </g>
  <g
     id="system-switch-user"
     transform="translate(189)">
    <circle
       style="opacity:0;fill:none;fill-opacity:1;stroke-width:1.06667"
       id="circle955"
       r="16"
       cy="-16"
       cx="16"
       transform="scale(1,-1)" />
    <path
       id="path6-62"
       style="fill:url(#linearGradient1183);fill-opacity:1;fill-rule:nonzero;stroke:none;stroke-width:0.288889;stroke-linecap:butt;stroke-linejoin:miter;stroke-miterlimit:10;stroke-dasharray:none"
       d="m 7.3477778,13.188533 c -0.0702,0 -0.1418445,-0.01271 -0.2108889,-0.04016 C 6.8399111,13.031667 6.6937333,12.696267 6.8101556,12.399289 7.8856889,9.6609111 10.102044,7.5578 12.890978,6.6290222 c 0.302178,-0.1014 0.629778,0.062978 0.7306,0.3657334 0.100822,0.3027555 -0.06298,0.6300666 -0.365734,0.7306 C 10.792778,8.5455111 8.8352667,10.403067 7.8856889,12.821644 7.7964222,13.049289 7.5786,13.188533 7.3477778,13.188533 Z"
       stroke-linecap="round" />
    <path
       id="path8-9"
       style="fill:url(#linearGradient1199);fill-opacity:1;fill-rule:nonzero;stroke:none;stroke-width:0.288889;stroke-linecap:butt;stroke-linejoin:miter;stroke-miterlimit:10;stroke-dasharray:none"
       d="m 16.017044,25.9008 c -0.318933,0 -0.577777,-0.258844 -0.577777,-0.577778 0,-0.318933 0.258844,-0.577777 0.577777,-0.577777 4.814912,0 8.732534,-3.917623 8.732534,-8.732823 0,-0.318933 0.258844,-0.577778 0.577778,-0.577778 0.318933,0 0.577777,0.258845 0.577777,0.577778 0,5.452778 -4.4356,9.888378 -9.888089,9.888378 z"
       stroke-linecap="round" />
    <path
       id="path10-1"
       style="fill:url(#linearGradient1167);fill-opacity:1;fill-rule:nonzero;stroke:none;stroke-width:0.288889;stroke-linecap:butt;stroke-linejoin:miter;stroke-miterlimit:10;stroke-dasharray:none"
       d="m 16,29.1 c -7.1682,0 -13,-5.8318 -13,-13 0,-7.1682 5.8318,-13 13,-13 2.0176,0 3.952289,0.4498 5.748889,1.3369778 0.286,0.1412667 0.403289,0.4876444 0.262022,0.7739333 -0.140978,0.286 -0.487355,0.4035778 -0.773933,0.2623111 C 19.601,4.6652 17.838778,4.2555556 16,4.2555556 9.4690889,4.2555556 4.1555556,9.5690889 4.1555556,16.1 c 0,6.530911 5.3135333,11.844445 11.8444444,11.844445 6.530911,0 11.844445,-5.313534 11.844445,-11.844445 0,-2.282222 -0.650289,-4.497711 -1.880378,-6.4066889 C 25.791022,9.4249334 25.868444,9.0672889 26.136822,8.8945334 26.4052,8.7220667 26.762556,8.7989114 26.9356,9.0672889 28.285867,11.163467 29,13.595333 29,16.1 c 0,7.1682 -5.8318,13 -13,13 z"
       stroke-linecap="round" />
    <path
       id="path14"
       style="fill:url(#linearGradient1191);fill-opacity:1;fill-rule:nonzero;stroke:none;stroke-width:0.288889;stroke-linecap:butt;stroke-linejoin:miter;stroke-miterlimit:10;stroke-dasharray:none"
       d="m 20.326111,17.967045 h -7.257178 l 1.368756,-1.368756 c 0.225622,-0.225622 0.225622,-0.591356 0,-0.816978 -0.225333,-0.225622 -0.591645,-0.225622 -0.816978,0 l -2.354733,2.354734 c -0.02716,0.02687 -0.05113,0.05662 -0.07251,0.08869 -0.0092,0.01358 -0.01531,0.0286 -0.0234,0.04276 -0.0104,0.01878 -0.02167,0.03669 -0.02976,0.05662 -0.0078,0.01878 -0.01213,0.03842 -0.01791,0.05778 -0.0049,0.01676 -0.01127,0.03264 -0.01473,0.04998 -0.01473,0.07453 -0.01473,0.151666 0,0.2262 0.0035,0.01733 0.0098,0.03322 0.01473,0.04998 0.0058,0.01936 0.01011,0.039 0.01791,0.05778 0.0081,0.01993 0.01936,0.03785 0.02976,0.05662 0.0078,0.01416 0.01416,0.02918 0.0234,0.04276 0.02138,0.03178 0.04536,0.06153 0.07251,0.08869 l 2.354733,2.354733 c 0.112667,0.112956 0.260578,0.169289 0.408489,0.169289 0.147911,0 0.295822,-0.05633 0.408489,-0.169289 0.225622,-0.225622 0.225622,-0.591355 0,-0.816977 l -1.368756,-1.368756 h 7.257178 c 0.318934,0 0.577778,-0.258844 0.577778,-0.577778 0,-0.318933 -0.258844,-0.578066 -0.577778,-0.578066 z"
       stroke-linecap="round" />
    <path
       id="path16-2"
       style="fill:url(#linearGradient1175);fill-opacity:1;fill-rule:nonzero;stroke:none;stroke-width:0.288889;stroke-linecap:butt;stroke-linejoin:miter;stroke-miterlimit:10;stroke-dasharray:none"
       d="m 20.805956,13.666067 c 0.0052,-0.0078 0.0084,-0.01647 0.01329,-0.02427 0.01473,-0.02427 0.02889,-0.04853 0.03987,-0.07482 0.0046,-0.01098 0.0066,-0.02282 0.01069,-0.03409 0.0084,-0.02427 0.01733,-0.04796 0.02224,-0.07367 0.0075,-0.03727 0.01156,-0.07569 0.01156,-0.114111 0,-0.03842 -0.004,-0.07684 -0.01156,-0.114111 -0.0052,-0.02542 -0.01416,-0.0494 -0.02224,-0.07367 -0.004,-0.01127 -0.0061,-0.02311 -0.01069,-0.03409 -0.01098,-0.02629 -0.02542,-0.05084 -0.03987,-0.07482 -0.0046,-0.0078 -0.0081,-0.01675 -0.01329,-0.02427 -0.02109,-0.03149 -0.04507,-0.06096 -0.07193,-0.08753 l -2.354733,-2.354733 c -0.225622,-0.225622 -0.591356,-0.225622 -0.816978,0 -0.225622,0.225622 -0.225622,0.591355 0,0.816978 l 1.368756,1.368755 h -7.257178 c -0.318933,0 -0.577778,0.258845 -0.577778,0.577778 0,0.318933 0.258845,0.577778 0.577778,0.577778 h 7.257178 l -1.368756,1.368755 c -0.225622,0.225623 -0.225622,0.591356 0,0.816978 0.112956,0.112956 0.260578,0.169289 0.408489,0.169289 0.147911,0 0.295533,-0.05633 0.408489,-0.169289 l 2.354733,-2.354733 c 0.02687,-0.02716 0.05084,-0.05662 0.07193,-0.08811 z"
       stroke-linecap="round" />
  </g>
  <g
     id="system-log-out"
     transform="translate(95)">
    <path
       style="color:#000000;overflow:visible;opacity:0;fill:none;fill-opacity:1;stroke-width:1.06667"
       id="path951"
       overflow="visible"
       d="M 16,0 C 7.1723733,0 0,7.1723733 0,16 0,24.827627 7.1723733,32 16,32 24.827627,32 32,24.827627 32,16 32,7.1723733 24.827627,0 16,0 Z"
       inkscape:connector-curvature="0" />
    <path
       id="path21"
       style="fill:url(#linearGradient1110);fill-opacity:1;fill-rule:nonzero;stroke:none;stroke-width:0.288889;stroke-linecap:butt;stroke-linejoin:miter;stroke-miterlimit:10;stroke-dasharray:none"
       d="m 7.3477778,13.188533 c -0.0702,0 -0.1418445,-0.01271 -0.2108889,-0.04016 C 6.8399111,13.031667 6.6937333,12.696267 6.8101556,12.399289 7.8856889,9.6609111 10.102044,7.5578 12.890978,6.6290222 c 0.302178,-0.1014 0.629778,0.062978 0.7306,0.3657334 0.100822,0.3027555 -0.06298,0.6300666 -0.365734,0.7306 C 10.792778,8.5455111 8.8352667,10.403067 7.8856889,12.821644 7.7964222,13.049289 7.5786,13.188533 7.3477778,13.188533 Z"
       stroke-linecap="round" />
    <path
       id="path8"
       style="fill:url(#linearGradient1126);fill-opacity:1;fill-rule:nonzero;stroke:none;stroke-width:0.288889;stroke-linecap:butt;stroke-linejoin:miter;stroke-miterlimit:10;stroke-dasharray:none"
       d="m 16.017044,25.9008 c -0.318933,0 -0.577777,-0.258844 -0.577777,-0.577778 0,-0.318933 0.258844,-0.577777 0.577777,-0.577777 4.814912,0 8.732534,-3.917623 8.732534,-8.732823 0,-0.318933 0.258844,-0.577778 0.577778,-0.577778 0.318933,0 0.577777,0.258845 0.577777,0.577778 0,5.452778 -4.4356,9.888378 -9.888089,9.888378 z"
       stroke-linecap="round" />
    <path
       id="path10"
       style="fill:url(#linearGradient1102);fill-opacity:1;fill-rule:nonzero;stroke:none;stroke-width:0.288889;stroke-linecap:butt;stroke-linejoin:miter;stroke-miterlimit:10;stroke-dasharray:none"
       d="m 16,29.1 c -7.1682,0 -13,-5.8318 -13,-13 0,-7.1682 5.8318,-13 13,-13 2.0176,0 3.952289,0.4498 5.748889,1.3369778 0.286,0.1412667 0.403289,0.4876444 0.262022,0.7739333 -0.140978,0.286 -0.487355,0.4035778 -0.773933,0.2623111 C 19.601,4.6652 17.838778,4.2555556 16,4.2555556 9.4690889,4.2555556 4.1555556,9.5690889 4.1555556,16.1 c 0,6.530911 5.3135333,11.844445 11.8444444,11.844445 6.530911,0 11.844445,-5.313534 11.844445,-11.844445 0,-2.282222 -0.650289,-4.497711 -1.880378,-6.4066889 C 25.791022,9.4249334 25.868445,9.0672889 26.136822,8.8945334 26.4052,8.7220667 26.762556,8.7989111 26.9356,9.0672889 28.285867,11.163467 29,13.595333 29,16.1 c 0,7.1682 -5.8318,13 -13,13 z"
       stroke-linecap="round" />
    <path
       id="path16"
       style="fill:url(#linearGradient1118);fill-opacity:1;fill-rule:nonzero;stroke:none;stroke-width:0.288889;stroke-linecap:butt;stroke-linejoin:miter;stroke-miterlimit:10;stroke-dasharray:none"
       d="m 20.805956,16.157268 c 0.0052,-0.0078 0.0084,-0.01647 0.01329,-0.02427 0.01473,-0.02427 0.02889,-0.04853 0.03987,-0.07482 0.0046,-0.01098 0.0066,-0.02282 0.01069,-0.03409 0.0084,-0.02427 0.01733,-0.04796 0.02224,-0.07367 0.0075,-0.03727 0.01156,-0.07569 0.01156,-0.114111 0,-0.03842 -0.004,-0.07685 -0.01156,-0.114111 -0.0052,-0.02542 -0.01416,-0.0494 -0.02224,-0.07367 -0.004,-0.01127 -0.0061,-0.02311 -0.01069,-0.03409 -0.01098,-0.02629 -0.02542,-0.05084 -0.03987,-0.07482 -0.0046,-0.0078 -0.0081,-0.01676 -0.01329,-0.02427 -0.02109,-0.03149 -0.04507,-0.06095 -0.07193,-0.08753 L 18.379289,13.07309 c -0.225622,-0.225622 -0.591356,-0.225622 -0.816978,0 -0.225622,0.225623 -0.225622,0.591356 0,0.816978 l 1.368756,1.368756 h -7.257178 c -0.318933,0 -0.577778,0.258844 -0.577778,0.577778 0,0.318933 0.258845,0.577777 0.577778,0.577777 h 7.257178 l -1.368756,1.368756 c -0.225622,0.225622 -0.225622,0.591356 0,0.816978 0.112956,0.112955 0.260578,0.169289 0.408489,0.169289 0.147911,0 0.295533,-0.05633 0.408489,-0.169289 l 2.354733,-2.354734 c 0.02687,-0.02716 0.05084,-0.05662 0.07193,-0.08811 z"
       stroke-linecap="round" />
  </g>
  <g
     id="system-lock-screen"
     transform="translate(142)">
    <path
       style="color:#000000;overflow:visible;opacity:0;fill:none;fill-opacity:1;stroke-width:1.06667"
       id="path953"
       overflow="visible"
       d="M 16,0 C 7.1723733,0 0,7.1723733 0,16 0,24.827627 7.1723733,32 16,32 24.827627,32 32,24.827627 32,16 32,7.1723733 24.827627,0 16,0 Z"
       inkscape:connector-curvature="0" />
    <path
       id="path6-5"
       style="fill:url(#linearGradient1151);fill-opacity:1;fill-rule:nonzero;stroke:none;stroke-width:0.288889;stroke-linecap:butt;stroke-linejoin:miter;stroke-miterlimit:10;stroke-dasharray:none"
       d="m 7.3477778,13.188533 c -0.0702,0 -0.1418445,-0.01271 -0.2108889,-0.04016 C 6.8399111,13.031667 6.6937333,12.696267 6.8101556,12.399289 7.8856889,9.6609111 10.102044,7.5578 12.890978,6.6290222 c 0.302178,-0.1014 0.629778,0.062978 0.7306,0.3657334 0.100822,0.3027555 -0.06298,0.6300666 -0.365734,0.7306 C 10.792778,8.5455111 8.8352667,10.403067 7.8856889,12.821644 7.7964222,13.049289 7.5786,13.188533 7.3477778,13.188533 Z"
       stroke-linecap="round" />
    <path
       id="path8-92"
       style="fill:url(#linearGradient1159);fill-opacity:1;fill-rule:nonzero;stroke:none;stroke-width:0.288889;stroke-linecap:butt;stroke-linejoin:miter;stroke-miterlimit:10;stroke-dasharray:none"
       d="m 16.017044,25.9008 c -0.318933,0 -0.577777,-0.258844 -0.577777,-0.577778 0,-0.318933 0.258844,-0.577777 0.577777,-0.577777 4.814912,0 8.732534,-3.917623 8.732534,-8.732823 0,-0.318933 0.258844,-0.577778 0.577778,-0.577778 0.318933,0 0.577777,0.258845 0.577777,0.577778 0,5.452778 -4.4356,9.888378 -9.888089,9.888378 z"
       stroke-linecap="round" />
    <path
       id="path10-2"
       style="fill:url(#linearGradient1135);fill-opacity:1;fill-rule:nonzero;stroke:none;stroke-width:0.288889;stroke-linecap:butt;stroke-linejoin:miter;stroke-miterlimit:10;stroke-dasharray:none"
       d="m 16,29.1 c -7.1682,0 -13,-5.8318 -13,-13 0,-7.1682 5.8318,-13 13,-13 2.0176,0 3.952289,0.4498 5.748889,1.3369778 0.286,0.1412667 0.403289,0.4876444 0.262022,0.7739333 -0.140978,0.286 -0.487355,0.4035778 -0.773933,0.2623111 C 19.601,4.6652 17.838778,4.2555556 16,4.2555556 9.4690889,4.2555556 4.1555556,9.5690889 4.1555556,16.1 c 0,6.530911 5.3135333,11.844445 11.8444444,11.844445 6.530911,0 11.844445,-5.313534 11.844445,-11.844445 0,-2.282222 -0.650289,-4.497711 -1.880378,-6.4066889 C 25.791022,9.4249334 25.868445,9.0672889 26.136822,8.8945334 26.4052,8.7220667 26.762556,8.7989111 26.9356,9.0672889 28.285867,11.163467 29,13.595333 29,16.1 c 0,7.1682 -5.8318,13 -13,13 z"
       stroke-linecap="round" />
    <path
       id="path12-89"
       style="fill:url(#linearGradient1143);fill-opacity:1;fill-rule:nonzero;stroke:none;stroke-width:0.593291;stroke-linecap:butt;stroke-linejoin:miter;stroke-miterlimit:10;stroke-dasharray:none"
       d="m 19.224522,14.440141 h -1.741809 v -1.741816 c 0,-0.654954 -0.531569,-1.186522 -1.186526,-1.186522 -0.654958,0 -1.186514,0.531568 -1.186514,1.186522 v 1.741816 h -1.741816 c -0.654953,0 -1.186522,0.531556 -1.186522,1.186514 0,0.654957 0.531569,1.186526 1.186522,1.186526 h 1.741816 v 1.741808 c 0,0.654959 0.531556,1.186522 1.186514,1.186522 0.654957,0 1.186526,-0.531563 1.186526,-1.186522 v -1.741808 h 1.741809 c 0.654958,0 1.186521,-0.531569 1.186521,-1.186526 0,-0.654958 -0.530968,-1.186514 -1.186521,-1.186514 z"
       stroke-linecap="round" />
  </g>
  <g
     id="system-reboot"
     transform="translate(-47)">
    <path
       style="color:#000000;overflow:visible;opacity:0;fill:none;fill-opacity:1;stroke-width:1.06667"
       id="path940"
       overflow="visible"
       d="M 16,0 C 7.1714133,0 0,7.1714133 0,16 0,24.828587 7.1714133,32 16,32 24.82752,32 32,24.828587 32,16 32,7.17248 24.828587,0 16,0 Z"
       inkscape:connector-curvature="0" />
    <path
       id="path6-6"
       style="fill:url(#linearGradient1042);fill-opacity:1;fill-rule:nonzero;stroke:none;stroke-width:0.288889;stroke-linecap:butt;stroke-linejoin:miter;stroke-miterlimit:10;stroke-dasharray:none"
       d="m 7.3477778,13.188533 c -0.0702,0 -0.1418445,-0.01271 -0.2108889,-0.04016 C 6.8399111,13.031667 6.6937333,12.696267 6.8101556,12.399289 7.8856889,9.6609111 10.102044,7.5578 12.890978,6.6290222 c 0.302178,-0.1014 0.629778,0.062978 0.7306,0.3657334 0.100822,0.3027555 -0.06298,0.6300666 -0.365734,0.7306 C 10.792778,8.5455111 8.8352667,10.403067 7.8856889,12.821644 7.7964222,13.049289 7.5786,13.188533 7.3477778,13.188533 Z"
       stroke-linecap="round" />
    <path
       id="path8-7"
       style="fill:url(#linearGradient1050);fill-opacity:1;fill-rule:nonzero;stroke:none;stroke-width:0.288889;stroke-linecap:butt;stroke-linejoin:miter;stroke-miterlimit:10;stroke-dasharray:none"
       d="m 16.017044,25.9008 c -0.318933,0 -0.577777,-0.258844 -0.577777,-0.577778 0,-0.318933 0.258844,-0.577777 0.577777,-0.577777 4.814912,0 8.732534,-3.917623 8.732534,-8.732823 0,-0.318933 0.258844,-0.577778 0.577778,-0.577778 0.318933,0 0.577777,0.258845 0.577777,0.577778 0,5.452778 -4.4356,9.888378 -9.888089,9.888378 z"
       stroke-linecap="round" />
    <path
       id="path10-5"
       style="fill:url(#linearGradient1034);fill-opacity:1;fill-rule:nonzero;stroke:none;stroke-width:0.288889;stroke-linecap:butt;stroke-linejoin:miter;stroke-miterlimit:10;stroke-dasharray:none"
       d="m 16,29.1 c -7.1682,0 -13,-5.8318 -13,-13 0,-7.1682 5.8318,-13 13,-13 2.0176,0 3.952289,0.4498 5.748889,1.3369778 0.286,0.1412667 0.403289,0.4876444 0.262022,0.7739333 -0.140978,0.286 -0.487355,0.4035778 -0.773933,0.2623111 C 19.601,4.6652 17.838778,4.2555556 16,4.2555556 9.4690889,4.2555556 4.1555556,9.5690889 4.1555556,16.1 c 0,6.530911 5.3135333,11.844445 11.8444444,11.844445 6.530911,0 11.844445,-5.313534 11.844445,-11.844445 0,-2.282222 -0.650289,-4.497711 -1.880378,-6.4066889 C 25.791022,9.4249334 25.868445,9.0672889 26.136822,8.8945334 26.4052,8.7220667 26.762556,8.7989111 26.9356,9.0672889 28.285867,11.163467 29,13.595333 29,16.1 c 0,7.1682 -5.8318,13 -13,13 z"
       stroke-linecap="round" />
  </g>
  <g
     id="22-22-system-log-out"
     transform="translate(-26,82.999996)">
    <path
       id="path16-0"
       style="fill:url(#linearGradient1118-5);fill-opacity:1;fill-rule:nonzero;stroke:none;stroke-width:0.198611;stroke-linecap:butt;stroke-linejoin:miter;stroke-miterlimit:10;stroke-dasharray:none"
       d="m 14.341918,11.164122 c 0.0036,-0.0054 0.0058,-0.01132 0.0091,-0.01669 0.01013,-0.01669 0.01986,-0.03336 0.02741,-0.05144 0.0032,-0.0075 0.0045,-0.01569 0.0073,-0.02344 0.0058,-0.01668 0.01192,-0.03297 0.01529,-0.05065 0.0052,-0.02562 0.0079,-0.05204 0.0079,-0.07845 0,-0.02641 -0.0028,-0.05283 -0.0079,-0.07845 -0.0036,-0.01748 -0.0097,-0.03396 -0.01529,-0.05065 -0.0027,-0.0077 -0.0042,-0.01589 -0.0073,-0.02344 -0.0075,-0.01807 -0.01748,-0.03495 -0.02741,-0.05144 -0.0032,-0.0054 -0.0056,-0.01152 -0.0091,-0.01669 -0.0145,-0.02165 -0.03098,-0.0419 -0.04945,-0.06018 L 12.673585,9.0437494 c -0.155115,-0.1551152 -0.406557,-0.1551152 -0.561672,0 -0.155116,0.1551158 -0.155116,0.4065572 0,0.5616724 l 0.941019,0.9410202 H 8.0636224 c -0.2192664,0 -0.3972223,0.177955 -0.3972223,0.397222 0,0.219266 0.1779559,0.397222 0.3972223,0.397222 h 4.9893096 l -0.941019,0.941019 c -0.155116,0.155115 -0.155116,0.406558 0,0.561673 0.07766,0.07766 0.179147,0.116386 0.280836,0.116386 0.101689,0 0.203179,-0.03873 0.280836,-0.116386 l 1.618879,-1.61888 c 0.01847,-0.01867 0.03495,-0.03893 0.04945,-0.06058 z"
       stroke-linecap="round" />
    <path
       style="color:#000000;overflow:visible;opacity:0;fill:none;fill-opacity:1;stroke-width:0.733336"
       id="path951-2"
       overflow="visible"
       d="m 11.037824,0.056 c -6.0689936,0 -11.00000026,4.9310066 -11.00000026,11 0,6.068994 4.93100666,11 11.00000026,11 6.068993,0 11,-4.931006 11,-11 0,-6.0689934 -4.931007,-11 -11,-11 z"
       inkscape:connector-curvature="0" />
    <path
       id="path21-9"
       style="fill:url(#linearGradient1110-3);fill-opacity:1;fill-rule:nonzero;stroke:none;stroke-width:0.198611;stroke-linecap:butt;stroke-linejoin:miter;stroke-miterlimit:10;stroke-dasharray:none"
       d="m 5.089421,9.1231164 c -0.048262,0 -0.097518,-0.00874 -0.1449861,-0.02761 C 4.7402626,9.0152711 4.6397654,8.7846836 4.7198057,8.5805112 5.4592349,6.6978764 6.982979,5.2519875 8.9003711,4.6134528 9.1081185,4.5437403 9.3333435,4.6567501 9.4026586,4.8648945 9.4719737,5.0730389 9.3593599,5.2980653 9.1512165,5.367182 7.4578586,5.9310389 6.1120696,7.2081086 5.4592349,8.8708802 5.397864,9.0273862 5.2481112,9.1231164 5.089421,9.1231164 Z"
       stroke-linecap="round" />
    <path
       id="path8-1"
       style="fill:url(#linearGradient1126-5);fill-opacity:1;fill-rule:nonzero;stroke:none;stroke-width:0.198611;stroke-linecap:butt;stroke-linejoin:miter;stroke-miterlimit:10;stroke-dasharray:none"
       d="m 11.049541,17.8628 c -0.219266,0 -0.397221,-0.177955 -0.397221,-0.397222 0,-0.219267 0.177955,-0.397222 0.397221,-0.397222 3.310252,0 6.003618,-2.693366 6.003618,-6.003816 0,-0.219266 0.177955,-0.397222 0.397222,-0.397222 0.219266,0 0.397222,0.177956 0.397222,0.397222 0,3.748785 -3.049475,6.79826 -6.798062,6.79826 z"
       stroke-linecap="round" />
    <path
       id="path10-27"
       style="fill:url(#linearGradient1067);fill-opacity:1;fill-rule:nonzero;stroke:none;stroke-width:0.198611;stroke-linecap:butt;stroke-linejoin:miter;stroke-miterlimit:10;stroke-dasharray:none"
       d="m 11.037824,20.06225 c -4.9281378,0 -8.9375003,-4.009363 -8.9375003,-8.9375 0,-4.9281375 4.0093625,-8.9375 8.9375003,-8.9375 1.3871,0 2.717198,0.3092375 3.952361,0.9191722 0.196625,0.097121 0.277261,0.3352556 0.18014,0.5320792 -0.09692,0.196625 -0.335057,0.4776234 -0.532079,0.3805026 -1.124735,-0.5555153 -2.336262,-0.837 -3.600422,-0.837 -4.4900016,0 -7.942824,3.4527446 -7.942824,7.942746 0,4.490001 3.4528224,7.943254 7.942824,7.943254 4.490001,0 7.943176,-3.453253 7.943176,-7.943254 0,-1.5690276 -0.447314,-3.0921763 -1.293,-4.4045986 -0.118969,-0.1845097 0.13438,-0.4303903 0.318889,-0.5491597 0.18451,-0.1185708 0.430192,-0.06574 0.54916,0.1187694 0.928308,1.4411225 1.419275,3.1130303 1.419275,4.8349889 0,4.928137 -4.009363,8.9375 -8.9375,8.9375 z"
       stroke-linecap="round"
       sodipodi:nodetypes="ssscccsssscccss" />
  </g>
  <g
     id="22-22-system-shutdown"
     transform="translate(-26,115)">
    <path
       style="color:#000000;overflow:visible;opacity:0;fill:none;fill-opacity:1;stroke-width:0.733336"
       id="path945-2"
       overflow="visible"
       d="m 11.014,0.092 c -6.0696534,0 -11,4.9303466 -11,11 0,6.069654 4.9303466,11 11,11 6.069654,0 11,-4.930346 11,-11 0,-6.0696534 -4.930346,-11 -11,-11 z"
       inkscape:connector-curvature="0" />
    <path
       id="path8-0-6"
       style="fill:url(#linearGradient1076-9);fill-opacity:1;fill-rule:nonzero;stroke:none;stroke-width:0.198611;stroke-linecap:butt;stroke-linejoin:miter;stroke-miterlimit:10;stroke-dasharray:none"
       d="m 11.025718,17.8988 c -0.219267,0 -0.397222,-0.177955 -0.397222,-0.397222 0,-0.219267 0.177955,-0.397222 0.397222,-0.397222 3.310252,0 6.003617,-2.693366 6.003617,-6.003816 0,-0.219266 0.177955,-0.397222 0.397222,-0.397222 0.219267,0 0.397222,0.177956 0.397222,0.397222 0,3.748785 -3.049475,6.79826 -6.798061,6.79826 z"
       stroke-linecap="round" />
    <path
       id="path10-6-1"
       style="fill:url(#linearGradient1075);fill-opacity:1;fill-rule:nonzero;stroke:none;stroke-width:0.198611;stroke-linecap:butt;stroke-linejoin:miter;stroke-miterlimit:10;stroke-dasharray:none"
       d="m 11.014,20.09825 c -4.9281375,0 -8.9375,-4.009363 -8.9375,-8.9375 0,-4.9281375 4.0093625,-8.9375 8.9375,-8.9375 1.3871,0 2.717199,0.3092375 3.952361,0.9191722 0.196625,0.097121 0.277261,0.4357542 0.18014,0.6325778 -0.09692,0.196625 -0.335056,0.3771208 -0.532079,0.28 C 13.489687,3.4994847 12.27816,3.218 11.014,3.218 c -4.4900014,0 -7.943,3.4527486 -7.943,7.94275 0,4.490001 3.4529986,7.94325 7.943,7.94325 4.490001,0 7.943,-3.453249 7.943,-7.94325 0,-1.5690276 -0.547314,-3.0923277 -1.393,-4.40475 -0.118968,-0.1845097 0.13449,-0.4302306 0.319,-0.549 0.18451,-0.1185708 0.530257,-0.065748 0.649225,0.1187611 0.928309,1.4411225 1.419275,3.1130303 1.419275,4.8349889 0,4.928137 -4.009363,8.9375 -8.9375,8.9375 z"
       stroke-linecap="round"
       sodipodi:nodetypes="ssssccsssscccss" />
    <path
       sodipodi:nodetypes="scssscssscssscssss"
       id="path12-87"
       style="fill:url(#linearGradient1068-0);fill-opacity:1;fill-rule:nonzero;stroke:none;stroke-width:0.463838;stroke-linecap:butt;stroke-linejoin:miter;stroke-miterlimit:10;stroke-dasharray:none"
       d="m 12.179959,6.7480922 -4.5e-5,6.356e-4 V 5.4022995 c 0,-0.5062863 -0.420353,-0.9171857 -0.938288,-0.9171857 -0.517936,0 -0.938289,0.4108994 -0.938289,0.9171857 v 1.3464283 l 0.0043,0.2163347 c 0.01018,0.5061885 -9.62e-4,1.1096499 -9.62e-4,1.6159366 0,0.5062867 0.513806,0.068979 6.87e-4,9.35e-5 l -6.87e-4,-9.35e-5 -0.0034,1.3485381 c -0.0012,0.5062848 0.420353,0.9171858 0.938288,0.9171858 0.517936,0 0.938289,-0.4109 0.938289,-0.9171858 V 8.5830987 l -0.0061,0.00392 c -0.429662,0.2827138 -8.25e-4,0.5104997 -8.25e-4,0.00419 0,-0.5062867 0.0061,0.5039127 0.0062,-0.00282 z"
       stroke-linecap="round" />
  </g>
  <g
     id="22-22-system-suspend-hibernate"
     transform="translate(-26,147)">
    <g
       id="g1048">
      <circle
         style="opacity:0;fill:#000000;fill-opacity:1;stroke-width:0.733336"
         id="circle949-5"
         r="11"
         cy="11.01504"
         cx="11.012327" />
      <path
         id="path48-6-6"
         style="fill:url(#linearGradient1085);fill-opacity:1;fill-rule:nonzero;stroke:none;stroke-width:0.198611;stroke-linecap:butt;stroke-linejoin:miter;stroke-miterlimit:10;stroke-dasharray:none"
         d="m 11.012328,20.021291 c -4.9281378,0 -8.9375003,-4.009363 -8.9375003,-8.9375 0,-4.9281378 4.0093625,-8.9375003 8.9375003,-8.9375003 1.3871,0 2.717198,0.3092375 3.952361,0.9191722 0.196625,0.097121 0.277261,0.4357135 0.18014,0.6325371 -0.09692,0.196625 -0.335057,0.3771209 -0.532079,0.28 C 13.488015,3.4224847 12.276488,3.141 11.012328,3.141 6.5223263,3.141 3.069,6.5937893 3.069,11.083791 c 0,4.490001 3.4533263,7.943209 7.943328,7.943209 4.490001,0 7.942672,-3.453208 7.942672,-7.943209 0,-1.569028 -0.546314,-3.0921767 -1.392,-4.404599 -0.118969,-0.1845096 0.0535,-0.4729689 0.238006,-0.5917383 0.18451,-0.1185709 0.610579,-0.023163 0.729547,0.1613481 0.928308,1.4411224 1.419275,3.1130303 1.419275,4.8349892 0,4.928137 -4.009363,8.9375 -8.9375,8.9375 z"
         stroke-linecap="round"
         sodipodi:nodetypes="ssssccsssscccss" />
      <path
         sodipodi:nodetypes="scssscssscssscssss"
         id="path12-8-7-2"
         style="fill:url(#linearGradient1094-7);fill-opacity:1;fill-rule:nonzero;stroke:none;stroke-width:0.62464;stroke-linecap:butt;stroke-linejoin:miter;stroke-miterlimit:10;stroke-dasharray:none"
         d="m 9.8270845,12.281327 5.64e-5,-8.94e-4 v 1.96479 c 0,0.738803 0.5223951,1.338414 1.1660601,1.338414 0.643665,0 1.16606,-0.599611 1.16606,-1.338414 v -1.96479 l -0.0054,-0.315688 c -0.01266,-0.73866 0.0012,-1.619269 0.0012,-2.3580728 0,-0.7388034 -0.638534,-0.1006597 -8.25e-4,-1.362e-4 l 8.25e-4,1.362e-4 0.0043,-1.9678677 c 0.0016,-0.7388013 -0.522395,-1.3384138 -1.16606,-1.3384138 -0.643665,0 -1.1660601,0.5996077 -1.1660601,1.3384138 V 9.603608 l 0.00748,-0.00577 c 0.5339631,-0.4125523 9.625e-4,-0.7449517 9.625e-4,-0.00619 0,0.738803 -0.00751,-0.735339 -0.00773,0.00413 z"
         stroke-linecap="round" />
    </g>
  </g>
  <g
     id="22-22-system-suspend"
     transform="translate(-26.391,179.053)">
    <path
       d="m 12.341728,12.071652 -8.94e-4,-5.8e-5 h 1.964789 c 0.738804,0 1.338414,-0.52788 1.338414,-1.178304 0,-0.650423 -0.59961,-1.1783031 -1.338414,-1.1783031 h -1.964789 l -0.315688,0.0055 c -0.738661,0.012788 -1.61927,-0.00117 -2.3580731,-0.00117 -0.738804,0 -0.1006603,0.6452391 -1.368e-4,8.938e-4 l 1.368e-4,-8.938e-4 -1.9678677,-0.00433 C 6.960404,9.7134056 6.360791,10.242867 6.360791,10.89329 c 0,0.650424 0.5996075,1.178304 1.3384143,1.178304 h 1.9648035 l -0.00577,-0.0076 c -0.4125523,-0.53957 -0.7449517,-9.62e-4 -0.00619,-9.62e-4 0.7388032,0 -0.7353397,0.0076 0.00413,0.0078 z"
       style="fill:url(#linearGradient1026-7);fill-opacity:1;fill-rule:nonzero;stroke:none;stroke-width:0.627911;stroke-linecap:butt;stroke-linejoin:miter;stroke-miterlimit:10;stroke-dasharray:none"
       id="path12-8-9"
       sodipodi:nodetypes="scssscssscssscssss"
       stroke-linecap="round" />
    <path
       id="path938-5"
       overflow="visible"
       d="M 11,0 C 4.9310066,0 0,4.9310066 0,11 0,17.068994 4.9310066,22 11,22 17.068994,22 22,17.068994 22,11 22,4.9310066 17.068994,0 11,0 Z"
       inkscape:connector-curvature="0"
       style="color:#000000;overflow:visible;opacity:0;fill:none;fill-opacity:1;stroke-width:0.733336" />
    <path
       d="m 11,20.00625 c -4.9281375,0 -8.9375,-4.009362 -8.9375,-8.9375 0,-4.9281375 4.0093625,-8.9375 8.9375,-8.9375 1.3871,0 2.717199,0.3092375 3.952361,0.9191722 0.196625,0.097121 0.277261,0.4357542 0.18014,0.6325778 -0.09692,0.196625 -0.335056,0.3771208 -0.532079,0.28 C 13.475687,3.4074847 12.26416,3.126 11,3.126 c -4.4900014,0 -7.943,3.4527486 -7.943,7.94275 0,4.490001 3.4529986,7.94325 7.943,7.94325 4.490001,0 7.943,-3.453249 7.943,-7.94325 0,-1.5690276 -0.547314,-3.0921763 -1.393,-4.4045986 -0.04523,-0.1345331 -0.01853,-0.4479656 0.260416,-0.6330292 0.18451,-0.1185708 0.630257,0.034252 0.749225,0.2187611 0.928309,1.4411225 1.377859,3.0969081 1.377859,4.8188667 0,4.928138 -4.009363,8.9375 -8.9375,8.9375 z"
       style="fill:url(#linearGradient1095);fill-opacity:1;fill-rule:nonzero;stroke:none;stroke-width:0.198611;stroke-linecap:butt;stroke-linejoin:miter;stroke-miterlimit:10;stroke-dasharray:none"
       id="path48-62"
       stroke-linecap="round"
       sodipodi:nodetypes="ssssccsssscccss" />
  </g>
  <g
     id="22-22-system-lock-screen"
     transform="translate(28.068,179.02185)">
    <path
       id="path12-89-0"
       style="fill:url(#linearGradient1143-5);fill-opacity:1;fill-rule:nonzero;stroke:none;stroke-width:0.407888;stroke-linecap:butt;stroke-linejoin:miter;stroke-miterlimit:10;stroke-dasharray:none"
       d="M 13.216859,9.9275969 H 12.019365 V 8.7300984 c 0,-0.4502808 -0.365453,-0.8157338 -0.815736,-0.8157338 -0.450284,0 -0.815729,0.365453 -0.815729,0.8157338 V 9.9275969 H 9.1904017 c -0.4502802,0 -0.8157339,0.3654451 -0.8157339,0.8157281 0,0.450283 0.3654537,0.815737 0.8157339,0.815737 H 10.3879 v 1.197493 c 0,0.450284 0.365445,0.815734 0.815729,0.815734 0.450283,0 0.815736,-0.36545 0.815736,-0.815734 v -1.197493 h 1.197494 c 0.450284,0 0.815733,-0.365454 0.815733,-0.815737 0,-0.450283 -0.36504,-0.8157281 -0.815733,-0.8157281 z"
       stroke-linecap="round" />
    <path
       style="color:#000000;overflow:visible;opacity:0;fill:none;fill-opacity:1;stroke-width:0.733336"
       id="path953-9"
       overflow="visible"
       d="M 11,0 C 4.9310066,0 0,4.9310066 0,11 0,17.068994 4.9310066,22 11,22 17.068994,22 22,17.068994 22,11 22,4.9310066 17.068994,0 11,0 Z"
       inkscape:connector-curvature="0" />
    <path
       id="path6-5-1"
       style="fill:url(#linearGradient1151-3);fill-opacity:1;fill-rule:nonzero;stroke:none;stroke-width:0.198611;stroke-linecap:butt;stroke-linejoin:miter;stroke-miterlimit:10;stroke-dasharray:none"
       d="m 5.0515972,9.0671164 c -0.048262,0 -0.097518,-0.00874 -0.1449861,-0.02761 C 4.7024389,8.9592711 4.6019416,8.7286836 4.681982,8.5245112 5.4214111,6.6418764 6.9451552,5.1959875 8.8625474,4.5574528 9.0702948,4.4877403 9.2955198,4.6007501 9.3648349,4.8088945 9.43415,5.0170389 9.3215361,5.2420653 9.1133928,5.311182 7.4200349,5.8750389 6.0742459,7.1521086 5.4214111,8.8148803 5.3600403,8.9713862 5.2102875,9.0671164 5.0515972,9.0671164 Z"
       stroke-linecap="round" />
    <path
       id="path8-92-2"
       style="fill:url(#linearGradient1159-5);fill-opacity:1;fill-rule:nonzero;stroke:none;stroke-width:0.198611;stroke-linecap:butt;stroke-linejoin:miter;stroke-miterlimit:10;stroke-dasharray:none"
       d="m 11.011718,17.8068 c -0.219267,0 -0.397222,-0.177955 -0.397222,-0.397222 0,-0.219267 0.177955,-0.397222 0.397222,-0.397222 3.310252,0 6.003617,-2.693366 6.003617,-6.003816 0,-0.219266 0.177955,-0.397222 0.397222,-0.397222 0.219267,0 0.397222,0.177956 0.397222,0.397222 0,3.748785 -3.049475,6.79826 -6.798061,6.79826 z"
       stroke-linecap="round" />
    <path
       id="path10-2-7"
       style="fill:url(#linearGradient1103);fill-opacity:1;fill-rule:nonzero;stroke:none;stroke-width:0.198611;stroke-linecap:butt;stroke-linejoin:miter;stroke-miterlimit:10;stroke-dasharray:none"
       d="m 11,20.00625 c -4.9281375,0 -8.9375,-4.009362 -8.9375,-8.9375 0,-4.9281375 4.0093625,-8.9375 8.9375,-8.9375 1.3871,0 2.717199,0.3092375 3.952361,0.9191722 0.196625,0.097121 0.277261,0.4349042 0.18014,0.6317278 -0.09692,0.196625 -0.335056,0.3781208 -0.532079,0.281 C 13.475687,3.4076347 12.26416,3.12615 11,3.12615 c -4.4900014,0 -7.943,3.4525986 -7.943,7.9426 0,4.490001 3.4529986,7.9434 7.943,7.9434 4.490001,0 7.943,-3.453399 7.943,-7.9434 0,-1.5690276 -0.547314,-3.0921763 -1.393,-4.4045986 -0.118968,-0.1845097 0.05864,-0.4829949 0.243147,-0.6017643 0.18451,-0.1185708 0.60611,-0.013135 0.725078,0.171374 0.928309,1.4411225 1.419275,3.1130303 1.419275,4.8349889 0,4.928138 -4.009363,8.9375 -8.9375,8.9375 z"
       stroke-linecap="round"
       sodipodi:nodetypes="ssssccsssscccss" />
  </g>
  <g
     id="22-22-system-reboot"
     transform="translate(28.046,147.02497)">
    <g
       id="g1118">
      <path
         id="path10-5-9"
         style="fill:url(#linearGradient1111);fill-opacity:1;fill-rule:nonzero;stroke:none;stroke-width:0.198611;stroke-linecap:butt;stroke-linejoin:miter;stroke-miterlimit:10;stroke-dasharray:none"
         d="m 11,20.00625 c -4.9281375,0 -8.9375,-4.009362 -8.9375,-8.9375 0,-4.9281375 4.0093625,-8.9375 8.9375,-8.9375 1.3871,0 2.717199,0.3092375 3.952361,0.9191722 0.196625,0.097121 0.277261,0.4347842 0.18014,0.6316078 -0.09692,0.196625 -0.335056,0.3781208 -0.532079,0.281 C 13.475687,3.4075147 12.26416,3.12603 11,3.12603 c -4.4900014,0 -7.943,3.2524706 -7.943,7.742472 0,4.490001 3.4529986,8.143056 7.943,8.143056 4.490001,0 7.943,-3.452807 7.943,-7.942808 0,-1.5690276 -0.547314,-3.0921763 -1.393,-4.4045986 -0.118968,-0.1845097 0.08348,-0.449603 0.267992,-0.5683724 0.18451,-0.1185708 0.581265,-0.046527 0.700233,0.1379821 0.928309,1.4411225 1.419275,3.1130303 1.419275,4.8349889 0,4.928138 -4.009363,8.9375 -8.9375,8.9375 z"
         stroke-linecap="round"
         sodipodi:nodetypes="ssssccsssscccss" />
      <path
         style="color:#000000;overflow:visible;opacity:0;fill:none;fill-opacity:1;stroke-width:0.733336"
         id="path940-5"
         overflow="visible"
         d="M 11,0 C 4.9303466,0 0,4.9303466 0,11 0,17.069654 4.9303466,22 11,22 17.06892,22 22,17.069654 22,11 22,4.93108 17.069654,0 11,0 Z"
         inkscape:connector-curvature="0" />
      <path
         id="path6-6-6"
         style="fill:url(#linearGradient1042-3);fill-opacity:1;fill-rule:nonzero;stroke:none;stroke-width:0.198611;stroke-linecap:butt;stroke-linejoin:miter;stroke-miterlimit:10;stroke-dasharray:none"
         d="m 5.0515972,9.0671164 c -0.048262,0 -0.097518,-0.00874 -0.1449861,-0.02761 C 4.7024389,8.9592711 4.6019416,8.7286836 4.681982,8.5245112 5.4214111,6.6418764 6.9451552,5.1959875 8.8625474,4.5574528 9.0702948,4.4877403 9.2955198,4.6007501 9.3648349,4.8088945 9.43415,5.0170389 9.3215361,5.2420653 9.1133928,5.311182 7.4200349,5.8750389 6.0742459,7.1521086 5.4214111,8.8148803 5.3600403,8.9713862 5.2102875,9.0671164 5.0515972,9.0671164 Z"
         stroke-linecap="round" />
      <path
         id="path8-7-2"
         style="fill:url(#linearGradient1050-5);fill-opacity:1;fill-rule:nonzero;stroke:none;stroke-width:0.198611;stroke-linecap:butt;stroke-linejoin:miter;stroke-miterlimit:10;stroke-dasharray:none"
         d="m 11.011718,17.8068 c -0.219267,0 -0.397222,-0.177955 -0.397222,-0.397222 0,-0.219267 0.177955,-0.397222 0.397222,-0.397222 3.310252,0 6.003617,-2.693366 6.003617,-6.003816 0,-0.219266 0.177955,-0.397222 0.397222,-0.397222 0.219267,0 0.397222,0.177956 0.397222,0.397222 0,3.748785 -3.049475,6.79826 -6.798061,6.79826 z"
         stroke-linecap="round" />
    </g>
  </g>
  <g
     id="22-22-system-switch-user"
     transform="translate(28,82.999996)">
    <g
       id="g1156">
      <path
         id="path16-2-3"
         style="fill:url(#linearGradient1175-6);fill-opacity:1;fill-rule:nonzero;stroke:none;stroke-width:0.198611;stroke-linecap:butt;stroke-linejoin:miter;stroke-miterlimit:10;stroke-dasharray:none"
         d="m 14.304095,9.3954211 c 0.0036,-0.00536 0.0058,-0.011323 0.0091,-0.016686 0.01013,-0.016686 0.01986,-0.033364 0.02741,-0.051439 0.0032,-0.00755 0.0045,-0.015689 0.0073,-0.023437 0.0058,-0.016686 0.01191,-0.032972 0.01529,-0.050648 0.0052,-0.025623 0.0079,-0.052037 0.0079,-0.078451 0,-0.026414 -0.0027,-0.052828 -0.0079,-0.078451 -0.0036,-0.017476 -0.0097,-0.033962 -0.01529,-0.050648 -0.0027,-0.00775 -0.0042,-0.015888 -0.0073,-0.023437 -0.0075,-0.018074 -0.01748,-0.034953 -0.02741,-0.051439 -0.0032,-0.00536 -0.0056,-0.011516 -0.0091,-0.016686 -0.0145,-0.021649 -0.03099,-0.04191 -0.04945,-0.060177 L 12.635764,7.2750439 c -0.155115,-0.1551151 -0.406557,-0.1551151 -0.561672,0 -0.155116,0.1551151 -0.155116,0.4065565 0,0.5616723 l 0.941019,0.9410191 H 8.0258014 c -0.2192664,0 -0.3972223,0.177956 -0.3972223,0.3972224 0,0.2192664 0.1779559,0.3972224 0.3972223,0.3972224 h 4.9893096 l -0.941019,0.9410189 c -0.155116,0.155116 -0.155116,0.406557 0,0.561673 0.07766,0.07766 0.179147,0.116386 0.280836,0.116386 0.101689,0 0.203179,-0.03873 0.280836,-0.116386 l 1.618879,-1.6188794 c 0.01847,-0.018672 0.03495,-0.038926 0.04945,-0.060576 z"
         stroke-linecap="round" />
      <circle
         style="opacity:0;fill:none;fill-opacity:1;stroke-width:0.733336"
         id="circle955-1"
         r="11"
         cy="-11"
         cx="11"
         transform="scale(1,-1)" />
      <path
         id="path6-62-2"
         style="fill:url(#linearGradient1183-3);fill-opacity:1;fill-rule:nonzero;stroke:none;stroke-width:0.198611;stroke-linecap:butt;stroke-linejoin:miter;stroke-miterlimit:10;stroke-dasharray:none"
         d="m 5.0515972,9.0671164 c -0.048262,0 -0.097518,-0.00874 -0.1449861,-0.02761 C 4.7024389,8.9592711 4.6019416,8.7286836 4.681982,8.5245112 5.4214111,6.6418764 6.9451552,5.1959875 8.8625474,4.5574528 9.0702948,4.4877403 9.2955198,4.6007501 9.3648349,4.8088945 9.43415,5.0170389 9.3215361,5.2420653 9.1133928,5.311182 7.4200349,5.8750389 6.0742459,7.1521086 5.4214111,8.8148803 5.3600403,8.9713862 5.2102875,9.0671164 5.0515972,9.0671164 Z"
         stroke-linecap="round" />
      <path
         id="path8-9-7"
         style="fill:url(#linearGradient1199-5);fill-opacity:1;fill-rule:nonzero;stroke:none;stroke-width:0.198611;stroke-linecap:butt;stroke-linejoin:miter;stroke-miterlimit:10;stroke-dasharray:none"
         d="m 11.011718,17.8068 c -0.219267,0 -0.397222,-0.177955 -0.397222,-0.397222 0,-0.219267 0.177955,-0.397222 0.397222,-0.397222 3.310252,0 6.003617,-2.693366 6.003617,-6.003816 0,-0.219266 0.177955,-0.397222 0.397222,-0.397222 0.219267,0 0.397222,0.177956 0.397222,0.397222 0,3.748785 -3.049475,6.79826 -6.798061,6.79826 z"
         stroke-linecap="round" />
      <path
         id="path10-1-0"
         style="fill:url(#linearGradient1119);fill-opacity:1;fill-rule:nonzero;stroke:none;stroke-width:0.198611;stroke-linecap:butt;stroke-linejoin:miter;stroke-miterlimit:10;stroke-dasharray:none"
         d="m 11,20.00625 c -4.9281375,0 -8.9375,-4.009362 -8.9375,-8.9375 0,-4.9281375 4.0093625,-8.9375 8.9375,-8.9375 1.3871,0 2.717199,0.3092375 3.952361,0.9191722 0.196625,0.097121 0.277261,0.4347582 0.18014,0.6315818 -0.09692,0.196625 -0.335478,0.3781208 -0.532501,0.281 -1.124735,-0.5555153 -2.33584,-0.837 -3.6,-0.837 -4.4900014,0 -7.943,3.4527446 -7.943,7.942746 0,4.490001 3.4529986,7.943254 7.943,7.943254 4.490001,0 7.943,-3.452999 7.943,-7.943 0,-1.5690276 -0.547314,-3.0924303 -1.393,-4.4048526 -0.118968,-0.1845097 0.100143,-0.4700087 0.284652,-0.5887781 0.18451,-0.1185708 0.564605,-0.026121 0.683573,0.1583878 0.928309,1.4411225 1.419275,3.1130303 1.419275,4.8349889 0,4.928138 -4.009363,8.9375 -8.9375,8.9375 z"
         stroke-linecap="round"
         sodipodi:nodetypes="ssscccsssscccss" />
      <path
         id="path14-9"
         style="fill:url(#linearGradient1191-3);fill-opacity:1;fill-rule:nonzero;stroke:none;stroke-width:0.198611;stroke-linecap:butt;stroke-linejoin:miter;stroke-miterlimit:10;stroke-dasharray:none"
         d="M 13.974201,12.352343 H 8.9848914 l 0.9410198,-0.941019 c 0.1551148,-0.155115 0.1551148,-0.406558 0,-0.561673 -0.1549164,-0.155115 -0.4067559,-0.155115 -0.5616724,0 l -1.6188789,1.61888 c -0.018673,0.01847 -0.035152,0.03893 -0.049851,0.06097 -0.00633,0.0093 -0.010526,0.01966 -0.016088,0.0294 -0.00715,0.01291 -0.014898,0.02522 -0.02046,0.03893 -0.00536,0.01291 -0.00834,0.02641 -0.012313,0.03972 -0.00337,0.01152 -0.00775,0.02244 -0.010127,0.03436 -0.010127,0.05124 -0.010127,0.10427 0,0.155513 0.00241,0.01191 0.00674,0.02284 0.010127,0.03436 0.00399,0.01331 0.00695,0.02681 0.012313,0.03972 0.00557,0.0137 0.01331,0.02602 0.02046,0.03893 0.00536,0.0097 0.00974,0.02006 0.016088,0.0294 0.014699,0.02185 0.031185,0.0423 0.049851,0.06098 l 1.6188789,1.618879 c 0.077459,0.07766 0.1791474,0.116386 0.2808362,0.116386 0.1016888,0 0.2033776,-0.03873 0.2808362,-0.116386 0.1551148,-0.155116 0.1551148,-0.406557 0,-0.561672 l -0.9410198,-0.94102 h 4.9893096 c 0.219267,0 0.397223,-0.177955 0.397223,-0.397222 0,-0.219267 -0.177956,-0.397421 -0.397223,-0.397421 z"
         stroke-linecap="round" />
    </g>
  </g>
</svg>
