<?xml version="1.0" encoding="UTF-8" standalone="no"?>
<svg
   xmlns:dc="http://purl.org/dc/elements/1.1/"
   xmlns:cc="http://creativecommons.org/ns#"
   xmlns:rdf="http://www.w3.org/1999/02/22-rdf-syntax-ns#"
   xmlns:svg="http://www.w3.org/2000/svg"
   xmlns="http://www.w3.org/2000/svg"
   xmlns:sodipodi="http://sodipodi.sourceforge.net/DTD/sodipodi-0.dtd"
   xmlns:inkscape="http://www.inkscape.org/namespaces/inkscape"
   id="svg7384"
   style="enable-background:new"
   height="22"
   width="22"
   version="1.1"
   inkscape:version="1.0.1 (3bc2e813f5, 2020-09-07)"
   sodipodi:docname="vlc.svg">
  <sodipodi:namedview
     pagecolor="#ffffff"
     bordercolor="#000000"
     borderopacity="1"
     objecttolerance="10"
     gridtolerance="10"
     guidetolerance="10"
     inkscape:pageopacity="0"
     inkscape:pageshadow="2"
     inkscape:window-width="1920"
     inkscape:window-height="1019"
     id="namedview14"
     showgrid="false"
     inkscape:zoom="26.474078"
     inkscape:cx="14.451796"
     inkscape:cy="11.479879"
     inkscape:window-x="0"
     inkscape:window-y="0"
     inkscape:window-maximized="1"
     inkscape:current-layer="svg7384"
     inkscape:document-rotation="0">
    <inkscape:grid
       type="xygrid"
       id="grid835" />
  </sodipodi:namedview>
  <metadata
     id="metadata90">
    <rdf:RDF>
      <cc:Work
         rdf:about="">
        <dc:format>image/svg+xml</dc:format>
        <dc:type
           rdf:resource="http://purl.org/dc/dcmitype/StillImage" />
        <dc:title />
      </cc:Work>
    </rdf:RDF>
  </metadata>
  <title
     id="title8473" />
  <defs
     id="defs7386" />
  <g
     id="vlc"
     inkscape:label="#g4158"
     transform="matrix(0.99998129,0,0,1,5.6117971e-5,0.50020494)">
    <g
       transform="matrix(2.2899527,0,0,2.2060571,-4.5002687,-627.98229)"
       style="fill:#ececec;fill-opacity:1"
       id="g4140">
      <g
         transform="matrix(0.66941738,0,0,0.66941738,-7.8335199,95.420254)"
         id="g4142">
        <path
           inkscape:connector-curvature="0"
           d="m 18,293.03 -0.094,0.14599 c 0,0 -0.415,0.61037 -1.031,1.43197 l -0.281,0.38828 h 0.563 9.313 0.563 L 26.752,294.60796 25.814,293.17599 25.72,293.03 h -0.188 -7.344 z m 7.298,0.5265 z"
           style="color:#000000;display:inline;visibility:visible;fill:#7171a8;fill-opacity:1;fill-rule:nonzero;stroke:none;stroke-width:0.881223"
           id="path4144"
           sodipodi:nodetypes="cccccccccccccccccc" />
        <path
           inkscape:connector-curvature="0"
           d="m 21.792,284.66228 c -0.172,10e-4 -0.336,0.114 -0.679,0.337 l -0.72,2.789 2.845,-0.002 -0.72,-2.787 c -0.376,-0.226 -0.555,-0.338 -0.726,-0.337 z m -1.724,4.381 -0.268,1.036 2.010562,1.00058 2.019438,-1.00058 -0.266,-1.033 -1.767054,-0.86759 z m 4.093,2.313 -4.689,-0.003 -0.417914,1.62117 c 1.957567,0.0168 1.952458,0.0216 2.800148,-0.004 0.845452,5.7e-4 2.641719,0.0116 2.641719,0.0116 z"
           id="path4146"
           sodipodi:nodetypes="ccccccccccccccccccc"
           style="fill:#d3dae3;fill-opacity:1" />
      </g>
    </g>
  </g>
</svg>
