<?xml version="1.0" encoding="UTF-8" standalone="no"?>
<svg
   xmlns:dc="http://purl.org/dc/elements/1.1/"
   xmlns:cc="http://creativecommons.org/ns#"
   xmlns:rdf="http://www.w3.org/1999/02/22-rdf-syntax-ns#"
   xmlns:svg="http://www.w3.org/2000/svg"
   xmlns="http://www.w3.org/2000/svg"
   xmlns:xlink="http://www.w3.org/1999/xlink"
   xmlns:sodipodi="http://sodipodi.sourceforge.net/DTD/sodipodi-0.dtd"
   xmlns:inkscape="http://www.inkscape.org/namespaces/inkscape"
   width="32"
   version="1.1"
   height="32"
   viewBox="0 0 32 32"
   id="svg15"
   sodipodi:docname="folder-openSUSE.svg"
   inkscape:version="1.0.1 (3bc2e813f5, 2020-09-07)">
  <sodipodi:namedview
     pagecolor="#ffffff"
     bordercolor="#666666"
     borderopacity="1"
     objecttolerance="10"
     gridtolerance="10"
     guidetolerance="10"
     inkscape:pageopacity="0"
     inkscape:pageshadow="2"
     inkscape:window-width="1920"
     inkscape:window-height="1007"
     id="namedview17"
     showgrid="false"
     inkscape:zoom="9.8125"
     inkscape:cx="-9.5980005"
     inkscape:cy="2.9308582"
     inkscape:window-x="0"
     inkscape:window-y="0"
     inkscape:window-maximized="1"
     inkscape:current-layer="layer1"
     inkscape:document-rotation="0" />
  <defs
     id="defs5455">
    <linearGradient
       inkscape:collect="always"
       xlink:href="#linearGradient863"
       id="linearGradient865"
       x1="9917.7139"
       y1="2772.7378"
       x2="111.33134"
       y2="2824.3943"
       gradientUnits="userSpaceOnUse" />
    <linearGradient
       inkscape:collect="always"
       id="linearGradient863">
      <stop
         style="stop-color:#99a7bc;stop-opacity:1"
         offset="0"
         id="stop859" />
      <stop
         style="stop-color:#7171a8;stop-opacity:1"
         offset="1"
         id="stop861" />
    </linearGradient>
    <linearGradient
       inkscape:collect="always"
       xlink:href="#linearGradient863"
       id="linearGradient873"
       x1="9896.2002"
       y1="1023.4"
       x2="167.05577"
       y2="-3824.2473"
       gradientUnits="userSpaceOnUse" />
  </defs>
  <metadata
     id="metadata5458">
    <rdf:RDF>
      <cc:Work
         rdf:about="">
        <dc:format>image/svg+xml</dc:format>
        <dc:type
           rdf:resource="http://purl.org/dc/dcmitype/StillImage" />
      </cc:Work>
    </rdf:RDF>
  </metadata>
  <g
     inkscape:label="Capa 1"
     inkscape:groupmode="layer"
     id="layer1"
     transform="translate(-384.57143,-515.798)">
    <g
       id="g10"
       transform="matrix(0.0327044,0,0,0.0327044,384.27739,515.70089)">
      <g
         transform="matrix(0.1,0,0,-0.1,0,511)"
         id="g8">
        <path
           d="M 526.7,4048.6 C 388.9,4002.7 283.7,3924.2 214.8,3820.9 98.1,3644.8 100,3662.1 100,2282.6 v -1259 h 1836.8 1836.8 l 612.3,306.1 612.3,306.1 h 2451 2451 l -7.7,378.8 c -5.7,359.7 -7.6,380.8 -55.5,484.1 -63.2,135.8 -166.5,239.2 -302.3,302.3 l -107.1,49.7 -2219.4,5.7 -2219.4,3.8 -612.3,612.3 -612.5,612.4 H 2195.1 C 735.2,4083 618.5,4081.1 526.7,4048.6 Z"
           id="path4"
           style="fill:url(#linearGradient865);fill-opacity:1" />
        <path
           d="M 4385.8,717.5 3783.1,413.3 H 1940.6 l -1840.6,-2 3.8,-1880.8 5.7,-1878.9 61.2,-126.3 c 74.6,-151.2 195.2,-267.9 346.3,-338.7 l 109.1,-51.7 H 4998 9370 l 126.3,61.2 c 151.2,74.6 267.9,195.2 338.7,346.3 l 51.7,109.1 5.7,2186.9 3.8,2185 -2452.9,-1.9 H 4988.5 Z"
           id="path6"
           style="fill:url(#linearGradient873);fill-opacity:1" />
      </g>
    </g>
    <path
       style="color:#4d4d4d;font-size:20.4884px;font-family:TrebuchetMS-Bold;fill:#1c1c31;fill-opacity:1;fill-rule:evenodd;stroke:none;stroke-width:0.057268;stroke-miterlimit:4"
       d="m 410.87143,535.255 c -2.209,0 -4,1.7908 -4,4 0,2.2092 1.791,4 4,4 2.209,0 4,-1.7908 4,-4 0,-2.2092 -1.791,-4 -4,-4 z m 0.0195,0.554 c 1.9033,0 3.44748,1.54292 3.44748,3.446 0,1.90332 -1.54442,3.446 -3.44748,3.446 -1.02774,0 -1.94996,-0.4504 -2.58126,-1.16391 0.25961,-0.20141 0.69384,-0.15225 1.22874,-0.0913 0.25628,0.0289 0.54853,0.0626 0.85012,0.0689 0.84254,0.009 1.74908,-0.14893 2.30859,-0.39335 0.36181,-0.15867 0.59336,-0.2631 0.73815,-0.39488 0.0521,-0.0431 0.0796,-0.11435 0.10757,-0.18857 l 0.0195,-0.0505 c 0.023,-0.0598 0.0571,-0.18894 0.0722,-0.2593 0.009,-0.0308 0.0105,-0.0639 -0.0122,-0.0811 l -0.0779,0.0148 c -0.24551,0.14722 -0.85887,0.4276 -1.43352,0.43902 -0.71206,0.0146 -2.1472,-0.71683 -2.29687,-0.79414 l -0.0148,-0.0178 c -0.0361,-0.0854 -0.25069,-0.59552 -0.29614,-0.70275 1.03302,0.68023 1.88945,1.05675 2.54588,1.11526 0.72975,0.0651 1.29905,-0.3336 1.54251,-0.50387 0.0472,-0.0328 0.0841,-0.0579 0.0987,-0.0631 l 0.0164,-0.0269 c -0.0407,-0.25649 -0.42328,-1.49779 -0.71163,-1.79591 -0.0799,-0.082 -0.14345,-0.16137 -0.27255,-0.2372 -1.04362,-0.60827 -3.52152,-0.9746 -3.63755,-0.99155 l -0.0195,0.009 -0.009,0.0164 c 0,0 -0.01,0.51454 -0.0106,0.57169 -0.0848,-0.0282 -0.34868,-0.11446 -0.72633,-0.21809 0.49274,-0.60969 1.24787,-1.15059 2.56941,-1.15059 z m 0.91048,1.82393 c 0.0176,-2.5e-4 0.0355,-5.4e-4 0.0528,0 0.58458,0.0207 1.0439,0.51339 1.02392,1.0976 -0.0107,0.28254 -0.12954,0.54376 -0.3359,0.73664 -0.20706,0.19386 -0.476,0.29494 -0.76025,0.28583 -0.58367,-0.0216 -1.04295,-0.51426 -1.02392,-1.0976 0.0103,-0.2831 0.12977,-0.54587 0.33733,-0.73817 0.19389,-0.18183 0.442,-0.28033 0.70573,-0.2843 z m -0.0281,0.31229 c -0.17029,0.0106 -0.33098,0.0794 -0.45672,0.19738 -0.14336,0.13462 -0.22795,0.3168 -0.2343,0.51426 -0.0131,0.40784 0.30565,0.75104 0.71308,0.76605 0.19803,0.009 0.38584,-0.063 0.53039,-0.19738 0.14416,-0.13519 0.22813,-0.31905 0.23423,-0.51569 0.0134,-0.40835 -0.30692,-0.75037 -0.71452,-0.76462 -0.025,-0.002 -0.0477,-0.003 -0.0723,0 z m 0.19448,0.36986 c 0.18102,0 0.32706,0.0984 0.32706,0.21952 0,0.1205 -0.14604,0.21948 -0.32706,0.21948 -0.18169,0 -0.32861,-0.0992 -0.32861,-0.21948 0,-0.12113 0.14692,-0.21952 0.32861,-0.21952 z"
       id="path2445"
       class="ColorScheme-Text"
       inkscape:connector-curvature="0" />
  </g>
</svg>
