<?xml version="1.0" encoding="UTF-8" standalone="no"?>
<svg
   xmlns:dc="http://purl.org/dc/elements/1.1/"
   xmlns:cc="http://creativecommons.org/ns#"
   xmlns:rdf="http://www.w3.org/1999/02/22-rdf-syntax-ns#"
   xmlns:svg="http://www.w3.org/2000/svg"
   xmlns="http://www.w3.org/2000/svg"
   xmlns:xlink="http://www.w3.org/1999/xlink"
   xmlns:sodipodi="http://sodipodi.sourceforge.net/DTD/sodipodi-0.dtd"
   xmlns:inkscape="http://www.inkscape.org/namespaces/inkscape"
   width="32"
   version="1.1"
   height="32"
   viewBox="0 0 32 32"
   id="svg15"
   sodipodi:docname="folder-Pop_OS.svg"
   inkscape:version="1.0.1 (3bc2e813f5, 2020-09-07)">
  <sodipodi:namedview
     pagecolor="#ffffff"
     bordercolor="#666666"
     borderopacity="1"
     objecttolerance="10"
     gridtolerance="10"
     guidetolerance="10"
     inkscape:pageopacity="0"
     inkscape:pageshadow="2"
     inkscape:window-width="1920"
     inkscape:window-height="1007"
     id="namedview17"
     showgrid="false"
     inkscape:zoom="9.8125"
     inkscape:cx="-9.5980005"
     inkscape:cy="2.9308582"
     inkscape:window-x="0"
     inkscape:window-y="0"
     inkscape:window-maximized="1"
     inkscape:current-layer="layer1"
     inkscape:document-rotation="0" />
  <defs
     id="defs5455">
    <linearGradient
       inkscape:collect="always"
       xlink:href="#linearGradient863"
       id="linearGradient865"
       x1="9917.7139"
       y1="2772.7378"
       x2="111.33134"
       y2="2824.3943"
       gradientUnits="userSpaceOnUse" />
    <linearGradient
       inkscape:collect="always"
       id="linearGradient863">
      <stop
         style="stop-color:#99a7bc;stop-opacity:1"
         offset="0"
         id="stop859" />
      <stop
         style="stop-color:#7171a8;stop-opacity:1"
         offset="1"
         id="stop861" />
    </linearGradient>
    <linearGradient
       inkscape:collect="always"
       xlink:href="#linearGradient863"
       id="linearGradient873"
       x1="9896.2002"
       y1="1023.4"
       x2="167.05577"
       y2="-3824.2473"
       gradientUnits="userSpaceOnUse" />
  </defs>
  <metadata
     id="metadata5458">
    <rdf:RDF>
      <cc:Work
         rdf:about="">
        <dc:format>image/svg+xml</dc:format>
        <dc:type
           rdf:resource="http://purl.org/dc/dcmitype/StillImage" />
      </cc:Work>
    </rdf:RDF>
  </metadata>
  <g
     inkscape:label="Capa 1"
     inkscape:groupmode="layer"
     id="layer1"
     transform="translate(-384.57143,-515.798)">
    <g
       id="g10"
       transform="matrix(0.0327044,0,0,0.0327044,384.27739,515.70089)">
      <g
         transform="matrix(0.1,0,0,-0.1,0,511)"
         id="g8">
        <path
           d="M 526.7,4048.6 C 388.9,4002.7 283.7,3924.2 214.8,3820.9 98.1,3644.8 100,3662.1 100,2282.6 v -1259 h 1836.8 1836.8 l 612.3,306.1 612.3,306.1 h 2451 2451 l -7.7,378.8 c -5.7,359.7 -7.6,380.8 -55.5,484.1 -63.2,135.8 -166.5,239.2 -302.3,302.3 l -107.1,49.7 -2219.4,5.7 -2219.4,3.8 -612.3,612.3 -612.5,612.4 H 2195.1 C 735.2,4083 618.5,4081.1 526.7,4048.6 Z"
           id="path4"
           style="fill:url(#linearGradient865);fill-opacity:1" />
        <path
           d="M 4385.8,717.5 3783.1,413.3 H 1940.6 l -1840.6,-2 3.8,-1880.8 5.7,-1878.9 61.2,-126.3 c 74.6,-151.2 195.2,-267.9 346.3,-338.7 l 109.1,-51.7 H 4998 9370 l 126.3,61.2 c 151.2,74.6 267.9,195.2 338.7,346.3 l 51.7,109.1 5.7,2186.9 3.8,2185 -2452.9,-1.9 H 4988.5 Z"
           id="path6"
           style="fill:url(#linearGradient873);fill-opacity:1" />
      </g>
    </g>
    <path
       style="fill:#1c1c31;fill-opacity:1;stroke-width:0.0112957"
       id="path2-3"
       d="m 414.2272,539.79174 c -0.0212,0.0902 -0.067,0.17012 -0.14528,0.22036 -0.12292,0.0788 -0.27268,0.0559 -0.37884,-0.0399 -0.0995,-0.0891 -0.13298,-0.23977 -0.1017,-0.36993 0.0324,-0.13586 0.13523,-0.25576 0.2671,-0.29343 0.29391,-0.0834 0.41572,0.24319 0.35872,0.48296 z m -0.17992,-0.92711 c -0.18216,-0.0742 -0.11958,-1.05041 0.0469,-2.23555 0.0469,-0.33111 0.12741,-0.48754 0.21792,-0.56746 0.12964,-0.11303 0.36544,-0.1176 0.52525,-0.0936 0.18327,0.0274 0.35872,0.11418 0.4917,0.24548 0.11735,0.11646 0.13076,0.2352 0.0905,0.38934 -0.066,0.24548 -0.1788,0.48068 -0.2872,0.71018 -0.0257,0.0559 -0.25033,0.49095 -0.28051,0.54461 -0.542,0.97507 -0.6504,1.06983 -0.80461,1.00703 z" />
    <path
       style="fill:#1c1c31;fill-opacity:1;stroke-width:0.0112957"
       id="path4-3"
       d="m 410.37061,538.42506 c 0.10728,0.46812 0.0961,0.98191 0.004,1.35184 -0.086,0.34938 -0.31962,0.66222 -0.69064,0.76726 -0.3252,0.0925 -0.70404,0.0252 -0.93648,-0.20323 -0.3822,-0.3745 -0.60571,-1.25365 -0.50625,-1.8919 0.0804,-0.51265 0.35091,-1.16916 0.94432,-1.1977 0.038,-0.003 0.076,-0.001 0.11398,0.003 0.60459,0.0559 0.93426,0.57659 1.0706,1.17144 z m -1.09295,1.06526 c 0.0335,0.006 0.067,0.006 0.10058,-0.004 0.11287,-0.0332 0.17769,-0.153 0.20786,-0.26946 0.0458,-0.17697 0.0391,-0.36764 -0.0201,-0.54119 -0.0301,-0.0879 -0.0748,-0.17355 -0.14305,-0.23748 -0.24027,-0.22493 -0.48054,0.009 -0.52188,0.27515 -0.0324,0.20781 0.0145,0.44872 0.14193,0.61656 0.0592,0.0776 0.14416,0.145 0.23467,0.16098 z" />
    <path
       style="fill:#1c1c31;fill-opacity:1;stroke-width:0.0112957"
       id="path6-6"
       d="m 411.67924,539.41724 c -0.002,0.86432 0.0838,1.52539 -0.28833,1.60417 -0.30173,0.0628 -0.29167,-0.2078 -0.31514,-0.435 -0.0894,-0.8803 -0.17098,-2.34289 -0.20563,-3.22775 0.0246,-0.38021 0.2738,-0.61313 0.53307,-0.67021 0.40007,-0.0879 0.82697,-0.0628 1.18122,0.16098 0.7007,0.443 0.75657,1.25594 0.33191,1.9193 -0.23245,0.36193 -0.93537,0.62453 -1.2371,0.6017 z m 0.0894,-1.93756 c -0.0436,0.007 -0.11511,0.0274 -0.13523,0.0708 -0.0481,0.10163 -0.0447,0.74672 0.0391,1.01731 0.0134,0.0445 0.0436,0.0868 0.0872,0.10276 0.15869,0.0594 0.30174,-0.13929 0.36655,-0.25918 0.0905,-0.1667 0.11958,-0.36308 0.0626,-0.54576 -0.0537,-0.17012 -0.22015,-0.41674 -0.42019,-0.38591 z" />
    <path
       style="fill:#1c1c31;fill-opacity:1;stroke-width:0.0112957"
       id="path8"
       d="m 407.67177,537.90898 c -0.26262,0.56746 -0.69846,1.01845 -1.30192,1.24109 0.17321,0.46242 0.34979,0.91912 0.52189,1.38039 0.0961,0.2489 0.18774,0.52178 0.10393,0.76726 -0.0872,0.25119 -0.4269,0.32083 -0.67388,0.0537 -0.47494,-0.51608 -2.08083,-3.78607 -2.19928,-4.03155 -0.10059,-0.21123 -0.25145,-0.43729 -0.24698,-0.68163 0.008,-0.36764 0.56434,-0.73985 0.83144,-0.93053 0.37325,-0.26603 0.80462,-0.44756 1.26616,-0.44871 0.35984,0 0.66716,0.10047 0.93984,0.27859 0.41796,0.27401 0.70851,0.71131 0.8158,1.20569 0.0939,0.43501 0.0738,0.8803 -0.057,1.16574 m -1.22369,-0.62111 c -0.0939,-0.34824 -0.30621,-0.66908 -0.5733,-0.894 -0.0581,-0.0491 -0.12069,-0.0948 -0.19333,-0.11989 -0.50065,-0.16784 -0.28385,0.68734 -0.20227,0.90313 0.11287,0.30257 0.28385,0.68506 0.51295,0.91341 0.0503,0.0502 0.10951,0.0948 0.17768,0.10847 0.10393,0.0217 0.20004,-0.0525 0.25256,-0.1393 0.0436,-0.0719 0.0604,-0.15756 0.0704,-0.24091 0.019,-0.17698 0.003,-0.35737 -0.0447,-0.53091 z" />
    <path
       style="fill:#1c1c31;fill-opacity:1;stroke-width:0.0112957"
       id="path10"
       d="m 413.65877,542.25533 c -0.003,0.50123 -0.30173,1.00246 -0.96219,1.00246 -0.66046,0 -0.96778,-0.49324 -0.96778,-0.99675 0,-0.62797 0.42802,-1.01617 0.98119,-1.01617 0.64147,0.006 0.95437,0.4921 0.94878,1.01046 z m -0.94878,-0.69419 c -0.4146,0 -0.64705,0.29457 -0.64928,0.69647 0,0.34938 0.19109,0.67707 0.64146,0.67707 0.45036,0 0.62247,-0.35509 0.62247,-0.68049 0.005,-0.33796 -0.16987,-0.68506 -0.61465,-0.69305 z m 1.22593,1.43975 c 0,0.0742 0.003,-0.3528 0,-0.41788 h 0.30397 l 0.0212,0.26146 c 0.0995,0.0582 0.25368,0.10162 0.37996,0.10162 0.23468,0 0.47942,-0.0605 0.47942,-0.29457 -0.008,-0.21237 -0.2805,-0.25576 -0.50065,-0.27859 -0.37437,-0.0388 -0.67611,-0.13245 -0.67611,-0.56175 0,-0.38248 0.42354,-0.57316 0.73869,-0.57316 0.25368,-0.005 0.4336,0.0354 0.66269,0.22265 0,0.15413 -0.003,0.24547 -0.003,0.39961 h -0.29381 l -0.019,-0.25347 c -0.11845,-0.0582 -0.24026,-0.0742 -0.33413,-0.0719 -0.20227,0.003 -0.41796,0.0993 -0.41796,0.27288 0,0.17012 0.13969,0.21693 0.38778,0.25347 0.40455,0.0548 0.79456,0.14843 0.79456,0.58915 -0.003,0.48182 -0.44477,0.60855 -0.82473,0.60855 -0.28944,0.002 -0.47048,-0.0537 -0.69958,-0.25803 z"
       inkscape:connector-curvature="0" />
    <path
       style="fill:#1c1c31;fill-opacity:1;stroke-width:0.0112957"
       id="path12"
       d="m 411.31867,543.09338 c 0,0.0879 -0.0692,0.1587 -0.15534,0.1587 h -1.79587 c -0.086,0 -0.15533,-0.0708 -0.15533,-0.1587 v -0.0137 c 0,-0.0879 0.0692,-0.15871 0.15533,-0.15871 h 1.79587 c 0.086,0 0.15534,0.0708 0.15534,0.15871 z"
       inkscape:connector-curvature="0" />
  </g>
</svg>
