<?xml version="1.0" encoding="UTF-8" standalone="no"?>
<svg
   xmlns:dc="http://purl.org/dc/elements/1.1/"
   xmlns:cc="http://creativecommons.org/ns#"
   xmlns:rdf="http://www.w3.org/1999/02/22-rdf-syntax-ns#"
   xmlns:svg="http://www.w3.org/2000/svg"
   xmlns="http://www.w3.org/2000/svg"
   xmlns:xlink="http://www.w3.org/1999/xlink"
   xmlns:sodipodi="http://sodipodi.sourceforge.net/DTD/sodipodi-0.dtd"
   xmlns:inkscape="http://www.inkscape.org/namespaces/inkscape"
   width="32"
   version="1.1"
   height="32"
   viewBox="0 0 32 32"
   id="svg15"
   sodipodi:docname="folder-open.svg"
   inkscape:version="1.0.1 (3bc2e813f5, 2020-09-07)">
  <sodipodi:namedview
     pagecolor="#ffffff"
     bordercolor="#666666"
     borderopacity="1"
     objecttolerance="10"
     gridtolerance="10"
     guidetolerance="10"
     inkscape:pageopacity="0"
     inkscape:pageshadow="2"
     inkscape:window-width="1920"
     inkscape:window-height="1022"
     id="namedview17"
     showgrid="false"
     inkscape:zoom="6.9384853"
     inkscape:cx="-32.733138"
     inkscape:cy="1.6564244"
     inkscape:window-x="0"
     inkscape:window-y="0"
     inkscape:window-maximized="1"
     inkscape:current-layer="layer1"
     inkscape:document-rotation="0" />
  <defs
     id="defs5455">
    <linearGradient
       inkscape:collect="always"
       xlink:href="#linearGradient843"
       id="linearGradient865"
       x1="9853.3721"
       y1="2742.2881"
       x2="-115.52741"
       y2="2794.2427"
       gradientUnits="userSpaceOnUse"
       gradientTransform="matrix(1.0000008,0,0,1.5315212,-7.1254276e-5,-2085.5899)" />
    <linearGradient
       inkscape:collect="always"
       id="linearGradient843">
      <stop
         style="stop-color:#99a7bc;stop-opacity:1"
         offset="0"
         id="stop839" />
      <stop
         style="stop-color:#7171a8;stop-opacity:1"
         offset="1"
         id="stop841" />
    </linearGradient>
    <linearGradient
       inkscape:collect="always"
       xlink:href="#linearGradient863"
       id="linearGradient873"
       x1="74.275833"
       y1="-1242.1782"
       x2="9924.5273"
       y2="-1276.2882"
       gradientUnits="userSpaceOnUse"
       gradientTransform="matrix(1,0,0,0.78628418,0,-917.80856)" />
    <linearGradient
       inkscape:collect="always"
       id="linearGradient863">
      <stop
         style="stop-color:#7171a8;stop-opacity:1"
         offset="0"
         id="stop859" />
      <stop
         style="stop-color:#99a7bc;stop-opacity:1"
         offset="1"
         id="stop861" />
    </linearGradient>
  </defs>
  <metadata
     id="metadata5458">
    <rdf:RDF>
      <cc:Work
         rdf:about="">
        <dc:format>image/svg+xml</dc:format>
        <dc:type
           rdf:resource="http://purl.org/dc/dcmitype/StillImage" />
      </cc:Work>
    </rdf:RDF>
  </metadata>
  <g
     inkscape:label="Capa 1"
     inkscape:groupmode="layer"
     id="layer1"
     transform="matrix(1 0 0 1 -384.57143 -515.798)">
    <g
       id="g10"
       transform="matrix(0.03199056,0,0,0.03199056,384.67026,516.23683)">
      <g
         transform="matrix(0.1,0,0,-0.1,0,511)"
         id="g8">
        <path
           d="M 526.7003,4114.927 C 388.9002,4044.6302 283.70013,3924.4057 214.80008,3766.1996 98.099999,3496.4987 100,3522.994 100,1410.2605 v -1882.388 l 1851.065,4.85647 1875.4767,2.30577 559.3614,415.839154 612.3004,468.798646 H 7449.2053 9900.207 l -7.7,580.14026 c -5.7,550.8882 -7.6,583.2033 -55.5,741.4095 -63.2001,207.9805 -166.5002,366.3398 -302.3003,462.9788 l -107.1001,76.1165 -2219.4015,8.7297 -2219.4016,5.8198 -612.3005,937.7504 -612.5004,937.9037 H 2195.1015 c -1459.90104,-2.91 -1576.60113,-5.8198 -1668.4012,-55.5942 z"
           id="path4"
           style="fill:url(#linearGradient865);fill-opacity:1;stroke-width:1.23755"
           sodipodi:nodetypes="ccsccccccccccccccccc" />
        <path
           d="M 4443.4275,-356.53895 4218.21,-531.62674 1940.5351,-546.9309 100,-548.61263 l 3.8,-1524.64067 5.7,-1477.3494 61.2,-99.3077 c 74.6,-118.8861 195.2,-210.6455 346.3,-266.3144 l 109.1,-40.6509 H 4998 9370 l 126.3,48.1206 c 151.2,58.6568 267.9,153.4827 338.7,272.2902 l 51.7,85.7836 5.7,1719.5249 -2.477,1961.90582 -2432.8207,13.78235 -2352.6384,4.05416 z"
           id="path6"
           style="fill:url(#linearGradient873);fill-opacity:1;stroke-width:0.886727"
           sodipodi:nodetypes="ccccccccccccccccccc" />
      </g>
    </g>
  </g>
</svg>
