<?xml version="1.0" encoding="UTF-8" standalone="no"?>
<svg
   xmlns:dc="http://purl.org/dc/elements/1.1/"
   xmlns:cc="http://creativecommons.org/ns#"
   xmlns:rdf="http://www.w3.org/1999/02/22-rdf-syntax-ns#"
   xmlns:svg="http://www.w3.org/2000/svg"
   xmlns="http://www.w3.org/2000/svg"
   xmlns:xlink="http://www.w3.org/1999/xlink"
   xmlns:sodipodi="http://sodipodi.sourceforge.net/DTD/sodipodi-0.dtd"
   xmlns:inkscape="http://www.inkscape.org/namespaces/inkscape"
   width="32"
   version="1.1"
   height="32"
   viewBox="0 0 32 32"
   id="svg17"
   sodipodi:docname="folder_html.svg"
   inkscape:version="1.0.1 (3bc2e813f5, 2020-09-07)">
  <sodipodi:namedview
     pagecolor="#ffffff"
     bordercolor="#666666"
     borderopacity="1"
     objecttolerance="10"
     gridtolerance="10"
     guidetolerance="10"
     inkscape:pageopacity="0"
     inkscape:pageshadow="2"
     inkscape:window-width="1920"
     inkscape:window-height="1022"
     id="namedview19"
     showgrid="false"
     inkscape:zoom="9.8125"
     inkscape:cx="-7.9653023"
     inkscape:cy="8.8081725"
     inkscape:window-x="0"
     inkscape:window-y="0"
     inkscape:window-maximized="1"
     inkscape:current-layer="layer1"
     inkscape:document-rotation="0" />
  <defs
     id="defs5455">
    <linearGradient
       inkscape:collect="always"
       xlink:href="#linearGradient863"
       id="linearGradient865"
       x1="9886.2305"
       y1="2931.2732"
       x2="71.288139"
       y2="2947.6487"
       gradientUnits="userSpaceOnUse" />
    <linearGradient
       inkscape:collect="always"
       id="linearGradient863">
      <stop
         style="stop-color:#99a7bc;stop-opacity:1"
         offset="0"
         id="stop859" />
      <stop
         style="stop-color:#7171a8;stop-opacity:1"
         offset="1"
         id="stop861" />
    </linearGradient>
    <linearGradient
       inkscape:collect="always"
       xlink:href="#linearGradient863"
       id="linearGradient873"
       x1="9896.2002"
       y1="1023.4"
       x2="167.05577"
       y2="-3824.2473"
       gradientUnits="userSpaceOnUse" />
  </defs>
  <metadata
     id="metadata5458">
    <rdf:RDF>
      <cc:Work
         rdf:about="">
        <dc:format>image/svg+xml</dc:format>
        <dc:type
           rdf:resource="http://purl.org/dc/dcmitype/StillImage" />
      </cc:Work>
    </rdf:RDF>
  </metadata>
  <g
     inkscape:label="Capa 1"
     inkscape:groupmode="layer"
     id="layer1"
     transform="matrix(1 0 0 1 -384.57143 -515.798)">
    <g
       id="g10"
       transform="matrix(0.0327044,0,0,0.0327044,384.32908,515.37087)">
      <g
         transform="matrix(0.1,0,0,-0.1,0,511)"
         id="g8">
        <path
           d="M 526.7,4048.6 C 388.9,4002.7 283.7,3924.2 214.8,3820.9 98.1,3644.8 100,3662.1 100,2282.6 v -1259 h 1836.8 1836.8 l 612.3,306.1 612.3,306.1 h 2451 2451 l -7.7,378.8 c -5.7,359.7 -7.6,380.8 -55.5,484.1 -63.2,135.8 -166.5,239.2 -302.3,302.3 l -107.1,49.7 -2219.4,5.7 -2219.4,3.8 -612.3,612.3 -612.5,612.4 H 2195.1 C 735.2,4083 618.5,4081.1 526.7,4048.6 Z"
           id="path4"
           style="fill:url(#linearGradient865);fill-opacity:1" />
        <path
           d="M 4385.8,717.5 3783.1,413.3 H 1940.6 l -1840.6,-2 3.8,-1880.8 5.7,-1878.9 61.2,-126.3 c 74.6,-151.2 195.2,-267.9 346.3,-338.7 l 109.1,-51.7 H 4998 9370 l 126.3,61.2 c 151.2,74.6 267.9,195.2 338.7,346.3 l 51.7,109.1 5.7,2186.9 3.8,2185 -2452.9,-1.9 H 4988.5 Z"
           id="path6"
           style="fill:url(#linearGradient873);fill-opacity:1" />
      </g>
    </g>
    <path
       style="fill:#1c1c31;fill-opacity:1;stroke-width:0.799172"
       id="path4183-3"
       d="m 410.98622,534.90742 a 3.9958648,3.9958491 0 0 0 -0.76796,0.0749 3.9958648,3.9958491 0 0 0 -0.0265,0.006 c -0.13276,0.0249 -0.2626,0.055 -0.39176,0.0952 -0.12675,0.0391 -0.24891,0.0893 -0.36998,0.14049 -0.0988,0.0421 -0.19403,0.0894 -0.28873,0.13893 a 3.9958648,3.9958491 0 0 0 -0.10773,0.0578 c -0.0849,0.0477 -0.16729,0.0977 -0.24814,0.15138 a 3.9958648,3.9958491 0 0 0 -0.11868,0.0826 c -0.0778,0.0556 -0.15439,0.11231 -0.22789,0.17328 a 3.9958648,3.9958491 0 0 0 -0.0938,0.0826 c -0.0769,0.0682 -0.15333,0.13565 -0.22476,0.20915 -0.17045,0.17537 -0.32111,0.36887 -0.45735,0.57285 a 3.9958648,3.9958491 0 0 0 -0.0453,0.064 c -0.0606,0.095 -0.11581,0.1932 -0.16857,0.29347 a 3.9958648,3.9958491 0 0 0 -0.0343,0.0656 c -0.05,0.0993 -0.0957,0.20053 -0.13734,0.30435 a 3.9958648,3.9958491 0 0 0 -0.0343,0.0923 c -0.0259,0.0687 -0.0562,0.13545 -0.0781,0.20602 -0.0111,0.0354 -0.017,0.0719 -0.0265,0.10768 a 3.9958648,3.9958491 0 0 0 -0.011,0.0421 c -0.0252,0.0968 -0.0485,0.19422 -0.0656,0.29343 a 3.9958648,3.9958491 0 0 0 -0.0453,0.32155 c -3.5e-4,0.004 -0.002,0.008 -0.002,0.0103 -1e-4,7.9e-4 1.6e-4,0.003 0,0.004 a 3.9958648,3.9958491 0 0 0 -0.0252,0.40893 3.9958648,3.9958491 0 0 0 0.0749,0.76797 3.9958648,3.9958491 0 0 0 0.006,0.0265 c 0.0249,0.13277 0.055,0.26257 0.0952,0.39177 0.0391,0.12671 0.0893,0.24888 0.14047,0.36994 0.0419,0.0988 0.0895,0.19405 0.1389,0.28873 a 3.9958648,3.9958491 0 0 0 0.0579,0.10775 c 0.0476,0.0848 0.0977,0.1673 0.1514,0.24815 a 3.9958648,3.9958491 0 0 0 0.0826,0.11864 c 0.0556,0.0779 0.11229,0.15439 0.17323,0.22791 a 3.9958648,3.9958491 0 0 0 0.0826,0.0938 c 0.0676,0.0768 0.13567,0.15336 0.20917,0.22477 0.17538,0.17048 0.36887,0.32114 0.57284,0.45734 a 3.9958648,3.9958491 0 0 0 0.064,0.0453 c 0.095,0.0605 0.19321,0.11583 0.29346,0.16858 a 3.9958648,3.9958491 0 0 0 0.0657,0.0343 c 0.0993,0.0499 0.2005,0.0957 0.30434,0.13734 a 3.9958648,3.9958491 0 0 0 0.0923,0.0343 c 0.0687,0.0257 0.13551,0.0562 0.20601,0.0781 0.0357,0.0111 0.0719,0.017 0.10775,0.0265 a 3.9958648,3.9958491 0 0 0 0.0421,0.011 c 0.0968,0.0253 0.19427,0.0485 0.29346,0.0657 a 3.9958648,3.9958491 0 0 0 0.32152,0.0453 c 0.004,3.5e-4 0.008,0.002 0.0103,0.002 a 3.9958648,3.9958491 0 0 0 0.004,0 3.9958648,3.9958491 0 0 0 0.40893,0.0252 3.9958648,3.9958491 0 0 0 0.76794,-0.0749 3.9958648,3.9958491 0 0 0 0.0265,-0.006 c 0.13277,-0.0249 0.26252,-0.055 0.39179,-0.0952 0.22135,-0.0689 0.43864,-0.16543 0.64305,-0.27161 0.0267,-0.0138 0.0548,-0.0263 0.0814,-0.0408 a 3.9958648,3.9958491 0 0 0 0.5994,-0.40426 c 0.0171,-0.0137 0.035,-0.0254 0.0514,-0.0388 a 3.9958648,3.9958491 0 0 0 0.45889,-0.45891 c 0.0321,-0.0369 0.066,-0.0709 0.0968,-0.10927 a 3.9958648,3.9958491 0 0 0 0.33713,-0.49943 c 0.0306,-0.0529 0.062,-0.10467 0.0903,-0.15922 a 3.9958648,3.9958491 0 0 0 0.23254,-0.54787 c 0.0125,-0.0362 0.0325,-0.0683 0.0438,-0.10456 0.011,-0.0354 0.017,-0.0719 0.0265,-0.10771 8e-4,-0.004 0.003,-0.008 0.004,-0.0103 a 3.9958648,3.9958491 0 0 0 0.0103,-0.033 c 0.0252,-0.0969 0.0486,-0.19428 0.0657,-0.29348 a 3.9958648,3.9958491 0 0 0 0.0452,-0.32155 3.9958648,3.9958491 0 0 0 0.002,-0.0103 c 1e-4,-8e-4 -10e-5,-0.003 0,-0.004 a 3.9958648,3.9958491 0 0 0 0.0252,-0.40893 3.9958648,3.9958491 0 0 0 -0.0749,-0.76794 3.9958648,3.9958491 0 0 0 -0.006,-0.0265 c -0.0249,-0.13278 -0.055,-0.26255 -0.0952,-0.39178 -0.0103,-0.0304 -0.0276,-0.0574 -0.0376,-0.0873 a 3.9958648,3.9958491 0 0 0 -0.22789,-0.5416 c -0.029,-0.0567 -0.0577,-0.11199 -0.0891,-0.16702 a 3.9958648,3.9958491 0 0 0 -0.31845,-0.47139 c -0.0229,-0.0299 -0.0401,-0.0649 -0.064,-0.0937 -0.0421,-0.0511 -0.0899,-0.0955 -0.1358,-0.14204 a 3.9958648,3.9958491 0 0 0 -0.67273,-0.58845 c -0.0307,-0.0221 -0.0606,-0.0448 -0.0921,-0.0656 a 3.9958648,3.9958491 0 0 0 -0.0717,-0.0452 c -0.1751,-0.11144 -0.35694,-0.21319 -0.55098,-0.295 -0.036,-0.015 -0.0752,-0.0259 -0.11239,-0.0408 -0.0871,-0.034 -0.17457,-0.0696 -0.26224,-0.0968 -0.0356,-0.0111 -0.0719,-0.017 -0.10766,-0.0265 -0.004,-7.9e-4 -0.008,-0.003 -0.0103,-0.004 a 3.9958648,3.9958491 0 0 0 -0.033,-0.0103 c -0.0968,-0.0253 -0.19426,-0.0485 -0.29347,-0.0657 a 3.9958648,3.9958491 0 0 0 -0.32154,-0.0453 3.9958648,3.9958491 0 0 0 -0.0103,-0.002 c -8e-4,-10e-5 -0.003,1.5e-4 -0.004,0 a 3.9958648,3.9958491 0 0 0 -0.40892,-0.0252 z m 0,0.79917 a 3.1966929,3.1966803 0 0 1 1.69199,0.49013 c -0.002,0.005 -0.006,0.005 -0.008,0.0103 0.0144,0.0298 0.0519,0.0326 0.086,0.0388 a 3.1966929,3.1966803 0 0 1 0.053,0.0357 c 0.02,0.0276 0.0442,0.0683 0.0485,0.0873 0.007,0.0201 0.0103,0.0904 0,0.11236 -0.0224,0.0579 -0.0829,0.0513 -0.14987,0.0498 -0.0182,0 -0.0335,0.002 -0.0501,0 -0.11259,-0.009 -0.22387,-0.0431 -0.27472,0.0376 0.004,0.0619 0.014,0.0961 0,0.14985 -0.0103,0.039 -0.0519,0.0658 -0.0498,0.0999 8e-4,0.0177 0.0334,0.0512 0.0376,0.0749 0.004,0.0131 -0.007,0.0383 0,0.0499 0.019,0.0359 0.0664,-0.007 0.0999,0 0.032,0.006 0.0621,0.052 0.0621,0.0874 0,0.0256 -0.0103,0.0755 -0.0251,0.0999 -0.032,0.048 -0.0915,0.0362 -0.13736,0.0622 -0.0379,0.0218 -0.0524,0.0746 -0.0749,0.11237 -0.024,0.0408 -0.0468,0.0541 -0.0376,0.1124 -0.0329,0.0648 -0.0699,0.1061 -0.13734,0.13734 -0.0198,0.0103 -0.0444,0.0246 -0.0622,0.0376 -0.0144,0.0103 -0.0297,0.0267 -0.0501,0.0498 -0.0256,0.0282 -0.0612,0.0408 -0.0749,0.0623 -0.0103,0.0169 -0.002,0.0521 -0.0124,0.0749 -0.016,0.0304 -0.0421,0.0571 -0.0622,0.0873 -0.0103,0.0144 -0.0276,0.0309 -0.0376,0.0499 -0.0231,0.042 -0.0541,0.0753 -0.05,0.11232 0.004,0.0358 0.0478,0.0444 0.05,0.0749 0.002,0.0176 -0.0133,0.0309 -0.0122,0.05 7.9e-4,0.0275 0.0103,0.0409 0.0122,0.0623 0.006,0.0537 -0.0273,0.0755 -0.0376,0.11236 -0.006,0.0176 0.005,0.0362 0,0.0499 -0.0103,0.0269 -0.0495,0.043 -0.05,0.0749 -8e-4,0.0225 0.0353,0.0432 0.0376,0.0749 0.002,0.0218 -0.0171,0.042 -0.0122,0.0622 0.0103,0.0391 0.0819,0.0944 0.11237,0.12488 0.0416,0.0416 0.0819,0.0687 0.0997,0.11235 0.0151,0.037 0.0217,0.0972 0.0499,0.12489 0.021,0.0202 0.0604,0.0289 0.0873,0.05 0.0257,0.0197 0.0604,0.0289 0.0873,0.0498 0.0444,0.0349 0.10433,0.10498 0.17481,0.0999 0.0371,-0.004 0.0708,-0.0178 0.11241,-0.0252 0.0428,-0.009 0.0939,-0.0294 0.13735,-0.0252 0.0337,0.005 0.0653,0.0273 0.0997,0.0252 0.0363,-0.003 0.0835,-0.0195 0.12485,-0.0376 0.0719,-0.0311 0.18261,-0.0902 0.28722,-0.0749 0.0799,0.0121 0.0816,0.10183 0.13737,0.13741 0.0639,0.007 0.11148,-0.0126 0.16233,0 0.0383,0.0103 0.0836,0.0819 0.0873,0.11236 0.005,0.0311 -0.0207,0.0552 -0.0251,0.0749 -0.0103,0.0421 -0.0178,0.0979 -0.0252,0.12488 -0.007,0.0211 -0.0132,0.0416 -0.0126,0.0623 0,0.019 0.0303,0.0625 0.0498,0.0874 0.024,0.0304 0.0582,0.054 0.0873,0.0873 0.053,0.0609 0.0754,0.14416 0.11237,0.22479 0.0103,0.0206 -0.0103,0.0247 0,0.0501 -0.016,0.12203 -0.0577,0.20208 -0.13735,0.33718 -0.0379,0.0435 -0.0754,0.0953 -0.0749,0.1498 -0.004,0.13078 0.0682,0.1983 0.0622,0.32466 -2.1e-4,0.003 2e-4,0.002 0,0.006 a 3.1966929,3.1966803 0 0 1 -2.57235,1.30639 3.1966929,3.1966803 0 0 1 -0.94121,-0.14048 c 1.8e-4,-0.005 0.006,-0.006 0.006,-0.0103 -0.002,-0.0211 -0.0207,-0.0309 -0.0376,-0.0501 -0.0138,-0.016 -0.004,-0.0358 -0.0126,-0.0498 -0.0177,-0.0256 -0.0427,-0.0381 -0.05,-0.0749 0.0521,-0.0103 0.12424,0.0585 0.19979,0.0376 0.036,-0.0103 0.0957,-0.0788 0.11238,-0.11237 0.006,-0.0103 -0.007,-0.0502 0,-0.0624 0.008,-0.0138 0.0226,-0.0177 0.0252,-0.0252 0.006,-0.0195 -0.005,-0.0255 0,-0.0376 0.013,-0.0371 0.0532,-0.0605 0.0749,-0.0874 0.0169,-0.0201 0.0347,-0.0416 0.0499,-0.0622 0.0177,-0.0223 0.0259,-0.0302 0.0376,-0.0501 0.011,-0.0661 -0.0414,-0.11672 -0.0251,-0.17481 0.0177,-0.0656 0.11162,-0.10758 0.1748,-0.13737 0.0219,-0.0103 0.0442,-0.0307 0.0623,-0.0376 0.0437,-0.0151 0.0967,-0.0104 0.13737,-0.0252 0.0681,-0.0249 0.0913,-0.0997 0.12484,-0.16233 0.016,-0.029 0.0345,-0.0539 0.0376,-0.0749 0.003,-0.0189 -0.005,-0.0408 0,-0.0622 0.005,-0.0218 0.008,-0.0384 0.0124,-0.0624 0.0103,-0.0311 0.0125,-0.0899 0.0125,-0.12483 0,-0.029 -0.0116,-0.0362 -0.0125,-0.0622 -0.006,-0.0944 0.0275,-0.0982 0.0621,-0.14988 0.0177,-0.0257 0.0254,-0.0693 0.0376,-0.0874 0.0588,-0.0871 0.15712,-0.13003 0.14986,-0.2622 -0.004,-0.0435 -0.018,-0.13602 -0.05,-0.14983 -0.0181,-0.0103 -0.0604,-0.003 -0.0873,-0.0127 -0.0858,-0.032 -0.1479,-0.1301 -0.23725,-0.13736 -0.019,-8e-4 -0.0288,7.9e-4 -0.05,0 -0.035,-8e-4 -0.0734,-0.0334 -0.1124,-0.0376 -0.0249,-0.004 -0.0731,0.009 -0.0873,0 -0.0224,-0.0109 -0.0193,-0.0501 -0.0376,-0.0621 -0.0143,-0.0103 -0.04,-0.0173 -0.0622,-0.0252 -0.0357,-0.0138 -0.0584,-0.022 -0.0999,-0.0251 -0.013,-8e-4 -0.0479,0.003 -0.0623,0 -0.0224,-0.005 -0.0417,-0.0246 -0.0623,-0.0376 -0.026,-0.016 -0.0389,-0.0275 -0.0498,-0.0498 0.024,-0.0783 -0.059,-0.0916 -0.0749,-0.13735 -0.009,-0.0211 0.009,-0.0561 0,-0.0749 -0.0103,-0.027 -0.0329,-0.04 -0.0622,-0.0622 -0.0521,-0.0409 -0.10004,-0.0779 -0.17483,-0.0873 -0.0337,-0.005 -0.0725,0.003 -0.11235,0 -0.0422,-0.004 -0.0931,-0.0262 -0.12487,-0.0624 -0.0303,-0.0357 -0.0356,-0.0705 -0.0623,-0.0873 -0.0257,-0.016 -0.0699,-0.0208 -0.0874,-0.0376 -0.0103,-0.009 -0.007,-0.0209 -0.0125,-0.0376 -0.013,-0.0262 -0.0413,-0.0303 -0.0252,-0.0621 -0.0291,-0.0144 -0.0187,0.0182 -0.0498,0.0122 -0.0283,-0.04 -0.0486,-0.0622 -0.1124,-0.0499 -0.0291,0.007 -0.0533,0.0494 -0.0873,0.0499 -0.0285,8e-4 -0.0503,-0.0448 -0.0873,-0.0499 -0.0284,-0.005 -0.0676,0.0294 -0.0873,0.0252 -0.0311,-0.007 -0.0341,-0.0435 -0.0622,-0.0622 -0.0211,-0.0139 -0.0632,-0.0506 -0.0749,-0.05 -0.0361,8e-4 -0.062,0.0767 -0.11237,0.05 -0.0249,-0.0311 0.0418,-0.0337 0.0123,-0.0622 -0.0219,-0.0218 -0.0327,8e-4 -0.0499,0.0124 -0.0206,0.0139 -0.04,0.0297 -0.0623,0.0376 -0.05,0.0189 -0.0858,0.0174 -0.12486,0.0376 -0.0367,0.0189 -0.0417,0.0503 -0.0624,0.0873 -0.0169,0.0303 -0.0496,0.0736 -0.0749,0.0749 -0.0303,0.002 -0.0599,-0.0383 -0.0873,-0.0501 -0.0834,-0.0362 -0.13079,0.0243 -0.19979,0.0252 -0.0639,8e-4 -0.15276,-0.10214 -0.14984,-0.16233 0.002,-0.0371 0.0206,-0.0916 0.0252,-0.13737 0.005,-0.0365 0.0368,-0.0664 0.0376,-0.10004 8e-4,-0.0442 -0.0706,-0.0821 -0.10004,-0.0873 -0.0414,-0.009 -0.0893,1.2e-4 -0.13892,0.006 a 3.1966929,3.1966803 0 0 1 0.30437,-0.9209 c 0.003,7.3e-4 0.009,0.006 0.0103,0.006 0.0231,8e-4 0.0283,-0.0284 0.0499,-0.0252 0.0218,0.005 0.0588,0.049 0.0623,0.0749 0.004,0.0329 -0.0221,0.0635 -0.0121,0.0999 0.0341,0.035 0.10122,0.0544 0.14981,0.0749 0.032,-0.0262 0.006,-0.087 0,-0.12487 -7.9e-4,-0.0169 0.002,-0.0347 0,-0.0499 -0.005,-0.0261 -0.0122,-0.0524 -0.0122,-0.0749 0,-0.1039 0.0801,-0.14666 0.14983,-0.18733 0.0299,-0.0177 0.0612,-0.0496 0.0873,-0.0622 0.037,-0.0181 0.0571,-0.0201 0.0874,-0.0376 0.055,-0.0311 0.10698,-0.0644 0.14987,-0.0998 0.0196,-0.0471 -0.002,-0.10341 0,-0.14989 0.0196,-0.0122 0.0288,0.002 0.05,0 0.0337,-0.009 0.0435,-0.0561 0.0623,-0.0749 0.0109,-0.0109 0.0496,-0.014 0.0622,-0.0252 0.0336,-0.0261 0.0336,-0.0632 0.0623,-0.0749 0.0103,-0.005 0.0337,-0.0103 0.0499,-0.0122 0.0218,-0.007 0.052,-0.0256 0.0873,-0.0376 0.0224,-0.0103 0.0785,-0.005 0.0873,-0.0121 0.0109,-0.0109 -0.004,-0.0582 0,-0.0749 0.0176,-0.0819 0.1389,-0.0849 0.2123,-0.11237 0.0508,-0.0196 0.10564,-0.0607 0.16232,-0.0499 -0.011,0.0391 -0.0595,0.028 -0.0499,0.0749 0.0123,0.066 0.0892,-0.0155 0.11238,-0.0251 0.0444,-0.0189 0.1292,-0.0289 0.18732,-0.0501 0.0509,-0.018 0.13532,-0.0536 0.0873,-0.1124 -0.04,-0.003 -0.0528,0.0354 -0.0873,0.0502 -0.024,0.005 -0.0298,-0.0111 -0.05,-0.0127 -0.0197,-8e-4 -0.0303,0.0161 -0.0498,0.0127 -0.0197,-0.005 -0.0469,-0.039 -0.0501,-0.0623 -0.0103,-0.0609 0.0625,-0.0798 0.0873,-0.12483 -0.0169,-0.055 -0.0907,-0.004 -0.13735,-0.0252 0.006,-0.0329 0.0239,-0.0682 0.0622,-0.0749 0.0311,-0.006 0.10598,0.0103 0.12485,0.0252 0.0109,0.0103 -0.005,0.0347 0.0125,0.0501 0.0189,0.0169 0.05,0.005 0.0749,0 0.0103,-0.0417 -0.0574,-0.0229 -0.05,-0.0501 0.0496,-0.032 0.13949,-0.0173 0.1998,-0.0252 0.0349,-0.006 0.0685,-0.0335 0.0999,-0.05 0.029,-0.0169 0.057,-0.0401 0.0873,-0.0126 0.0103,0.0298 -0.0208,0.047 -0.0376,0.0624 -0.0559,0.0496 -0.10627,0.10494 -0.14984,0.16234 0.0269,0.026 0.0675,0.009 0.11235,0.0124 0.0177,0.003 0.0446,0.0103 0.0623,0.0123 0.0218,0.005 0.0449,-0.005 0.0622,0 0.0303,0.009 0.0319,0.05 0.0623,0.05 0.0496,0 0.0533,-0.0417 0.0252,-0.0749 0.0103,-0.0341 0.0251,-0.0633 0.0125,-0.0873 -0.0223,-0.0451 -0.10804,0.009 -0.11239,-0.0499 -0.004,-0.0362 0.0368,-0.0472 0.0498,-0.0749 -0.007,-0.0697 0.0574,-0.0741 0.0499,-0.13735 -0.005,-0.0262 -0.0318,-0.0256 -0.0499,-0.05 -0.0103,-0.013 -0.0141,-0.0407 -0.0252,-0.05 -0.0103,-0.0103 -0.0223,-0.0107 -0.0343,-0.0155 a 3.1966929,3.1966803 0 0 1 0.59622,-0.0592 z m -2.10875,0.79918 c 0.0103,-8e-4 0.0249,0.002 0.036,0 0.0169,-8e-4 0.0317,0 0.0497,0 0.0181,0 0.0427,-0.009 0.0501,0 -0.011,0.045 -0.10806,0.0303 -0.15142,0.0142 a 3.1966929,3.1966803 0 0 1 0.0155,-0.0142 z m 4.27057,0.0485 a 3.1966929,3.1966803 0 0 1 0.36053,0.38868 c -0.0261,0 -0.0524,0.0123 -0.0749,0.0123 -0.032,8e-4 -0.0973,-0.0162 -0.13736,-0.0123 -0.024,0.002 -0.0399,0.011 -0.0621,0.0123 -0.063,0.006 -0.10044,-0.005 -0.14986,0 -0.0358,0.003 -0.10392,0.0223 -0.13738,0.0376 -0.0169,0.0103 -0.0282,0.0266 -0.0499,0.0376 -0.0103,0.006 -0.0245,0.008 -0.0376,0.0124 -0.0206,0.0103 -0.0552,0.0326 -0.0749,0.0376 -0.0283,0.009 -0.0607,-0.003 -0.11239,0 -0.0371,0.002 -0.0991,-0.007 -0.0998,-0.05 -8e-4,-0.0675 0.12336,-0.0381 0.18729,-0.0498 0.024,-0.006 0.0336,-0.0335 0.0623,-0.0499 0.0139,-0.0103 0.0245,-0.0164 0.0376,-0.0251 0.0218,-0.0151 0.0588,-0.0449 0.0623,-0.0622 0.003,-0.016 -0.0145,-0.0385 -0.0123,-0.05 0.004,-0.0151 0.0302,-0.0302 0.05,-0.0499 0.0303,-0.0303 0.0498,-0.0677 0.0873,-0.0873 0.0257,-0.0138 0.0759,-0.0175 0.0873,-0.0376 0.004,-0.0231 -7.9e-4,-0.0289 0,-0.0498 0.0103,-0.0103 0.0112,-0.0103 0.014,-0.014 z m 0.42296,0.4761 a 3.1966929,3.1966803 0 0 1 0.13581,0.19978 c -0.005,-6e-5 -0.008,7.1e-4 -0.011,0 -0.0249,-0.003 -0.067,-1.5e-4 -0.0873,-0.0126 -0.0197,-0.0121 -0.07,-0.0335 -0.0749,-0.05 -0.0103,-0.0269 0.0608,-0.0651 0.0622,-0.0873 0.002,-0.0176 -0.0214,-0.0238 -0.0252,-0.0499 z m -5.76898,1.60457 c 0.0194,0.0283 0.0404,0.0558 0.0622,0.0685 0.002,0.0231 -0.009,0.045 0,0.0623 0.0189,0.0257 0.057,0.0336 0.0874,0.0498 0.037,0.0204 0.0523,0.0713 0.0873,0.0873 0.0122,0.006 0.031,-0.007 0.0499,0 0.048,0.0144 0.0584,0.0872 0.10004,0.0749 0.0269,-0.0103 0.0334,-0.049 0.0376,-0.0749 0.018,-0.0198 0.034,-0.0499 0.0621,-0.0499 0.0451,-7.9e-4 0.0582,0.0555 0.0749,0.1 0.0103,0.0249 0.0307,0.049 0.0376,0.0749 0.0109,0.045 0.0103,0.17292 0,0.19978 -0.0118,0.0337 -0.0598,0.0511 -0.0873,0.0873 -0.013,0.0177 -0.0275,0.0381 -0.0376,0.0498 -0.0177,0.0219 -0.0368,0.0301 -0.05,0.0501 -0.009,0.0109 -0.007,0.0347 -0.0126,0.0498 -0.0219,0.0462 -0.0555,0.0816 -0.0376,0.13736 0.009,0.0223 0.0376,0.0481 0.0376,0.0749 0,0.032 -0.07,0.0401 -0.0749,0.0749 -0.005,0.0256 0.0296,0.0781 0.0376,0.11236 0.007,0.0257 0.0469,0.0458 0.0622,0.0622 0.0257,0.0285 0.0521,0.0635 0.0749,0.0999 0.0459,0.0702 0.0672,0.15581 0.11237,0.22477 0.024,0.0357 0.0713,0.062 0.0874,0.0999 0.0103,0.0189 -0.009,0.0578 0,0.0749 0.0261,0.0588 0.15343,0.1208 0.21228,0.14987 0.0277,0.0138 0.0498,0.0229 0.0749,0.0376 0.0383,0.0219 0.11774,0.0659 0.1374,0.0999 0.0176,0.0304 0.0288,0.10121 0.0376,0.14984 0.0109,0.0639 -0.004,0.11831 0,0.18728 0.002,0.0379 0.0124,0.0619 0.0124,0.0999 0,0.013 8e-4,0.0368 0,0.0498 -8e-4,0.0449 0.005,0.0917 0,0.13735 -0.002,0.0185 -6.1e-4,0.0381 0,0.0562 a 3.1966929,3.1966803 0 0 1 -1.19877,-2.4912 3.1966929,3.1966803 0 0 1 0.0126,-0.26845 z m 0.99894,0.15609 c 0.035,-0.016 0.0285,0.0457 0,0.0499 -0.027,0.005 -0.0261,-0.0377 0,-0.0499 z" />
  </g>
</svg>
