<?xml version="1.0" encoding="UTF-8" standalone="no"?>
<svg
   xmlns:dc="http://purl.org/dc/elements/1.1/"
   xmlns:cc="http://creativecommons.org/ns#"
   xmlns:rdf="http://www.w3.org/1999/02/22-rdf-syntax-ns#"
   xmlns:svg="http://www.w3.org/2000/svg"
   xmlns="http://www.w3.org/2000/svg"
   xmlns:xlink="http://www.w3.org/1999/xlink"
   xmlns:sodipodi="http://sodipodi.sourceforge.net/DTD/sodipodi-0.dtd"
   xmlns:inkscape="http://www.inkscape.org/namespaces/inkscape"
   viewBox="0 0 64 64"
   version="1.1"
   id="svg14"
   sodipodi:docname="folder-KDE.svg"
   inkscape:version="1.0.1 (3bc2e813f5, 2020-09-07)">
  <metadata
     id="metadata18">
    <rdf:RDF>
      <cc:Work
         rdf:about="">
        <dc:format>image/svg+xml</dc:format>
        <dc:type
           rdf:resource="http://purl.org/dc/dcmitype/StillImage" />
        <dc:title />
      </cc:Work>
    </rdf:RDF>
  </metadata>
  <sodipodi:namedview
     pagecolor="#ffffff"
     bordercolor="#666666"
     borderopacity="1"
     objecttolerance="10"
     gridtolerance="10"
     guidetolerance="10"
     inkscape:pageopacity="0"
     inkscape:pageshadow="2"
     inkscape:window-width="1920"
     inkscape:window-height="1007"
     id="namedview16"
     showgrid="false"
     inkscape:zoom="9.8125"
     inkscape:cx="32"
     inkscape:cy="36.076433"
     inkscape:window-x="0"
     inkscape:window-y="0"
     inkscape:window-maximized="1"
     inkscape:current-layer="svg14"
     inkscape:document-rotation="0" />
  <defs
     id="defs3051">
    <style
       type="text/css"
       id="current-color-scheme">
      .ColorScheme-Text {
        color:#31363b;
      }
      .ColorScheme-Background {
        color:#eff0f1;
      }
      .ColorScheme-Highlight {
        color:#3daee9;
      }
      .ColorScheme-ViewText {
        color:#31363b;
      }
      .ColorScheme-ViewBackground {
        color:#fcfcfc;
      }
      .ColorScheme-ViewHover {
        color:#93cee9;
      }
      .ColorScheme-ViewFocus{
        color:#3daee9;
      }
      .ColorScheme-ButtonText {
        color:#31363b;
      }
      .ColorScheme-ButtonBackground {
        color:#eff0f1;
      }
      .ColorScheme-ButtonHover {
        color:#93cee9;
      }
      .ColorScheme-ButtonFocus{
        color:#3daee9;
      }
      </style>
    <linearGradient
       inkscape:collect="always"
       xlink:href="#linearGradient863"
       id="linearGradient865"
       x1="9892.5771"
       y1="2823.751"
       x2="93.049133"
       y2="2791.1704"
       gradientUnits="userSpaceOnUse" />
    <linearGradient
       inkscape:collect="always"
       id="linearGradient863">
      <stop
         style="stop-color:#99a7bc;stop-opacity:1"
         offset="0"
         id="stop859" />
      <stop
         style="stop-color:#7171a8;stop-opacity:1"
         offset="1"
         id="stop861" />
    </linearGradient>
    <linearGradient
       inkscape:collect="always"
       xlink:href="#linearGradient863"
       id="linearGradient873"
       x1="9896.2002"
       y1="1023.4"
       x2="167.05577"
       y2="-3824.2473"
       gradientUnits="userSpaceOnUse" />
  </defs>
  <g
     id="g10"
     transform="matrix(0.06540881,0,0,0.06540881,-0.65380934,-0.25901904)">
    <g
       transform="matrix(0.1,0,0,-0.1,0,511)"
       id="g8">
      <path
         d="M 526.7,4048.6 C 388.9,4002.7 283.7,3924.2 214.8,3820.9 98.1,3644.8 100,3662.1 100,2282.6 v -1259 h 1836.8 1836.8 l 612.3,306.1 612.3,306.1 h 2451 2451 l -7.7,378.8 c -5.7,359.7 -7.6,380.8 -55.5,484.1 -63.2,135.8 -166.5,239.2 -302.3,302.3 l -107.1,49.7 -2219.4,5.7 -2219.4,3.8 -612.3,612.3 -612.5,612.4 H 2195.1 C 735.2,4083 618.5,4081.1 526.7,4048.6 Z"
         id="path4"
         style="fill:url(#linearGradient865);fill-opacity:1" />
      <path
         d="M 4385.8,717.5 3783.1,413.3 H 1940.6 l -1840.6,-2 3.8,-1880.8 5.7,-1878.9 61.2,-126.3 c 74.6,-151.2 195.2,-267.9 346.3,-338.7 l 109.1,-51.7 H 4998 9370 l 126.3,61.2 c 151.2,74.6 267.9,195.2 338.7,346.3 l 51.7,109.1 5.7,2186.9 3.8,2185 -2452.9,-1.9 H 4988.5 Z"
         id="path6"
         style="fill:url(#linearGradient873);fill-opacity:1" />
    </g>
  </g>
  <path
     style="color:#d3dae3;fill:#1c1c31;fill-opacity:1;stroke-width:0.7619"
     d="m 52.842859,38 -3.047618,0.461312 v 11.023813 l 3.047618,-0.818454 v -4.258926 l 3.047622,5.020827 3.047627,-1.142852 -3.809534,-4.571432 3.811024,-4.950891 L 55.982749,38 l -3.13989,4.997031 z m -6.205352,2.98958 c -0.07209,0 -0.14415,0.02804 -0.199403,0.08336 l -1.197919,1.197918 c -0.110531,0.110521 -0.08395,0.268428 0,0.400291 l 1.239572,1.946437 c -0.09184,0.190644 -0.171363,0.386983 -0.238085,0.587794 -0.0032,0.0082 -0.0081,0.01669 -0.01042,0.02526 l -2.248509,0.5 C 43.830159,45.76459 43.7,45.857077 43.7,46.013382 v 0.748512 0.748517 c 0,0.156306 0.130159,0.248832 0.282743,0.282742 l 2.248509,0.500001 c 0.0051,0.01482 0.01279,0.02841 0.01789,0.04314 0.06489,0.195089 0.141985,0.385925 0.230649,0.571435 l -1.239581,1.944945 c -0.08396,0.131873 -0.110521,0.289769 0,0.400294 l 1.19792,1.197916 c 0.110527,0.110525 0.288277,0.110525 0.398805,0 l 1.943459,-1.2381 c 0.191057,0.09292 0.387885,0.173436 0.589288,0.241072 0.01324,0.0047 0.02539,0.01189 0.03872,0.01638 l 0.49851,2.24702 c 0,0.156312 0.126432,0.282744 0.28274,0.282744 h 1.691959 c 0.156309,0 0.248837,-0.13016 0.282743,-0.282744 l 0.498506,-2.315468 c 0.229039,-0.0861 0.451367,-0.18907 0.665186,-0.308043 l 1.897322,1.35715 c 0.11053,0.110519 0.288284,0.110519 0.398803,0 l 1.197918,-1.197916 c 0.110531,-0.110531 0.08395,-0.268422 0,-0.4003 l -0.72172,-1.095241 -0.07595,0.02825 c -0.171621,0.06447 -0.364811,-0.0029 -0.459823,-0.159223 l -0.758927,-1.250003 c -0.632334,1.512533 -2.125669,2.575899 -3.867562,2.575899 -2.314338,0 -4.190485,-1.876138 -4.190485,-4.190487 0,-1.775932 1.106895,-3.290167 2.666673,-3.900296 v -0.834819 l -0.0064,0.02678 c -0.01681,0.0061 -0.03237,0.01493 -0.04909,0.02084 -0.198724,0.06603 -0.393065,0.144528 -0.581847,0.235123 l -1.940456,-1.236618 c -0.05522,-0.05521 -0.127333,-0.08336 -0.199406,-0.08336 z"
     class="ColorScheme-Text"
     id="path10-7" />
</svg>
