<?xml version="1.0" encoding="UTF-8" standalone="no"?>
<svg
   xmlns:dc="http://purl.org/dc/elements/1.1/"
   xmlns:cc="http://creativecommons.org/ns#"
   xmlns:rdf="http://www.w3.org/1999/02/22-rdf-syntax-ns#"
   xmlns:svg="http://www.w3.org/2000/svg"
   xmlns="http://www.w3.org/2000/svg"
   xmlns:xlink="http://www.w3.org/1999/xlink"
   xmlns:sodipodi="http://sodipodi.sourceforge.net/DTD/sodipodi-0.dtd"
   xmlns:inkscape="http://www.inkscape.org/namespaces/inkscape"
   viewBox="0 0 64 64"
   version="1.1"
   id="svg14"
   sodipodi:docname="folder-Github.svg"
   inkscape:version="1.0.1 (3bc2e813f5, 2020-09-07)">
  <metadata
     id="metadata18">
    <rdf:RDF>
      <cc:Work
         rdf:about="">
        <dc:format>image/svg+xml</dc:format>
        <dc:type
           rdf:resource="http://purl.org/dc/dcmitype/StillImage" />
        <dc:title />
      </cc:Work>
    </rdf:RDF>
  </metadata>
  <sodipodi:namedview
     pagecolor="#ffffff"
     bordercolor="#666666"
     borderopacity="1"
     objecttolerance="10"
     gridtolerance="10"
     guidetolerance="10"
     inkscape:pageopacity="0"
     inkscape:pageshadow="2"
     inkscape:window-width="1920"
     inkscape:window-height="1007"
     id="namedview16"
     showgrid="false"
     inkscape:zoom="9.8125"
     inkscape:cx="32"
     inkscape:cy="36.076433"
     inkscape:window-x="0"
     inkscape:window-y="0"
     inkscape:window-maximized="1"
     inkscape:current-layer="svg14"
     inkscape:document-rotation="0" />
  <defs
     id="defs3051">
    <style
       type="text/css"
       id="current-color-scheme">
      .ColorScheme-Text {
        color:#31363b;
      }
      .ColorScheme-Background {
        color:#eff0f1;
      }
      .ColorScheme-Highlight {
        color:#3daee9;
      }
      .ColorScheme-ViewText {
        color:#31363b;
      }
      .ColorScheme-ViewBackground {
        color:#fcfcfc;
      }
      .ColorScheme-ViewHover {
        color:#93cee9;
      }
      .ColorScheme-ViewFocus{
        color:#3daee9;
      }
      .ColorScheme-ButtonText {
        color:#31363b;
      }
      .ColorScheme-ButtonBackground {
        color:#eff0f1;
      }
      .ColorScheme-ButtonHover {
        color:#93cee9;
      }
      .ColorScheme-ButtonFocus{
        color:#3daee9;
      }
      </style>
    <linearGradient
       inkscape:collect="always"
       xlink:href="#linearGradient863"
       id="linearGradient865"
       x1="9892.5771"
       y1="2823.751"
       x2="93.049133"
       y2="2791.1704"
       gradientUnits="userSpaceOnUse" />
    <linearGradient
       inkscape:collect="always"
       id="linearGradient863">
      <stop
         style="stop-color:#99a7bc;stop-opacity:1"
         offset="0"
         id="stop859" />
      <stop
         style="stop-color:#7171a8;stop-opacity:1"
         offset="1"
         id="stop861" />
    </linearGradient>
    <linearGradient
       inkscape:collect="always"
       xlink:href="#linearGradient863"
       id="linearGradient873"
       x1="9896.2002"
       y1="1023.4"
       x2="167.05577"
       y2="-3824.2473"
       gradientUnits="userSpaceOnUse" />
  </defs>
  <g
     id="g10"
     transform="matrix(0.06540881,0,0,0.06540881,-0.65380934,-0.25901904)">
    <g
       transform="matrix(0.1,0,0,-0.1,0,511)"
       id="g8">
      <path
         d="M 526.7,4048.6 C 388.9,4002.7 283.7,3924.2 214.8,3820.9 98.1,3644.8 100,3662.1 100,2282.6 v -1259 h 1836.8 1836.8 l 612.3,306.1 612.3,306.1 h 2451 2451 l -7.7,378.8 c -5.7,359.7 -7.6,380.8 -55.5,484.1 -63.2,135.8 -166.5,239.2 -302.3,302.3 l -107.1,49.7 -2219.4,5.7 -2219.4,3.8 -612.3,612.3 -612.5,612.4 H 2195.1 C 735.2,4083 618.5,4081.1 526.7,4048.6 Z"
         id="path4"
         style="fill:url(#linearGradient865);fill-opacity:1" />
      <path
         d="M 4385.8,717.5 3783.1,413.3 H 1940.6 l -1840.6,-2 3.8,-1880.8 5.7,-1878.9 61.2,-126.3 c 74.6,-151.2 195.2,-267.9 346.3,-338.7 l 109.1,-51.7 H 4998 9370 l 126.3,61.2 c 151.2,74.6 267.9,195.2 338.7,346.3 l 51.7,109.1 5.7,2186.9 3.8,2185 -2452.9,-1.9 H 4988.5 Z"
         id="path6"
         style="fill:url(#linearGradient873);fill-opacity:1" />
    </g>
  </g>
  <path
     d="m 52.04772,38.092 c -4.612121,0 -8.34772,3.673 -8.34772,8.203017 0,3.625004 2.391616,6.699042 5.707756,7.782856 0.417386,0.07713 0.570419,-0.176687 0.570419,-0.394429 0,-0.194777 -0.0079,-0.710946 -0.01043,-1.39476 -2.322053,0.494608 -2.811792,-1.10051 -2.811792,-1.10051 -0.379815,-0.946771 -0.928681,-1.199993 -0.928681,-1.199993 -0.75616,-0.508519 0.05842,-0.498075 0.05842,-0.498075 0.838252,0.05691 1.278596,0.84521 1.278596,0.84521 0.744337,1.254247 1.954061,0.891822 2.43127,0.682429 0.0751,-0.530778 0.290081,-0.891813 0.528683,-1.097027 -1.853884,-0.205215 -3.802378,-0.910598 -3.802378,-4.053512 0,-0.895288 0.323477,-1.627111 0.859125,-2.201013 -0.09391,-0.207303 -0.375649,-1.041374 0.07301,-2.171099 0,0 0.699129,-0.219823 2.295626,0.84103 0.667828,-0.182264 1.377373,-0.272692 2.086922,-0.276869 0.709561,0.0041 1.419122,0.09461 2.086933,0.276869 1.586071,-1.060853 2.285191,-0.84103 2.285191,-0.84103 0.448686,1.129725 0.166946,1.963796 0.0835,2.171099 0.53217,0.573902 0.855639,1.305725 0.855639,2.201013 0,3.15126 -1.951281,3.844821 -3.808643,4.046557 0.292166,0.246259 0.563471,0.749204 0.563471,1.517889 0,1.097729 -0.0104,1.979801 -0.0104,2.246234 0,0.214954 0.146088,0.471633 0.573905,0.389558 3.339772,-1.076857 5.72931,-4.152995 5.72931,-7.772427 C 60.395446,41.765 56.657761,38.092 52.047739,38.092 Z"
     id="path2-3"
     style="fill:#1c1c31;fill-opacity:1;stroke-width:0.695641" />
</svg>
