<?xml version="1.0" encoding="UTF-8" standalone="no"?>
<svg
   xmlns:dc="http://purl.org/dc/elements/1.1/"
   xmlns:cc="http://creativecommons.org/ns#"
   xmlns:rdf="http://www.w3.org/1999/02/22-rdf-syntax-ns#"
   xmlns:svg="http://www.w3.org/2000/svg"
   xmlns="http://www.w3.org/2000/svg"
   xmlns:xlink="http://www.w3.org/1999/xlink"
   xmlns:sodipodi="http://sodipodi.sourceforge.net/DTD/sodipodi-0.dtd"
   xmlns:inkscape="http://www.inkscape.org/namespaces/inkscape"
   viewBox="0 0 64 64"
   version="1.1"
   id="svg14"
   sodipodi:docname="folder-text.svg"
   inkscape:version="1.0.1 (3bc2e813f5, 2020-09-07)">
  <metadata
     id="metadata18">
    <rdf:RDF>
      <cc:Work
         rdf:about="">
        <dc:format>image/svg+xml</dc:format>
        <dc:type
           rdf:resource="http://purl.org/dc/dcmitype/StillImage" />
      </cc:Work>
    </rdf:RDF>
  </metadata>
  <sodipodi:namedview
     pagecolor="#ffffff"
     bordercolor="#666666"
     borderopacity="1"
     objecttolerance="10"
     gridtolerance="10"
     guidetolerance="10"
     inkscape:pageopacity="0"
     inkscape:pageshadow="2"
     inkscape:window-width="1920"
     inkscape:window-height="1022"
     id="namedview16"
     showgrid="false"
     inkscape:zoom="4.90625"
     inkscape:cx="-15.054468"
     inkscape:cy="9.1851493"
     inkscape:window-x="0"
     inkscape:window-y="0"
     inkscape:window-maximized="1"
     inkscape:current-layer="svg14"
     inkscape:document-rotation="0" />
  <defs
     id="defs3051">
    <style
       type="text/css"
       id="current-color-scheme">
      .ColorScheme-Text {
        color:#31363b;
      }
      .ColorScheme-Background {
        color:#eff0f1;
      }
      .ColorScheme-Highlight {
        color:#3daee9;
      }
      .ColorScheme-ViewText {
        color:#31363b;
      }
      .ColorScheme-ViewBackground {
        color:#fcfcfc;
      }
      .ColorScheme-ViewHover {
        color:#93cee9;
      }
      .ColorScheme-ViewFocus{
        color:#3daee9;
      }
      .ColorScheme-ButtonText {
        color:#31363b;
      }
      .ColorScheme-ButtonBackground {
        color:#eff0f1;
      }
      .ColorScheme-ButtonHover {
        color:#93cee9;
      }
      .ColorScheme-ButtonFocus{
        color:#3daee9;
      }
      </style>
    <linearGradient
       inkscape:collect="always"
       xlink:href="#linearGradient863"
       id="linearGradient865"
       x1="9886.418"
       y1="2906.9036"
       x2="108.3259"
       y2="2855.5308"
       gradientUnits="userSpaceOnUse" />
    <linearGradient
       inkscape:collect="always"
       id="linearGradient863">
      <stop
         style="stop-color:#99a7bc;stop-opacity:1"
         offset="0"
         id="stop859" />
      <stop
         style="stop-color:#7171a8;stop-opacity:1"
         offset="1"
         id="stop861" />
    </linearGradient>
    <linearGradient
       inkscape:collect="always"
       xlink:href="#linearGradient863"
       id="linearGradient873"
       x1="9896.2002"
       y1="1023.4"
       x2="167.05577"
       y2="-3824.2473"
       gradientUnits="userSpaceOnUse" />
  </defs>
  <g
     id="g10"
     transform="matrix(0.06540881,0,0,0.06540881,-0.56895124,-0.37080135)">
    <g
       transform="matrix(0.1,0,0,-0.1,0,511)"
       id="g8">
      <path
         d="M 526.7,4048.6 C 388.9,4002.7 283.7,3924.2 214.8,3820.9 98.1,3644.8 100,3662.1 100,2282.6 v -1259 h 1836.8 1836.8 l 612.3,306.1 612.3,306.1 h 2451 2451 l -7.7,378.8 c -5.7,359.7 -7.6,380.8 -55.5,484.1 -63.2,135.8 -166.5,239.2 -302.3,302.3 l -107.1,49.7 -2219.4,5.7 -2219.4,3.8 -612.3,612.3 -612.5,612.4 H 2195.1 C 735.2,4083 618.5,4081.1 526.7,4048.6 Z"
         id="path4-3"
         style="fill:url(#linearGradient865);fill-opacity:1" />
      <path
         d="M 4385.8,717.5 3783.1,413.3 H 1940.6 l -1840.6,-2 3.8,-1880.8 5.7,-1878.9 61.2,-126.3 c 74.6,-151.2 195.2,-267.9 346.3,-338.7 l 109.1,-51.7 H 4998 9370 l 126.3,61.2 c 151.2,74.6 267.9,195.2 338.7,346.3 l 51.7,109.1 5.7,2186.9 3.8,2185 -2452.9,-1.9 H 4988.5 Z"
         id="path6-6"
         style="fill:url(#linearGradient873);fill-opacity:1" />
    </g>
  </g>
  <path
     style="color:#eff0f1;fill:#1c1c31;fill-opacity:1;stroke:none;stroke-width:0.842109"
     d="m 43.7,38 v 0.842109 H 60.542108 V 38 Z m 0,1.684213 v 0.842106 h 10.94737 v -0.842106 z m 0,1.684204 v 0.842104 h 13.473679 v -0.842104 z m 0,1.684213 v 0.84211 h 16.842108 v -0.84211 z m 0,1.684213 v 0.84211 h 8.421047 v -0.84211 z m 0,1.684204 v 0.84211 h 16.842108 v -0.84211 z m 0,1.684213 v 0.84211 h 14.315786 v -0.84211 z m 0,1.684219 v 0.842104 h 8.421047 v -0.842104 z m 0,1.6842 v 0.842108 h 16.842108 v -0.842108 z m 0,1.684212 V 54 h 11.789479 v -0.842109 z"
     class="ColorScheme-Background"
     id="path12-7" />
</svg>
