<?xml version="1.0" encoding="UTF-8" standalone="no"?>
<svg
   xmlns:dc="http://purl.org/dc/elements/1.1/"
   xmlns:cc="http://creativecommons.org/ns#"
   xmlns:rdf="http://www.w3.org/1999/02/22-rdf-syntax-ns#"
   xmlns:svg="http://www.w3.org/2000/svg"
   xmlns="http://www.w3.org/2000/svg"
   xmlns:xlink="http://www.w3.org/1999/xlink"
   xmlns:sodipodi="http://sodipodi.sourceforge.net/DTD/sodipodi-0.dtd"
   xmlns:inkscape="http://www.inkscape.org/namespaces/inkscape"
   version="1.1"
   viewBox="0 0 64 64"
   id="svg71"
   sodipodi:docname="user-trash.svg"
   inkscape:version="1.0.1 (3bc2e813f5, 2020-09-07)">
  <metadata
     id="metadata75">
    <rdf:RDF>
      <cc:Work
         rdf:about="">
        <dc:format>image/svg+xml</dc:format>
        <dc:type
           rdf:resource="http://purl.org/dc/dcmitype/StillImage" />
      </cc:Work>
    </rdf:RDF>
  </metadata>
  <sodipodi:namedview
     pagecolor="#ffffff"
     bordercolor="#666666"
     borderopacity="1"
     objecttolerance="10"
     gridtolerance="10"
     guidetolerance="10"
     inkscape:pageopacity="0"
     inkscape:pageshadow="2"
     inkscape:window-width="1920"
     inkscape:window-height="1014"
     id="namedview73"
     showgrid="false"
     inkscape:zoom="5.2149125"
     inkscape:cx="59.411973"
     inkscape:cy="21.670366"
     inkscape:window-x="0"
     inkscape:window-y="0"
     inkscape:window-maximized="1"
     inkscape:current-layer="svg71"
     inkscape:document-rotation="0">
    <inkscape:grid
       type="xygrid"
       id="grid882" />
  </sodipodi:namedview>
  <defs
     id="defs12">
    <linearGradient
       inkscape:collect="always"
       id="linearGradient863">
      <stop
         style="stop-color:#99a7bc;stop-opacity:1;"
         offset="0"
         id="stop859" />
      <stop
         style="stop-color:#9595be;stop-opacity:1"
         offset="1"
         id="stop861" />
    </linearGradient>
    <radialGradient
       id="l"
       cx="20.571428"
       cy="8.5"
       r="4"
       gradientTransform="matrix(7.4835576,-6.814988e-8,5.4400368e-8,1.5,-121.89485,3.2500015)"
       gradientUnits="userSpaceOnUse">
      <stop
         stop-color="#4f575f"
         stop-opacity=".25098041"
         offset="0"
         id="stop2" />
      <stop
         stop-color="#8a939a"
         offset="1"
         id="stop4" />
    </radialGradient>
    <linearGradient
       id="k"
       x1="390.57101"
       x2="410.57101"
       y1="521.79797"
       y2="545.79797"
       gradientTransform="matrix(2,0,0,1.8333333,-769.142,-942.62968)"
       gradientUnits="userSpaceOnUse">
      <stop
         stop-color="#bdc3c7"
         offset="0"
         id="stop7" />
      <stop
         stop-color="#8a9696"
         offset="1"
         id="stop9" />
    </linearGradient>
    <linearGradient
       inkscape:collect="always"
       xlink:href="#linearGradient863"
       id="linearGradient865"
       x1="9.4290218"
       y1="58.218433"
       x2="50.375999"
       y2="10"
       gradientUnits="userSpaceOnUse" />
    <linearGradient
       inkscape:collect="always"
       xlink:href="#linearGradient863"
       id="linearGradient873"
       x1="5.5"
       y1="4"
       x2="53.5"
       y2="4"
       gradientUnits="userSpaceOnUse" />
  </defs>
  <linearGradient
     id="a">
    <stop
       stop-color="#4f575f"
       stop-opacity=".4"
       offset="0"
       id="stop14" />
    <stop
       stop-color="#4f575f"
       stop-opacity=".6"
       offset=".5"
       id="stop16" />
    <stop
       stop-color="#4f575f"
       stop-opacity=".4"
       offset="1"
       id="stop18" />
  </linearGradient>
  <radialGradient
     id="b"
     cx="16"
     cy="8.5"
     r="4"
     gradientTransform="matrix(3.5,0,0,3,-24,-13.5)"
     gradientUnits="userSpaceOnUse">
    <stop
       stop-color="#4f575f"
       stop-opacity=".25"
       offset="0"
       id="stop21" />
    <stop
       stop-color="#9da5ab"
       offset="1"
       id="stop23" />
  </radialGradient>
  <linearGradient
     id="c"
     x1="412.57101"
     x2="412.57101"
     y1="522.79797"
     y2="520.79797"
     gradientTransform="matrix(2,0,0,2,-769.142,-1029.596)"
     gradientUnits="userSpaceOnUse">
    <stop
       stop-color="#9da5ab"
       offset="0"
       id="stop26" />
    <stop
       stop-color="#bdc3c7"
       offset="1"
       id="stop28" />
  </linearGradient>
  <linearGradient
     id="e"
     x1="395.57101"
     x2="395.57101"
     y1="520.79797"
     y2="516.79797"
     gradientTransform="matrix(2,0,0,2,-769.142,-1029.596)"
     gradientUnits="userSpaceOnUse">
    <stop
       stop-color="#afb0b3"
       offset="0"
       id="stop31" />
    <stop
       stop-color="#bdc3c7"
       offset="1"
       id="stop33" />
  </linearGradient>
  <linearGradient
     id="f"
     x1="390.57101"
     x2="406.57101"
     y1="521.79797"
     y2="537.79797"
     gradientTransform="matrix(2,0,0,1.9090909,-769.142,-980.1598)"
     gradientUnits="userSpaceOnUse">
    <stop
       stop-color="#292c2f"
       offset="0"
       id="stop36" />
    <stop
       stop-opacity="0"
       offset="1"
       id="stop38" />
  </linearGradient>
  <linearGradient
     id="g"
     x1="391.57101"
     x2="394.57101"
     y1="534.79797"
     y2="534.79797"
     gradientTransform="matrix(1.33334,0,0,1.8,-498.094,-926.63634)"
     gradientUnits="userSpaceOnUse"
     xlink:href="#a" />
  <linearGradient
     id="h"
     x1="391.57101"
     x2="394.57101"
     y1="534.79797"
     y2="534.79797"
     gradientTransform="matrix(1.33334,0,0,1.7999999,-508.096,-926.63626)"
     gradientUnits="userSpaceOnUse"
     xlink:href="#a" />
  <linearGradient
     id="i"
     x1="391.57101"
     x2="394.57101"
     y1="534.79797"
     y2="534.79797"
     gradientTransform="matrix(1.33334,0,0,1.8,-486.096,-926.63634)"
     gradientUnits="userSpaceOnUse"
     xlink:href="#a" />
  <linearGradient
     id="j"
     x1="391.57101"
     x2="394.57101"
     y1="534.79797"
     y2="534.79797"
     gradientTransform="matrix(1.33334,0,0,1.8,-476.094,-926.63634)"
     gradientUnits="userSpaceOnUse"
     xlink:href="#a" />
  <g
     id="g6"
     transform="matrix(0.91525424,0,0,0.91525424,5.5421017,5.508)"
     style="fill:#99a7bc;fill-opacity:1">
    <path
       d="M 52.5,6 H 38.456 C 38.346,4.75 37.961,2.642 36.643,1.289 35.809,0.434 34.751,0 33.499,0 H 23.5 C 22.248,0 21.19,0.434 20.356,1.289 19.038,2.642 18.653,4.75 18.543,6 H 6.5 c -0.552,0 -1,0.447 -1,1 0,0.553 0.448,1 1,1 h 46 c 0.552,0 1,-0.447 1,-1 0,-0.553 -0.448,-1 -1,-1 z M 20.553,6 C 20.665,4.952 20.988,3.504 21.793,2.681 22.24,2.223 22.799,2 23.5,2 h 9.999 c 0.701,0 1.26,0.223 1.708,0.681 0.805,0.823 1.128,2.271 1.24,3.319 z"
       id="path2"
       style="fill:url(#linearGradient873);fill-opacity:1.0" />
    <path
       d="M 10.456,54.021 C 10.493,55.743 11.565,59 15.364,59 h 28.272 c 3.799,0 4.871,-3.257 4.907,-4.958 L 50.376,10 H 8.624 Z M 17.5,42 h 24 c 0.552,0 1,0.447 1,1 0,0.553 -0.448,1 -1,1 h -24 c -0.552,0 -1,-0.447 -1,-1 0,-0.553 0.448,-1 1,-1 z m 0,5 h 24 c 0.552,0 1,0.447 1,1 0,0.553 -0.448,1 -1,1 h -24 c -0.552,0 -1,-0.447 -1,-1 0,-0.553 0.448,-1 1,-1 z m 0,5 h 24 c 0.552,0 1,0.447 1,1 0,0.553 -0.448,1 -1,1 h -24 c -0.552,0 -1,-0.447 -1,-1 0,-0.553 0.448,-1 1,-1 z"
       id="path4"
       style="fill:url(#linearGradient865);fill-opacity:1" />
  </g>
</svg>
