<?xml version="1.0" encoding="UTF-8" standalone="no"?>
<svg
   xmlns:dc="http://purl.org/dc/elements/1.1/"
   xmlns:cc="http://creativecommons.org/ns#"
   xmlns:rdf="http://www.w3.org/1999/02/22-rdf-syntax-ns#"
   xmlns:svg="http://www.w3.org/2000/svg"
   xmlns="http://www.w3.org/2000/svg"
   xmlns:xlink="http://www.w3.org/1999/xlink"
   xmlns:sodipodi="http://sodipodi.sourceforge.net/DTD/sodipodi-0.dtd"
   xmlns:inkscape="http://www.inkscape.org/namespaces/inkscape"
   width="32"
   version="1.1"
   height="32"
   viewBox="0 0 32 32"
   id="svg36"
   sodipodi:docname="user-desktop.svg"
   inkscape:version="1.0.1 (3bc2e813f5, 2020-09-07)">
  <sodipodi:namedview
     pagecolor="#ffffff"
     bordercolor="#666666"
     borderopacity="1"
     objecttolerance="10"
     gridtolerance="10"
     guidetolerance="10"
     inkscape:pageopacity="0"
     inkscape:pageshadow="2"
     inkscape:window-width="1920"
     inkscape:window-height="1014"
     id="namedview38"
     showgrid="false"
     inkscape:zoom="9.8125"
     inkscape:cx="-15.546097"
     inkscape:cy="6.0488425"
     inkscape:window-x="0"
     inkscape:window-y="0"
     inkscape:window-maximized="1"
     inkscape:current-layer="layer1" />
  <defs
     id="defs5455">
    <linearGradient
       inkscape:collect="always"
       xlink:href="#linearGradient1029"
       id="linearGradient1031"
       x1="385.00146"
       y1="537.38751"
       x2="448.23422"
       y2="537.38751"
       gradientUnits="userSpaceOnUse"
       gradientTransform="matrix(0.50366323,0,0,0.50366323,190.84233,273.12374)" />
    <linearGradient
       inkscape:collect="always"
       id="linearGradient1029">
      <stop
         style="stop-color:#7171a8;stop-opacity:1"
         offset="0"
         id="stop1025" />
      <stop
         style="stop-color:#cccc00;stop-opacity:1"
         offset="1"
         id="stop1027" />
    </linearGradient>
    <linearGradient
       inkscape:collect="always"
       xlink:href="#linearGradient1021"
       id="linearGradient1023"
       x1="385.00146"
       y1="529.82495"
       x2="448.23422"
       y2="503.16504"
       gradientUnits="userSpaceOnUse"
       gradientTransform="matrix(0.50366323,0,0,0.63196363,190.84233,205.99884)" />
    <linearGradient
       inkscape:collect="always"
       id="linearGradient1021">
      <stop
         style="stop-color:#7171a8;stop-opacity:1"
         offset="0"
         id="stop1017" />
      <stop
         style="stop-color:#99a7bc;stop-opacity:1"
         offset="1"
         id="stop1019" />
    </linearGradient>
    <linearGradient
       inkscape:collect="always"
       xlink:href="#linearGradient1013"
       id="linearGradient1015"
       x1="385.00146"
       y1="495.60248"
       x2="448.23422"
       y2="495.60248"
       gradientUnits="userSpaceOnUse"
       gradientTransform="matrix(0.50366323,0,0,0.50366323,190.84233,270.55509)" />
    <linearGradient
       inkscape:collect="always"
       id="linearGradient1013">
      <stop
         style="stop-color:#00cccc;stop-opacity:1"
         offset="0"
         id="stop1009" />
      <stop
         style="stop-color:#7171a8;stop-opacity:1"
         offset="1"
         id="stop1011" />
    </linearGradient>
  </defs>
  <metadata
     id="metadata5458">
    <rdf:RDF>
      <cc:Work
         rdf:about="">
        <dc:format>image/svg+xml</dc:format>
        <dc:type
           rdf:resource="http://purl.org/dc/dcmitype/StillImage" />
      </cc:Work>
    </rdf:RDF>
  </metadata>
  <g
     inkscape:label="Capa 1"
     inkscape:groupmode="layer"
     id="layer1"
     transform="matrix(1 0 0 1 -384.57143 -515.798)">
    <path
       d="m 384.75343,541.84325 v 0.71702 c 0,1.74731 1.42142,3.16873 3.16852,3.16873 h 7.57189 v 0 0 0 0 h 10.36721 v 0 0 0 0 h 7.57191 c 1.74715,0 3.1685,-1.42163 3.1685,-3.16873 v -0.71702 z"
       id="path2"
       sodipodi:nodetypes="cssccccccccccsscc"
       style="fill:url(#linearGradient1031);fill-opacity:1;stroke-width:0.0622022" />
    <path
       d="m 384.75343,523.98074 h 31.84803 v 16.84828 h -31.84803 z m 0,0"
       id="path4"
       style="fill:url(#linearGradient1023);fill-opacity:1;stroke-width:0.069677" />
    <path
       d="m 416.60146,522.11475 v -0.71723 c 0,-1.7471 -1.42135,-3.16852 -3.1685,-3.16852 h -25.51101 c -1.7471,0 -3.16852,1.42142 -3.16852,3.16852 v 0.71697 h 31.84803 z m 0,0"
       id="path6"
       style="fill:url(#linearGradient1015);fill-opacity:1;stroke-width:0.0622022" />
    <path
       d="m 412.78525,542.31509 a 0.25183154,0.25183154 0 0 0 -0.25193,0.25199 0.25183154,0.25183154 0 0 0 0.25193,0.25176 0.25183154,0.25183154 0 0 0 0.25167,-0.25176 0.25183154,0.25183154 0 0 0 -0.25167,-0.25199 z m 1.25916,0 -0.48812,0.3935 0.6533,0.81076 -0.6139,0.61376 0.44872,0.44848 1.00715,-1.00722 z m -1.637,1.0074 a 0.37774734,0.37774734 0 0 0 -0.37783,0.37778 0.37774734,0.37774734 0 0 0 0.37783,0.37763 0.37774734,0.37774734 0 0 0 0.37784,-0.37763 0.37774734,0.37774734 0 0 0 -0.37784,-0.37778 z m 0.75546,1.2591 a 0.37774734,0.37774734 0 0 0 -0.37762,0.37791 0.37774734,0.37774734 0 0 0 0.37762,0.37762 0.37774734,0.37774734 0 0 0 0.37782,-0.37762 0.37774734,0.37774734 0 0 0 -0.37782,-0.37791 z"
       id="path2994-3"
       style="color:#000000;stroke-width:1.51112"
       inkscape:connector-curvature="0" />
  </g>
</svg>
