<?xml version="1.0" encoding="UTF-8" standalone="no"?>
<svg
   xmlns:dc="http://purl.org/dc/elements/1.1/"
   xmlns:cc="http://creativecommons.org/ns#"
   xmlns:rdf="http://www.w3.org/1999/02/22-rdf-syntax-ns#"
   xmlns:svg="http://www.w3.org/2000/svg"
   xmlns="http://www.w3.org/2000/svg"
   xmlns:xlink="http://www.w3.org/1999/xlink"
   xmlns:sodipodi="http://sodipodi.sourceforge.net/DTD/sodipodi-0.dtd"
   xmlns:inkscape="http://www.inkscape.org/namespaces/inkscape"
   id="svg2"
   viewBox="0 0 32 32"
   height="32"
   version="1.1"
   width="32"
   sodipodi:docname="folder-unlocked.svg"
   inkscape:version="1.0.1 (3bc2e813f5, 2020-09-07)">
  <sodipodi:namedview
     pagecolor="#ffffff"
     bordercolor="#666666"
     borderopacity="1"
     objecttolerance="10"
     gridtolerance="10"
     guidetolerance="10"
     inkscape:pageopacity="0"
     inkscape:pageshadow="2"
     inkscape:window-width="1920"
     inkscape:window-height="1022"
     id="namedview18"
     showgrid="false"
     inkscape:zoom="9.8125"
     inkscape:cx="-9.1329218"
     inkscape:cy="5.6734874"
     inkscape:window-x="0"
     inkscape:window-y="0"
     inkscape:window-maximized="1"
     inkscape:current-layer="svg2"
     inkscape:document-rotation="0" />
  <defs
     id="defs5455">
    <linearGradient
       id="linearGradient4172-5">
      <stop
         id="stop4174-6"
         style="stop-color:#3daee9" />
      <stop
         id="stop4176-6"
         style="stop-color:#6cc1ef"
         offset="1" />
    </linearGradient>
    <linearGradient
       x2="0"
       gradientUnits="userSpaceOnUse"
       y2="8"
       y1="29"
       xlink:href="#linearGradient4172-5"
       id="linearGradient4342" />
    <linearGradient
       inkscape:collect="always"
       xlink:href="#linearGradient863"
       id="linearGradient865"
       x1="9952.6025"
       y1="2868.6445"
       x2="146.51321"
       y2="2751.925"
       gradientUnits="userSpaceOnUse" />
    <linearGradient
       inkscape:collect="always"
       id="linearGradient863">
      <stop
         style="stop-color:#99a7bc;stop-opacity:1"
         offset="0"
         id="stop859" />
      <stop
         style="stop-color:#7171a8;stop-opacity:1"
         offset="1"
         id="stop861" />
    </linearGradient>
    <linearGradient
       inkscape:collect="always"
       xlink:href="#linearGradient863"
       id="linearGradient873"
       x1="9896.2002"
       y1="1023.4"
       x2="167.05577"
       y2="-3824.2473"
       gradientUnits="userSpaceOnUse" />
  </defs>
  <metadata
     id="metadata5458">
    <rdf:RDF>
      <cc:Work
         rdf:about="">
        <dc:format>image/svg+xml</dc:format>
        <dc:type
           rdf:resource="http://purl.org/dc/dcmitype/StillImage" />
        <dc:title />
      </cc:Work>
    </rdf:RDF>
  </metadata>
  <g
     id="g10"
     transform="matrix(0.0327044,0,0,0.0327044,-0.2697928,-0.06652804)">
    <g
       transform="matrix(0.1,0,0,-0.1,0,511)"
       id="g8">
      <path
         d="M 526.7,4048.6 C 388.9,4002.7 283.7,3924.2 214.8,3820.9 98.1,3644.8 100,3662.1 100,2282.6 v -1259 h 1836.8 1836.8 l 612.3,306.1 612.3,306.1 h 2451 2451 l -7.7,378.8 c -5.7,359.7 -7.6,380.8 -55.5,484.1 -63.2,135.8 -166.5,239.2 -302.3,302.3 l -107.1,49.7 -2219.4,5.7 -2219.4,3.8 -612.3,612.3 -612.5,612.4 H 2195.1 C 735.2,4083 618.5,4081.1 526.7,4048.6 Z"
         id="path4"
         style="fill:url(#linearGradient865);fill-opacity:1" />
      <path
         d="M 4385.8,717.5 3783.1,413.3 H 1940.6 l -1840.6,-2 3.8,-1880.8 5.7,-1878.9 61.2,-126.3 c 74.6,-151.2 195.2,-267.9 346.3,-338.7 l 109.1,-51.7 H 4998 9370 l 126.3,61.2 c 151.2,74.6 267.9,195.2 338.7,346.3 l 51.7,109.1 5.7,2186.9 3.8,2185 -2452.9,-1.9 H 4988.5 Z"
         id="path6"
         style="fill:url(#linearGradient873);fill-opacity:1" />
    </g>
  </g>
  <path
     id="rect4184-3"
     d="m 27.328,20.038 c -1.329603,0 -2.4,1.070397 -2.4,2.4 h 0.8 c 0,-0.8864 0.7136,-1.6 1.6,-1.6 0.8864,0 1.6,0.7136 1.6,1.6 v 1.6 h -3.2 -0.8 -0.8 v 4 h 6.4 v -4 h -0.8 v -1.6 c 0,-1.329603 -1.070397,-2.4 -2.4,-2.4 z m -2.4,4.8 h 0.8 3.2 0.8 v 2.4 h -4.8 z"
     style="fill:#1c1c31;fill-opacity:1;stroke-width:0.8" />
</svg>
