<?xml version="1.0" encoding="UTF-8" standalone="no"?>
<svg
   xmlns:dc="http://purl.org/dc/elements/1.1/"
   xmlns:cc="http://creativecommons.org/ns#"
   xmlns:rdf="http://www.w3.org/1999/02/22-rdf-syntax-ns#"
   xmlns:svg="http://www.w3.org/2000/svg"
   xmlns="http://www.w3.org/2000/svg"
   xmlns:xlink="http://www.w3.org/1999/xlink"
   xmlns:sodipodi="http://sodipodi.sourceforge.net/DTD/sodipodi-0.dtd"
   xmlns:inkscape="http://www.inkscape.org/namespaces/inkscape"
   width="32"
   version="1.1"
   height="32"
   viewBox="0 0 32 32"
   id="svg15"
   sodipodi:docname="folder-Github.svg"
   inkscape:version="1.0.1 (3bc2e813f5, 2020-09-07)">
  <sodipodi:namedview
     pagecolor="#ffffff"
     bordercolor="#666666"
     borderopacity="1"
     objecttolerance="10"
     gridtolerance="10"
     guidetolerance="10"
     inkscape:pageopacity="0"
     inkscape:pageshadow="2"
     inkscape:window-width="1920"
     inkscape:window-height="1007"
     id="namedview17"
     showgrid="false"
     inkscape:zoom="9.8125"
     inkscape:cx="-9.5980005"
     inkscape:cy="2.9308582"
     inkscape:window-x="0"
     inkscape:window-y="0"
     inkscape:window-maximized="1"
     inkscape:current-layer="layer1"
     inkscape:document-rotation="0" />
  <defs
     id="defs5455">
    <linearGradient
       inkscape:collect="always"
       xlink:href="#linearGradient863"
       id="linearGradient865"
       x1="9917.7139"
       y1="2772.7378"
       x2="111.33134"
       y2="2824.3943"
       gradientUnits="userSpaceOnUse" />
    <linearGradient
       inkscape:collect="always"
       id="linearGradient863">
      <stop
         style="stop-color:#99a7bc;stop-opacity:1"
         offset="0"
         id="stop859" />
      <stop
         style="stop-color:#7171a8;stop-opacity:1"
         offset="1"
         id="stop861" />
    </linearGradient>
    <linearGradient
       inkscape:collect="always"
       xlink:href="#linearGradient863"
       id="linearGradient873"
       x1="9896.2002"
       y1="1023.4"
       x2="167.05577"
       y2="-3824.2473"
       gradientUnits="userSpaceOnUse" />
  </defs>
  <metadata
     id="metadata5458">
    <rdf:RDF>
      <cc:Work
         rdf:about="">
        <dc:format>image/svg+xml</dc:format>
        <dc:type
           rdf:resource="http://purl.org/dc/dcmitype/StillImage" />
      </cc:Work>
    </rdf:RDF>
  </metadata>
  <g
     inkscape:label="Capa 1"
     inkscape:groupmode="layer"
     id="layer1"
     transform="translate(-384.57143,-515.798)">
    <g
       id="g10"
       transform="matrix(0.0327044,0,0,0.0327044,384.27739,515.70089)">
      <g
         transform="matrix(0.1,0,0,-0.1,0,511)"
         id="g8">
        <path
           d="M 526.7,4048.6 C 388.9,4002.7 283.7,3924.2 214.8,3820.9 98.1,3644.8 100,3662.1 100,2282.6 v -1259 h 1836.8 1836.8 l 612.3,306.1 612.3,306.1 h 2451 2451 l -7.7,378.8 c -5.7,359.7 -7.6,380.8 -55.5,484.1 -63.2,135.8 -166.5,239.2 -302.3,302.3 l -107.1,49.7 -2219.4,5.7 -2219.4,3.8 -612.3,612.3 -612.5,612.4 H 2195.1 C 735.2,4083 618.5,4081.1 526.7,4048.6 Z"
           id="path4"
           style="fill:url(#linearGradient865);fill-opacity:1" />
        <path
           d="M 4385.8,717.5 3783.1,413.3 H 1940.6 l -1840.6,-2 3.8,-1880.8 5.7,-1878.9 61.2,-126.3 c 74.6,-151.2 195.2,-267.9 346.3,-338.7 l 109.1,-51.7 H 4998 9370 l 126.3,61.2 c 151.2,74.6 267.9,195.2 338.7,346.3 l 51.7,109.1 5.7,2186.9 3.8,2185 -2452.9,-1.9 H 4988.5 Z"
           id="path6"
           style="fill:url(#linearGradient873);fill-opacity:1" />
      </g>
    </g>
    <path
       d="m 409.59312,535.159 c -2.30606,0 -4.17386,1.8365 -4.17386,4.1015 0,1.81251 1.19581,3.34952 2.85388,3.89144 0.20869,0.0386 0.2852,-0.0883 0.2852,-0.19722 0,-0.0974 -0.004,-0.35547 -0.005,-0.69738 -1.16102,0.2473 -1.40589,-0.55025 -1.40589,-0.55025 -0.18989,-0.47339 -0.46432,-0.6 -0.46432,-0.6 -0.37808,-0.25427 0.0292,-0.24903 0.0292,-0.24903 0.41912,0.0284 0.63929,0.4226 0.63929,0.4226 0.37217,0.62712 0.97703,0.4459 1.21564,0.34121 0.0375,-0.26539 0.14504,-0.4459 0.26434,-0.54851 -0.92694,-0.10262 -1.90119,-0.4553 -1.90119,-2.02675 0,-0.44765 0.16174,-0.81357 0.42956,-1.10051 -0.0469,-0.10365 -0.18782,-0.52069 0.0365,-1.08555 0,0 0.34956,-0.10991 1.14781,0.42051 0.33392,-0.0911 0.68869,-0.13634 1.04346,-0.13843 0.35478,0.002 0.70957,0.0473 1.04347,0.13843 0.79303,-0.53042 1.1426,-0.42051 1.1426,-0.42051 0.22434,0.56486 0.0835,0.9819 0.0418,1.08555 0.26608,0.28694 0.42782,0.65286 0.42782,1.10051 0,1.57563 -0.97565,1.92241 -1.90432,2.02327 0.14608,0.12313 0.28173,0.3746 0.28173,0.75894 0,0.54887 -0.005,0.9899 -0.005,1.12312 0,0.10748 0.0731,0.23582 0.28696,0.19478 1.66988,-0.53843 2.86465,-2.07649 2.86465,-3.88622 -10e-6,-2.265 -1.86885,-4.1015 -4.17386,-4.1015 z"
       id="path2-3"
       style="fill:#1c1c31;fill-opacity:1;stroke-width:0.34782" />
  </g>
</svg>
