<?xml version="1.0" encoding="UTF-8" standalone="no"?>
<svg
   xmlns:dc="http://purl.org/dc/elements/1.1/"
   xmlns:cc="http://creativecommons.org/ns#"
   xmlns:rdf="http://www.w3.org/1999/02/22-rdf-syntax-ns#"
   xmlns:svg="http://www.w3.org/2000/svg"
   xmlns="http://www.w3.org/2000/svg"
   xmlns:xlink="http://www.w3.org/1999/xlink"
   xmlns:sodipodi="http://sodipodi.sourceforge.net/DTD/sodipodi-0.dtd"
   xmlns:inkscape="http://www.inkscape.org/namespaces/inkscape"
   width="32"
   version="1.1"
   height="32"
   viewBox="0 0 32 32"
   id="svg17"
   sodipodi:docname="folder-public.svg"
   inkscape:version="1.0.1 (3bc2e813f5, 2020-09-07)">
  <sodipodi:namedview
     pagecolor="#ffffff"
     bordercolor="#666666"
     borderopacity="1"
     objecttolerance="10"
     gridtolerance="10"
     guidetolerance="10"
     inkscape:pageopacity="0"
     inkscape:pageshadow="2"
     inkscape:window-width="1920"
     inkscape:window-height="1022"
     id="namedview19"
     showgrid="false"
     inkscape:zoom="9.8125"
     inkscape:cx="-9.6187913"
     inkscape:cy="3.2938266"
     inkscape:window-x="0"
     inkscape:window-y="0"
     inkscape:window-maximized="1"
     inkscape:current-layer="layer1"
     inkscape:document-rotation="0" />
  <defs
     id="defs5455">
    <linearGradient
       inkscape:collect="always"
       xlink:href="#linearGradient863"
       id="linearGradient865"
       x1="9886.2842"
       y1="2823.5955"
       x2="98.114845"
       y2="2875.073"
       gradientUnits="userSpaceOnUse" />
    <linearGradient
       inkscape:collect="always"
       id="linearGradient863">
      <stop
         style="stop-color:#99a7bc;stop-opacity:1"
         offset="0"
         id="stop859" />
      <stop
         style="stop-color:#7171a8;stop-opacity:1"
         offset="1"
         id="stop861" />
    </linearGradient>
    <linearGradient
       inkscape:collect="always"
       xlink:href="#linearGradient863"
       id="linearGradient873"
       x1="9896.2002"
       y1="1023.4"
       x2="167.05577"
       y2="-3824.2473"
       gradientUnits="userSpaceOnUse" />
  </defs>
  <metadata
     id="metadata5458">
    <rdf:RDF>
      <cc:Work
         rdf:about="">
        <dc:format>image/svg+xml</dc:format>
        <dc:type
           rdf:resource="http://purl.org/dc/dcmitype/StillImage" />
      </cc:Work>
    </rdf:RDF>
  </metadata>
  <g
     inkscape:label="Capa 1"
     inkscape:groupmode="layer"
     id="layer1"
     transform="matrix(1 0 0 1 -384.57143 -515.798)">
    <g
       id="g10"
       transform="matrix(0.0327044,0,0,0.0327044,384.28639,515.67095)">
      <g
         transform="matrix(0.1,0,0,-0.1,0,511)"
         id="g8">
        <path
           d="M 526.7,4048.6 C 388.9,4002.7 283.7,3924.2 214.8,3820.9 98.1,3644.8 100,3662.1 100,2282.6 v -1259 h 1836.8 1836.8 l 612.3,306.1 612.3,306.1 h 2451 2451 l -7.7,378.8 c -5.7,359.7 -7.6,380.8 -55.5,484.1 -63.2,135.8 -166.5,239.2 -302.3,302.3 l -107.1,49.7 -2219.4,5.7 -2219.4,3.8 -612.3,612.3 -612.5,612.4 H 2195.1 C 735.2,4083 618.5,4081.1 526.7,4048.6 Z"
           id="path4"
           style="fill:url(#linearGradient865);fill-opacity:1" />
        <path
           d="M 4385.8,717.5 3783.1,413.3 H 1940.6 l -1840.6,-2 3.8,-1880.8 5.7,-1878.9 61.2,-126.3 c 74.6,-151.2 195.2,-267.9 346.3,-338.7 l 109.1,-51.7 H 4998 9370 l 126.3,61.2 c 151.2,74.6 267.9,195.2 338.7,346.3 l 51.7,109.1 5.7,2186.9 3.8,2185 -2452.9,-1.9 H 4988.5 Z"
           id="path6"
           style="fill:url(#linearGradient873);fill-opacity:1" />
      </g>
    </g>
    <path
       inkscape:connector-curvature="0"
       style="fill:#1c1c31;fill-opacity:1;stroke-width:0.923745"
       id="rect4214-3"
       d="m 412.01843,535.647 c -0.88364,0 -1.6,0.71636 -1.6,1.6 0,0.88364 0.71636,1.6 1.6,1.6 0.88364,0 1.6,-0.71636 1.6,-1.6 0,-0.88364 -0.71636,-1.6 -1.6,-1.6 z m -3.2,0.8 c -0.88364,0 -1.6,0.71636 -1.6,1.6 0,0.88364 0.71636,1.6 1.6,1.6 0.88364,0 1.6,-0.71636 1.6,-1.6 0,-0.88364 -0.71636,-1.6 -1.6,-1.6 z m 3.2,3.2 c -0.24368,8e-4 -0.48641,0.023 -0.72343,0.0657 0.26962,0.21299 0.51065,0.45979 0.71721,0.73439 h 0.008 c 1.32549,0 2.4,0.71637 2.4,1.6 h -1.68436 c 0.0547,0.26315 0.0831,0.53117 0.0845,0.8 h 1.27657 0.9375 0.18593 v -0.8 c 0,-1.32551 -1.43267,-2.4 -3.2,-2.4 z m -3.2,0.8 c -1.76733,0 -3.2,1.07453 -3.2,2.4 v 0.8 h 0.1875 0.93909 4.14998 0.93748 0.18595 v -0.8 c 0,-1.32547 -1.43267,-2.4 -3.2,-2.4 z m 0,0.8 c 1.32546,0 2.4,0.71636 2.4,1.6 h -4.8 c 0,-0.88364 1.07454,-1.6 2.4,-1.6 z" />
  </g>
</svg>
