<?xml version="1.0" encoding="UTF-8" standalone="no"?>
<svg
   xmlns:dc="http://purl.org/dc/elements/1.1/"
   xmlns:cc="http://creativecommons.org/ns#"
   xmlns:rdf="http://www.w3.org/1999/02/22-rdf-syntax-ns#"
   xmlns:svg="http://www.w3.org/2000/svg"
   xmlns="http://www.w3.org/2000/svg"
   xmlns:xlink="http://www.w3.org/1999/xlink"
   xmlns:sodipodi="http://sodipodi.sourceforge.net/DTD/sodipodi-0.dtd"
   xmlns:inkscape="http://www.inkscape.org/namespaces/inkscape"
   width="32"
   version="1.1"
   height="32"
   viewBox="0 0 32 32"
   id="svg15"
   sodipodi:docname="folder-reddit.svg"
   inkscape:version="1.0.1 (3bc2e813f5, 2020-09-07)">
  <sodipodi:namedview
     pagecolor="#ffffff"
     bordercolor="#666666"
     borderopacity="1"
     objecttolerance="10"
     gridtolerance="10"
     guidetolerance="10"
     inkscape:pageopacity="0"
     inkscape:pageshadow="2"
     inkscape:window-width="1920"
     inkscape:window-height="1007"
     id="namedview17"
     showgrid="false"
     inkscape:zoom="9.8125"
     inkscape:cx="-9.5980005"
     inkscape:cy="2.9308582"
     inkscape:window-x="0"
     inkscape:window-y="0"
     inkscape:window-maximized="1"
     inkscape:current-layer="layer1"
     inkscape:document-rotation="0" />
  <defs
     id="defs5455">
    <linearGradient
       inkscape:collect="always"
       xlink:href="#linearGradient863"
       id="linearGradient865"
       x1="9917.7139"
       y1="2772.7378"
       x2="111.33134"
       y2="2824.3943"
       gradientUnits="userSpaceOnUse" />
    <linearGradient
       inkscape:collect="always"
       id="linearGradient863">
      <stop
         style="stop-color:#99a7bc;stop-opacity:1"
         offset="0"
         id="stop859" />
      <stop
         style="stop-color:#7171a8;stop-opacity:1"
         offset="1"
         id="stop861" />
    </linearGradient>
    <linearGradient
       inkscape:collect="always"
       xlink:href="#linearGradient863"
       id="linearGradient873"
       x1="9896.2002"
       y1="1023.4"
       x2="167.05577"
       y2="-3824.2473"
       gradientUnits="userSpaceOnUse" />
  </defs>
  <metadata
     id="metadata5458">
    <rdf:RDF>
      <cc:Work
         rdf:about="">
        <dc:format>image/svg+xml</dc:format>
        <dc:type
           rdf:resource="http://purl.org/dc/dcmitype/StillImage" />
      </cc:Work>
    </rdf:RDF>
  </metadata>
  <g
     inkscape:label="Capa 1"
     inkscape:groupmode="layer"
     id="layer1"
     transform="translate(-384.57143,-515.798)">
    <g
       id="g10"
       transform="matrix(0.0327044,0,0,0.0327044,384.27739,515.70089)">
      <g
         transform="matrix(0.1,0,0,-0.1,0,511)"
         id="g8">
        <path
           d="M 526.7,4048.6 C 388.9,4002.7 283.7,3924.2 214.8,3820.9 98.1,3644.8 100,3662.1 100,2282.6 v -1259 h 1836.8 1836.8 l 612.3,306.1 612.3,306.1 h 2451 2451 l -7.7,378.8 c -5.7,359.7 -7.6,380.8 -55.5,484.1 -63.2,135.8 -166.5,239.2 -302.3,302.3 l -107.1,49.7 -2219.4,5.7 -2219.4,3.8 -612.3,612.3 -612.5,612.4 H 2195.1 C 735.2,4083 618.5,4081.1 526.7,4048.6 Z"
           id="path4"
           style="fill:url(#linearGradient865);fill-opacity:1" />
        <path
           d="M 4385.8,717.5 3783.1,413.3 H 1940.6 l -1840.6,-2 3.8,-1880.8 5.7,-1878.9 61.2,-126.3 c 74.6,-151.2 195.2,-267.9 346.3,-338.7 l 109.1,-51.7 H 4998 9370 l 126.3,61.2 c 151.2,74.6 267.9,195.2 338.7,346.3 l 51.7,109.1 5.7,2186.9 3.8,2185 -2452.9,-1.9 H 4988.5 Z"
           id="path6"
           style="fill:url(#linearGradient873);fill-opacity:1" />
      </g>
    </g>
    <path
       d="m 415.31158,539.03628 c 0,-0.7312 -0.59485,-1.32418 -1.32412,-1.32418 -0.28733,0 -0.56172,0.092 -0.78823,0.25969 -0.64281,-0.32418 -1.40706,-0.51935 -2.21549,-0.56538 l 0.52852,-1.46042 1.27811,0.3186 c 0.0277,0.52485 0.46414,0.94102 0.99454,0.94102 0.54872,0 0.99626,-0.44752 0.99626,-0.99623 0,-0.54884 -0.44754,-0.99638 -0.99626,-0.99638 -0.37389,0 -0.69985,0.20626 -0.87115,0.51197 l -1.75141,-0.43829 -0.7624,2.10864 c -0.87842,0.0257 -1.71092,0.22469 -2.40517,0.57278 -0.22656,-0.16761 -0.49904,-0.25783 -0.78636,-0.25783 -0.73115,0.004 -1.32599,0.59668 -1.32599,1.32601 0,0.35723 0.1473,0.7016 0.39959,0.94841 -0.0169,0.10496 -0.0255,0.2118 -0.0255,0.31852 0,0.8011 0.4677,1.54518 1.31483,2.094 0.81035,0.52667 1.884,0.81579 3.02216,0.81579 1.13816,0 2.20996,-0.28912 3.02208,-0.81579 0.84715,-0.55069 1.31495,-1.29469 1.31495,-2.094 0,-0.10495 -0.009,-0.20991 -0.0239,-0.31487 0.25594,-0.24493 0.4052,-0.59117 0.4052,-0.95206 z m -6.78827,0.77344 c 0,-0.42544 0.34622,-0.77169 0.77167,-0.77169 0.42537,0 0.77162,0.34625 0.77162,0.77169 0,0.42539 -0.34625,0.77165 -0.77162,0.77165 -0.42545,0 -0.77167,-0.34626 -0.77167,-0.77165 z m 2.12341,2.44197 c -0.59856,0 -1.18228,-0.16944 -1.68689,-0.48981 l 0.29644,-0.46597 c 0.41625,0.26517 0.89874,0.40517 1.39231,0.40517 0.49356,0 0.97421,-0.14 1.3922,-0.40517 l 0.29656,0.46597 c -0.50832,0.32037 -1.09212,0.48981 -1.69062,0.48981 z m 1.36832,-1.67032 c -0.42546,0 -0.77162,-0.34626 -0.77162,-0.77165 0,-0.42544 0.34616,-0.77169 0.77162,-0.77169 0.42543,0 0.77162,0.34625 0.77162,0.77169 0,0.42539 -0.34619,0.77165 -0.77162,0.77165 z m 0,0"
       id="path2-3"
       style="fill:#1c1c31;fill-opacity:1;stroke-width:0.0184167" />
  </g>
</svg>
