<?xml version="1.0" encoding="UTF-8" standalone="no"?>
<svg
   xmlns:dc="http://purl.org/dc/elements/1.1/"
   xmlns:cc="http://creativecommons.org/ns#"
   xmlns:rdf="http://www.w3.org/1999/02/22-rdf-syntax-ns#"
   xmlns:svg="http://www.w3.org/2000/svg"
   xmlns="http://www.w3.org/2000/svg"
   xmlns:xlink="http://www.w3.org/1999/xlink"
   xmlns:sodipodi="http://sodipodi.sourceforge.net/DTD/sodipodi-0.dtd"
   xmlns:inkscape="http://www.inkscape.org/namespaces/inkscape"
   width="32"
   version="1.1"
   height="32"
   viewBox="0 0 32 32"
   id="svg15"
   sodipodi:docname="folder-KDE.svg"
   inkscape:version="1.0.1 (3bc2e813f5, 2020-09-07)">
  <sodipodi:namedview
     pagecolor="#ffffff"
     bordercolor="#666666"
     borderopacity="1"
     objecttolerance="10"
     gridtolerance="10"
     guidetolerance="10"
     inkscape:pageopacity="0"
     inkscape:pageshadow="2"
     inkscape:window-width="1920"
     inkscape:window-height="1007"
     id="namedview17"
     showgrid="false"
     inkscape:zoom="9.8125"
     inkscape:cx="-9.5980005"
     inkscape:cy="2.9308582"
     inkscape:window-x="0"
     inkscape:window-y="0"
     inkscape:window-maximized="1"
     inkscape:current-layer="layer1"
     inkscape:document-rotation="0" />
  <defs
     id="defs5455">
    <linearGradient
       inkscape:collect="always"
       xlink:href="#linearGradient863"
       id="linearGradient865"
       x1="9917.7139"
       y1="2772.7378"
       x2="111.33134"
       y2="2824.3943"
       gradientUnits="userSpaceOnUse" />
    <linearGradient
       inkscape:collect="always"
       id="linearGradient863">
      <stop
         style="stop-color:#99a7bc;stop-opacity:1"
         offset="0"
         id="stop859" />
      <stop
         style="stop-color:#7171a8;stop-opacity:1"
         offset="1"
         id="stop861" />
    </linearGradient>
    <linearGradient
       inkscape:collect="always"
       xlink:href="#linearGradient863"
       id="linearGradient873"
       x1="9896.2002"
       y1="1023.4"
       x2="167.05577"
       y2="-3824.2473"
       gradientUnits="userSpaceOnUse" />
  </defs>
  <metadata
     id="metadata5458">
    <rdf:RDF>
      <cc:Work
         rdf:about="">
        <dc:format>image/svg+xml</dc:format>
        <dc:type
           rdf:resource="http://purl.org/dc/dcmitype/StillImage" />
      </cc:Work>
    </rdf:RDF>
  </metadata>
  <g
     inkscape:label="Capa 1"
     inkscape:groupmode="layer"
     id="layer1"
     transform="translate(-384.57143,-515.798)">
    <g
       id="g10"
       transform="matrix(0.0327044,0,0,0.0327044,384.27739,515.70089)">
      <g
         transform="matrix(0.1,0,0,-0.1,0,511)"
         id="g8">
        <path
           d="M 526.7,4048.6 C 388.9,4002.7 283.7,3924.2 214.8,3820.9 98.1,3644.8 100,3662.1 100,2282.6 v -1259 h 1836.8 1836.8 l 612.3,306.1 612.3,306.1 h 2451 2451 l -7.7,378.8 c -5.7,359.7 -7.6,380.8 -55.5,484.1 -63.2,135.8 -166.5,239.2 -302.3,302.3 l -107.1,49.7 -2219.4,5.7 -2219.4,3.8 -612.3,612.3 -612.5,612.4 H 2195.1 C 735.2,4083 618.5,4081.1 526.7,4048.6 Z"
           id="path4"
           style="fill:url(#linearGradient865);fill-opacity:1" />
        <path
           d="M 4385.8,717.5 3783.1,413.3 H 1940.6 l -1840.6,-2 3.8,-1880.8 5.7,-1878.9 61.2,-126.3 c 74.6,-151.2 195.2,-267.9 346.3,-338.7 l 109.1,-51.7 H 4998 9370 l 126.3,61.2 c 151.2,74.6 267.9,195.2 338.7,346.3 l 51.7,109.1 5.7,2186.9 3.8,2185 -2452.9,-1.9 H 4988.5 Z"
           id="path6"
           style="fill:url(#linearGradient873);fill-opacity:1" />
      </g>
    </g>
    <path
       style="color:#d3dae3;fill:#1c1c31;fill-opacity:1;stroke-width:0.380884"
       d="m 411.4469,535.198 -1.52355,0.23065 v 5.51094 l 1.52355,-0.40916 v -2.12912 l 1.52361,2.51001 1.52346,-0.57131 -1.90444,-2.28535 1.90519,-2.47498 -1.47818,-0.38168 -1.56964,2.49811 z m -3.10215,1.49454 c -0.036,0 -0.0722,0.0136 -0.0997,0.042 l -0.59883,0.59894 c -0.0549,0.0548 -0.0421,0.13416 0,0.20008 l 0.61966,0.9731 c -0.0454,0.0952 -0.0853,0.1934 -0.11903,0.29381 -0.003,0.008 -0.008,0.01 -0.01,0.0124 l -1.1241,0.24993 c -0.0762,0.0175 -0.14132,0.0629 -0.14132,0.1414 v 0.37423 0.37415 c 0,0.0778 0.0653,0.12441 0.14132,0.14135 l 1.1241,0.25 c 0.005,0.01 0.01,0.0138 0.01,0.0209 0.0329,0.0976 0.0708,0.19293 0.11534,0.28563 l -0.61972,0.97233 c -0.0423,0.0661 -0.0549,0.14486 0,0.20015 l 0.59887,0.59883 c 0.055,0.0548 0.1441,0.0548 0.19934,0 l 0.97161,-0.61897 c 0.0955,0.0463 0.19386,0.0866 0.29457,0.12052 0.01,0.005 0.012,0.01 0.0199,0.01 l 0.24926,1.12338 c 0,0.0779 0.0629,0.14132 0.1413,0.14132 h 0.84585 c 0.0779,0 0.1244,-0.0653 0.14135,-0.14132 l 0.24924,-1.15754 c 0.11446,-0.0437 0.22561,-0.0945 0.33251,-0.15405 l 0.94853,0.67851 c 0.0548,0.0548 0.14409,0.0548 0.19936,0 l 0.59884,-0.59885 c 0.0548,-0.0548 0.0423,-0.13419 0,-0.20019 l -0.36081,-0.54747 -0.0376,0.014 c -0.0855,0.0325 -0.18239,-0.003 -0.22991,-0.0795 l -0.37941,-0.6249 c -0.31611,0.75611 -1.06262,1.2877 -1.93345,1.2877 -1.15695,0 -2.09486,-0.9379 -2.09486,-2.09489 0,-0.88777 0.55333,-1.6448 1.33312,-1.94977 v -0.41743 l -0.006,0.0127 c -0.01,0.006 -0.0164,0.01 -0.025,0.011 -0.0994,0.0335 -0.19651,0.0723 -0.29088,0.11755 l -0.9701,-0.61822 c -0.0275,-0.0278 -0.0635,-0.0419 -0.0997,-0.0419 z"
       class="ColorScheme-Text"
       id="path10-7" />
  </g>
</svg>
