<?xml version="1.0" encoding="UTF-8" standalone="no"?>
<svg
   xmlns:dc="http://purl.org/dc/elements/1.1/"
   xmlns:cc="http://creativecommons.org/ns#"
   xmlns:rdf="http://www.w3.org/1999/02/22-rdf-syntax-ns#"
   xmlns:svg="http://www.w3.org/2000/svg"
   xmlns="http://www.w3.org/2000/svg"
   xmlns:xlink="http://www.w3.org/1999/xlink"
   xmlns:sodipodi="http://sodipodi.sourceforge.net/DTD/sodipodi-0.dtd"
   xmlns:inkscape="http://www.inkscape.org/namespaces/inkscape"
   viewBox="0 0 64 64"
   version="1.1"
   id="svg14"
   sodipodi:docname="folder-reddit.svg"
   inkscape:version="1.0.1 (3bc2e813f5, 2020-09-07)">
  <metadata
     id="metadata18">
    <rdf:RDF>
      <cc:Work
         rdf:about="">
        <dc:format>image/svg+xml</dc:format>
        <dc:type
           rdf:resource="http://purl.org/dc/dcmitype/StillImage" />
        <dc:title />
      </cc:Work>
    </rdf:RDF>
  </metadata>
  <sodipodi:namedview
     pagecolor="#ffffff"
     bordercolor="#666666"
     borderopacity="1"
     objecttolerance="10"
     gridtolerance="10"
     guidetolerance="10"
     inkscape:pageopacity="0"
     inkscape:pageshadow="2"
     inkscape:window-width="1920"
     inkscape:window-height="1007"
     id="namedview16"
     showgrid="false"
     inkscape:zoom="9.8125"
     inkscape:cx="32"
     inkscape:cy="36.076433"
     inkscape:window-x="0"
     inkscape:window-y="0"
     inkscape:window-maximized="1"
     inkscape:current-layer="svg14"
     inkscape:document-rotation="0" />
  <defs
     id="defs3051">
    <style
       type="text/css"
       id="current-color-scheme">
      .ColorScheme-Text {
        color:#31363b;
      }
      .ColorScheme-Background {
        color:#eff0f1;
      }
      .ColorScheme-Highlight {
        color:#3daee9;
      }
      .ColorScheme-ViewText {
        color:#31363b;
      }
      .ColorScheme-ViewBackground {
        color:#fcfcfc;
      }
      .ColorScheme-ViewHover {
        color:#93cee9;
      }
      .ColorScheme-ViewFocus{
        color:#3daee9;
      }
      .ColorScheme-ButtonText {
        color:#31363b;
      }
      .ColorScheme-ButtonBackground {
        color:#eff0f1;
      }
      .ColorScheme-ButtonHover {
        color:#93cee9;
      }
      .ColorScheme-ButtonFocus{
        color:#3daee9;
      }
      </style>
    <linearGradient
       inkscape:collect="always"
       xlink:href="#linearGradient863"
       id="linearGradient865"
       x1="9892.5771"
       y1="2823.751"
       x2="93.049133"
       y2="2791.1704"
       gradientUnits="userSpaceOnUse" />
    <linearGradient
       inkscape:collect="always"
       id="linearGradient863">
      <stop
         style="stop-color:#99a7bc;stop-opacity:1"
         offset="0"
         id="stop859" />
      <stop
         style="stop-color:#7171a8;stop-opacity:1"
         offset="1"
         id="stop861" />
    </linearGradient>
    <linearGradient
       inkscape:collect="always"
       xlink:href="#linearGradient863"
       id="linearGradient873"
       x1="9896.2002"
       y1="1023.4"
       x2="167.05577"
       y2="-3824.2473"
       gradientUnits="userSpaceOnUse" />
  </defs>
  <g
     id="g10"
     transform="matrix(0.06540881,0,0,0.06540881,-0.65380934,-0.25901904)">
    <g
       transform="matrix(0.1,0,0,-0.1,0,511)"
       id="g8">
      <path
         d="M 526.7,4048.6 C 388.9,4002.7 283.7,3924.2 214.8,3820.9 98.1,3644.8 100,3662.1 100,2282.6 v -1259 h 1836.8 1836.8 l 612.3,306.1 612.3,306.1 h 2451 2451 l -7.7,378.8 c -5.7,359.7 -7.6,380.8 -55.5,484.1 -63.2,135.8 -166.5,239.2 -302.3,302.3 l -107.1,49.7 -2219.4,5.7 -2219.4,3.8 -612.3,612.3 -612.5,612.4 H 2195.1 C 735.2,4083 618.5,4081.1 526.7,4048.6 Z"
         id="path4"
         style="fill:url(#linearGradient865);fill-opacity:1" />
      <path
         d="M 4385.8,717.5 3783.1,413.3 H 1940.6 l -1840.6,-2 3.8,-1880.8 5.7,-1878.9 61.2,-126.3 c 74.6,-151.2 195.2,-267.9 346.3,-338.7 l 109.1,-51.7 H 4998 9370 l 126.3,61.2 c 151.2,74.6 267.9,195.2 338.7,346.3 l 51.7,109.1 5.7,2186.9 3.8,2185 -2452.9,-1.9 H 4988.5 Z"
         id="path6"
         style="fill:url(#linearGradient873);fill-opacity:1" />
    </g>
  </g>
  <path
     d="m 61.858266,45.646489 c 0,-1.462367 -1.189719,-2.648338 -2.648211,-2.648338 -0.574639,0 -1.123388,0.184164 -1.576456,0.519391 -1.28554,-0.648308 -2.814097,-1.038644 -4.430983,-1.130733 l 1.057064,-2.920846 2.556263,0.637232 c 0.05523,1.049727 0.928149,1.882052 1.988957,1.882052 1.097496,0 1.99256,-0.895054 1.99256,-1.992547 0,-1.097636 -0.895064,-1.9927 -1.99256,-1.9927 -0.747727,0 -1.399639,0.412499 -1.74221,1.023969 L 53.559866,38.147324 52.035054,42.36466 C 50.278157,42.41618 48.61322,42.813988 47.224668,43.510202 46.771603,43.174967 46.226593,42.994548 45.651941,42.994548 44.189721,42.998348 43,44.187871 43,45.646489 c 0,0.714503 0.294657,1.403233 0.799238,1.896883 -0.03308,0.209916 -0.05152,0.423575 -0.05152,0.637082 0,1.60222 0.935482,3.090349 2.629782,4.187979 C 47.998134,53.421757 50.145498,54 52.421778,54 c 2.276279,0 4.419905,-0.578243 6.044131,-1.631567 1.694304,-1.101376 2.629929,-2.589355 2.629929,-4.187979 0,-0.209918 -0.0184,-0.419834 -0.04789,-0.62975 0.511918,-0.489897 0.81032,-1.182378 0.810321,-1.904215 z m -13.576543,1.546976 c 0,-0.850891 0.692481,-1.543373 1.543371,-1.543373 0.850751,0 1.543232,0.692482 1.543232,1.543373 0,0.85074 -0.692481,1.543221 -1.543232,1.543221 -0.85089,0 -1.543371,-0.692481 -1.543371,-1.543221 z m 4.246832,4.8839 c -1.197067,0 -2.364631,-0.338831 -3.373779,-0.979656 l 0.59292,-0.931889 c 0.832471,0.530326 1.797459,0.81031 2.78459,0.81031 0.987157,0 1.948392,-0.279984 2.784459,-0.81031 l 0.593061,0.931889 c -1.016634,0.640825 -2.184196,0.979656 -3.381251,0.979656 z m 2.736684,-3.340679 c -0.850892,0 -1.543233,-0.692481 -1.543233,-1.543221 0,-0.850891 0.692341,-1.543373 1.543233,-1.543373 0.850883,0 1.54322,0.692482 1.54322,1.543373 0,0.85074 -0.692337,1.543221 -1.54322,1.543221 z m 0,0"
     id="path2-3"
     style="fill:#1c1c31;fill-opacity:1;stroke-width:0.0368327" />
</svg>
