<?xml version="1.0" encoding="UTF-8" standalone="no"?>
<svg
   xmlns:dc="http://purl.org/dc/elements/1.1/"
   xmlns:cc="http://creativecommons.org/ns#"
   xmlns:rdf="http://www.w3.org/1999/02/22-rdf-syntax-ns#"
   xmlns:svg="http://www.w3.org/2000/svg"
   xmlns="http://www.w3.org/2000/svg"
   xmlns:xlink="http://www.w3.org/1999/xlink"
   xmlns:sodipodi="http://sodipodi.sourceforge.net/DTD/sodipodi-0.dtd"
   xmlns:inkscape="http://www.inkscape.org/namespaces/inkscape"
   viewBox="0 0 64 64"
   version="1.1"
   id="svg14"
   sodipodi:docname="folder-openSUSE.svg"
   inkscape:version="1.0.1 (3bc2e813f5, 2020-09-07)">
  <metadata
     id="metadata18">
    <rdf:RDF>
      <cc:Work
         rdf:about="">
        <dc:format>image/svg+xml</dc:format>
        <dc:type
           rdf:resource="http://purl.org/dc/dcmitype/StillImage" />
        <dc:title />
      </cc:Work>
    </rdf:RDF>
  </metadata>
  <sodipodi:namedview
     pagecolor="#ffffff"
     bordercolor="#666666"
     borderopacity="1"
     objecttolerance="10"
     gridtolerance="10"
     guidetolerance="10"
     inkscape:pageopacity="0"
     inkscape:pageshadow="2"
     inkscape:window-width="1920"
     inkscape:window-height="1007"
     id="namedview16"
     showgrid="false"
     inkscape:zoom="9.8125"
     inkscape:cx="32"
     inkscape:cy="36.076433"
     inkscape:window-x="0"
     inkscape:window-y="0"
     inkscape:window-maximized="1"
     inkscape:current-layer="svg14"
     inkscape:document-rotation="0" />
  <defs
     id="defs3051">
    <style
       type="text/css"
       id="current-color-scheme">
      .ColorScheme-Text {
        color:#31363b;
      }
      .ColorScheme-Background {
        color:#eff0f1;
      }
      .ColorScheme-Highlight {
        color:#3daee9;
      }
      .ColorScheme-ViewText {
        color:#31363b;
      }
      .ColorScheme-ViewBackground {
        color:#fcfcfc;
      }
      .ColorScheme-ViewHover {
        color:#93cee9;
      }
      .ColorScheme-ViewFocus{
        color:#3daee9;
      }
      .ColorScheme-ButtonText {
        color:#31363b;
      }
      .ColorScheme-ButtonBackground {
        color:#eff0f1;
      }
      .ColorScheme-ButtonHover {
        color:#93cee9;
      }
      .ColorScheme-ButtonFocus{
        color:#3daee9;
      }
      </style>
    <linearGradient
       inkscape:collect="always"
       xlink:href="#linearGradient863"
       id="linearGradient865"
       x1="9892.5771"
       y1="2823.751"
       x2="93.049133"
       y2="2791.1704"
       gradientUnits="userSpaceOnUse" />
    <linearGradient
       inkscape:collect="always"
       id="linearGradient863">
      <stop
         style="stop-color:#99a7bc;stop-opacity:1"
         offset="0"
         id="stop859" />
      <stop
         style="stop-color:#7171a8;stop-opacity:1"
         offset="1"
         id="stop861" />
    </linearGradient>
    <linearGradient
       inkscape:collect="always"
       xlink:href="#linearGradient863"
       id="linearGradient873"
       x1="9896.2002"
       y1="1023.4"
       x2="167.05577"
       y2="-3824.2473"
       gradientUnits="userSpaceOnUse" />
  </defs>
  <g
     id="g10"
     transform="matrix(0.06540881,0,0,0.06540881,-0.65380934,-0.25901904)">
    <g
       transform="matrix(0.1,0,0,-0.1,0,511)"
       id="g8">
      <path
         d="M 526.7,4048.6 C 388.9,4002.7 283.7,3924.2 214.8,3820.9 98.1,3644.8 100,3662.1 100,2282.6 v -1259 h 1836.8 1836.8 l 612.3,306.1 612.3,306.1 h 2451 2451 l -7.7,378.8 c -5.7,359.7 -7.6,380.8 -55.5,484.1 -63.2,135.8 -166.5,239.2 -302.3,302.3 l -107.1,49.7 -2219.4,5.7 -2219.4,3.8 -612.3,612.3 -612.5,612.4 H 2195.1 C 735.2,4083 618.5,4081.1 526.7,4048.6 Z"
         id="path4"
         style="fill:url(#linearGradient865);fill-opacity:1" />
      <path
         d="M 4385.8,717.5 3783.1,413.3 H 1940.6 l -1840.6,-2 3.8,-1880.8 5.7,-1878.9 61.2,-126.3 c 74.6,-151.2 195.2,-267.9 346.3,-338.7 l 109.1,-51.7 H 4998 9370 l 126.3,61.2 c 151.2,74.6 267.9,195.2 338.7,346.3 l 51.7,109.1 5.7,2186.9 3.8,2185 -2452.9,-1.9 H 4988.5 Z"
         id="path6"
         style="fill:url(#linearGradient873);fill-opacity:1" />
    </g>
  </g>
  <path
     style="color:#4d4d4d;font-size:20.4884px;font-family:TrebuchetMS-Bold;fill:#1c1c31;fill-opacity:1;fill-rule:evenodd;stroke:none;stroke-width:0.114539;stroke-miterlimit:4"
     d="m 51.7,38 c -4.41794,0 -8,3.581653 -8,8 0,4.418346 3.58206,8 8,8 4.417942,0 7.999999,-3.581654 8,-8 0,-4.418346 -3.582058,-8 -8,-8 z m 0.03829,1.10792 c 3.806608,0 6.895026,3.085877 6.895026,6.89208 0,3.806615 -3.08882,6.89208 -6.895026,6.89208 -2.055426,0 -3.899813,-0.900836 -5.162427,-2.327807 0.519153,-0.402926 1.387735,-0.30463 2.457453,-0.182691 0.512632,0.05835 1.097014,0.125035 1.700186,0.138495 1.685121,0.0097 3.498252,-0.297762 4.617309,-0.786743 0.723479,-0.317287 1.186692,-0.526233 1.476245,-0.78969 0.104401,-0.08564 0.159229,-0.228713 0.215101,-0.377164 l 0.03829,-0.10018 c 0.0469,-0.119902 0.114203,-0.3779 0.144384,-0.518599 0.01348,-0.06159 0.02004,-0.127807 -0.02357,-0.162064 l -0.156169,0.02949 C 56.554074,48.109571 55.3273,48.67037 54.178057,48.69321 52.753946,48.72296 49.88366,47.259558 49.58432,47.104993 l -0.02949,-0.03538 c -0.07175,-0.171282 -0.501319,-1.191004 -0.592265,-1.405521 2.066027,1.360497 3.778941,2.113525 5.091723,2.230572 1.459586,0.129687 2.59813,-0.667202 3.085071,-1.007734 0.09506,-0.06487 0.167654,-0.115694 0.197426,-0.126703 l 0.03243,-0.05307 c -0.08071,-0.513029 -0.846543,-2.99565 -1.423206,-3.591883 -0.159855,-0.16354 -0.286964,-0.322695 -0.54512,-0.474403 -2.087221,-1.21654 -7.043076,-1.949217 -7.275127,-1.983063 l -0.03829,0.0118 -0.01476,0.03243 c 0,0 -0.01857,1.029085 -0.0206,1.143275 -0.170062,-0.0563 -0.697383,-0.228922 -1.45267,-0.436095 0.985484,-1.21939 2.495744,-2.301289 5.138859,-2.301289 z m 1.82099,3.647878 c 0.03517,-5.2e-4 0.0707,-0.0013 0.106079,0 1.169226,0.04203 2.087847,1.026805 2.04788,2.195213 -0.0208,0.565241 -0.2591,1.087497 -0.671821,1.473297 -0.413943,0.387839 -0.951936,0.589994 -1.520439,0.57164 -1.16719,-0.04366 -2.085814,-1.028432 -2.047886,-2.195213 0.01997,-0.566058 0.259612,-1.091666 0.674771,-1.47624 0.387686,-0.363603 0.883877,-0.560774 1.411416,-0.568697 z m -0.05598,0.624681 c -0.340517,0.02069 -0.661864,0.158966 -0.913441,0.394841 -0.286701,0.269165 -0.455863,0.633592 -0.468504,1.028364 -0.02689,0.815642 0.611318,1.502047 1.426147,1.532231 0.395994,0.01222 0.771627,-0.126503 1.060772,-0.394847 0.28833,-0.270389 0.456281,-0.638164 0.46851,-1.031307 0.02734,-0.816871 -0.613859,-1.500732 -1.429094,-1.529282 -0.04931,-0.0021 -0.09573,-0.0031 -0.14439,0 z m 0.388953,0.739598 c 0.362149,0 0.654147,0.196795 0.654146,0.439042 0,0.241018 -0.291997,0.439041 -0.654146,0.439041 -0.363371,0 -0.657092,-0.198429 -0.657092,-0.439041 0,-0.242246 0.293721,-0.439042 0.657092,-0.439042 z"
     id="path2445"
     class="ColorScheme-Text"
     inkscape:connector-curvature="0" />
</svg>
