<?xml version="1.0" encoding="UTF-8" standalone="no"?>
<svg
   xmlns:dc="http://purl.org/dc/elements/1.1/"
   xmlns:cc="http://creativecommons.org/ns#"
   xmlns:rdf="http://www.w3.org/1999/02/22-rdf-syntax-ns#"
   xmlns:svg="http://www.w3.org/2000/svg"
   xmlns="http://www.w3.org/2000/svg"
   xmlns:xlink="http://www.w3.org/1999/xlink"
   xmlns:sodipodi="http://sodipodi.sourceforge.net/DTD/sodipodi-0.dtd"
   xmlns:inkscape="http://www.inkscape.org/namespaces/inkscape"
   viewBox="0 0 64 64"
   version="1.1"
   id="svg14"
   sodipodi:docname="folder-dropbox.svg"
   inkscape:version="1.0.1 (3bc2e813f5, 2020-09-07)">
  <metadata
     id="metadata18">
    <rdf:RDF>
      <cc:Work
         rdf:about="">
        <dc:format>image/svg+xml</dc:format>
        <dc:type
           rdf:resource="http://purl.org/dc/dcmitype/StillImage" />
        <dc:title />
      </cc:Work>
    </rdf:RDF>
  </metadata>
  <sodipodi:namedview
     pagecolor="#ffffff"
     bordercolor="#666666"
     borderopacity="1"
     objecttolerance="10"
     gridtolerance="10"
     guidetolerance="10"
     inkscape:pageopacity="0"
     inkscape:pageshadow="2"
     inkscape:window-width="1920"
     inkscape:window-height="1022"
     id="namedview16"
     showgrid="false"
     inkscape:zoom="9.8125"
     inkscape:cx="32"
     inkscape:cy="36.076433"
     inkscape:window-x="0"
     inkscape:window-y="0"
     inkscape:window-maximized="1"
     inkscape:current-layer="svg14"
     inkscape:document-rotation="0" />
  <defs
     id="defs3051">
    <linearGradient
       inkscape:collect="always"
       id="linearGradient844">
      <stop
         style="stop-color:#99a7bc;stop-opacity:1"
         offset="0"
         id="stop840" />
      <stop
         style="stop-color:#7171a8;stop-opacity:1"
         offset="1"
         id="stop842" />
    </linearGradient>
    <style
       type="text/css"
       id="current-color-scheme">
      .ColorScheme-Text {
        color:#31363b;
      }
      .ColorScheme-Background {
        color:#eff0f1;
      }
      .ColorScheme-Highlight {
        color:#3daee9;
      }
      .ColorScheme-ViewText {
        color:#31363b;
      }
      .ColorScheme-ViewBackground {
        color:#fcfcfc;
      }
      .ColorScheme-ViewHover {
        color:#93cee9;
      }
      .ColorScheme-ViewFocus{
        color:#3daee9;
      }
      .ColorScheme-ButtonText {
        color:#31363b;
      }
      .ColorScheme-ButtonBackground {
        color:#eff0f1;
      }
      .ColorScheme-ButtonHover {
        color:#93cee9;
      }
      .ColorScheme-ButtonFocus{
        color:#3daee9;
      }
      </style>
    <linearGradient
       inkscape:collect="always"
       xlink:href="#linearGradient844"
       id="linearGradient865"
       x1="9906.4336"
       y1="2698.709"
       x2="102.20026"
       y2="2700.0874"
       gradientUnits="userSpaceOnUse" />
    <linearGradient
       inkscape:collect="always"
       id="linearGradient863">
      <stop
         style="stop-color:#99a7bc;stop-opacity:1"
         offset="0"
         id="stop859" />
      <stop
         style="stop-color:#7171a8;stop-opacity:1"
         offset="1"
         id="stop861" />
    </linearGradient>
    <linearGradient
       inkscape:collect="always"
       xlink:href="#linearGradient863"
       id="linearGradient873"
       x1="9896.2002"
       y1="1023.4"
       x2="167.05577"
       y2="-3824.2473"
       gradientUnits="userSpaceOnUse" />
  </defs>
  <g
     id="g10"
     transform="matrix(0.06540881,0,0,0.06540881,-0.65380934,-0.25901904)">
    <g
       transform="matrix(0.1,0,0,-0.1,0,511)"
       id="g8">
      <path
         d="M 526.7,4048.6 C 388.9,4002.7 283.7,3924.2 214.8,3820.9 98.1,3644.8 100,3662.1 100,2282.6 v -1259 h 1836.8 1836.8 l 612.3,306.1 612.3,306.1 h 2451 2451 l -7.7,378.8 c -5.7,359.7 -7.6,380.8 -55.5,484.1 -63.2,135.8 -166.5,239.2 -302.3,302.3 l -107.1,49.7 -2219.4,5.7 -2219.4,3.8 -612.3,612.3 -612.5,612.4 H 2195.1 C 735.2,4083 618.5,4081.1 526.7,4048.6 Z"
         id="path4"
         style="fill:url(#linearGradient865);fill-opacity:1" />
      <path
         d="M 4385.8,717.5 3783.1,413.3 H 1940.6 l -1840.6,-2 3.8,-1880.8 5.7,-1878.9 61.2,-126.3 c 74.6,-151.2 195.2,-267.9 346.3,-338.7 l 109.1,-51.7 H 4998 9370 l 126.3,61.2 c 151.2,74.6 267.9,195.2 338.7,346.3 l 51.7,109.1 5.7,2186.9 3.8,2185 -2452.9,-1.9 H 4988.5 Z"
         id="path6"
         style="fill:url(#linearGradient873);fill-opacity:1" />
    </g>
  </g>
  <path
     style="color:#eff0f1;fill:#1c1c31;fill-opacity:1;stroke:none;stroke-width:0.888886"
     d="m 49.366666,38.000039 a 6.222222,6.222222 0 0 0 -6.222223,6.222226 6.222222,6.222222 0 0 0 0.07119,0.890621 4.4444443,4.4444443 0 0 0 -0.07119,-0.002 A 4.4444443,4.4444443 0 0 0 38.7,49.555557 4.4444443,4.4444443 0 0 0 43.144443,54 H 54.7 A 5.3333334,5.3333334 0 0 0 60.033334,48.666666 5.3333334,5.3333334 0 0 0 55.528123,43.402779 6.222222,6.222222 0 0 0 49.366666,38 Z m 0,0.88889 a 5.3333334,5.3333334 0 0 1 0.532985,0.02606 5.3333334,5.3333334 0 0 1 2.477432,0.906249 5.3333334,5.3333334 0 0 1 0.002,0 5.3333334,5.3333334 0 0 1 1.164928,1.085073 5.3333334,5.3333334 0 0 1 0,0.002 5.3333334,5.3333334 0 0 1 1.079863,2.428819 5.3333334,5.3333334 0 0 1 0.07635,0.885372 4.4444443,4.4444443 0 0 1 0.885418,0.08855 4.4444443,4.4444443 0 0 1 0.42882,0.109376 4.4444443,4.4444443 0 0 1 0.002,0 4.4444443,4.4444443 0 0 1 0.414931,0.152779 4.4444443,4.4444443 0 0 1 0.002,0 4.4444443,4.4444443 0 0 1 0.397567,0.192708 4.4444443,4.4444443 0 0 1 0.0037,0.002 4.4444443,4.4444443 0 0 1 0.374998,0.230903 4.4444443,4.4444443 0 0 1 0.0037,0.002 4.4444443,4.4444443 0 0 1 0.350695,0.267361 4.4444443,4.4444443 0 0 1 0.002,0.002 4.4444443,4.4444443 0 0 1 0.322914,0.300345 4.4444443,4.4444443 0 0 1 0.002,0.002 4.4444443,4.4444443 0 0 1 0.550346,0.694442 4.4444443,4.4444443 0 0 1 0.002,0.002 4.4444443,4.4444443 0 0 1 0.218748,0.383681 4.4444443,4.4444443 0 0 1 0.002,0.002 4.4444443,4.4444443 0 0 1 0.180558,0.402777 4.4444443,4.4444443 0 0 1 0.002,0.002 4.4444443,4.4444443 0 0 1 0.138888,0.420135 4.4444443,4.4444443 0 0 1 0,0.002 4.4444443,4.4444443 0 0 1 0.09725,0.432291 4.4444443,4.4444443 0 0 1 0,0.002 4.4444443,4.4444443 0 0 1 0.05381,0.439235 4.4444443,4.4444443 0 0 1 0.01032,0.313861 4.4444443,4.4444443 0 0 1 -4.444446,4.444443 H 43.144573 a 3.5555557,3.5555557 0 0 1 -3.555562,-3.555555 3.5555557,3.5555557 0 0 1 0.01734,-0.354166 3.5555557,3.5555557 0 0 1 3.538187,-3.201391 3.5555557,3.5555557 0 0 1 0.265624,0.01214 3.5555557,3.5555557 0 0 1 0,0.002 3.5555557,3.5555557 0 0 1 1.027787,0.23264 5.3333334,5.3333334 0 0 1 -0.303828,-1.019098 5.3333334,5.3333334 0 0 1 -0.06597,-0.451388 5.3333334,5.3333334 0 0 1 -0.01213,-0.102432 5.3333334,5.3333334 0 0 1 -0.02259,-0.451426 5.3333334,5.3333334 0 0 1 0.02603,-0.532984 5.3333334,5.3333334 0 0 1 5.307288,-4.800352 z"
     class="ColorScheme-Background"
     id="path12" />
</svg>
