<?xml version="1.0" encoding="UTF-8" standalone="no"?>
<svg
   xmlns:dc="http://purl.org/dc/elements/1.1/"
   xmlns:cc="http://creativecommons.org/ns#"
   xmlns:rdf="http://www.w3.org/1999/02/22-rdf-syntax-ns#"
   xmlns:svg="http://www.w3.org/2000/svg"
   xmlns="http://www.w3.org/2000/svg"
   xmlns:xlink="http://www.w3.org/1999/xlink"
   xmlns:sodipodi="http://sodipodi.sourceforge.net/DTD/sodipodi-0.dtd"
   xmlns:inkscape="http://www.inkscape.org/namespaces/inkscape"
   viewBox="0 0 64 64"
   version="1.1"
   id="svg14"
   sodipodi:docname="folder-Pop_OS.svg"
   inkscape:version="1.0.1 (3bc2e813f5, 2020-09-07)">
  <metadata
     id="metadata18">
    <rdf:RDF>
      <cc:Work
         rdf:about="">
        <dc:format>image/svg+xml</dc:format>
        <dc:type
           rdf:resource="http://purl.org/dc/dcmitype/StillImage" />
        <dc:title />
      </cc:Work>
    </rdf:RDF>
  </metadata>
  <sodipodi:namedview
     pagecolor="#ffffff"
     bordercolor="#666666"
     borderopacity="1"
     objecttolerance="10"
     gridtolerance="10"
     guidetolerance="10"
     inkscape:pageopacity="0"
     inkscape:pageshadow="2"
     inkscape:window-width="1920"
     inkscape:window-height="1007"
     id="namedview16"
     showgrid="false"
     inkscape:zoom="9.8125"
     inkscape:cx="32"
     inkscape:cy="36.076433"
     inkscape:window-x="0"
     inkscape:window-y="0"
     inkscape:window-maximized="1"
     inkscape:current-layer="svg14"
     inkscape:document-rotation="0" />
  <defs
     id="defs3051">
    <style
       type="text/css"
       id="current-color-scheme">
      .ColorScheme-Text {
        color:#31363b;
      }
      .ColorScheme-Background {
        color:#eff0f1;
      }
      .ColorScheme-Highlight {
        color:#3daee9;
      }
      .ColorScheme-ViewText {
        color:#31363b;
      }
      .ColorScheme-ViewBackground {
        color:#fcfcfc;
      }
      .ColorScheme-ViewHover {
        color:#93cee9;
      }
      .ColorScheme-ViewFocus{
        color:#3daee9;
      }
      .ColorScheme-ButtonText {
        color:#31363b;
      }
      .ColorScheme-ButtonBackground {
        color:#eff0f1;
      }
      .ColorScheme-ButtonHover {
        color:#93cee9;
      }
      .ColorScheme-ButtonFocus{
        color:#3daee9;
      }
      </style>
    <linearGradient
       inkscape:collect="always"
       xlink:href="#linearGradient863"
       id="linearGradient865"
       x1="9892.5771"
       y1="2823.751"
       x2="93.049133"
       y2="2791.1704"
       gradientUnits="userSpaceOnUse" />
    <linearGradient
       inkscape:collect="always"
       id="linearGradient863">
      <stop
         style="stop-color:#99a7bc;stop-opacity:1"
         offset="0"
         id="stop859" />
      <stop
         style="stop-color:#7171a8;stop-opacity:1"
         offset="1"
         id="stop861" />
    </linearGradient>
    <linearGradient
       inkscape:collect="always"
       xlink:href="#linearGradient863"
       id="linearGradient873"
       x1="9896.2002"
       y1="1023.4"
       x2="167.05577"
       y2="-3824.2473"
       gradientUnits="userSpaceOnUse" />
  </defs>
  <g
     id="g10"
     transform="matrix(0.06540881,0,0,0.06540881,-0.65380934,-0.25901904)">
    <g
       transform="matrix(0.1,0,0,-0.1,0,511)"
       id="g8">
      <path
         d="M 526.7,4048.6 C 388.9,4002.7 283.7,3924.2 214.8,3820.9 98.1,3644.8 100,3662.1 100,2282.6 v -1259 h 1836.8 1836.8 l 612.3,306.1 612.3,306.1 h 2451 2451 l -7.7,378.8 c -5.7,359.7 -7.6,380.8 -55.5,484.1 -63.2,135.8 -166.5,239.2 -302.3,302.3 l -107.1,49.7 -2219.4,5.7 -2219.4,3.8 -612.3,612.3 -612.5,612.4 H 2195.1 C 735.2,4083 618.5,4081.1 526.7,4048.6 Z"
         id="path4"
         style="fill:url(#linearGradient865);fill-opacity:1" />
      <path
         d="M 4385.8,717.5 3783.1,413.3 H 1940.6 l -1840.6,-2 3.8,-1880.8 5.7,-1878.9 61.2,-126.3 c 74.6,-151.2 195.2,-267.9 346.3,-338.7 l 109.1,-51.7 H 4998 9370 l 126.3,61.2 c 151.2,74.6 267.9,195.2 338.7,346.3 l 51.7,109.1 5.7,2186.9 3.8,2185 -2452.9,-1.9 H 4988.5 Z"
         id="path6"
         style="fill:url(#linearGradient873);fill-opacity:1" />
    </g>
  </g>
  <path
     style="fill:#1c1c31;fill-opacity:1;stroke-width:0.0197677"
     id="path2-3"
     d="m 59.415622,48.532388 c -0.03715,0.157846 -0.117345,0.297711 -0.254239,0.385627 -0.21512,0.137864 -0.477183,0.09792 -0.662972,-0.06994 -0.174056,-0.155851 -0.232724,-0.4196 -0.177968,-0.64738 0.05674,-0.23777 0.236638,-0.447571 0.467405,-0.513502 0.514341,-0.145861 0.727517,0.425586 0.627774,0.845186 z m -0.314864,-1.622441 c -0.318776,-0.129874 -0.209256,-1.838226 0.08213,-3.912236 0.08213,-0.579438 0.222953,-0.853176 0.381358,-0.993041 0.226861,-0.19781 0.63951,-0.205802 0.919174,-0.163842 0.32073,0.04794 0.627773,0.199805 0.860495,0.429582 0.20535,0.203804 0.228815,0.411604 0.158411,0.681344 -0.11538,0.42959 -0.312909,0.841193 -0.50261,1.242807 -0.04495,0.09792 -0.438072,0.859174 -0.490877,0.953081 -0.948504,1.706359 -1.138205,1.872201 -1.408087,1.762305 z" />
  <path
     style="fill:#1c1c31;fill-opacity:1;stroke-width:0.0197677"
     id="path4-3"
     d="m 52.666579,46.140688 c 0.187744,0.819215 0.168181,1.718343 0.008,2.365724 -0.150588,0.611413 -0.559322,1.158882 -1.20861,1.342705 -0.569101,0.161843 -1.232076,0.04395 -1.638856,-0.355657 -0.668842,-0.655372 -1.059979,-2.193888 -0.885923,-3.310812 0.140808,-0.897135 0.614081,-2.046034 1.652548,-2.095984 0.06647,-0.0041 0.132985,-0.0017 0.199478,0.0041 1.058022,0.09792 1.634948,1.00903 1.873541,2.050027 z m -1.912657,1.864205 c 0.05869,0.01005 0.117338,0.01005 0.176013,-0.0082 0.197519,-0.05794 0.310952,-0.267745 0.363759,-0.471548 0.08018,-0.309703 0.06847,-0.64338 -0.03517,-0.947089 -0.05281,-0.153851 -0.131031,-0.303708 -0.250331,-0.415601 -0.420464,-0.393618 -0.840941,0.01599 -0.913298,0.481537 -0.05674,0.363654 0.02539,0.785247 0.248373,1.078965 0.103641,0.135867 0.252282,0.253753 0.410686,0.281728 z" />
  <path
     style="fill:#1c1c31;fill-opacity:1;stroke-width:0.0197677"
     id="path6-6"
     d="m 54.956678,47.877017 c -0.0017,1.512547 0.146672,2.66943 -0.504569,2.807301 -0.528032,0.109869 -0.510426,-0.363653 -0.551501,-0.761274 -0.15645,-1.540516 -0.299219,-4.100051 -0.359845,-5.648562 0.04304,-0.665357 0.479146,-1.072968 0.93286,-1.172868 0.700134,-0.153853 1.447206,-0.109883 2.067155,0.281729 1.226207,0.77525 1.323994,2.19788 0.580835,3.358764 -0.406782,0.633391 -1.636905,1.09295 -2.164935,1.052986 z m 0.156453,-3.390738 c -0.0763,0.01201 -0.201438,0.04795 -0.236638,0.123884 -0.08408,0.177826 -0.07825,1.306744 0.06847,1.780285 0.02351,0.07792 0.07626,0.151854 0.152544,0.179832 0.277702,0.10387 0.528034,-0.243769 0.641459,-0.453569 0.158413,-0.291718 0.209258,-0.635386 0.109497,-0.955082 -0.09386,-0.297715 -0.385269,-0.729295 -0.735336,-0.67535 z" />
  <path
     style="fill:#1c1c31;fill-opacity:1;stroke-width:0.0197677"
     id="path8"
     d="m 47.943613,45.237557 c -0.459583,0.993047 -1.222299,1.782286 -2.278365,2.17191 0.303132,0.809219 0.612127,1.608453 0.913303,2.415678 0.168188,0.435574 0.328557,0.913115 0.181875,1.342704 -0.152544,0.439575 -0.747064,0.561458 -1.179273,0.09389 -0.831159,-0.903133 -3.641476,-6.625625 -3.848776,-7.055209 -0.176012,-0.369645 -0.440026,-0.765261 -0.432207,-1.192851 0.01372,-0.643383 0.987621,-1.294755 1.455031,-1.628433 C 43.408395,40.919694 44.163286,40.602 44.970983,40.6 c 0.629727,0 1.167541,0.175832 1.644725,0.48753 0.731428,0.479539 1.239903,1.244805 1.427649,2.109971 0.16427,0.761261 0.129073,1.540518 -0.09972,2.040036 M 45.802163,44.150585 C 45.637887,43.54117 45.266307,42.979712 44.798896,42.58609 44.69718,42.50018 44.587683,42.420253 44.460563,42.376295 c -0.87614,-0.293717 -0.496738,1.202842 -0.353976,1.580477 0.197527,0.529489 0.496742,1.198842 0.89766,1.598464 0.08803,0.08795 0.191656,0.165834 0.310951,0.189814 0.181876,0.03794 0.350064,-0.09191 0.441983,-0.243769 0.07627,-0.125877 0.105571,-0.275731 0.123205,-0.421588 0.03329,-0.309705 0.0041,-0.625402 -0.07825,-0.929108 z" />
  <path
     style="fill:#1c1c31;fill-opacity:1;stroke-width:0.0197677"
     id="path10"
     d="m 58.420873,52.843664 c -0.0041,0.877155 -0.528032,1.754316 -1.683836,1.754316 -1.155806,0 -1.693619,-0.863173 -1.693619,-1.744326 0,-1.098944 0.749021,-1.778287 1.71708,-1.778287 1.122568,0.01005 1.670157,0.861167 1.660375,1.768297 z m -1.660375,-1.214829 c -0.725551,0 -1.132335,0.515508 -1.136248,1.218821 0,0.611413 0.334427,1.184868 1.122561,1.184868 0.788141,0 1.089313,-0.621404 1.089313,-1.190859 0.0097,-0.591428 -0.29726,-1.198844 -1.075626,-1.21283 z m 2.145383,2.519575 c 0,0.129873 0.0041,-0.617405 0,-0.731294 h 0.531946 l 0.03716,0.457556 c 0.174056,0.101943 0.443938,0.177831 0.664933,0.177831 0.410689,0 0.838985,-0.105927 0.838985,-0.515507 -0.01366,-0.371637 -0.490877,-0.44757 -0.876148,-0.487524 -0.655146,-0.06797 -1.183186,-0.231785 -1.183186,-0.983057 0,-0.669354 0.741204,-1.003036 1.292708,-1.003036 0.443938,-0.01005 0.758803,0.0619 1.159714,0.389623 0,0.269739 -0.0041,0.42959 -0.0041,0.699329 h -0.514172 l -0.03327,-0.443578 c -0.207303,-0.101933 -0.420471,-0.129868 -0.58475,-0.125877 -0.353977,0.0041 -0.731424,0.17384 -0.731424,0.477541 0,0.297716 0.244462,0.379641 0.678622,0.443571 0.707956,0.09595 1.390487,0.259758 1.390487,1.031014 -0.0041,0.843187 -0.778358,1.064976 -1.443291,1.064976 -0.50652,0.0017 -0.823339,-0.09389 -1.224255,-0.451568 z"
     inkscape:connector-curvature="0" />
  <path
     style="fill:#1c1c31;fill-opacity:1;stroke-width:0.0197677"
     id="path12"
     d="m 54.325684,54.310253 c 0,0.153854 -0.12125,0.277729 -0.271839,0.277729 h -3.142773 c -0.150588,0 -0.271839,-0.123875 -0.271839,-0.277729 v -0.02395 c 0,-0.153851 0.121251,-0.277734 0.271839,-0.277734 h 3.142773 c 0.150589,0 0.271839,0.123883 0.271839,0.277734 z"
     inkscape:connector-curvature="0" />
</svg>
