<?xml version="1.0" encoding="UTF-8" standalone="no"?>
<svg
   xmlns:dc="http://purl.org/dc/elements/1.1/"
   xmlns:cc="http://creativecommons.org/ns#"
   xmlns:rdf="http://www.w3.org/1999/02/22-rdf-syntax-ns#"
   xmlns:svg="http://www.w3.org/2000/svg"
   xmlns="http://www.w3.org/2000/svg"
   xmlns:xlink="http://www.w3.org/1999/xlink"
   xmlns:sodipodi="http://sodipodi.sourceforge.net/DTD/sodipodi-0.dtd"
   xmlns:inkscape="http://www.inkscape.org/namespaces/inkscape"
   viewBox="0 0 64 64"
   version="1.1"
   id="svg14"
   sodipodi:docname="folder_html.svg"
   inkscape:version="1.0.1 (3bc2e813f5, 2020-09-07)">
  <metadata
     id="metadata18">
    <rdf:RDF>
      <cc:Work
         rdf:about="">
        <dc:format>image/svg+xml</dc:format>
        <dc:type
           rdf:resource="http://purl.org/dc/dcmitype/StillImage" />
      </cc:Work>
    </rdf:RDF>
  </metadata>
  <sodipodi:namedview
     pagecolor="#ffffff"
     bordercolor="#666666"
     borderopacity="1"
     objecttolerance="10"
     gridtolerance="10"
     guidetolerance="10"
     inkscape:pageopacity="0"
     inkscape:pageshadow="2"
     inkscape:window-width="1920"
     inkscape:window-height="1022"
     id="namedview16"
     showgrid="false"
     inkscape:zoom="2.305701"
     inkscape:cx="40.740022"
     inkscape:cy="33.925069"
     inkscape:window-x="0"
     inkscape:window-y="0"
     inkscape:window-maximized="1"
     inkscape:current-layer="svg14"
     inkscape:document-rotation="0" />
  <defs
     id="defs3051">
    <style
       type="text/css"
       id="current-color-scheme">
      .ColorScheme-Text {
        color:#31363b;
      }
      .ColorScheme-Background {
        color:#eff0f1;
      }
      .ColorScheme-Highlight {
        color:#3daee9;
      }
      .ColorScheme-ViewText {
        color:#31363b;
      }
      .ColorScheme-ViewBackground {
        color:#fcfcfc;
      }
      .ColorScheme-ViewHover {
        color:#93cee9;
      }
      .ColorScheme-ViewFocus{
        color:#3daee9;
      }
      .ColorScheme-ButtonText {
        color:#31363b;
      }
      .ColorScheme-ButtonBackground {
        color:#eff0f1;
      }
      .ColorScheme-ButtonHover {
        color:#93cee9;
      }
      .ColorScheme-ButtonFocus{
        color:#3daee9;
      }
      </style>
    <linearGradient
       inkscape:collect="always"
       xlink:href="#linearGradient863"
       id="linearGradient865"
       x1="10056.582"
       y1="3093.0486"
       x2="174.74051"
       y2="3099.4512"
       gradientUnits="userSpaceOnUse" />
    <linearGradient
       inkscape:collect="always"
       id="linearGradient863">
      <stop
         style="stop-color:#99a7bc;stop-opacity:1"
         offset="0"
         id="stop859" />
      <stop
         style="stop-color:#7171a8;stop-opacity:1"
         offset="1"
         id="stop861" />
    </linearGradient>
    <linearGradient
       inkscape:collect="always"
       xlink:href="#linearGradient863"
       id="linearGradient873"
       x1="9896.2002"
       y1="1023.4"
       x2="167.05577"
       y2="-3824.2473"
       gradientUnits="userSpaceOnUse" />
  </defs>
  <g
     id="g10"
     transform="matrix(0.06540881,0,0,0.06540881,-0.54679338,-0.04124482)">
    <g
       transform="matrix(0.1,0,0,-0.1,0,511)"
       id="g8">
      <path
         d="M 526.7,4048.6 C 388.9,4002.7 283.7,3924.2 214.8,3820.9 98.1,3644.8 100,3662.1 100,2282.6 v -1259 h 1836.8 1836.8 l 612.3,306.1 612.3,306.1 h 2451 2451 l -7.7,378.8 c -5.7,359.7 -7.6,380.8 -55.5,484.1 -63.2,135.8 -166.5,239.2 -302.3,302.3 l -107.1,49.7 -2219.4,5.7 -2219.4,3.8 -612.3,612.3 -612.5,612.4 H 2195.1 C 735.2,4083 618.5,4081.1 526.7,4048.6 Z"
         id="path4-3"
         style="fill:url(#linearGradient865);fill-opacity:1" />
      <path
         d="M 4385.8,717.5 3783.1,413.3 H 1940.6 l -1840.6,-2 3.8,-1880.8 5.7,-1878.9 61.2,-126.3 c 74.6,-151.2 195.2,-267.9 346.3,-338.7 l 109.1,-51.7 H 4998 9370 l 126.3,61.2 c 151.2,74.6 267.9,195.2 338.7,346.3 l 51.7,109.1 5.7,2186.9 3.8,2185 -2452.9,-1.9 H 4988.5 Z"
         id="path6-6"
         style="fill:url(#linearGradient873);fill-opacity:1" />
    </g>
  </g>
  <path
     style="color:#eff0f1;fill:#1c1c31;fill-opacity:1;stroke:none;stroke-width:0.799998"
     d="m 51.699977,38 c -0.277,0 -0.555407,0.02281 -0.824997,0.05004 -0.539178,0.05444 -1.048379,0.144635 -1.549992,0.300001 -2.508077,0.776836 -4.498151,2.766908 -5.274989,5.274992 -0.155363,0.501614 -0.24557,1.010813 -0.299999,1.549986 -0.0272,0.269577 -0.05002,0.547988 -0.05002,0.824989 0,0.277001 0.02284,0.55541 0.05004,0.824998 0.0544,0.539182 0.144634,1.048377 0.3,1.549993 0.776839,2.508082 2.766913,4.498155 5.274992,5.274988 0.501614,0.155363 1.010818,0.245572 1.549987,0.299999 0.26959,0.02722 0.547997,0.05002 0.825002,0.05002 0.277,0 0.555417,-0.02284 0.824997,-0.05004 0.539184,-0.05444 1.048379,-0.144634 1.54999,-0.3 0.501015,-0.155831 0.996588,-0.378694 1.450001,-0.624999 1.813956,-0.982974 3.203531,-2.643525 3.824983,-4.649993 0.155368,-0.501615 0.245586,-1.010813 0.300001,-1.549987 0.02719,-0.269577 0.05001,-0.547986 0.05001,-0.824988 0,-0.276138 -0.02277,-0.556066 -0.05004,-0.824998 -0.0544,-0.539182 -0.144637,-1.048377 -0.300003,-1.549993 -0.310727,-1.003239 -0.823878,-1.93539 -1.474995,-2.725 -0.163023,-0.19755 -0.34402,-0.369038 -0.524981,-0.549998 -0.723002,-0.723001 -1.567245,-1.321251 -2.524992,-1.724998 -0.239283,-0.101216 -0.4995,-0.197089 -0.75001,-0.275007 -0.501613,-0.155365 -1.010804,-0.245578 -1.549985,-0.300003 -0.269584,-0.02721 -0.547998,-0.05 -0.825,-0.05 z m 0,0.799998 c 1.210643,0 2.348652,0.297129 3.349995,0.824998 0.02644,0.01392 0.04874,0.03577 0.07492,0.05004 0.02019,0.02679 0.0144,0.05532 0.05003,0.07496 0.02621,0.0146 0.05041,0.037 0.07493,0.05003 0.04221,0.02325 0.08374,0.05925 0.07491,0.1 -0.01165,0.05963 -0.10928,0.05639 -0.150003,0.1 0.0061,0.08432 -0.02819,0.06826 -0.05004,0.125001 0.01317,0.03637 0.04419,0.03134 0.05004,0.07496 -0.008,0.0466 -0.06756,0.052 -0.05004,0.100001 0.0786,0.06117 0.150822,0.01021 0.224997,0 0.162896,-0.02039 0.299643,0.0041 0.4,-0.07495 -0.01051,-0.06218 0.04885,-0.08 0.07492,-0.125 0.05317,0.03725 0.09798,0.08639 0.149997,0.125 -0.0306,0.01317 -0.09735,0.03261 -0.124997,0.05006 -0.04075,0.02763 -0.05349,0.0695 -0.1,0.1 -0.0334,0.02325 -0.115086,0.1 -0.15,0.1 -0.04221,0 -0.119456,-0.03515 -0.149999,-0.02494 -0.04371,0.01317 -0.0256,0.08251 -0.07492,0.1 -0.09599,0.03484 -0.266552,-0.09389 -0.299998,0.05004 0.04075,0.08284 0.177279,0.05498 0.249996,0.1 0.04515,0.02917 0.113367,0.175557 0.124997,0.224997 0.01164,0.04078 0.0174,0.181385 0,0.224998 -0.04516,0.11632 -0.166195,0.102916 -0.299999,0.1 -0.03636,0 -0.06644,0.0037 -0.1,0 -0.225434,-0.0146 -0.448183,-0.08638 -0.549998,0.07496 0.008,0.12359 0.02771,0.1924 0,0.3 -0.02029,0.0785 -0.104365,0.131655 -0.100001,0.199999 0.002,0.03483 0.06634,0.102009 0.07491,0.15 0.0061,0.02621 -0.01171,0.07677 0,0.1 0.03779,0.07125 0.133097,-0.01163 0.199999,0 0.064,0.01021 0.125004,0.103751 0.125004,0.174995 0,0.05084 -0.01804,0.15056 -0.05004,0.2 -0.064,0.09596 -0.183367,0.0727 -0.275002,0.125005 -0.07564,0.04362 -0.104911,0.149377 -0.149994,0.224995 -0.048,0.08138 -0.09391,0.108682 -0.07492,0.225001 -0.0654,0.129408 -0.13974,0.212473 -0.274996,0.274999 -0.03924,0.0174 -0.08868,0.04882 -0.125001,0.07497 -0.02917,0.02029 -0.0592,0.05347 -0.1,0.1 -0.05084,0.05673 -0.122369,0.08133 -0.149998,0.125001 -0.02037,0.0334 -0.0037,0.104925 -0.02492,0.149993 -0.032,0.06117 -0.08426,0.113928 -0.124997,0.175004 -0.01885,0.02916 -0.05476,0.06209 -0.07493,0.1 -0.0466,0.08432 -0.108732,0.150848 -0.1,0.224995 0.0079,0.07125 0.09562,0.08744 0.1,0.150007 0.0042,0.03484 -0.02646,0.06214 -0.02493,0.1 0.002,0.05521 0.0206,0.08133 0.02493,0.124996 0.01021,0.107599 -0.05475,0.150843 -0.07491,0.224993 -0.01021,0.03485 0.0081,0.07242 0,0.1 -0.0174,0.05379 -0.09854,0.086 -0.1,0.150009 -0.002,0.04517 0.07068,0.08604 0.07492,0.149991 0.0037,0.04364 -0.0337,0.08427 -0.02492,0.125004 0.016,0.0786 0.163917,0.188923 0.225003,0.249999 0.08288,0.08285 0.163643,0.137752 0.199999,0.224995 0.0306,0.07421 0.0433,0.194747 0.1,0.250006 0.04221,0.04074 0.12119,0.05791 0.174997,0.100001 0.05086,0.03922 0.121182,0.05784 0.175,0.1 0.08875,0.06979 0.208906,0.210178 0.350002,0.199999 0.07421,-0.0061 0.142093,-0.03556 0.22499,-0.05004 0.08578,-0.0146 0.187745,-0.05869 0.275007,-0.05004 0.06683,0.008 0.130193,0.0544 0.199999,0.05004 0.07279,-0.0042 0.167103,-0.03872 0.25,-0.07496 0.143992,-0.0626 0.365562,-0.180536 0.574992,-0.15 0.159985,0.02326 0.163012,0.203751 0.275006,0.275001 0.12798,0.01164 0.22319,-0.02477 0.324993,0 0.07717,0.01885 0.167733,0.163932 0.175006,0.224997 0.008,0.0626 -0.04124,0.110744 -0.05005,0.149999 -0.02029,0.08433 -0.03556,0.196203 -0.05003,0.250001 -0.01163,0.04221 -0.02645,0.0828 -0.02489,0.124994 0,0.03779 0.0607,0.125565 0.1,0.175005 0.048,0.06117 0.116822,0.108114 0.174999,0.175002 0.106172,0.12213 0.150822,0.288587 0.225,0.44999 0.01884,0.04078 -0.0174,0.04906 0,0.1 -0.032,0.244292 -0.115017,0.404554 -0.275003,0.675003 -0.07564,0.08722 -0.15145,0.190951 -0.149997,0.3 -0.0061,0.261728 0.13664,0.396988 0.125001,0.649997 -0.02621,0.340247 0.002,0.393243 -0.02492,0.574993 0.114899,0.05821 0.0584,0.229315 0.02492,0.350009 -0.0494,0.143938 -0.09736,0.179031 -0.125001,0.274995 0.05971,0.02584 0.109631,0.0323 0.175,0.02494 -1.30996,1.361932 -3.161085,2.199993 -5.199985,2.199993 -0.954397,0 -1.866502,-0.187772 -2.699992,-0.525003 -0.0029,-0.0014 0.0037,-0.02383 0,-0.02494 0.07564,-0.032 0.219734,0.0562 0.274993,-0.05003 0.02771,-0.05084 -0.03637,-0.149105 0,-0.2 0.02621,-0.03484 0.196197,-0.06635 0.250006,-0.07496 0.07717,-0.01317 0.156365,0.003 0.199999,-0.02494 0.048,-0.0306 0.108723,-0.10985 0.1,-0.2 -0.0043,-0.04221 -0.0417,-0.06216 -0.07492,-0.1 -0.02763,-0.032 -0.0071,-0.07094 -0.0249,-0.1 -0.03483,-0.05083 -0.08549,-0.07585 -0.1,-0.150002 0.104714,-0.02029 0.24874,0.117193 0.399999,0.07496 0.07122,-0.02037 0.191547,-0.158119 0.225003,-0.224999 0.01021,-0.02037 -0.01163,-0.100244 0,-0.124997 0.01316,-0.02765 0.04561,-0.03556 0.05003,-0.05004 0.01021,-0.03925 -0.0081,-0.0504 0,-0.07495 0.02621,-0.07421 0.106361,-0.121198 0.150004,-0.174995 0.0334,-0.04077 0.06947,-0.08281 0.100001,-0.125005 0.03485,-0.04515 0.05187,-0.06065 0.07492,-0.1 0.02179,-0.132319 -0.08201,-0.233677 -0.05004,-0.349994 0.03483,-0.130867 0.223464,-0.215382 0.349992,-0.275 0.04363,-0.02036 0.08867,-0.06193 0.125,-0.07496 0.08726,-0.0306 0.193551,-0.021 0.274998,-0.05004 0.136727,-0.0494 0.183092,-0.199955 0.250007,-0.324994 0.032,-0.05821 0.06923,-0.107833 0.07492,-0.149998 0.0061,-0.03779 -0.0081,-0.08132 0,-0.125007 0.0079,-0.04363 0.01347,-0.07706 0.02492,-0.124995 0.016,-0.0626 0.02489,-0.180209 0.02489,-0.249997 0,-0.05821 -0.02349,-0.07272 -0.02489,-0.125006 -0.01021,-0.189021 0.05519,-0.196763 0.124996,-0.299999 0.03483,-0.05083 0.05043,-0.138653 0.07491,-0.174995 0.117808,-0.174487 0.314544,-0.26037 0.299999,-0.525005 -0.0061,-0.08721 -0.03601,-0.272362 -0.1,-0.299997 -0.03637,-0.016 -0.121179,-0.005 -0.175001,-0.02494 -0.171617,-0.064 -0.296105,-0.260463 -0.474993,-0.274997 -0.03779,-0.002 -0.0579,0.002 -0.1,0 -0.06979,-0.002 -0.146468,-0.06633 -0.225005,-0.07496 -0.0494,-0.0061 -0.14591,0.0146 -0.174994,0 -0.04517,-0.02179 -0.03869,-0.100283 -0.07491,-0.125001 -0.02917,-0.02037 -0.0799,-0.03404 -0.124997,-0.05004 -0.07124,-0.02763 -0.117094,-0.04412 -0.2,-0.05004 -0.02621,-0.002 -0.09594,0.0043 -0.125003,0 -0.04517,-0.008 -0.08278,-0.04881 -0.124996,-0.07495 -0.05229,-0.032 -0.07813,-0.05495 -0.1,-0.1 0.048,-0.157044 -0.117999,-0.183403 -0.149999,-0.275005 -0.0146,-0.04221 0.0146,-0.112185 0,-0.149995 -0.01883,-0.05379 -0.06531,-0.07992 -0.125004,-0.125003 -0.104716,-0.08139 -0.200188,-0.156098 -0.349996,-0.174996 -0.06684,-0.008 -0.145009,0.0061 -0.224999,0 -0.08433,-0.0061 -0.186006,-0.05228 -0.249997,-0.125003 -0.06115,-0.07124 -0.07118,-0.141556 -0.125001,-0.174996 -0.05084,-0.032 -0.140095,-0.04165 -0.174998,-0.07496 -0.016,-0.0146 -0.0104,-0.04165 -0.02492,-0.07496 -0.02621,-0.05236 -0.08201,-0.0611 -0.05004,-0.124998 -0.05821,-0.02917 -0.03749,0.03665 -0.1,0.02494 -0.05675,-0.08 -0.09701,-0.124713 -0.225001,-0.100001 -0.05821,0.01163 -0.10664,0.09854 -0.174998,0.100001 -0.05674,0.002 -0.100826,-0.08984 -0.175001,-0.100001 -0.05674,-0.008 -0.135725,0.05869 -0.174998,0.05004 -0.0626,-0.01165 -0.06829,-0.08717 -0.125001,-0.125002 -0.04221,-0.02771 -0.126726,-0.101449 -0.15,-0.1 -0.07278,0.002 -0.124649,0.153802 -0.224997,0.1 -0.0494,-0.0626 0.08321,-0.06682 0.0249,-0.125003 -0.04363,-0.04362 -0.06499,0.0023 -0.1,0.02494 -0.04075,0.02765 -0.0799,0.05905 -0.124996,0.07495 -0.100365,0.03779 -0.171463,0.03439 -0.249999,0.07496 -0.07278,0.03779 -0.08277,0.100837 -0.125003,0.174997 -0.0334,0.06117 -0.09909,0.147093 -0.150002,0.15 -0.06117,0.0043 -0.119722,-0.07673 -0.174994,-0.1 -0.167256,-0.07276 -0.261831,0.04861 -0.4,0.05004 -0.127995,0.002 -0.305815,-0.204302 -0.299999,-0.325 0.0042,-0.07421 0.04124,-0.183398 0.05003,-0.274999 0.008,-0.07276 0.0737,-0.133112 0.07492,-0.199999 0.002,-0.08871 -0.141817,-0.164815 -0.199998,-0.174995 -0.136716,-0.02477 -0.319373,0.06117 -0.475,0 -0.02917,-0.0494 0.0576,-0.07706 0.07491,-0.125004 0.01021,-0.02764 -0.01021,-0.04441 0,-0.07495 0.0174,-0.0466 0.07812,-0.07562 0.1,-0.125004 0.016,-0.03779 0.0084,-0.103462 0.0249,-0.150001 0.01883,-0.05238 0.0706,-0.08722 0.07491,-0.124995 0.0061,-0.0494 -0.03581,-0.118014 -0.07491,-0.150005 -0.120727,0.008 -0.20519,0.01835 -0.275001,0.05004 -0.157077,0.07122 -0.116466,0.275562 -0.275004,0.324995 -0.05379,0.0174 -0.138906,0.0398 -0.2,0.05004 0.103461,-0.523423 0.264772,-1.024038 0.475004,-1.499997 0.05523,0.01021 0.102003,0.0456 0.149995,0.05003 0.133812,0.01021 0.139458,-0.09188 0.250005,-0.149994 0.113447,0.016 0.171729,-0.01165 0.274997,0 0.06979,0.008 0.169733,0.09562 0.225002,0.1 0.0466,0.002 0.05637,-0.05724 0.1,-0.05004 0.04363,0.0079 0.117725,0.09765 0.124995,0.150004 0.008,0.0654 -0.04395,0.127292 -0.0249,0.2 0.06838,0.06979 0.202548,0.109288 0.299998,0.149996 0.064,-0.05237 0.01021,-0.174383 0,-0.249996 -0.002,-0.0334 0.0042,-0.06946 0,-0.1 -0.008,-0.05229 -0.02489,-0.104929 -0.02489,-0.150004 0,-0.207921 0.16038,-0.293565 0.3,-0.374995 0.05963,-0.03483 0.12264,-0.09882 0.174997,-0.125004 0.07421,-0.03636 0.113914,-0.04015 0.175002,-0.07495 0.11053,-0.0626 0.214185,-0.128745 0.3,-0.199999 0.03921,-0.09451 -0.0042,-0.206947 0,-0.300001 0.03921,-0.02475 0.05788,0.0043 0.1,0 0.06684,-0.0146 0.08718,-0.112202 0.124995,-0.150001 0.02179,-0.02179 0.0988,-0.02819 0.125003,-0.05004 0.06683,-0.05238 0.06677,-0.126728 0.125002,-0.149999 0.02036,-0.008 0.06793,-0.01632 0.1,-0.02494 0.04371,-0.01164 0.10519,-0.05039 0.174995,-0.07496 0.04517,-0.016 0.157548,-0.008 0.175,-0.02494 0.02179,-0.02179 -0.0061,-0.116552 0,-0.15 0.03483,-0.164304 0.278102,-0.169735 0.424999,-0.224999 0.101812,-0.03927 0.211555,-0.121817 0.325005,-0.1 -0.02179,0.0785 -0.118918,0.05543 -0.1,0.15 0.02473,0.13232 0.178449,-0.03118 0.224997,-0.05003 0.08876,-0.03779 0.258636,-0.05784 0.375002,-0.1 0.101802,-0.03629 0.270976,-0.107223 0.174993,-0.224999 -0.08,-0.0061 -0.105191,0.07095 -0.174993,0.1 -0.048,0.008 -0.0593,-0.02208 -0.1,-0.02494 -0.03927,-0.002 -0.0607,0.03232 -0.1,0.02494 -0.03926,-0.008 -0.09417,-0.07849 -0.1,-0.124999 -0.016,-0.122135 0.125554,-0.159847 0.174994,-0.25 -0.0334,-0.110513 -0.181919,-0.0071 -0.274993,-0.05003 0.01021,-0.0654 0.0479,-0.136901 0.124995,-0.149997 0.0626,-0.01021 0.212184,0.01981 0.249998,0.05003 0.02179,0.01883 -0.0081,0.06946 0.02489,0.1 0.03779,0.0334 0.100559,0.008 0.150006,0 0.0174,-0.08285 -0.114542,-0.04615 -0.1,-0.1 0.0989,-0.064 0.279274,-0.03403 0.399999,-0.05003 0.06979,-0.01021 0.137456,-0.0665 0.2,-0.1 0.05821,-0.0334 0.113913,-0.08033 0.174997,-0.02494 0.0174,0.05963 -0.0417,0.09447 -0.07491,0.124998 -0.11199,0.09887 -0.212731,0.210135 -0.299999,0.324999 0.05379,0.05238 0.134828,0.01488 0.225001,0.02494 0.03485,0.0042 0.08868,0.01925 0.125001,0.02494 0.04371,0.008 0.09012,-0.008 0.125,0 0.06117,0.0146 0.0639,0.1 0.124996,0.1 0.0989,0 0.106762,-0.0831 0.05004,-0.150001 0.0174,-0.06838 0.04988,-0.127007 0.02489,-0.174998 -0.04517,-0.09019 -0.216268,0.01486 -0.225,-0.1 -0.0061,-0.07276 0.07389,-0.09475 0.1,-0.149999 -0.01162,-0.139585 0.114544,-0.148496 0.1,-0.275002 -0.008,-0.05238 -0.06357,-0.05055 -0.1,-0.1 -0.01885,-0.02621 -0.02819,-0.08107 -0.05003,-0.1 -0.07564,-0.064 -0.216276,-0.05286 -0.225001,-0.174998 -0.0042,-0.07276 0.01021,-0.12149 0,-0.199999 -0.01021,-0.07421 -0.08601,-0.285455 -0.150001,-0.3 -0.08141,-0.0174 -0.127548,0.129929 -0.224995,0.174997 -0.05229,0.02476 -0.146197,0.03525 -0.2,0.02494 -0.03485,-0.008 -0.09562,-0.03313 -0.1,-0.1 -0.0042,-0.03855 0.0083,-0.05213 0.02489,-0.07495 0.0043,-0.0058 -0.0042,-0.01939 0,-0.02494 0.632798,-0.181863 1.308714,-0.275 1.999994,-0.275 z m -2.974987,0.650001 c -0.07101,0.227286 -0.276433,0.357038 -0.550002,0.349995 -0.06685,0.064 -0.03869,0.1863 -0.07492,0.275 -0.0306,0.07421 -0.125839,0.13083 -0.199999,0.124999 -0.05379,-0.0042 -0.150008,-0.07415 -0.150008,-0.124999 0,-0.04173 0.04037,-0.08879 0.05004,-0.124997 0.294435,-0.190381 0.603097,-0.353542 0.924993,-0.499998 z m 6.124983,0.249995 c -0.02675,0.0051 -0.0514,0.01115 -0.07492,0.02494 -0.05529,0.0334 -0.05788,0.08402 -0.1,0.1 -0.05963,0.02179 -0.141273,0.02126 -0.150009,0.07495 -0.008,0.04517 0.05156,0.05932 0.05004,0.1 -0.02179,0.05379 -0.06326,0.05957 -0.07492,0.125004 0.07421,0.120687 0.258383,0.0016 0.350005,-0.02494 0.04076,-0.01163 0.07812,0.0075 0.1,-0.02495 0.02471,-0.03923 0.0071,-0.119733 0.0249,-0.174993 0.02038,-0.06117 0.0823,-0.04616 0.07493,-0.1 -0.0061,-0.05379 -0.109819,-0.108721 -0.199999,-0.1 z m -7.924979,0.925 c 0.05341,0.06442 0.09797,0.157874 0,0.199999 -0.0146,0.008 -0.190093,0.03232 -0.225002,0.02494 -0.01077,-0.0019 -0.01528,-0.01832 -0.02491,-0.02494 0.07643,-0.07432 0.170313,-0.129166 0.249992,-0.199999 z m 0.199999,0.249996 c 0.03485,0.002 0.0593,0.07215 0.1,0.07495 0.03924,0.0037 0.101681,-0.03232 0.124998,-0.02494 0.06117,0.016 0.0832,0.12992 0.02492,0.174998 -0.048,0.0061 -0.06509,-0.05723 -0.1,-0.05006 -0.0989,0.0174 -0.125828,0.205812 -0.2,0.2 -0.06979,-0.008 -0.121304,-0.149108 -0.05004,-0.2 0.002,-0.04371 -0.02797,-0.05638 -0.02489,-0.1 0.02179,-0.02763 0.06677,-0.07929 0.125004,-0.07495 z m -0.325002,0.05002 c 0.02037,0 0.0178,-0.0082 0.02489,0 -0.01021,0.07709 -0.04042,0.08866 -0.1,0.124995 -0.103256,0.0626 -0.166541,0.141232 -0.199999,0.275003 -0.01021,0.03922 -0.125544,0.160167 -0.174992,0.149995 -0.114909,-0.0247 0.04879,-0.241556 0.07491,-0.274996 0.02917,-0.03636 0.06651,-0.05925 0.1,-0.1 0.0334,-0.04075 0.0431,-0.126739 0.07492,-0.150002 0.03484,-0.02473 0.138925,-0.02798 0.199998,-0.02494 z m 9.849978,0.199998 c 0.114887,-0.008 0.172639,0.130197 0.224991,0.199998 0.04362,0.05673 0.17872,0.135728 0.250005,0.174998 0.04077,0.02179 0.0799,0.05472 0.125002,0.07495 0.04723,0.02114 0.119183,0.04879 0.174997,0.1 0.0558,0.0513 0.09781,0.128476 0.100001,0.174998 0.002,0.0466 -0.03228,0.08135 -0.02491,0.125003 0.0504,0.008 0.07651,-0.04305 0.1,-0.1 0.188505,0.268902 0.349052,0.555871 0.5,0.850002 -0.03067,0.01892 -0.04381,0.03752 -0.05003,0.07495 -0.0146,0.08138 0.04725,0.185466 -0.07492,0.2 -0.07708,0.01021 -0.168829,-0.07676 -0.275002,-0.1 -0.04365,-0.01021 -0.11509,0.01163 -0.149995,0 -0.08,-0.02763 -0.05671,-0.127014 -0.125005,-0.174995 -0.03924,-0.02771 -0.137456,-0.06785 -0.199999,-0.07495 -0.03924,-0.0042 -0.0593,0.0061 -0.1,0 -0.0494,-0.0061 -0.134279,-2.82e-4 -0.174994,-0.02494 -0.03926,-0.02478 -0.139813,-0.06651 -0.150005,-0.1 -0.016,-0.05379 0.122098,-0.129919 0.124999,-0.175002 0.0037,-0.03483 -0.04269,-0.04762 -0.05004,-0.1 -0.0061,-0.032 0.0079,-0.07961 0,-0.1 -0.01021,-0.03779 -0.06532,-0.07355 -0.125003,-0.07496 -0.05236,0 -0.104908,0.02494 -0.150002,0.02494 -0.064,0.002 -0.195008,-0.03232 -0.275001,-0.02494 -0.048,0.0043 -0.0799,0.02208 -0.124999,0.02494 -0.126535,0.01021 -0.201095,-0.008 -0.299999,0 -0.07123,0.0042 -0.208094,0.04448 -0.274998,0.07495 -0.0334,0.016 -0.05635,0.05327 -0.1,0.07495 -0.02029,0.01021 -0.04872,0.01344 -0.07491,0.02494 -0.04077,0.01884 -0.110728,0.06482 -0.150001,0.07495 -0.05674,0.0146 -0.121734,-0.0043 -0.224999,0 -0.07421,0.0042 -0.198545,-0.01136 -0.200001,-0.1 -0.002,-0.135223 0.247017,-0.07676 0.375002,-0.1 0.048,-0.01021 0.06677,-0.06653 0.124998,-0.1 0.02771,-0.016 0.04881,-0.03261 0.07493,-0.05004 0.04365,-0.0306 0.117725,-0.09013 0.125003,-0.125001 0.0061,-0.032 -0.0295,-0.07677 -0.02491,-0.1 0.0061,-0.0306 0.0607,-0.06073 0.1,-0.1 0.06117,-0.06116 0.09937,-0.135739 0.175004,-0.174998 0.05083,-0.02765 0.151726,-0.03439 0.174994,-0.07495 0.0061,-0.0466 -0.002,-0.05786 0,-0.1 0.032,-0.02917 0.0238,-0.04419 0.05003,-0.05004 0.0786,-0.0174 0.158377,0.02946 0.249999,0.02495 0.03925,-0.002 0.08283,0.0033 0.125003,-0.02495 0.03484,-0.02323 0.06509,-0.05755 0.1,-0.07496 0.03779,-0.02037 0.0784,-0.07215 0.124997,-0.07495 z m -9.17498,0.07499 c 0.0193,-0.0035 0.05171,0.0027 0.07492,0 0.0334,-0.002 0.06363,0 0.1,0 0.03638,0 0.0855,-0.0146 0.1,0 -0.02328,0.09596 -0.249369,0.05992 -0.325004,0.02494 0.002,-0.01826 0.03083,-0.0219 0.05004,-0.02494 z m -0.274999,0.174998 c 0.02475,0 0.04879,-0.01021 0.07492,0 -0.06683,0.05676 -0.158645,0.08869 -0.275009,0.125001 -0.05521,0.0174 -0.139812,0.03604 -0.149989,-0.02494 -0.01171,-0.07564 0.05049,-0.06785 0.1,-0.07496 0.064,-0.008 0.17582,-0.02354 0.24999,-0.02494 z m 9.474973,0 c -0.048,0.016 -0.07122,0.111922 0,0.125001 0.0334,-0.02029 0.0338,-0.0639 0.02492,-0.125001 -0.01884,-0.02029 -0.01042,-0.0061 -0.02492,0 z m -0.02492,0.199999 c -0.02322,0.008 -0.0504,-0.0016 -0.07492,0.02494 0.002,0.08138 0.016,0.128753 0,0.2 0.0466,0.09019 0.151733,0.03605 0.175005,-0.02494 0.02771,-0.151229 -0.03012,-0.218908 -0.1,-0.2 z m 0.625008,0.399999 c -0.064,-0.0037 -0.112188,0.01981 -0.150008,0.05002 0.05379,0.08723 0.15428,0.103186 0.275005,0.124996 0.04362,-0.032 0.02961,-0.119739 0.05004,-0.175 -0.05238,0 -0.086,0.0037 -0.150001,0 z m -12.699967,3.074995 c 0.0511,0.06506 0.106313,0.141008 0.174991,0.174999 0.03636,0.01886 0.0785,0.0149 0.125009,0.02494 0.03779,0.008 0.06363,0.0384 0.1,0.05004 0.07715,0.02621 0.18891,0.0224 0.249992,0.05004 0.09311,0.04078 0.144997,0.20347 0.224997,0.250007 0.0043,0.0466 -0.0146,0.09014 0,0.125 0.03779,0.05084 0.113904,0.06653 0.175,0.1 0.07421,0.04075 0.105199,0.143007 0.175006,0.174999 0.02473,0.01021 0.06212,-0.01163 0.1,0 0.09599,0.02917 0.117098,0.17471 0.199998,0.14999 0.05379,-0.016 0.06636,-0.09765 0.07491,-0.14999 0.03638,-0.03925 0.06819,-0.1 0.125006,-0.1 0.0902,-0.002 0.116543,0.111305 0.149994,0.2 0.01883,0.0494 0.06189,0.09766 0.07492,0.14999 0.02179,0.09019 0.01884,0.346207 0,0.399999 -0.02325,0.06683 -0.119731,0.1023 -0.174992,0.175008 -0.02621,0.03484 -0.05476,0.07676 -0.07491,0.1 -0.03483,0.04363 -0.0738,0.06076 -0.1,0.1 -0.0146,0.02179 -0.01191,0.06948 -0.02489,0.1 -0.04371,0.09307 -0.111385,0.16303 -0.07492,0.274998 0.0146,0.04516 0.07492,0.09622 0.07492,0.149992 0,0.064 -0.13981,0.08026 -0.149999,0.150007 -0.008,0.05083 0.059,0.156656 0.07491,0.225 0.01162,0.05084 0.09446,0.09157 0.125005,0.124992 0.05083,0.05678 0.103449,0.127304 0.149992,0.2 0.09165,0.141047 0.134844,0.311863 0.225002,0.450007 0.048,0.07125 0.142997,0.124387 0.174997,0.199999 0.016,0.03779 -0.0146,0.115108 0,0.149991 0.05229,0.117786 0.307192,0.241848 0.425001,0.299999 0.05527,0.02771 0.09911,0.04584 0.150002,0.07496 0.07717,0.04371 0.235732,0.131663 0.275001,0.199999 0.03483,0.06116 0.0576,0.202582 0.07491,0.3 0.02179,0.127954 -0.0061,0.236851 0,0.374993 0.0043,0.07564 0.0249,0.124389 0.0249,0.2 0,0.02621 0.002,0.07387 0,0.1 -0.002,0.09019 0.008,0.183403 0,0.274999 -0.0043,0.0494 -0.0037,0.107833 0,0.150003 0.0042,0.04515 0.04717,0.06074 0.05003,0.1 0.0037,0.04221 -0.0544,0.09158 -0.05003,0.125002 0.01021,0.09163 0.107548,0.165655 0.125005,0.249992 0.0146,0.06683 0.0337,0.220029 0.02489,0.299999 -0.0061,0.04221 -0.0191,0.103472 -0.02489,0.150007 -0.0042,0.03638 0.0061,0.06652 0,0.1 -1.993319,-1.280434 -3.324952,-3.504831 -3.324952,-6.049988 0,-0.326297 0.03291,-0.635204 0.07493,-0.949991 z m 2.749985,0.724994 c 0.06979,-0.032 0.05678,0.09128 0,0.1 -0.05379,0.008 -0.05229,-0.07525 0,-0.1 z"
     class="ColorScheme-Background"
     id="path12" />
</svg>
