<?xml version="1.0" encoding="UTF-8" standalone="no"?>
<svg
   xmlns:dc="http://purl.org/dc/elements/1.1/"
   xmlns:cc="http://creativecommons.org/ns#"
   xmlns:rdf="http://www.w3.org/1999/02/22-rdf-syntax-ns#"
   xmlns:svg="http://www.w3.org/2000/svg"
   xmlns="http://www.w3.org/2000/svg"
   xmlns:xlink="http://www.w3.org/1999/xlink"
   xmlns:sodipodi="http://sodipodi.sourceforge.net/DTD/sodipodi-0.dtd"
   xmlns:inkscape="http://www.inkscape.org/namespaces/inkscape"
   inkscape:version="1.0.1 (3bc2e813f5, 2020-09-07)"
   sodipodi:docname="user-desktop.svg"
   id="svg40"
   height="64"
   version="1.1"
   width="64">
  <metadata
     id="metadata44">
    <rdf:RDF>
      <cc:Work
         rdf:about="">
        <dc:format>image/svg+xml</dc:format>
        <dc:type
           rdf:resource="http://purl.org/dc/dcmitype/StillImage" />
      </cc:Work>
    </rdf:RDF>
  </metadata>
  <sodipodi:namedview
     inkscape:document-rotation="0"
     inkscape:current-layer="layer1"
     inkscape:window-maximized="1"
     inkscape:window-y="0"
     inkscape:window-x="0"
     inkscape:cy="22.238439"
     inkscape:cx="4.0688466"
     inkscape:zoom="6.2289233"
     showgrid="false"
     id="namedview42"
     inkscape:window-height="1007"
     inkscape:window-width="1920"
     inkscape:pageshadow="2"
     inkscape:pageopacity="0"
     guidetolerance="10"
     gridtolerance="10"
     objecttolerance="10"
     borderopacity="1"
     bordercolor="#666666"
     pagecolor="#ffffff" />
  <defs
     id="defs5455">
    <linearGradient
       inkscape:collect="always"
       id="linearGradient1029">
      <stop
         style="stop-color:#7171a8;stop-opacity:1"
         offset="0"
         id="stop1025" />
      <stop
         style="stop-color:#cccc00;stop-opacity:1"
         offset="1"
         id="stop1027" />
    </linearGradient>
    <linearGradient
       inkscape:collect="always"
       id="linearGradient1021">
      <stop
         style="stop-color:#7171a8;stop-opacity:1"
         offset="0"
         id="stop1017" />
      <stop
         style="stop-color:#99a7bc;stop-opacity:1"
         offset="1"
         id="stop1019" />
    </linearGradient>
    <linearGradient
       inkscape:collect="always"
       id="linearGradient1013">
      <stop
         style="stop-color:#00cccc;stop-opacity:1"
         offset="0"
         id="stop1009" />
      <stop
         style="stop-color:#7171a8;stop-opacity:1"
         offset="1"
         id="stop1011" />
    </linearGradient>
    <linearGradient
       inkscape:collect="always"
       xlink:href="#linearGradient1013"
       id="linearGradient1015"
       x1="385.00146"
       y1="495.60249"
       x2="448.23423"
       y2="495.60249"
       gradientUnits="userSpaceOnUse"
       gradientTransform="translate(0,-2.9)" />
    <linearGradient
       inkscape:collect="always"
       xlink:href="#linearGradient1021"
       id="linearGradient1023"
       x1="385.00146"
       y1="529.82495"
       x2="448.23422"
       y2="503.16504"
       gradientUnits="userSpaceOnUse"
       gradientTransform="matrix(1,0,0,1.2547343,0,-131.07338)" />
    <linearGradient
       inkscape:collect="always"
       xlink:href="#linearGradient1029"
       id="linearGradient1031"
       x1="385.00146"
       y1="537.38751"
       x2="448.23423"
       y2="537.38751"
       gradientUnits="userSpaceOnUse"
       gradientTransform="translate(0,2.19998)" />
  </defs>
  <g
     transform="matrix(1 0 0 1 -384.57143 -483.798)"
     id="layer1"
     inkscape:groupmode="layer"
     inkscape:label="Capa 1">
    <path
       d="m 385.00146,535.73 v 1.42364 c 0,3.4691 2.82224,6.29134 6.29083,6.29134 h 15.03394 v 0 0 0 0 h 20.58323 v 0 0 0 0 h 15.03394 c 3.46867,0 6.29083,-2.8227 6.29083,-6.29134 V 535.73 Z"
       id="path2"
       sodipodi:nodetypes="cssccccccccccsscc"
       style="fill:url(#linearGradient1031);fill-opacity:1;stroke-width:0.1235" />
    <path
       d="m 385.00146,500.26505 h 63.23277 v 33.45109 h -63.23277 z m 0,0"
       id="path4"
       style="fill:url(#linearGradient1023);fill-opacity:1;stroke-width:0.138339" />
    <path
       d="m 448.23423,496.55998 v -1.42415 c 0,-3.46859 -2.82216,-6.29083 -6.29083,-6.29083 h -50.65111 c -3.46859,0 -6.29083,2.82224 -6.29083,6.29083 v 1.4237 h 63.23277 z m 0,0"
       id="path6"
       style="fill:url(#linearGradient1015);fill-opacity:1;stroke-width:0.1235" />
    <path
       d="m 440.65718,536.667 a 0.49999986,0.49999986 0 0 0 -0.49988,0.49997 0.49999986,0.49999986 0 0 0 0.49988,0.50017 0.49999986,0.49999986 0 0 0 0.49986,-0.50017 0.49999986,0.49999986 0 0 0 -0.49986,-0.49997 z m 2.50012,0 -0.96891,0.78122 1.29679,1.60936 -1.21875,1.21894 0.89087,0.89048 1.99988,-1.99988 z m -3.25012,1.99997 a 0.75,0.75 0 0 0 -0.75,0.75 0.75,0.75 0 0 0 0.75,0.75 0.75,0.75 0 0 0 0.75,-0.75 0.75,0.75 0 0 0 -0.75,-0.75 z m 1.5,2.50003 a 0.75,0.75 0 0 0 -0.75,0.75 0.75,0.75 0 0 0 0.75,0.75 0.75,0.75 0 0 0 0.75,-0.75 0.75,0.75 0 0 0 -0.75,-0.75 z"
       id="path2994-3"
       style="color:#000000;stroke-width:3"
       inkscape:connector-curvature="0" />
  </g>
</svg>
